<svg xmlns="http://www.w3.org/2000/svg" version="1.1" xmlns:xlink="http://www.w3.org/1999/xlink" width="36" height="36"><svg width="36" height="36" viewBox="0 0 36 36" fill="none" xmlns="http://www.w3.org/2000/svg">
<g clip-path="url(#clip0_19648_2153)">
<path d="M0 5.625C0 2.5184 2.5184 0 5.625 0H30.375C33.4816 0 36 2.5184 36 5.625V30.375C36 33.4816 33.4816 36 30.375 36H5.625C2.5184 36 0 33.4816 0 30.375V5.625Z" fill="#D9D9D9"></path>
<path d="M0 5.625C0 2.5184 2.5184 0 5.625 0H30.375C33.4816 0 36 2.5184 36 5.625V30.375C36 33.4816 33.4816 36 30.375 36H5.625C2.5184 36 0 33.4816 0 30.375V5.625Z" fill="url(#paint0_linear_19648_2153)"></path>
<path d="M24.206 20.1609C23.8514 20.2317 23.4968 20.3026 23.1776 20.3734C22.823 20.4443 22.5038 20.5151 22.1492 20.6214C22.1138 20.6214 22.0783 20.6923 22.0783 20.6923C22.0428 21.0465 21.9364 21.2236 21.5818 21.3299C21.1562 21.4716 20.7662 21.6133 20.3407 21.7196C20.057 21.7904 19.7378 21.8967 19.4541 21.755C19.3831 21.7196 19.3122 21.6487 19.2768 21.6133C19.2413 21.507 19.1704 21.507 19.0994 21.507C18.6384 21.507 18.1419 21.5424 17.681 21.507C17.2908 21.4716 16.9008 21.4008 16.5816 21.1882C16.3688 21.0465 16.1916 20.834 16.0142 20.6568C15.5887 20.2672 15.234 19.8421 14.9858 19.3461C14.7021 18.8147 14.6312 18.2125 14.6667 17.6103C14.7376 16.8664 15.0567 16.2642 15.5177 15.7328C15.7305 15.4848 16.0142 15.2369 16.2625 14.9889C16.3334 14.918 16.4043 14.8118 16.4753 14.7409C16.7235 14.5284 17.0427 14.4575 17.3263 14.3867C17.8937 14.2804 18.4611 14.3158 19.064 14.3513C19.1704 14.3513 19.2058 14.3513 19.2413 14.245C19.3477 14.0324 19.5959 14.0324 19.7733 14.0324C20.1279 14.1033 20.4825 14.1741 20.8371 14.2804C21.1208 14.3513 21.4399 14.4575 21.7236 14.5992C22.0073 14.7055 22.0783 14.8826 22.0428 15.1306C22.0428 15.166 22.0783 15.2369 22.1137 15.2369C22.3265 15.3077 22.5748 15.3431 22.7875 15.414C23.2485 15.5203 23.7096 15.5911 24.206 15.6974C24.277 15.6974 24.3833 15.6974 24.4188 15.662C24.6316 15.414 25.6957 13.0051 26.1562 11.907C24.4542 9.95861 21.9364 8.71875 19.1349 8.71875C13.9928 8.71875 9.84375 12.8634 9.84375 18C9.84375 23.1366 13.9928 27.2812 19.1349 27.2812C21.9364 27.2812 24.4542 26.0414 26.1562 24.093C25.6598 22.8886 24.5607 20.4443 24.4188 20.338C24.3833 20.1609 24.3124 20.1255 24.206 20.1609Z" fill="white"></path>
</g>
<defs>
<linearGradient id="SvgjsLinearGradient1003" x1="36" y1="0" x2="0" y2="36" gradientUnits="userSpaceOnUse">
<stop stop-color="#FF5E32"></stop>
<stop offset="0.48098" stop-color="#E94B52"></stop>
<stop offset="0.735062" stop-color="#C8416F"></stop>
<stop offset="1" stop-color="#6D25AA"></stop>
</linearGradient>
<clipPath id="SvgjsClipPath1002">
<rect width="36" height="36" fill="white"></rect>
</clipPath>
</defs>
</svg><style>@media (prefers-color-scheme: light) { :root { filter: none; } }
@media (prefers-color-scheme: dark) { :root { filter: none; } }
</style></svg>