<svg width="130" height="59" viewBox="0 0 130 59" fill="none" xmlns="http://www.w3.org/2000/svg">
    <path
        d="M130 0.971839V28.7343H122.302V17.7698H114.387V28.6803H106.689V0.971839H114.387V10.8562H122.302V0.971839H130ZM21.9558 18.3639C21.4137 18.4719 20.8716 18.58 20.3837 18.688C19.8415 18.796 19.3536 18.904 18.8115 19.0661C18.7573 19.0661 18.7031 19.1741 18.7031 19.1741C18.6489 19.7142 18.4862 19.9843 17.9441 20.1463C17.2936 20.3624 16.6972 20.5784 16.0467 20.7405C15.613 20.8485 15.1251 21.0105 14.6914 20.7945C14.583 20.7405 14.4746 20.6324 14.4204 20.5784C14.3661 20.4164 14.2577 20.4164 14.1493 20.4164C13.4445 20.4164 12.6856 20.4704 11.9808 20.4164C11.3845 20.3624 10.7882 20.2544 10.3003 19.9303C9.97498 19.7142 9.70392 19.3902 9.43286 19.1201C8.78232 18.526 8.2402 17.8778 7.86072 17.1216C7.42702 16.3114 7.3186 15.3932 7.37281 14.475C7.48123 13.3407 7.96914 12.4225 8.67389 11.6123C8.99917 11.2342 9.43286 10.8562 9.81234 10.4781C9.92077 10.37 10.0292 10.208 10.1376 10.1C10.5171 9.7759 11.005 9.66788 11.4387 9.55985C12.3061 9.39781 13.1735 9.45183 14.0951 9.50584C14.2577 9.50584 14.3119 9.50584 14.3661 9.3438C14.5288 9.01972 14.9083 9.01972 15.1793 9.01972C15.7214 9.12775 16.2636 9.23578 16.8057 9.39781C17.2394 9.50584 17.7273 9.66788 18.161 9.88393C18.5947 10.046 18.7031 10.316 18.6489 10.6941C18.6489 10.7481 18.7031 10.8562 18.7573 10.8562C19.0826 10.9642 19.4621 11.0182 19.7873 11.1262C20.4921 11.2883 21.1968 11.3963 21.9558 11.5583C22.0642 11.5583 22.2269 11.5583 22.2811 11.5043C22.6063 11.1262 24.2327 7.45336 24.9374 5.77897C22.3353 2.80827 18.4862 0.917826 14.2035 0.917826C6.34279 0.755788 0 7.07527 0 14.9071C0 22.7389 6.34279 29.0584 14.2035 29.0584C18.4862 29.0584 22.3353 27.168 24.9374 24.1973C24.1785 22.3608 22.4979 18.634 22.2811 18.4719C22.2269 18.3639 22.1184 18.3099 21.9558 18.3639ZM98.1776 18.3639C97.6355 18.4719 97.0934 18.58 96.6055 18.688C96.0634 18.796 95.5755 18.904 95.0334 19.0661C94.9792 19.0661 94.9249 19.1741 94.9249 19.1741C94.8707 19.7142 94.7081 19.9843 94.166 20.1463C93.5154 20.3624 92.9191 20.5784 92.2686 20.7405C91.8349 20.8485 91.347 21.0105 90.9133 20.7945C90.8048 20.7405 90.6964 20.6324 90.6422 20.5784C90.588 20.4164 90.4796 20.4164 90.3711 20.4164C89.6664 20.4164 88.9074 20.4704 88.2027 20.4164C87.6063 20.3624 87.01 20.2544 86.5221 19.9303C86.1968 19.7142 85.9258 19.3902 85.6547 19.1201C85.0042 18.526 84.462 17.8778 84.0826 17.1216C83.6489 16.3114 83.5404 15.3932 83.5947 14.475C83.7031 13.3407 84.191 12.4225 84.8957 11.6123C85.221 11.2342 85.6547 10.8562 86.0342 10.4781C86.1426 10.37 86.251 10.208 86.3595 10.1C86.739 9.7759 87.2269 9.66788 87.6605 9.55985C88.5279 9.39781 89.3953 9.45183 90.3169 9.50584C90.4796 9.50584 90.5338 9.50584 90.588 9.3438C90.7506 9.01972 91.1301 9.01972 91.4012 9.01972C91.9433 9.12775 92.4854 9.23578 93.0275 9.39781C93.4612 9.50584 93.9491 9.66788 94.3828 9.88393C94.8165 10.046 94.9249 10.316 94.8707 10.6941C94.8707 10.7481 94.9249 10.8562 94.9791 10.8562C95.3044 10.9642 95.6839 11.0182 96.0092 11.1262C96.7139 11.2883 97.4187 11.3963 98.1776 11.5583C98.2861 11.5583 98.4487 11.5583 98.5029 11.5043C98.8282 11.1262 100.455 7.45336 101.159 5.77897C98.5571 2.80827 94.7081 0.917826 90.4254 0.917826C82.5646 0.917826 76.2218 7.23731 76.2218 15.0691C76.2218 22.901 82.5646 29.2205 90.4254 29.2205C94.7081 29.2205 98.5571 27.33 101.159 24.3593C100.4 22.5229 98.7198 18.796 98.5029 18.634C98.4487 18.3639 98.3403 18.3099 98.1776 18.3639ZM43.0442 0.59375L55.4587 27.384V28.7343H48.1943L46.568 25.3315H36.1593L34.5329 28.7343H27.2686V27.384L39.6831 0.59375H43.0442ZM41.3636 12.5846L38.653 18.796H44.0742L41.3636 12.5846ZM53.995 7.72342H60.7173V28.7343H68.1443V7.72342H74.8123V0.971839H53.995V7.72342Z"
        fill="#FE5442" />
    <path
        d="M9.72546 38.2807H14.0351V52.4305C14.0351 53.7313 13.7382 54.8824 13.1445 55.8837C12.5603 56.8757 11.7318 57.643 10.6592 58.1858C9.58659 58.7286 8.3751 59 7.02474 59C4.81245 59 3.08859 58.4525 1.85315 57.3576C0.617717 56.2533 0 54.6952 0 52.6832H4.33839C4.33839 53.6845 4.55387 54.4238 4.98484 54.9011C5.4158 55.3783 6.09577 55.617 7.02474 55.617C7.84836 55.617 8.50439 55.3409 8.99282 54.7888C9.48125 54.2366 9.72546 53.4505 9.72546 52.4305V38.2807Z"
        fill="white" />
    <path
        d="M9.72546 38.2807H14.0351V52.4305C14.0351 53.7313 13.7382 54.8824 13.1445 55.8837C12.5603 56.8757 11.7318 57.643 10.6592 58.1858C9.58659 58.7286 8.3751 59 7.02474 59C4.81245 59 3.08859 58.4525 1.85315 57.3576C0.617717 56.2533 0 54.6952 0 52.6832H4.33839C4.33839 53.6845 4.55387 54.4238 4.98484 54.9011C5.4158 55.3783 6.09577 55.617 7.02474 55.617C7.84836 55.617 8.50439 55.3409 8.99282 54.7888C9.48125 54.2366 9.72546 53.4505 9.72546 52.4305V38.2807Z"
        fill="#FE5442" fill-opacity="0.5" />
    <path
        d="M34.9082 48.9632C34.9082 50.9753 34.5443 52.7393 33.8164 54.2553C33.0886 55.7714 32.0447 56.9412 30.6848 57.7647C29.3344 58.5882 27.7829 59 26.0303 59C24.2969 59 22.7502 58.5929 21.3903 57.7787C20.0303 56.9646 18.9769 55.8041 18.2298 54.2975C17.4828 52.7814 17.1045 51.0408 17.095 49.0755V48.0648C17.095 46.0528 17.4637 44.2841 18.2011 42.7587C18.9481 41.2239 19.9968 40.0495 21.3472 39.2353C22.7071 38.4118 24.2586 38 26.0016 38C27.7446 38 29.2913 38.4118 30.6417 39.2353C32.0016 40.0495 33.0503 41.2239 33.7877 42.7587C34.5347 44.2841 34.9082 46.0481 34.9082 48.0508V48.9632ZM30.5411 48.0368C30.5411 45.8937 30.1484 44.2654 29.3631 43.1517C28.5778 42.0381 27.4573 41.4813 26.0016 41.4813C24.5555 41.4813 23.4397 42.0334 22.6544 43.1377C21.8691 44.2326 21.4717 45.8422 21.4621 47.9666V48.9632C21.4621 51.0501 21.8547 52.6691 22.6401 53.8202C23.4254 54.9713 24.5555 55.5468 26.0303 55.5468C27.4765 55.5468 28.5874 54.9947 29.3631 53.8904C30.1389 52.7767 30.5315 51.1578 30.5411 49.0334V48.0368Z"
        fill="white" />
    <path
        d="M34.9082 48.9632C34.9082 50.9753 34.5443 52.7393 33.8164 54.2553C33.0886 55.7714 32.0447 56.9412 30.6848 57.7647C29.3344 58.5882 27.7829 59 26.0303 59C24.2969 59 22.7502 58.5929 21.3903 57.7787C20.0303 56.9646 18.9769 55.8041 18.2298 54.2975C17.4828 52.7814 17.1045 51.0408 17.095 49.0755V48.0648C17.095 46.0528 17.4637 44.2841 18.2011 42.7587C18.9481 41.2239 19.9968 40.0495 21.3472 39.2353C22.7071 38.4118 24.2586 38 26.0016 38C27.7446 38 29.2913 38.4118 30.6417 39.2353C32.0016 40.0495 33.0503 41.2239 33.7877 42.7587C34.5347 44.2841 34.9082 46.0481 34.9082 48.0508V48.9632ZM30.5411 48.0368C30.5411 45.8937 30.1484 44.2654 29.3631 43.1517C28.5778 42.0381 27.4573 41.4813 26.0016 41.4813C24.5555 41.4813 23.4397 42.0334 22.6544 43.1377C21.8691 44.2326 21.4717 45.8422 21.4621 47.9666V48.9632C21.4621 51.0501 21.8547 52.6691 22.6401 53.8202C23.4254 54.9713 24.5555 55.5468 26.0303 55.5468C27.4765 55.5468 28.5874 54.9947 29.3631 53.8904C30.1389 52.7767 30.5315 51.1578 30.5411 49.0334V48.0368Z"
        fill="#FE5442" fill-opacity="0.5" />
    <path
        d="M38.0399 58.7193V38.2807H45.3663C47.9042 38.2807 49.8292 38.758 51.1413 39.7126C52.4533 40.6578 53.1093 42.0475 53.1093 43.8817C53.1093 44.883 52.846 45.7674 52.3192 46.5348C51.7925 47.2928 51.0599 47.8496 50.1213 48.2052C51.1939 48.4672 52.0367 48.996 52.6496 49.7914C53.2721 50.5869 53.5834 51.5602 53.5834 52.7112C53.5834 54.6765 52.9417 56.1644 51.6584 57.1751C50.3751 58.1858 48.5459 58.7005 46.1708 58.7193H38.0399ZM42.3496 49.8195V55.3362H46.0415C47.0567 55.3362 47.8468 55.1023 48.4118 54.6344C48.9864 54.1571 49.2737 53.502 49.2737 52.6691C49.2737 50.7975 48.2825 49.8476 46.3001 49.8195H42.3496ZM42.3496 46.8436H45.5387C47.7127 46.8061 48.7997 45.9592 48.7997 44.3028C48.7997 43.3763 48.5219 42.7119 47.9665 42.3095C47.4206 41.8977 46.5539 41.6918 45.3663 41.6918H42.3496V46.8436Z"
        fill="white" />
    <path
        d="M38.0399 58.7193V38.2807H45.3663C47.9042 38.2807 49.8292 38.758 51.1413 39.7126C52.4533 40.6578 53.1093 42.0475 53.1093 43.8817C53.1093 44.883 52.846 45.7674 52.3192 46.5348C51.7925 47.2928 51.0599 47.8496 50.1213 48.2052C51.1939 48.4672 52.0367 48.996 52.6496 49.7914C53.2721 50.5869 53.5834 51.5602 53.5834 52.7112C53.5834 54.6765 52.9417 56.1644 51.6584 57.1751C50.3751 58.1858 48.5459 58.7005 46.1708 58.7193H38.0399ZM42.3496 49.8195V55.3362H46.0415C47.0567 55.3362 47.8468 55.1023 48.4118 54.6344C48.9864 54.1571 49.2737 53.502 49.2737 52.6691C49.2737 50.7975 48.2825 49.8476 46.3001 49.8195H42.3496ZM42.3496 46.8436H45.5387C47.7127 46.8061 48.7997 45.9592 48.7997 44.3028C48.7997 43.3763 48.5219 42.7119 47.9665 42.3095C47.4206 41.8977 46.5539 41.6918 45.3663 41.6918H42.3496V46.8436Z"
        fill="#FE5442" fill-opacity="0.5" />
    <path
        d="M67.676 53.357C67.676 52.5615 67.3887 51.9532 66.814 51.5321C66.2394 51.1016 65.2051 50.6524 63.7111 50.1845C62.2171 49.7072 61.0343 49.2393 60.1628 48.7807C57.7877 47.5267 56.6002 45.8376 56.6002 43.7132C56.6002 42.609 56.9162 41.6263 57.5483 40.7654C58.1899 39.8951 59.1046 39.2166 60.2921 38.7299C61.4892 38.2433 62.83 38 64.3144 38C65.8085 38 67.1397 38.2667 68.3081 38.8001C69.4765 39.3242 70.3815 40.0682 71.0231 41.0321C71.6744 41.996 72 43.0909 72 44.3168H67.6903C67.6903 43.381 67.3887 42.6557 66.7853 42.141C66.182 41.617 65.3344 41.3549 64.2426 41.3549C63.1891 41.3549 62.3703 41.5749 61.7861 42.0147C61.2019 42.4452 60.9098 43.016 60.9098 43.7273C60.9098 44.3917 61.2498 44.9485 61.9298 45.3977C62.6193 45.8469 63.6297 46.268 64.9609 46.6611C67.4126 47.3817 69.1987 48.2754 70.3192 49.3422C71.4397 50.4091 72 51.738 72 53.3289C72 55.0976 71.3152 56.4873 69.9457 57.498C68.5762 58.4993 66.7326 59 64.415 59C62.8061 59 61.3408 58.7146 60.0192 58.1437C58.6975 57.5635 57.6872 56.7727 56.988 55.7714C56.2985 54.7701 55.9537 53.6096 55.9537 52.2901H60.2777C60.2777 54.5455 61.6568 55.6731 64.415 55.6731C65.4397 55.6731 66.2394 55.4719 66.814 55.0695C67.3887 54.6578 67.676 54.0869 67.676 53.357Z"
        fill="white" />
    <path
        d="M67.676 53.357C67.676 52.5615 67.3887 51.9532 66.814 51.5321C66.2394 51.1016 65.2051 50.6524 63.7111 50.1845C62.2171 49.7072 61.0343 49.2393 60.1628 48.7807C57.7877 47.5267 56.6002 45.8376 56.6002 43.7132C56.6002 42.609 56.9162 41.6263 57.5483 40.7654C58.1899 39.8951 59.1046 39.2166 60.2921 38.7299C61.4892 38.2433 62.83 38 64.3144 38C65.8085 38 67.1397 38.2667 68.3081 38.8001C69.4765 39.3242 70.3815 40.0682 71.0231 41.0321C71.6744 41.996 72 43.0909 72 44.3168H67.6903C67.6903 43.381 67.3887 42.6557 66.7853 42.141C66.182 41.617 65.3344 41.3549 64.2426 41.3549C63.1891 41.3549 62.3703 41.5749 61.7861 42.0147C61.2019 42.4452 60.9098 43.016 60.9098 43.7273C60.9098 44.3917 61.2498 44.9485 61.9298 45.3977C62.6193 45.8469 63.6297 46.268 64.9609 46.6611C67.4126 47.3817 69.1987 48.2754 70.3192 49.3422C71.4397 50.4091 72 51.738 72 53.3289C72 55.0976 71.3152 56.4873 69.9457 57.498C68.5762 58.4993 66.7326 59 64.415 59C62.8061 59 61.3408 58.7146 60.0192 58.1437C58.6975 57.5635 57.6872 56.7727 56.988 55.7714C56.2985 54.7701 55.9537 53.6096 55.9537 52.2901H60.2777C60.2777 54.5455 61.6568 55.6731 64.415 55.6731C65.4397 55.6731 66.2394 55.4719 66.814 55.0695C67.3887 54.6578 67.676 54.0869 67.676 53.357Z"
        fill="#FE5442" fill-opacity="0.5" />
</svg>