<?xml version="1.0" encoding="UTF-8"?>
<svg id="flag-tr" xmlns="http://www.w3.org/2000/svg" viewBox="0 0 20 20">
<g clip-path="url(#clip-flag-tr)">
                <path d="M10.0001 19.2306C15.0981 19.2306 19.2308 15.0978 19.2308 9.99981C19.2308 4.9018 15.0981 0.769043 10.0001 0.769043C4.90204 0.769043 0.769287 4.9018 0.769287 9.99981C0.769287 15.0978 4.90204 19.2306 10.0001 19.2306Z" fill="#D80027" />
                <path d="M9.62206 8.31201L10.3794 9.3557L11.606 8.95799L10.8474 10.0008L11.6047 11.0444L10.3786 10.6452L9.62004 11.688L9.62083 10.3985L8.39465 9.9993L9.62126 9.60158L9.62206 8.31201Z" fill="#F0F0F0" />
                <path d="M7.55509 12.6085C6.11437 12.6085 4.94639 11.4405 4.94639 9.99978C4.94639 8.55906 6.11437 7.39108 7.55509 7.39108C8.0043 7.39108 8.42697 7.5047 8.79598 7.70464C8.21707 7.13846 7.42536 6.78906 6.55175 6.78906C4.7785 6.78906 3.34106 8.22654 3.34106 9.99975C3.34106 11.773 4.77854 13.2104 6.55175 13.2104C7.42543 13.2104 8.21711 12.861 8.79598 12.2949C8.42697 12.4949 8.0043 12.6085 7.55509 12.6085V12.6085Z" fill="#F0F0F0" />
            </g>
            <defs>
                <clipPath id="clip-flag-tr">
                    <rect width="20" height="20" fill="white" />
                </clipPath>
            </defs>
</svg>
