<?xml version="1.0" encoding="UTF-8"?>
<svg id="flag-uk" xmlns="http://www.w3.org/2000/svg" viewBox="0 0 20 20">
<g clip-path="url(#clip-flag-uk)">
                <path d="M10.0001 19.2311C15.0981 19.2311 19.2308 15.0983 19.2308 10.0003C19.2308 4.90229 15.0981 0.769531 10.0001 0.769531C4.90204 0.769531 0.769287 4.90229 0.769287 10.0003C0.769287 15.0983 4.90204 19.2311 10.0001 19.2311Z" fill="#F0F0F0" />
                <path d="M2.67746 4.37988C1.95238 5.32326 1.40563 6.41058 1.08728 7.59179H5.88937L2.67746 4.37988Z" fill="#0052B4" />
                <path d="M18.9129 7.59176C18.5945 6.41058 18.0477 5.32326 17.3227 4.37988L14.1108 7.59176H18.9129Z" fill="#0052B4" />
                <path d="M1.08728 12.4082C1.40567 13.5894 1.95241 14.6767 2.67746 15.62L5.88926 12.4082H1.08728Z" fill="#0052B4" />
                <path d="M15.62 2.67713C14.6766 1.95205 13.5893 1.4053 12.4081 1.08691V5.88897L15.62 2.67713Z" fill="#0052B4" />
                <path d="M4.38013 17.3222C5.3235 18.0472 6.41082 18.594 7.592 18.9124V14.1104L4.38013 17.3222Z" fill="#0052B4" />
                <path d="M7.59197 1.08691C6.41079 1.4053 5.32347 1.95205 4.38013 2.67709L7.59197 5.88893V1.08691Z" fill="#0052B4" />
                <path d="M12.4081 18.9124C13.5893 18.594 14.6766 18.0472 15.6199 17.3222L12.4081 14.1104V18.9124Z" fill="#0052B4" />
                <path d="M14.1108 12.4082L17.3227 15.6201C18.0477 14.6767 18.5945 13.5894 18.9129 12.4082H14.1108Z" fill="#0052B4" />
                <path d="M19.1527 8.7963H11.2041H11.2041V0.847668C10.8099 0.796358 10.4081 0.769531 10.0001 0.769531C9.59192 0.769531 9.19016 0.796358 8.79605 0.847668V8.79623V8.79626H0.847424C0.796114 9.19041 0.769287 9.59224 0.769287 10.0003C0.769287 10.4084 0.796114 10.8102 0.847424 11.2043H8.79598H8.79602V19.1529C9.19016 19.2042 9.59192 19.2311 10.0001 19.2311C10.4081 19.2311 10.8099 19.2043 11.2041 19.1529V11.2044V11.2043H19.1527C19.204 10.8102 19.2308 10.4084 19.2308 10.0003C19.2308 9.59224 19.204 9.19041 19.1527 8.7963V8.7963Z" fill="#D80027" />
                <path d="M12.4081 12.4082L16.5272 16.5273C16.7166 16.338 16.8973 16.14 17.0698 15.9347L13.5433 12.4082H12.4081V12.4082Z" fill="#D80027" />
                <path d="M7.59202 12.4082H7.59195L3.4729 16.5273C3.66228 16.7167 3.86027 16.8974 4.06551 17.0698L7.59202 13.5433V12.4082Z" fill="#D80027" />
                <path d="M7.59198 7.59185V7.59178L3.47289 3.47266C3.28345 3.66203 3.10273 3.86002 2.9303 4.06526L6.45685 7.59181H7.59198V7.59185Z" fill="#D80027" />
                <path d="M12.4081 7.59238L16.5272 3.47322C16.3378 3.28378 16.1398 3.10306 15.9346 2.93066L12.4081 6.45721V7.59238Z" fill="#D80027" />
            </g>
            <defs>
                <clipPath id="clip-flag-uk">
                    <rect width="20" height="20" fill="white" />
                </clipPath>
            </defs>
</svg>
