<?xml version="1.0" encoding="UTF-8"?>
<svg id="flag-de" xmlns="http://www.w3.org/2000/svg" viewBox="0 0 20 20">
<g clip-path="url(#clip-flag-de)">
                <path d="M1.34338 13.2108C2.64763 16.7259 6.0311 19.2309 10 19.2309C13.9689 19.2309 17.3524 16.7259 18.6566 13.2108L10 12.4082L1.34338 13.2108Z" fill="#FFDA44" />
                <path d="M10 0.769531C6.0311 0.769531 2.64763 3.27453 1.34338 6.78962L10 7.59226L18.6566 6.78958C17.3524 3.27453 13.9689 0.769531 10 0.769531Z" fill="black" />
                <path d="M1.34343 6.78906C0.9724 7.78905 0.769287 8.87064 0.769287 9.99975C0.769287 11.1289 0.9724 12.2104 1.34343 13.2104H18.6567C19.0277 12.2104 19.2308 11.1289 19.2308 9.99975C19.2308 8.87064 19.0277 7.78905 18.6567 6.78906H1.34343Z" fill="#D80027" />
            </g>
            <defs>
                <clipPath id="clip-flag-de">
                    <rect width="20" height="20" fill="white" />
                </clipPath>
            </defs>
</svg>
