<?xml version="1.0" encoding="UTF-8"?>
<svg id="icon-email-personal" xmlns="http://www.w3.org/2000/svg" viewBox="0 0 24 24">
<path d="M19.1064 5.42723C17.6031 3.7866 15.3812 2.91895 12.6803 2.91895C10.2897 2.91895 7.96046 3.84707 6.12624 5.5327C4.29202 7.21832 3.16702 9.4627 2.95609 11.8529C2.74281 14.2749 3.49093 16.5539 5.06265 18.27C6.62687 19.9782 8.81593 20.9189 11.2262 20.9189C12.7506 20.9189 13.7392 20.8083 15.2331 20.1807L15.9245 19.89L15.3433 18.5072L14.6519 18.7969C13.3792 19.3313 12.5997 19.418 11.2262 19.418C9.24156 19.418 7.44577 18.6502 6.1689 17.2561C4.88452 15.8536 4.27421 13.9814 4.45046 11.9836C4.81796 7.81176 8.50984 4.41801 12.6803 4.41801C14.9491 4.41801 16.7889 5.11691 18.0001 6.43973C19.1537 7.69926 19.6689 9.43598 19.4903 11.4624C19.3361 13.2132 18.6578 14.0752 18.1159 14.4905C17.6003 14.8861 17.0847 14.9677 16.8034 14.9175C15.9747 14.7708 15.5439 13.9585 15.6508 12.7477L16.1162 7.6327L14.6205 7.50004L14.5267 8.54488C14.177 8.18698 13.759 7.90298 13.2974 7.70973C12.8359 7.51648 12.3402 7.41791 11.8398 7.41988C10.7242 7.41988 9.65827 7.89191 8.83984 8.74973C8.05374 9.57145 7.56343 10.6739 7.45937 11.8538C7.34452 13.1602 7.7289 14.401 8.51452 15.2588C8.85255 15.6286 9.26465 15.9232 9.72403 16.1232C10.1834 16.3233 10.6798 16.4243 11.1808 16.4199C11.8158 16.4269 12.4447 16.295 13.0235 16.0336C13.6022 15.7722 14.1169 15.3874 14.5314 14.9063C14.7286 15.2931 15.0127 15.629 15.3614 15.8877C15.7101 16.1464 16.114 16.3209 16.5414 16.3974C17.3331 16.538 18.2631 16.2713 19.0295 15.6844C20.4447 14.6002 20.8745 12.863 20.9861 11.5969C21.198 9.17348 20.5314 6.98441 19.1064 5.42723ZM13.1842 14.146C12.6385 14.6506 11.9207 14.9278 11.1775 14.9208C10.8845 14.9259 10.5938 14.8684 10.3247 14.7522C10.0557 14.6359 9.8146 14.4636 9.61749 14.2468C9.11546 13.6983 8.87218 12.8747 8.95046 11.9864C9.10187 10.2671 10.3703 8.92082 11.8384 8.92082C12.1551 8.91955 12.4685 8.98492 12.7583 9.11268C13.048 9.24043 13.3077 9.42773 13.5203 9.66238C14.0298 10.2188 14.2797 11.0157 14.2061 11.8529C14.1226 12.8035 13.7687 13.5938 13.1842 14.1441V14.146Z\" fill="#50536B" />
</svg>
