<?xml version="1.0" encoding="UTF-8"?>
<svg id="icon-linkedin" xmlns="http://www.w3.org/2000/svg" viewBox="0 0 24 24">
<path d="M17.8896 17.8919H15.4119V14.0094C15.4119 13.0836 15.3931 11.8922 14.1208 11.8922C12.829 11.8922 12.6317 12.8996 12.6317 13.9411V17.8919H10.154V9.90813H12.5341V10.9963H12.5662C12.8987 10.3689 13.7074 9.70665 14.9155 9.70665C17.426 9.70665 17.8903 11.3589 17.8903 13.5096L17.8896 17.8919ZM7.35569 8.8157C6.55816 8.8157 5.91748 8.17014 5.91748 7.37608C5.91748 6.58273 6.55885 5.93787 7.35569 5.93787C8.15044 5.93787 8.79461 6.58273 8.79461 7.37608C8.79461 8.17014 8.14975 8.8157 7.35569 8.8157ZM8.59801 17.8919H6.11337V9.90813H8.59801V17.8919ZM19.1291 3.63379H4.86966C4.18715 3.63379 3.63501 4.17338 3.63501 4.83916V19.16C3.63501 19.8264 4.18715 20.3654 4.86966 20.3654H19.1271C19.8089 20.3654 20.3666 19.8264 20.3666 19.16V4.83916C20.3666 4.17338 19.8089 3.63379 19.1271 3.63379H19.1291Z" fill="#696F89" />
</svg>
