<?xml version="1.0" encoding="UTF-8"?>
<svg id="icon-search" xmlns="http://www.w3.org/2000/svg" viewBox="0 0 20 20">
<path d="M14.9622 13.4557L17.6977 16.1912L16.6022 17.2866L13.8668 14.5511C12.6739 15.5055 11.1612 16.0763 9.51592 16.0763C5.66766 16.0763 2.54443 12.9531 2.54443 9.10485C2.54443 5.25659 5.66766 2.13336 9.51592 2.13336C13.3642 2.13336 16.4874 5.25659 16.4874 9.10485C16.4874 10.7501 15.9165 12.2629 14.9622 13.4557ZM13.4081 12.8809C14.3553 11.9048 14.9382 10.5732 14.9382 9.10485C14.9382 6.10905 12.5117 3.68258 9.51592 3.68258C6.52012 3.68258 4.09365 6.10905 4.09365 9.10485C4.09365 12.1007 6.52012 14.5271 9.51592 14.5271C10.9843 14.5271 12.3158 13.9442 13.292 12.997L13.4081 12.8809Z" fill="#83889E" />
</svg>
