<?xml version="1.0" encoding="UTF-8"?>
<svg id="icon-user" xmlns="http://www.w3.org/2000/svg" viewBox="0 0 20 20">
<path d="M10 2.25391C14.278 2.25391 17.7461 5.72195 17.7461 10C17.7461 14.278 14.278 17.7461 10 17.7461C5.72195 17.7461 2.25391 14.278 2.25391 10C2.25391 5.72195 5.72195 2.25391 10 2.25391ZM10.1237 13.0984C8.54707 13.0984 7.12761 13.7714 6.13684 14.8457C7.19622 15.6914 8.53909 16.1969 10 16.1969C11.5256 16.1969 12.9224 15.6456 14.0021 14.7314C13.0176 13.7239 11.6437 13.0984 10.1237 13.0984ZM10 3.80313C6.57756 3.80313 3.80313 6.57756 3.80313 10C3.80313 11.4025 4.26905 12.6962 5.05456 13.7347C6.32556 12.389 8.12657 11.5492 10.1237 11.5492C12.0482 11.5492 13.7904 12.329 15.0519 13.5897C15.7729 12.5769 16.1969 11.338 16.1969 10C16.1969 6.57756 13.4225 3.80313 10 3.80313ZM10 4.57774C11.7112 4.57774 13.0984 5.96496 13.0984 7.67618C13.0984 9.38737 11.7112 10.7746 10 10.7746C8.28879 10.7746 6.90157 9.38737 6.90157 7.67618C6.90157 5.96496 8.28879 4.57774 10 4.57774ZM10 6.12696C9.14437 6.12696 8.45079 6.82057 8.45079 7.67618C8.45079 8.53181 9.14437 9.2254 10 9.2254C10.8556 9.2254 11.5492 8.53181 11.5492 7.67618C11.5492 6.82057 10.8556 6.12696 10 6.12696Z" fill="#83889E" />
</svg>
