<?xml version="1.0" encoding="UTF-8"?>
<svg id="icon-instagram" xmlns="http://www.w3.org/2000/svg" viewBox="0 0 24 24">
<path d="M12.0009 9.2118C10.4603 9.2118 9.21229 10.4603 9.21229 12.0004C9.21229 13.5409 10.4608 14.789 12.0009 14.789C13.5414 14.789 14.7895 13.5405 14.7895 12.0004C14.7895 10.4599 13.541 9.2118 12.0009 9.2118ZM12.0009 7.35274C14.5668 7.35274 16.6486 9.4322 16.6486 12.0004C16.6486 14.5664 14.5691 16.6481 12.0009 16.6481C9.43494 16.6481 7.35323 14.5686 7.35323 12.0004C7.35323 9.43445 9.43268 7.35274 12.0009 7.35274ZM18.0429 7.11957C18.0429 7.76104 17.5216 8.2815 16.8809 8.2815C16.2395 8.2815 15.719 7.76025 15.719 7.11957C15.719 6.47889 16.2402 5.95844 16.8809 5.95844C17.5207 5.95763 18.0429 6.47889 18.0429 7.11957ZM12.0009 4.56414C9.70078 4.56414 9.32588 4.57023 8.25607 4.61787C7.52721 4.65209 7.03863 4.75011 6.58467 4.92635C6.18125 5.08281 5.89025 5.26964 5.58018 5.5797C5.26893 5.89096 5.08244 6.18118 4.92661 6.58479C4.74996 7.03978 4.65196 7.52759 4.61836 8.25545C4.57025 9.2817 4.56463 9.64036 4.56463 12.0004C4.56463 14.3005 4.57072 14.6754 4.61835 15.7451C4.65258 16.4737 4.75074 16.963 4.92655 17.4159C5.08342 17.8198 5.27063 18.1115 5.5792 18.4201C5.89168 18.7322 6.18277 18.9193 6.58254 19.0736C7.04203 19.2512 7.5303 19.3494 8.25593 19.3829C9.28219 19.431 9.64085 19.4367 12.0009 19.4367C14.301 19.4367 14.6759 19.4305 15.7456 19.3829C16.4726 19.3488 16.9623 19.2504 17.4164 19.0747C17.8192 18.9183 18.1118 18.7304 18.4206 18.4221C18.7331 18.1091 18.9199 17.8187 19.0744 17.418C19.2515 16.9602 19.3499 16.4713 19.3834 15.7454C19.4315 14.7191 19.4372 14.3604 19.4372 12.0004C19.4372 9.70029 19.431 9.3254 19.3834 8.25566C19.3492 7.52848 19.2508 7.03808 19.0749 6.58418C18.9189 6.18188 18.7314 5.88998 18.4216 5.5797C18.1098 5.26794 17.8203 5.08183 17.4165 4.92612C16.9618 4.74962 16.4733 4.65148 15.7458 4.61788C14.7196 4.56977 14.3609 4.56414 12.0009 4.56414ZM12.0009 2.70508C14.5261 2.70508 14.8414 2.71437 15.8329 2.76085C16.822 2.80656 17.4968 2.96302 18.0893 3.19308C18.702 3.42934 19.2195 3.74848 19.7361 4.26514C20.252 4.78181 20.5712 5.3008 20.8082 5.91196C21.0374 6.50377 21.194 7.17922 21.2405 8.1684C21.2846 9.15991 21.2962 9.47517 21.2962 12.0004C21.2962 14.5257 21.2869 14.8409 21.2405 15.8324C21.1947 16.8216 21.0374 17.4963 20.8082 18.0888C20.5719 18.7016 20.252 19.219 19.7361 19.7357C19.2195 20.2516 18.6997 20.5707 18.0893 20.8077C17.4968 21.037 16.822 21.1935 15.8329 21.24C14.8414 21.2841 14.5261 21.2957 12.0009 21.2957C9.47566 21.2957 9.16039 21.2864 8.16889 21.24C7.17971 21.1942 6.5058 21.037 5.91245 20.8077C5.3005 20.5714 4.78229 20.2516 4.26563 19.7357C3.74897 19.219 3.4306 18.6993 3.19357 18.0888C2.96351 17.4963 2.80782 16.8216 2.76134 15.8324C2.71719 14.8409 2.70557 14.5257 2.70557 12.0004C2.70557 9.47517 2.71486 9.15991 2.76134 8.1684C2.80703 7.17845 2.96351 6.50454 3.19357 5.91196C3.42982 5.30002 3.74897 4.78181 4.26563 4.26514C4.78229 3.74848 5.30128 3.43011 5.91245 3.19308C6.50503 2.96302 7.17894 2.80733 8.16889 2.76085C9.16039 2.7167 9.47566 2.70508 12.0009 2.70508Z" fill="#696F89" />
</svg>
