<?xml version="1.0" encoding="UTF-8"?>
<svg id="icon-pause" xmlns="http://www.w3.org/2000/svg" viewBox="0 0 29 29">
<path fill-rule="evenodd" clip-rule="evenodd" d="M28.8 14.4C28.8 18.2191 27.2829 21.8818 24.5823 24.5823C21.8818 27.2829 18.2191 28.8 14.4 28.8C10.5809 28.8 6.91819 27.2829 4.21766 24.5823C1.51714 21.8818 0 18.2191 0 14.4C0 10.5809 1.51714 6.91819 4.21766 4.21766C6.91819 1.51714 10.5809 0 14.4 0C18.2191 0 21.8818 1.51714 24.5823 4.21766C27.2829 6.91819 28.8 10.5809 28.8 14.4ZM9 10.8C9 10.3226 9.18964 9.86477 9.52721 9.52721C9.86477 9.18964 10.3226 9 10.8 9C11.2774 9 11.7352 9.18964 12.0728 9.52721C12.4104 9.86477 12.6 10.3226 12.6 10.8V18C12.6 18.4774 12.4104 18.9352 12.0728 19.2728C11.7352 19.6104 11.2774 19.8 10.8 19.8C10.3226 19.8 9.86477 19.6104 9.52721 19.2728C9.18964 18.9352 9 18.4774 9 18V10.8ZM18 9C17.5226 9 17.0648 9.18964 16.7272 9.52721C16.3896 9.86477 16.2 10.3226 16.2 10.8V18C16.2 18.4774 16.3896 18.9352 16.7272 19.2728C17.0648 19.6104 17.5226 19.8 18 19.8C18.4774 19.8 18.9352 19.6104 19.2728 19.2728C19.6104 18.9352 19.8 18.4774 19.8 18V10.8C19.8 10.3226 19.6104 9.86477 19.2728 9.52721C18.9352 9.18964 18.4774 9 18 9Z" fill="white" />
</svg>
