<svg xmlns="http://www.w3.org/2000/svg" style="display:none">
<symbol id="icon-arrow-right" viewBox="0 0 16 16">
            <path d="M9.30959 8.0035L5.98596 4.68003L6.93557 3.73047L11.2089 8.0035L6.93557 12.2765L5.98596 11.3269L9.30959 8.0035Z" fill="#323345" />
        </symbol>
        <symbol id="icon-arrow-top-right" viewBox="0 0 20 20">
            <path d="M13.1013 7.99722L6.43457 14.664L5.33911 13.5685L12.0059 6.90176H6.12985V5.35254H14.6505V13.8732H13.1013V7.99722Z" fill="white" />
        </symbol>
        <symbol id="icon-arrow-top-right-dark" viewBox="0 0 24 24">
            <path d="M15.7216 9.59647L7.72154 17.5966L6.40698 16.282L14.4071 8.28192H7.35587V6.42285H17.5807V16.6477H15.7216V9.59647Z" fill="#3D4054" />
        </symbol>
        <symbol id="icon-apple" viewBox="0 0 32 32">
            <g fill="rgba(255, 255, 255, 1)">
                <path d="M19.61,4.808c1.035-1.294,1.737-3.032,1.552-4.808-1.515,.075-3.363,.999-4.433,2.295-.961,1.109-1.811,2.92-1.59,4.621,1.7,.147,3.399-.85,4.471-2.108" />
                <path d="M21.143,7.248c-2.469-.147-4.569,1.401-5.748,1.401s-2.986-1.327-4.939-1.292c-2.542,.037-4.901,1.475-6.191,3.761-2.653,4.573-.7,11.357,1.88,15.081,1.253,1.843,2.763,3.872,4.753,3.799,1.88-.074,2.617-1.217,4.902-1.217s2.947,1.217,4.937,1.18c2.064-.037,3.354-1.844,4.607-3.688,1.437-2.101,2.026-4.129,2.063-4.24-.037-.037-3.98-1.549-4.016-6.084-.037-3.797,3.095-5.603,3.243-5.716-1.769-2.616-4.533-2.911-5.491-2.985" />
            </g>
        </symbol>
        <symbol id="icon-google-play" viewBox="0 0 20 20">
            <mask id="mask0_google_play" style="mask-type:alpha" maskUnits="userSpaceOnUse" x="4" y="1" width="16" height="18">
                <path d="M18.7802 9.00026C19.5733 9.43664 19.5733 10.5634 18.7802 10.9997L6.09767 17.9787C5.32532 18.4037 4.375 17.8521 4.375 16.9789L4.375 3.02109C4.375 2.14786 5.32532 1.59634 6.09767 2.02134L18.7802 9.00026Z" fill="#C4C4C4" />
            </mask>
            <g mask="url(#mask0_google_play)">
                <path d="M4.7717 17.8414L12.6827 9.88595L4.90199 2.06152C4.59158 2.26051 4.375 2.60407 4.375 3.02094V16.9788C4.375 17.3344 4.53265 17.6367 4.7717 17.8414Z" fill="url(#paint0_linear_google_play)" />
                <path d="M18.7803 9.00016C19.5733 9.43654 19.5733 10.5633 18.7803 10.9996L15.5807 12.7603L12.6827 9.88595L15.4329 7.1582L18.7803 9.00016Z" fill="url(#paint1_linear_google_play)" />
                <path d="M15.5807 12.7601L12.6827 9.88574L4.77173 17.8412C5.11962 18.1391 5.63993 18.2303 6.09772 17.9784L15.5807 12.7601Z" fill="url(#paint2_linear_google_play)" />
                <path d="M4.90198 2.06166L12.6827 9.88607L15.4329 7.1583L6.09764 2.02134C5.69401 1.79924 5.24178 1.84383 4.90198 2.06166Z" fill="url(#paint3_linear_google_play)" />
            </g>
            <defs>
                <linearGradient id="paint0_linear_google_play" x1="9.79808" y1="6.79599" x2="4.41941" y2="12.2189" gradientUnits="userSpaceOnUse">
                    <stop stop-color="#00C3FF" />
                    <stop offset="1" stop-color="#1BE2FA" />
                </linearGradient>
                <linearGradient id="paint1_linear_google_play" x1="12.6827" y1="9.88597" x2="19.8366" y2="9.88597" gradientUnits="userSpaceOnUse">
                    <stop stop-color="#FFCE00" />
                    <stop offset="1" stop-color="#FFEA00" />
                </linearGradient>
                <linearGradient id="paint2_linear_google_play" x1="4.60583" y1="18.8123" x2="14.1219" y2="11.1831" gradientUnits="userSpaceOnUse">
                    <stop stop-color="#DE2453" />
                    <stop offset="1" stop-color="#FE3944" />
                </linearGradient>
                <linearGradient id="paint3_linear_google_play" x1="5.06727" y1="1.18836" x2="14.1234" y2="8.58529" gradientUnits="userSpaceOnUse">
                    <stop stop-color="#11D574" />
                    <stop offset="1" stop-color="#01F176" />
                </linearGradient>
            </defs>
        </symbol>
        <symbol id="icon-hospitality" viewBox="0 0 24 24">
            <path d="M8.5 14C9.88071 14 11 12.8807 11 11.5C11 10.1193 9.88071 9 8.5 9C7.11929 9 6 10.1193 6 11.5C6 12.8807 7.11929 14 8.5 14Z" stroke="#FF5442" stroke-width="2" stroke-linecap="round" stroke-linejoin="round" fill="none" />
            <path d="M3 22V19C3 17.9391 3.42143 16.9217 4.17157 16.1716C4.92172 15.4214 5.93913 15 7 15H10C11.0609 15 12.0783 15.4214 12.8284 16.1716C13.5786 16.9217 14 17.9391 14 19V22" stroke="#FF5442" stroke-width="2" stroke-linecap="round" stroke-linejoin="round" fill="none" />
            <path d="M16 3H21M16 8H21M16 13H18" stroke="#FF5442" stroke-width="2" stroke-linecap="round" stroke-linejoin="round" />
        </symbol>
        <symbol id="icon-location" viewBox="0 0 24 24">
            <path d="M12 2C8.13 2 5 5.13 5 9c0 5.25 7 13 7 13s7-7.75 7-13c0-3.87-3.13-7-7-7zm0 9.5c-1.38 0-2.5-1.12-2.5-2.5s1.12-2.5 2.5-2.5 2.5 1.12 2.5 2.5-1.12 2.5-2.5 2.5z" stroke="#FF5442" stroke-width="2" stroke-linecap="round" stroke-linejoin="round" fill="none" />
        </symbol>
        <symbol id="icon-minus" viewBox="0 0 24 24">
            <path d="M7.26136 11.3229H16.7383V12.6768H7.26136V11.3229Z" fill="#3D4054" />
        </symbol>
        <symbol id="icon-plus" viewBox="0 0 24 24">
            <path d="M16.7384 11.3232V12.6771L7.26147 12.6771V11.3232L16.7384 11.3232Z" fill="#696F89" />
            <path d="M11.323 7.26136H12.6768L12.6768 16.7383H11.323L11.323 7.26136Z" fill="#696F89" />
        </symbol>
        <symbol id="icon-plus-stroke" viewBox="0 0 20 20">
            <path d="M10 4V16M4 10H16" stroke="currentColor" stroke-width="2" stroke-linecap="round" />
        </symbol>
        <symbol id="icon-play" viewBox="0 0 26 26">
            <path d="M6.92212 21.3026V4.6982C6.92212 3.90257 7.79729 3.4175 8.47199 3.83919L21.7555 12.1414C22.3903 12.5381 22.3903 13.4627 21.7555 13.8594L8.47199 22.1616C7.79729 22.5833 6.92212 22.0983 6.92212 21.3026Z" fill="white" />
        </symbol>
        <symbol id="icon-video" viewBox="0 0 24 24">
            <path d="M5 5.00019V19.0002C5.00229 19.3265 5.08438 19.6473 5.23913 19.9346C5.39387 20.2219 5.61656 20.4669 5.88776 20.6484C6.15897 20.8299 6.47046 20.9422 6.79506 20.9756C7.11965 21.0091 7.4475 20.9626 7.75 20.8402L20 13.7402C20.3126 13.5672 20.5732 13.3137 20.7546 13.0059C20.9361 12.6982 21.0318 12.3474 21.0318 11.9902C21.0318 11.6329 20.9361 11.2822 20.7546 10.9744C20.5732 10.6667 20.3126 10.4131 20 10.2402L7.75 3.14019C7.45442 3.02013 7.13442 2.97252 6.81669 3.00134C6.49897 3.03016 6.19275 3.13456 5.9236 3.30584C5.65444 3.47712 5.43017 3.7103 5.2695 3.98592C5.10883 4.26153 5.01643 4.57158 5 4.89019" stroke="#FF5442" stroke-width="2" stroke-linecap="round" stroke-linejoin="round" />
        </symbol>
        <symbol id="icon-pause" viewBox="0 0 29 29">
            <path fill-rule="evenodd" clip-rule="evenodd" d="M28.8 14.4C28.8 18.2191 27.2829 21.8818 24.5823 24.5823C21.8818 27.2829 18.2191 28.8 14.4 28.8C10.5809 28.8 6.91819 27.2829 4.21766 24.5823C1.51714 21.8818 0 18.2191 0 14.4C0 10.5809 1.51714 6.91819 4.21766 4.21766C6.91819 1.51714 10.5809 0 14.4 0C18.2191 0 21.8818 1.51714 24.5823 4.21766C27.2829 6.91819 28.8 10.5809 28.8 14.4ZM9 10.8C9 10.3226 9.18964 9.86477 9.52721 9.52721C9.86477 9.18964 10.3226 9 10.8 9C11.2774 9 11.7352 9.18964 12.0728 9.52721C12.4104 9.86477 12.6 10.3226 12.6 10.8V18C12.6 18.4774 12.4104 18.9352 12.0728 19.2728C11.7352 19.6104 11.2774 19.8 10.8 19.8C10.3226 19.8 9.86477 19.6104 9.52721 19.2728C9.18964 18.9352 9 18.4774 9 18V10.8ZM18 9C17.5226 9 17.0648 9.18964 16.7272 9.52721C16.3896 9.86477 16.2 10.3226 16.2 10.8V18C16.2 18.4774 16.3896 18.9352 16.7272 19.2728C17.0648 19.6104 17.5226 19.8 18 19.8C18.4774 19.8 18.9352 19.6104 19.2728 19.2728C19.6104 18.9352 19.8 18.4774 19.8 18V10.8C19.8 10.3226 19.6104 9.86477 19.2728 9.52721C18.9352 9.18964 18.4774 9 18 9Z" fill="white" />
        </symbol>
        <symbol id="icon-search" viewBox="0 0 20 20">
            <path d="M14.9622 13.4557L17.6977 16.1912L16.6022 17.2866L13.8668 14.5511C12.6739 15.5055 11.1612 16.0763 9.51592 16.0763C5.66766 16.0763 2.54443 12.9531 2.54443 9.10485C2.54443 5.25659 5.66766 2.13336 9.51592 2.13336C13.3642 2.13336 16.4874 5.25659 16.4874 9.10485C16.4874 10.7501 15.9165 12.2629 14.9622 13.4557ZM13.4081 12.8809C14.3553 11.9048 14.9382 10.5732 14.9382 9.10485C14.9382 6.10905 12.5117 3.68258 9.51592 3.68258C6.52012 3.68258 4.09365 6.10905 4.09365 9.10485C4.09365 12.1007 6.52012 14.5271 9.51592 14.5271C10.9843 14.5271 12.3158 13.9442 13.292 12.997L13.4081 12.8809Z" fill="#83889E" />
        </symbol>
        <symbol id="icon-clear" viewBox="0 0 20 20">
            <path d="M10.0006 8.80575L14.1832 4.62305L15.3783 5.8181L11.1956 10.0008L15.3783 14.1834L14.1832 15.3785L10.0006 11.1958L5.81788 15.3785L4.62283 14.1834L8.80554 10.0008L4.62283 5.8181L5.81788 4.62305L10.0006 8.80575Z" fill="#83889E" />
        </symbol>
        <symbol id="icon-alert" viewBox="0 0 20 20">
            <path d="M10 17.7461C5.72195 17.7461 2.25391 14.278 2.25391 10C2.25391 5.72195 5.72195 2.25391 10 2.25391C14.278 2.25391 17.7461 5.72195 17.7461 10C17.7461 14.278 14.278 17.7461 10 17.7461ZM9.2254 12.3238V13.8731H10.7746V12.3238H9.2254ZM9.2254 6.12696V10.7746H10.7746V6.12696H9.2254Z" fill="#FCA331" />
        </symbol>
        <symbol id="icon-user" viewBox="0 0 20 20">
            <path d="M10 2.25391C14.278 2.25391 17.7461 5.72195 17.7461 10C17.7461 14.278 14.278 17.7461 10 17.7461C5.72195 17.7461 2.25391 14.278 2.25391 10C2.25391 5.72195 5.72195 2.25391 10 2.25391ZM10.1237 13.0984C8.54707 13.0984 7.12761 13.7714 6.13684 14.8457C7.19622 15.6914 8.53909 16.1969 10 16.1969C11.5256 16.1969 12.9224 15.6456 14.0021 14.7314C13.0176 13.7239 11.6437 13.0984 10.1237 13.0984ZM10 3.80313C6.57756 3.80313 3.80313 6.57756 3.80313 10C3.80313 11.4025 4.26905 12.6962 5.05456 13.7347C6.32556 12.389 8.12657 11.5492 10.1237 11.5492C12.0482 11.5492 13.7904 12.329 15.0519 13.5897C15.7729 12.5769 16.1969 11.338 16.1969 10C16.1969 6.57756 13.4225 3.80313 10 3.80313ZM10 4.57774C11.7112 4.57774 13.0984 5.96496 13.0984 7.67618C13.0984 9.38737 11.7112 10.7746 10 10.7746C8.28879 10.7746 6.90157 9.38737 6.90157 7.67618C6.90157 5.96496 8.28879 4.57774 10 4.57774ZM10 6.12696C9.14437 6.12696 8.45079 6.82057 8.45079 7.67618C8.45079 8.53181 9.14437 9.2254 10 9.2254C10.8556 9.2254 11.5492 8.53181 11.5492 7.67618C11.5492 6.82057 10.8556 6.12696 10 6.12696Z" fill="#83889E" />
        </symbol>
        <symbol id="icon-mail" viewBox="0 0 20 20">
            <path d="M3.02852 3.8031H16.9715C17.3993 3.8031 17.7461 4.14991 17.7461 4.57771V15.4222C17.7461 15.8501 17.3993 16.1969 16.9715 16.1969H3.02852C2.60071 16.1969 2.25391 15.8501 2.25391 15.4222V4.57771C2.25391 4.14991 2.60071 3.8031 3.02852 3.8031ZM16.1969 7.08584L10.0556 12.5856L3.80313 7.06881V14.6476H16.1969V7.08584ZM4.19931 5.35232L10.048 10.5128L15.8104 5.35232H4.19931Z" fill="#83889E" />
        </symbol>
        <symbol id="icon-email-personal" viewBox="0 0 24 24">
            <path d="M19.1064 5.42723C17.6031 3.7866 15.3812 2.91895 12.6803 2.91895C10.2897 2.91895 7.96046 3.84707 6.12624 5.5327C4.29202 7.21832 3.16702 9.4627 2.95609 11.8529C2.74281 14.2749 3.49093 16.5539 5.06265 18.27C6.62687 19.9782 8.81593 20.9189 11.2262 20.9189C12.7506 20.9189 13.7392 20.8083 15.2331 20.1807L15.9245 19.89L15.3433 18.5072L14.6519 18.7969C13.3792 19.3313 12.5997 19.418 11.2262 19.418C9.24156 19.418 7.44577 18.6502 6.1689 17.2561C4.88452 15.8536 4.27421 13.9814 4.45046 11.9836C4.81796 7.81176 8.50984 4.41801 12.6803 4.41801C14.9491 4.41801 16.7889 5.11691 18.0001 6.43973C19.1537 7.69926 19.6689 9.43598 19.4903 11.4624C19.3361 13.2132 18.6578 14.0752 18.1159 14.4905C17.6003 14.8861 17.0847 14.9677 16.8034 14.9175C15.9747 14.7708 15.5439 13.9585 15.6508 12.7477L16.1162 7.6327L14.6205 7.50004L14.5267 8.54488C14.177 8.18698 13.759 7.90298 13.2974 7.70973C12.8359 7.51648 12.3402 7.41791 11.8398 7.41988C10.7242 7.41988 9.65827 7.89191 8.83984 8.74973C8.05374 9.57145 7.56343 10.6739 7.45937 11.8538C7.34452 13.1602 7.7289 14.401 8.51452 15.2588C8.85255 15.6286 9.26465 15.9232 9.72403 16.1232C10.1834 16.3233 10.6798 16.4243 11.1808 16.4199C11.8158 16.4269 12.4447 16.295 13.0235 16.0336C13.6022 15.7722 14.1169 15.3874 14.5314 14.9063C14.7286 15.2931 15.0127 15.629 15.3614 15.8877C15.7101 16.1464 16.114 16.3209 16.5414 16.3974C17.3331 16.538 18.2631 16.2713 19.0295 15.6844C20.4447 14.6002 20.8745 12.863 20.9861 11.5969C21.198 9.17348 20.5314 6.98441 19.1064 5.42723ZM13.1842 14.146C12.6385 14.6506 11.9207 14.9278 11.1775 14.9208C10.8845 14.9259 10.5938 14.8684 10.3247 14.7522C10.0557 14.6359 9.8146 14.4636 9.61749 14.2468C9.11546 13.6983 8.87218 12.8747 8.95046 11.9864C9.10187 10.2671 10.3703 8.92082 11.8384 8.92082C12.1551 8.91955 12.4685 8.98492 12.7583 9.11268C13.048 9.24043 13.3077 9.42773 13.5203 9.66238C14.0298 10.2188 14.2797 11.0157 14.2061 11.8529C14.1226 12.8035 13.7687 13.5938 13.1842 14.1441V14.146Z\" fill="#50536B" />
        </symbol>
        <symbol id="icon-email-corporate" viewBox="0 0 24 24">
            <path d="M12 18C11.476 18.0001 10.9685 17.8174 10.5648 17.4833C10.1612 17.1492 9.88681 16.6848 9.789 16.17C8.31769 15.7153 7.02202 14.8187 6.078 13.602C5.36533 12.6843 4.87564 11.6135 4.64755 10.4742C4.41947 9.33481 4.45923 8.15805 4.7637 7.0367C5.06817 5.91535 5.62902 4.88008 6.40202 4.01254C7.17501 3.14501 8.139 2.46895 9.21796 2.03768C10.2969 1.60641 11.4613 1.43174 12.6193 1.52743C13.7773 1.62313 14.8973 1.98658 15.8908 2.58911C16.8843 3.19164 17.7242 4.01678 18.3443 4.99944C18.9644 5.98209 19.3477 7.09539 19.464 8.25151C19.5045 8.66401 19.164 9.00001 18.75 9.00001C18.336 9.00001 18.0045 8.66251 17.955 8.25151C17.8211 7.19076 17.4062 6.18504 16.7533 5.33843C16.1003 4.49182 15.233 3.83506 14.241 3.43612C13.2491 3.03717 12.1685 2.91053 11.1112 3.0693C10.0539 3.22807 9.05824 3.66648 8.22721 4.33917C7.39618 5.01185 6.75999 5.89438 6.38447 6.89543C6.00895 7.89648 5.90775 8.9797 6.09133 10.033C6.2749 11.0863 6.73659 12.0714 7.42863 12.8864C8.12066 13.7014 9.0179 14.3166 10.0275 14.6685C10.2184 14.3203 10.498 14.0288 10.838 13.8236C11.178 13.6184 11.5662 13.5069 11.9632 13.5003C12.3603 13.4937 12.752 13.5923 13.0986 13.7861C13.4452 13.9799 13.7343 14.262 13.9366 14.6037C14.1389 14.9454 14.2472 15.3345 14.2505 15.7316C14.2537 16.1287 14.1518 16.5196 13.9551 16.8645C13.7584 17.2095 13.4739 17.4962 13.1305 17.6957C12.7871 17.8951 12.3971 18.0001 12 18ZM6 15.75V15.7095C5.58985 15.3422 5.21428 14.938 4.878 14.502C4.63157 14.8716 4.50005 15.3058 4.5 15.75V16.5C4.5 19.4565 7.29 22.5 12 22.5C16.71 22.5 19.5 19.4565 19.5 16.5V15.75C19.5 15.1533 19.2629 14.581 18.841 14.159C18.419 13.7371 17.8467 13.5 17.25 13.5H15C15.3285 13.935 15.5625 14.445 15.675 15H17.25C17.4489 15 17.6397 15.079 17.7803 15.2197C17.921 15.3603 18 15.5511 18 15.75V16.5C18 18.657 15.852 21 12 21C8.148 21 6 18.657 6 16.5V15.75ZM12 12C11.1417 12 10.3094 12.2944 9.642 12.834C8.98619 12.4322 8.44472 11.8685 8.06961 11.1971C7.6945 10.5257 7.49834 9.76911 7.5 9.00001C7.50022 8.21548 7.70554 7.44463 8.0956 6.76394C8.48566 6.08324 9.0469 5.51635 9.72365 5.11949C10.4004 4.72263 11.1692 4.5096 11.9536 4.50152C12.7381 4.49343 13.5111 4.69059 14.1959 5.07342C14.8807 5.45625 15.4535 6.01146 15.8575 6.68397C16.2615 7.35649 16.4826 8.12294 16.499 8.9073C16.5154 9.69166 16.3264 10.4667 15.9509 11.1555C15.5753 11.8443 15.0262 12.4229 14.358 12.834C13.6906 12.2944 12.8583 12 12 12ZM9 9.00001C9 9.79566 9.31607 10.5587 9.87868 11.1213C10.4413 11.6839 11.2044 12 12 12C12.7956 12 13.5587 11.6839 14.1213 11.1213C14.6839 10.5587 15 9.79566 15 9.00001C15 8.20436 14.6839 7.4413 14.1213 6.87869C13.5587 6.31608 12.7956 6.00001 12 6.00001C11.2044 6.00001 10.4413 6.31608 9.87868 6.87869C9.31607 7.4413 9 8.20436 9 9.00001Z\" fill="#50536B" />
        </symbol>
        <symbol id="icon-phone" viewBox="0 0 24 24">
            <path d="M16.6292 13.891L17.0852 13.438L16.0262 12.374L15.5722 12.827L16.6292 13.891ZM18.6142 13.248L20.5252 14.287L21.2402 12.969L19.3302 11.931L18.6142 13.248ZM20.8922 16.351L19.4722 17.764L20.5292 18.827L21.9492 17.415L20.8922 16.351ZM18.6062 18.218C17.1562 18.354 13.4062 18.233 9.34417 14.195L8.28617 15.258C12.7182 19.665 16.9372 19.881 18.7462 19.712L18.6062 18.218ZM9.34417 14.195C5.47317 10.345 4.83117 7.10796 4.75117 5.70296L3.25317 5.78796C3.35317 7.55596 4.14817 11.144 8.28617 15.258L9.34417 14.195ZM10.7192 8.01496L11.0062 7.72896L9.95017 6.66596L9.66317 6.95096L10.7192 8.01496ZM11.2342 4.09396L9.97417 2.40996L8.77317 3.30996L10.0332 4.99296L11.2342 4.09396ZM5.73317 2.04296L4.16317 3.60296L5.22117 4.66696L6.79017 3.10696L5.73317 2.04296ZM10.1912 7.48296C9.66117 6.95096 9.66117 6.95096 9.66117 6.95296H9.65917L9.65617 6.95696C9.60865 7.00487 9.5661 7.05748 9.52917 7.11396C9.47517 7.19396 9.41617 7.29896 9.36617 7.43196C9.24445 7.77529 9.21412 8.14437 9.27817 8.50296C9.41217 9.36796 10.0082 10.511 11.5342 12.029L12.5922 10.965C11.1632 9.54496 10.8232 8.68096 10.7602 8.27296C10.7302 8.07896 10.7612 7.98296 10.7702 7.96096C10.7762 7.94763 10.7762 7.94563 10.7702 7.95496C10.7613 7.96876 10.7512 7.9818 10.7402 7.99396L10.7302 8.00396L10.7202 8.01296L10.1912 7.48296ZM11.5342 12.029C13.0612 13.547 14.2102 14.139 15.0762 14.271C15.5192 14.339 15.8762 14.285 16.1472 14.184C16.299 14.1284 16.4408 14.0487 16.5672 13.948L16.6172 13.903L16.6242 13.897L16.6272 13.894L16.6282 13.892C16.6282 13.892 16.6292 13.891 16.1002 13.359C15.5702 12.827 15.5732 12.826 15.5732 12.826L15.5752 12.824L15.5772 12.822L15.5832 12.817L15.5932 12.807L15.6312 12.777C15.6405 12.771 15.6382 12.7716 15.6242 12.779C15.5992 12.788 15.5012 12.819 15.3042 12.789C14.8902 12.725 14.0202 12.385 12.5922 10.965L11.5342 12.029ZM9.97417 2.40896C8.95417 1.04896 6.95017 0.83296 5.73317 2.04296L6.79017 3.10696C7.32217 2.57796 8.26617 2.63296 8.77317 3.30996L9.97417 2.40896ZM4.75217 5.70396C4.73217 5.35796 4.89117 4.99596 5.22117 4.66796L4.16217 3.60396C3.62517 4.13796 3.20217 4.89396 3.25317 5.78796L4.75217 5.70396ZM19.4722 17.764C19.1982 18.038 18.9022 18.192 18.6072 18.219L18.7462 19.712C19.4812 19.643 20.0822 19.273 20.5302 18.828L19.4722 17.764ZM11.0062 7.72896C11.9912 6.74996 12.0642 5.20296 11.2352 4.09496L10.0342 4.99396C10.4372 5.53296 10.3772 6.23996 9.94917 6.66696L11.0062 7.72896ZM20.5262 14.288C21.3432 14.732 21.4702 15.778 20.8932 16.352L21.9512 17.415C23.2912 16.082 22.8782 13.859 21.2412 12.97L20.5262 14.288ZM17.0852 13.439C17.4692 13.057 18.0872 12.963 18.6152 13.249L19.3312 11.932C18.2472 11.342 16.9032 11.505 16.0272 12.375L17.0852 13.439Z\" fill="#50536B" />
        </symbol>
        <symbol id="icon-whatsapp" viewBox="0 0 24 24">
            <path d="M19.0498 4.91005C18.1329 3.98416 17.0408 3.25002 15.8373 2.75042C14.6338 2.25081 13.3429 1.99574 12.0398 2.00005C6.5798 2.00005 2.1298 6.45005 2.1298 11.9101C2.1298 13.6601 2.5898 15.3601 3.4498 16.8601L2.0498 22.0001L7.2998 20.6201C8.7498 21.4101 10.3798 21.8301 12.0398 21.8301C17.4998 21.8301 21.9498 17.3801 21.9498 11.9201C21.9498 9.27005 20.9198 6.78005 19.0498 4.91005ZM12.0398 20.1501C10.5598 20.1501 9.1098 19.7501 7.8398 19.0001L7.5398 18.8201L4.4198 19.6401L5.2498 16.6001L5.0498 16.2901C4.22735 14.9771 3.79073 13.4593 3.7898 11.9101C3.7898 7.37005 7.4898 3.67005 12.0298 3.67005C14.2298 3.67005 16.2998 4.53005 17.8498 6.09005C18.6174 6.85392 19.2257 7.7626 19.6394 8.76338C20.0531 9.76417 20.264 10.8371 20.2598 11.9201C20.2798 16.4601 16.5798 20.1501 12.0398 20.1501ZM16.5598 13.9901C16.3098 13.8701 15.0898 13.2701 14.8698 13.1801C14.6398 13.1001 14.4798 13.0601 14.3098 13.3001C14.1398 13.5501 13.6698 14.1101 13.5298 14.2701C13.3898 14.4401 13.2398 14.4601 12.9898 14.3301C12.7398 14.2101 11.9398 13.9401 10.9998 13.1001C10.2598 12.4401 9.7698 11.6301 9.6198 11.3801C9.4798 11.1301 9.5998 11.0001 9.7298 10.8701C9.8398 10.7601 9.9798 10.5801 10.0998 10.4401C10.2198 10.3001 10.2698 10.1901 10.3498 10.0301C10.4298 9.86005 10.3898 9.72005 10.3298 9.60005C10.2698 9.48005 9.7698 8.26005 9.5698 7.76005C9.3698 7.28005 9.1598 7.34005 9.0098 7.33005H8.5298C8.3598 7.33005 8.0998 7.39005 7.8698 7.64005C7.6498 7.89005 7.0098 8.49005 7.0098 9.71005C7.0098 10.9301 7.8998 12.1101 8.0198 12.2701C8.1398 12.4401 9.7698 14.9401 12.2498 16.0101C12.8398 16.2701 13.2998 16.4201 13.6598 16.5301C14.2498 16.7201 14.7898 16.6901 15.2198 16.6301C15.6998 16.5601 16.6898 16.0301 16.8898 15.4501C17.0998 14.8701 17.0998 14.3801 17.0298 14.2701C16.9598 14.1601 16.8098 14.1101 16.5598 13.9901Z\" fill="#50536B" />
        </symbol>
        <symbol id="icon-file-plus" viewBox="0 0 16 16">
            <path d="M7.38024 7.38024V3.66211H8.61961V7.38024H12.3377V8.61961H8.61961V12.3377H7.38024V8.61961H3.66211V7.38024H7.38024Z" fill="#3D4054" />
        </symbol>
        <symbol id="icon-chevron-down" viewBox="0 0 20 20">
            <path d="M10.0042 11.9516L14.1585 7.79736L15.3455 8.98429L10.0042 14.3255L4.66296 8.98429L5.84991 7.79736L10.0042 11.9516Z" fill="#696F89" />
        </symbol>
        <symbol id="icon-check" viewBox="0 0 20 20">
            <path d="M8.45133 12.4564L15.5719 5.33594L16.6673 6.4314L8.45133 14.6474L3.52173 9.71781L4.61719 8.62236L8.45133 12.4564Z" fill="#696F89" />
        </symbol>
        <symbol id="icon-hamburger" viewBox="0 0 24 24">
            <path d="M3.5498 4.48877H20.4504V6.36661H3.5498V4.48877ZM3.5498 11.0612H20.4504V12.9391H3.5498V11.0612ZM3.5498 17.6337H20.4504V19.5115H3.5498V17.6337Z" fill="#50536B" />
        </symbol>
        <symbol id="icon-close" viewBox="0 0 24 24">
            <path d="M6.4 19L5 17.6L10.6 12L5 6.4L6.4 5L12 10.6L17.6 5L19 6.4L13.4 12L19 17.6L17.6 19L12 13.4L6.4 19Z" fill="#50536B" />
        </symbol>
        <symbol id="icon-external-link" viewBox="0 0 16 16">
            <path d="M10.481 6.39797L5.14761 11.7314L4.27124 10.855L9.60464 5.5216H4.90383V4.28223H11.7204V11.0988H10.481V6.39797Z" fill="#696F89" />
        </symbol>
        <symbol id="icon-facebook" viewBox="0 0 24 24">
            <path d="M12.0009 2.70508C6.86722 2.70508 2.70557 6.86673 2.70557 12.0004C2.70557 16.64 6.10473 20.4854 10.5485 21.1828V14.6873H8.18835V12.0004H10.5485V9.95253C10.5485 7.62289 11.9362 6.33606 14.0594 6.33606C15.0764 6.33606 16.1402 6.51761 16.1402 6.51761V8.80513H14.9681C13.8134 8.80513 13.4533 9.52165 13.4533 10.2568V12.0004H16.0313L15.6192 14.6873H13.4533V21.1828C17.897 20.4854 21.2962 16.64 21.2962 12.0004C21.2962 6.86673 17.1345 2.70508 12.0009 2.70508Z" fill="#696F89" />
        </symbol>
        <symbol id="icon-instagram" viewBox="0 0 24 24">
            <path d="M12.0009 9.2118C10.4603 9.2118 9.21229 10.4603 9.21229 12.0004C9.21229 13.5409 10.4608 14.789 12.0009 14.789C13.5414 14.789 14.7895 13.5405 14.7895 12.0004C14.7895 10.4599 13.541 9.2118 12.0009 9.2118ZM12.0009 7.35274C14.5668 7.35274 16.6486 9.4322 16.6486 12.0004C16.6486 14.5664 14.5691 16.6481 12.0009 16.6481C9.43494 16.6481 7.35323 14.5686 7.35323 12.0004C7.35323 9.43445 9.43268 7.35274 12.0009 7.35274ZM18.0429 7.11957C18.0429 7.76104 17.5216 8.2815 16.8809 8.2815C16.2395 8.2815 15.719 7.76025 15.719 7.11957C15.719 6.47889 16.2402 5.95844 16.8809 5.95844C17.5207 5.95763 18.0429 6.47889 18.0429 7.11957ZM12.0009 4.56414C9.70078 4.56414 9.32588 4.57023 8.25607 4.61787C7.52721 4.65209 7.03863 4.75011 6.58467 4.92635C6.18125 5.08281 5.89025 5.26964 5.58018 5.5797C5.26893 5.89096 5.08244 6.18118 4.92661 6.58479C4.74996 7.03978 4.65196 7.52759 4.61836 8.25545C4.57025 9.2817 4.56463 9.64036 4.56463 12.0004C4.56463 14.3005 4.57072 14.6754 4.61835 15.7451C4.65258 16.4737 4.75074 16.963 4.92655 17.4159C5.08342 17.8198 5.27063 18.1115 5.5792 18.4201C5.89168 18.7322 6.18277 18.9193 6.58254 19.0736C7.04203 19.2512 7.5303 19.3494 8.25593 19.3829C9.28219 19.431 9.64085 19.4367 12.0009 19.4367C14.301 19.4367 14.6759 19.4305 15.7456 19.3829C16.4726 19.3488 16.9623 19.2504 17.4164 19.0747C17.8192 18.9183 18.1118 18.7304 18.4206 18.4221C18.7331 18.1091 18.9199 17.8187 19.0744 17.418C19.2515 16.9602 19.3499 16.4713 19.3834 15.7454C19.4315 14.7191 19.4372 14.3604 19.4372 12.0004C19.4372 9.70029 19.431 9.3254 19.3834 8.25566C19.3492 7.52848 19.2508 7.03808 19.0749 6.58418C18.9189 6.18188 18.7314 5.88998 18.4216 5.5797C18.1098 5.26794 17.8203 5.08183 17.4165 4.92612C16.9618 4.74962 16.4733 4.65148 15.7458 4.61788C14.7196 4.56977 14.3609 4.56414 12.0009 4.56414ZM12.0009 2.70508C14.5261 2.70508 14.8414 2.71437 15.8329 2.76085C16.822 2.80656 17.4968 2.96302 18.0893 3.19308C18.702 3.42934 19.2195 3.74848 19.7361 4.26514C20.252 4.78181 20.5712 5.3008 20.8082 5.91196C21.0374 6.50377 21.194 7.17922 21.2405 8.1684C21.2846 9.15991 21.2962 9.47517 21.2962 12.0004C21.2962 14.5257 21.2869 14.8409 21.2405 15.8324C21.1947 16.8216 21.0374 17.4963 20.8082 18.0888C20.5719 18.7016 20.252 19.219 19.7361 19.7357C19.2195 20.2516 18.6997 20.5707 18.0893 20.8077C17.4968 21.037 16.822 21.1935 15.8329 21.24C14.8414 21.2841 14.5261 21.2957 12.0009 21.2957C9.47566 21.2957 9.16039 21.2864 8.16889 21.24C7.17971 21.1942 6.5058 21.037 5.91245 20.8077C5.3005 20.5714 4.78229 20.2516 4.26563 19.7357C3.74897 19.219 3.4306 18.6993 3.19357 18.0888C2.96351 17.4963 2.80782 16.8216 2.76134 15.8324C2.71719 14.8409 2.70557 14.5257 2.70557 12.0004C2.70557 9.47517 2.71486 9.15991 2.76134 8.1684C2.80703 7.17845 2.96351 6.50454 3.19357 5.91196C3.42982 5.30002 3.74897 4.78181 4.26563 4.26514C4.78229 3.74848 5.30128 3.43011 5.91245 3.19308C6.50503 2.96302 7.17894 2.80733 8.16889 2.76085C9.16039 2.7167 9.47566 2.70508 12.0009 2.70508Z" fill="#696F89" />
        </symbol>
        <symbol id="icon-linkedin" viewBox="0 0 24 24">
            <path d="M17.8896 17.8919H15.4119V14.0094C15.4119 13.0836 15.3931 11.8922 14.1208 11.8922C12.829 11.8922 12.6317 12.8996 12.6317 13.9411V17.8919H10.154V9.90813H12.5341V10.9963H12.5662C12.8987 10.3689 13.7074 9.70665 14.9155 9.70665C17.426 9.70665 17.8903 11.3589 17.8903 13.5096L17.8896 17.8919ZM7.35569 8.8157C6.55816 8.8157 5.91748 8.17014 5.91748 7.37608C5.91748 6.58273 6.55885 5.93787 7.35569 5.93787C8.15044 5.93787 8.79461 6.58273 8.79461 7.37608C8.79461 8.17014 8.14975 8.8157 7.35569 8.8157ZM8.59801 17.8919H6.11337V9.90813H8.59801V17.8919ZM19.1291 3.63379H4.86966C4.18715 3.63379 3.63501 4.17338 3.63501 4.83916V19.16C3.63501 19.8264 4.18715 20.3654 4.86966 20.3654H19.1271C19.8089 20.3654 20.3666 19.8264 20.3666 19.16V4.83916C20.3666 4.17338 19.8089 3.63379 19.1271 3.63379H19.1291Z" fill="#696F89" />
        </symbol>
        <symbol id="icon-carousel-prev" viewBox="0 0 20 20">
            <path d="M6.76876 9.22533H16.197V10.7746H6.76876L10.9237 14.9295L9.82829 16.0249L3.80322 9.99994L9.82829 3.97485L10.9237 5.07031L6.76876 9.22533Z" fill="#3D4054" />
        </symbol>
        <symbol id="icon-carousel-next" viewBox="0 0 20 20">
            <path d="M13.2315 9.22533L9.07646 5.07031L10.1719 3.97485L16.197 9.99994L10.1719 16.0249L9.07646 14.9295L13.2315 10.7746H3.80322V9.22533H13.2315Z" fill="#3D4054" />
        </symbol>
        <symbol id="flag-tr" viewBox="0 0 20 20">
            <g clip-path="url(#clip-flag-tr)">
                <path d="M10.0001 19.2306C15.0981 19.2306 19.2308 15.0978 19.2308 9.99981C19.2308 4.9018 15.0981 0.769043 10.0001 0.769043C4.90204 0.769043 0.769287 4.9018 0.769287 9.99981C0.769287 15.0978 4.90204 19.2306 10.0001 19.2306Z" fill="#D80027" />
                <path d="M9.62206 8.31201L10.3794 9.3557L11.606 8.95799L10.8474 10.0008L11.6047 11.0444L10.3786 10.6452L9.62004 11.688L9.62083 10.3985L8.39465 9.9993L9.62126 9.60158L9.62206 8.31201Z" fill="#F0F0F0" />
                <path d="M7.55509 12.6085C6.11437 12.6085 4.94639 11.4405 4.94639 9.99978C4.94639 8.55906 6.11437 7.39108 7.55509 7.39108C8.0043 7.39108 8.42697 7.5047 8.79598 7.70464C8.21707 7.13846 7.42536 6.78906 6.55175 6.78906C4.7785 6.78906 3.34106 8.22654 3.34106 9.99975C3.34106 11.773 4.77854 13.2104 6.55175 13.2104C7.42543 13.2104 8.21711 12.861 8.79598 12.2949C8.42697 12.4949 8.0043 12.6085 7.55509 12.6085V12.6085Z" fill="#F0F0F0" />
            </g>
            <defs>
                <clipPath id="clip-flag-tr">
                    <rect width="20" height="20" fill="white" />
                </clipPath>
            </defs>
        </symbol>
        <symbol id="flag-uk" viewBox="0 0 20 20">
            <g clip-path="url(#clip-flag-uk)">
                <path d="M10.0001 19.2311C15.0981 19.2311 19.2308 15.0983 19.2308 10.0003C19.2308 4.90229 15.0981 0.769531 10.0001 0.769531C4.90204 0.769531 0.769287 4.90229 0.769287 10.0003C0.769287 15.0983 4.90204 19.2311 10.0001 19.2311Z" fill="#F0F0F0" />
                <path d="M2.67746 4.37988C1.95238 5.32326 1.40563 6.41058 1.08728 7.59179H5.88937L2.67746 4.37988Z" fill="#0052B4" />
                <path d="M18.9129 7.59176C18.5945 6.41058 18.0477 5.32326 17.3227 4.37988L14.1108 7.59176H18.9129Z" fill="#0052B4" />
                <path d="M1.08728 12.4082C1.40567 13.5894 1.95241 14.6767 2.67746 15.62L5.88926 12.4082H1.08728Z" fill="#0052B4" />
                <path d="M15.62 2.67713C14.6766 1.95205 13.5893 1.4053 12.4081 1.08691V5.88897L15.62 2.67713Z" fill="#0052B4" />
                <path d="M4.38013 17.3222C5.3235 18.0472 6.41082 18.594 7.592 18.9124V14.1104L4.38013 17.3222Z" fill="#0052B4" />
                <path d="M7.59197 1.08691C6.41079 1.4053 5.32347 1.95205 4.38013 2.67709L7.59197 5.88893V1.08691Z" fill="#0052B4" />
                <path d="M12.4081 18.9124C13.5893 18.594 14.6766 18.0472 15.6199 17.3222L12.4081 14.1104V18.9124Z" fill="#0052B4" />
                <path d="M14.1108 12.4082L17.3227 15.6201C18.0477 14.6767 18.5945 13.5894 18.9129 12.4082H14.1108Z" fill="#0052B4" />
                <path d="M19.1527 8.7963H11.2041H11.2041V0.847668C10.8099 0.796358 10.4081 0.769531 10.0001 0.769531C9.59192 0.769531 9.19016 0.796358 8.79605 0.847668V8.79623V8.79626H0.847424C0.796114 9.19041 0.769287 9.59224 0.769287 10.0003C0.769287 10.4084 0.796114 10.8102 0.847424 11.2043H8.79598H8.79602V19.1529C9.19016 19.2042 9.59192 19.2311 10.0001 19.2311C10.4081 19.2311 10.8099 19.2043 11.2041 19.1529V11.2044V11.2043H19.1527C19.204 10.8102 19.2308 10.4084 19.2308 10.0003C19.2308 9.59224 19.204 9.19041 19.1527 8.7963V8.7963Z" fill="#D80027" />
                <path d="M12.4081 12.4082L16.5272 16.5273C16.7166 16.338 16.8973 16.14 17.0698 15.9347L13.5433 12.4082H12.4081V12.4082Z" fill="#D80027" />
                <path d="M7.59202 12.4082H7.59195L3.4729 16.5273C3.66228 16.7167 3.86027 16.8974 4.06551 17.0698L7.59202 13.5433V12.4082Z" fill="#D80027" />
                <path d="M7.59198 7.59185V7.59178L3.47289 3.47266C3.28345 3.66203 3.10273 3.86002 2.9303 4.06526L6.45685 7.59181H7.59198V7.59185Z" fill="#D80027" />
                <path d="M12.4081 7.59238L16.5272 3.47322C16.3378 3.28378 16.1398 3.10306 15.9346 2.93066L12.4081 6.45721V7.59238Z" fill="#D80027" />
            </g>
            <defs>
                <clipPath id="clip-flag-uk">
                    <rect width="20" height="20" fill="white" />
                </clipPath>
            </defs>
        </symbol>
        <symbol id="flag-de" viewBox="0 0 20 20">
            <g clip-path="url(#clip-flag-de)">
                <path d="M1.34338 13.2108C2.64763 16.7259 6.0311 19.2309 10 19.2309C13.9689 19.2309 17.3524 16.7259 18.6566 13.2108L10 12.4082L1.34338 13.2108Z" fill="#FFDA44" />
                <path d="M10 0.769531C6.0311 0.769531 2.64763 3.27453 1.34338 6.78962L10 7.59226L18.6566 6.78958C17.3524 3.27453 13.9689 0.769531 10 0.769531Z" fill="black" />
                <path d="M1.34343 6.78906C0.9724 7.78905 0.769287 8.87064 0.769287 9.99975C0.769287 11.1289 0.9724 12.2104 1.34343 13.2104H18.6567C19.0277 12.2104 19.2308 11.1289 19.2308 9.99975C19.2308 8.87064 19.0277 7.78905 18.6567 6.78906H1.34343Z" fill="#D80027" />
            </g>
            <defs>
                <clipPath id="clip-flag-de">
                    <rect width="20" height="20" fill="white" />
                </clipPath>
            </defs>
        </symbol>
        <symbol id="flag-uae" viewBox="0 0 20 20">
            <g clip-path="url(#clip-flag-uae)">
                <path d="M0.769043 5.64138H19.2306V0.769287H0.769043V5.64138Z" fill="#0052B4" />
                <path d="M0.769043 19.2309H19.2306V14.3588H0.769043V19.2309Z" fill="#6DA544" />
                <path d="M0.769043 14.3588H19.2306V5.64142H0.769043V14.3588Z" fill="#F0F0F0" />
                <path d="M0.769043 19.2309H6.4104V0.769287H0.769043V19.2309Z" fill="#D80027" />
            </g>
            <defs>
                <clipPath id="clip-flag-uae">
                    <rect width="20" height="20" fill="white" />
                </clipPath>
            </defs>
        </symbol>
        <symbol id="flag-netherlands" viewBox="0 0 20 20">
            <g clip-path="url(#clip-flag-netherlands)">
                <path d="M0.769043 6.92327H19.2306V0.769287H0.769043V6.92327Z" fill="#A2001D" />
                <path d="M0.769043 19.2309H19.2306V13.0769H0.769043V19.2309Z" fill="#2E52B2" />
                <path d="M0.769043 13.0769H19.2306V6.92328H0.769043V13.0769Z" fill="#F0F0F0" />
            </g>
            <defs>
                <clipPath id="clip-flag-netherlands">
                    <rect width="20" height="20" fill="white" />
                </clipPath>
            </defs>
        </symbol>
        <symbol id="logo-catchjobs-line" viewBox="0 0 214 26">
            <path d="M204.122 25.7317C201.957 25.7317 200.126 25.3863 198.631 24.6957C197.157 24.0051 196.03 23.0582 195.249 21.8552C194.467 20.6299 194.077 19.2486 194.077 17.7114H198.731C198.731 18.3575 198.91 18.9924 199.267 19.6162C199.624 20.2177 200.193 20.7079 200.974 21.0866C201.778 21.4653 202.827 21.6547 204.122 21.6547C205.283 21.6547 206.254 21.4876 207.035 21.1534C207.816 20.8193 208.397 20.3848 208.776 19.8501C209.156 19.2932 209.346 18.6694 209.346 17.9787C209.346 17.1099 208.977 16.4192 208.241 15.9068C207.504 15.3722 206.365 15.038 204.825 14.9043L202.682 14.7372C200.338 14.5367 198.463 13.8127 197.057 12.5651C195.673 11.2952 194.981 9.62431 194.981 7.55241C194.981 5.99291 195.349 4.6562 196.086 3.54228C196.822 2.40608 197.849 1.53722 199.166 0.935697C200.506 0.311899 202.068 0 203.854 0C205.707 0 207.303 0.323038 208.642 0.969113C209.982 1.61519 211.02 2.52861 211.756 3.70937C212.493 4.86785 212.861 6.23798 212.861 7.81975H208.207C208.207 7.15139 208.04 6.53874 207.705 5.98177C207.392 5.40253 206.912 4.94582 206.265 4.61165C205.64 4.25519 204.836 4.07696 203.854 4.07696C202.917 4.07696 202.135 4.23291 201.51 4.54481C200.885 4.85671 200.416 5.28 200.104 5.81469C199.791 6.34937 199.635 6.92861 199.635 7.55241C199.635 8.30988 199.914 8.97823 200.472 9.55747C201.03 10.1144 201.912 10.4375 203.117 10.5266L205.26 10.7271C207.002 10.8608 208.531 11.2284 209.848 11.8299C211.165 12.4314 212.181 13.2446 212.895 14.2694C213.632 15.2942 214 16.5306 214 17.9787C214 19.516 213.598 20.8749 212.794 22.0557C211.991 23.2142 210.841 24.1165 209.346 24.7625C207.872 25.4086 206.131 25.7317 204.122 25.7317Z" fill="#FE5442" fill-opacity="0.5" />
            <path d="M175.932 25.4401V21.6304H182.06C183.176 21.6304 184.024 21.3297 184.604 20.7282C185.185 20.1044 185.475 19.2578 185.475 18.1884C185.475 17.119 185.185 16.2947 184.604 15.7155C184.024 15.114 183.176 14.8132 182.06 14.8132H175.932V11.9059H181.725C183.354 11.9059 184.805 12.1064 186.078 12.5074C187.372 12.8861 188.377 13.5322 189.091 14.4456C189.828 15.359 190.196 16.5844 190.196 18.1216V18.5894C190.196 20.0375 189.873 21.274 189.225 22.2988C188.6 23.3013 187.651 24.0811 186.379 24.638C185.129 25.1727 183.578 25.4401 181.725 25.4401H175.932ZM171.947 25.4401V0.710938H176.602V25.4401H171.947ZM175.932 14.0446V11.1373H181.155C182.294 11.1373 183.131 10.8365 183.667 10.235C184.203 9.63347 184.47 8.83145 184.47 7.82891C184.47 6.82638 184.203 6.02436 183.667 5.42284C183.131 4.82132 182.294 4.52056 181.155 4.52056H175.932V0.710938H180.72C183.488 0.710938 185.587 1.29018 187.015 2.44866C188.466 3.60714 189.192 5.26689 189.192 7.4279V7.89575C189.192 9.41069 188.823 10.6249 188.087 11.5383C187.372 12.4294 186.379 13.0755 185.107 13.4765C183.834 13.8552 182.372 14.0446 180.72 14.0446H175.932Z" fill="#FE5442" fill-opacity="0.5" />
            <path d="M154.536 25.7317C152.326 25.7317 150.406 25.3418 148.776 24.562C147.169 23.7823 145.83 22.7686 144.758 21.521C143.709 20.2512 142.916 18.8922 142.381 17.4441C141.867 15.9737 141.611 14.559 141.611 13.2V12.4648C141.611 10.9722 141.878 9.49064 142.414 8.02026C142.95 6.5276 143.754 5.17975 144.825 3.97671C145.919 2.77367 147.269 1.8157 148.877 1.10278C150.484 0.367595 152.37 0 154.536 0C156.679 0 158.554 0.367595 160.161 1.10278C161.768 1.8157 163.108 2.77367 164.179 3.97671C165.273 5.17975 166.088 6.5276 166.623 8.02026C167.159 9.49064 167.427 10.9722 167.427 12.4648V13.2C167.427 14.559 167.159 15.9737 166.623 17.4441C166.11 18.8922 165.318 20.2512 164.246 21.521C163.197 22.7686 161.858 23.7823 160.228 24.562C158.621 25.3418 156.723 25.7317 154.536 25.7317ZM154.536 21.3205C155.786 21.3205 156.902 21.0977 157.884 20.6522C158.889 20.2066 159.737 19.5939 160.429 18.8142C161.143 18.0122 161.679 17.1099 162.036 16.1073C162.416 15.0825 162.605 14.002 162.605 12.8658C162.605 11.6405 162.416 10.5154 162.036 9.49064C161.679 8.46583 161.143 7.57469 160.429 6.81722C159.737 6.05975 158.889 5.46937 157.884 5.04608C156.88 4.62279 155.763 4.41114 154.536 4.41114C153.286 4.41114 152.158 4.62279 151.154 5.04608C150.149 5.46937 149.29 6.05975 148.575 6.81722C147.883 7.57469 147.348 8.46583 146.968 9.49064C146.611 10.5154 146.432 11.6405 146.432 12.8658C146.432 14.002 146.611 15.0825 146.968 16.1073C147.348 17.1099 147.883 18.0122 148.575 18.8142C149.29 19.5939 150.149 20.2066 151.154 20.6522C152.158 21.0977 153.286 21.3205 154.536 21.3205Z" fill="#FE5442" fill-opacity="0.5" />
            <path d="M129.236 25.7409C127.473 25.7409 125.921 25.3956 124.582 24.7049C123.243 24.0143 122.205 23.0006 121.468 21.6639C120.731 20.3272 120.363 18.6897 120.363 16.7515V15.6821H125.084V17.1525C125.084 18.4447 125.464 19.4695 126.223 20.227C126.982 20.9621 127.975 21.3297 129.203 21.3297C130.453 21.3297 131.446 20.9621 132.183 20.227C132.942 19.4695 133.322 18.4447 133.322 17.1525V4.21986H138.076V16.7515C138.076 18.6897 137.708 20.3272 136.971 21.6639C136.235 23.0006 135.208 24.0143 133.891 24.7049C132.574 25.3956 131.022 25.7409 129.236 25.7409ZM128.837 4.88821V0.710996L138.076 0.710996V4.88821H128.837Z" fill="#FE5442" fill-opacity="0.5" />
            <path d="M114.933 1.04494V25.5705H108.127V15.8844H101.13V25.5228H94.3239V1.04494H101.13V9.77687H108.127V1.04494H114.933ZM19.4111 16.4092C18.9319 16.5046 18.4526 16.6001 18.0213 16.6955C17.5419 16.7909 17.1105 16.8864 16.6313 17.0296C16.5834 17.0296 16.5354 17.125 16.5354 17.125C16.4875 17.6021 16.3437 17.8407 15.8644 17.9838C15.2893 18.1747 14.762 18.3655 14.1869 18.5087C13.8035 18.6041 13.3721 18.7473 12.9887 18.5564C12.8928 18.5087 12.797 18.4132 12.7491 18.3655C12.7011 18.2224 12.6052 18.2224 12.5094 18.2224C11.8863 18.2224 11.2154 18.2701 10.5922 18.2224C10.0651 18.1747 9.53786 18.0793 9.10651 17.793C8.81889 17.6021 8.57925 17.3159 8.3396 17.0773C7.76446 16.5524 7.28517 15.9798 6.94967 15.3118C6.56624 14.596 6.47038 13.7849 6.51831 12.9737C6.61416 11.9717 7.04553 11.1605 7.6686 10.4448C7.95618 10.1108 8.3396 9.77687 8.6751 9.44285C8.77096 9.34735 8.86683 9.20424 8.96266 9.10883C9.29818 8.82252 9.72953 8.7271 10.113 8.63166C10.8798 8.48851 11.6467 8.53624 12.4615 8.58395C12.6053 8.58395 12.6532 8.58395 12.7011 8.4408C12.8449 8.15451 13.1804 8.15451 13.42 8.15451C13.8993 8.24994 14.3787 8.34538 14.8579 8.48851C15.2414 8.58395 15.6727 8.7271 16.0562 8.91796C16.4396 9.06113 16.5354 9.29965 16.4875 9.63367C16.4875 9.68137 16.5354 9.77687 16.5834 9.77687C16.8709 9.87228 17.2065 9.91998 17.494 10.0154C18.1171 10.1586 18.7401 10.254 19.4111 10.3971C19.507 10.3971 19.6508 10.3971 19.6987 10.3494C19.9863 10.0154 21.4242 6.77077 22.0472 5.2916C19.7467 2.66726 16.3437 0.997229 12.5573 0.997229C5.60767 0.854083 0 6.43676 0 13.3555C0 20.2741 5.60767 25.8568 12.5573 25.8568C16.3437 25.8568 19.7467 24.1868 22.0472 21.5625C21.3762 19.9401 19.8904 16.6478 19.6987 16.5046C19.6508 16.4092 19.5549 16.3615 19.4111 16.4092ZM86.7989 16.4092C86.3197 16.5046 85.8404 16.6001 85.409 16.6955C84.9298 16.7909 84.4984 16.8864 84.0191 17.0296C83.9712 17.0296 83.9232 17.125 83.9232 17.125C83.8753 17.6021 83.7315 17.8407 83.2523 17.9838C82.6771 18.1747 82.1499 18.3655 81.5748 18.5087C81.1913 18.6041 80.76 18.7473 80.3766 18.5564C80.2806 18.5087 80.1848 18.4132 80.1369 18.3655C80.089 18.2224 79.9931 18.2224 79.8972 18.2224C79.2742 18.2224 78.6031 18.2701 77.9801 18.2224C77.4528 18.1747 76.9257 18.0793 76.4943 17.793C76.2067 17.6021 75.9671 17.3159 75.7274 17.0773C75.1523 16.5524 74.673 15.9798 74.3375 15.3118C73.9541 14.596 73.8582 13.7849 73.9062 12.9737C74.002 11.9717 74.4334 11.1605 75.0564 10.4448C75.344 10.1108 75.7274 9.77687 76.0629 9.44285C76.1588 9.34735 76.2546 9.20424 76.3505 9.10883C76.6861 8.82252 77.1174 8.7271 77.5008 8.63166C78.2676 8.48851 79.0345 8.53624 79.8493 8.58395C79.9931 8.58395 80.041 8.58395 80.089 8.4408C80.2327 8.15451 80.5682 8.15451 80.8079 8.15451C81.2872 8.24994 81.7664 8.34538 82.2457 8.48851C82.6292 8.58395 83.0605 8.7271 83.4439 8.91796C83.8274 9.06113 83.9232 9.29965 83.8753 9.63367C83.8753 9.68137 83.9232 9.77687 83.9711 9.77687C84.2587 9.87228 84.5943 9.91998 84.8819 10.0154C85.5049 10.1586 86.128 10.254 86.7989 10.3971C86.8949 10.3971 87.0386 10.3971 87.0865 10.3494C87.3741 10.0154 88.8124 6.77077 89.4348 5.2916C87.1344 2.66726 83.7315 0.997229 79.9452 0.997229C72.9955 0.997229 67.3878 6.57991 67.3878 13.4986C67.3878 20.4173 72.9955 26 79.9452 26C83.7315 26 87.1344 24.33 89.4348 21.7056C88.7638 20.0833 87.2783 16.7909 87.0865 16.6478C87.0386 16.4092 86.9428 16.3615 86.7989 16.4092ZM38.0554 0.710938L49.0311 24.3777V25.5705H42.6086L41.1708 22.5645H31.9685L30.5306 25.5705H24.1082V24.3777L35.0839 0.710938H38.0554ZM36.5696 11.3037L34.1732 16.7909H38.9661L36.5696 11.3037ZM47.737 7.00934H53.6802V25.5705H60.2465V7.00934H66.1416V1.04494H47.737V7.00934Z" fill="#FF5442" />
        </symbol>
          <symbol id="logo-catchjobs-c" viewBox="0 0 36 36">
    <g clip-path="url(#clip-catchjobs-c)">
      <path d="M0 5.625C0 2.5184 2.5184 0 5.625 0H30.375C33.4816 0 36 2.5184 36 5.625V30.375C36 33.4816 33.4816 36 30.375 36H5.625C2.5184 36 0 33.4816 0 30.375V5.625Z" fill="#D9D9D9" />
      <path d="M0 5.625C0 2.5184 2.5184 0 5.625 0H30.375C33.4816 0 36 2.5184 36 5.625V30.375C36 33.4816 33.4816 36 30.375 36H5.625C2.5184 36 0 33.4816 0 30.375V5.625Z" fill="url(#paint-catchjobs-c)" />
      <path d="M24.206 20.1609C23.8514 20.2317 23.4968 20.3026 23.1776 20.3734C22.823 20.4443 22.5038 20.5151 22.1492 20.6214C22.1138 20.6214 22.0783 20.6923 22.0783 20.6923C22.0428 21.0465 21.9364 21.2236 21.5818 21.3299C21.1562 21.4716 20.7662 21.6133 20.3407 21.7196C20.057 21.7904 19.7378 21.8967 19.4541 21.755C19.3831 21.7196 19.3122 21.6487 19.2768 21.6133C19.2413 21.507 19.1704 21.507 19.0994 21.507C18.6384 21.507 18.1419 21.5424 17.681 21.507C17.2908 21.4716 16.9008 21.4008 16.5816 21.1882C16.3688 21.0465 16.1916 20.834 16.0142 20.6568C15.5887 20.2672 15.234 19.8421 14.9858 19.3461C14.7021 18.8147 14.6312 18.2125 14.6667 17.6103C14.7376 16.8664 15.0567 16.2642 15.5177 15.7328C15.7305 15.4848 16.0142 15.2369 16.2625 14.9889C16.3334 14.918 16.4043 14.8118 16.4753 14.7409C16.7235 14.5284 17.0427 14.4575 17.3263 14.3867C17.8937 14.2804 18.4611 14.3158 19.064 14.3513C19.1704 14.3513 19.2058 14.3513 19.2413 14.245C19.3477 14.0324 19.5959 14.0324 19.7733 14.0324C20.1279 14.1033 20.4825 14.1741 20.8371 14.2804C21.1208 14.3513 21.4399 14.4575 21.7236 14.5992C22.0073 14.7055 22.0783 14.8826 22.0428 15.1306C22.0428 15.166 22.0783 15.2369 22.1137 15.2369C22.3265 15.3077 22.5748 15.3431 22.7875 15.414C23.2485 15.5203 23.7096 15.5911 24.206 15.6974C24.277 15.6974 24.3833 15.6974 24.4188 15.662C24.6316 15.414 25.6957 13.0051 26.1562 11.907C24.4542 9.95861 21.9364 8.71875 19.1349 8.71875C13.9928 8.71875 9.84375 12.8634 9.84375 18C9.84375 23.1366 13.9928 27.2812 19.1349 27.2812C21.9364 27.2812 24.4542 26.0414 26.1562 24.093C25.6598 22.8886 24.5607 20.4443 24.4188 20.338C24.3833 20.1609 24.3124 20.1255 24.206 20.1609Z" fill="white" />
    </g>
    <defs>
      <linearGradient id="paint-catchjobs-c" x1="36" y1="0" x2="0" y2="36" gradientUnits="userSpaceOnUse">
        <stop stop-color="#FF5E32" />
        <stop offset="0.48098" stop-color="#E94B52" />
        <stop offset="0.735062" stop-color="#C8416F" />
        <stop offset="1" stop-color="#6D25AA" />
      </linearGradient>
      <clipPath id="clip-catchjobs-c">
        <rect width="36" height="36" fill="white" />
      </clipPath>
    </defs>
  </symbol>
        <symbol id="logo-catchjobs-multi-line" viewBox="0 0 130 59">

            <path d="M130 0.971839V28.7343H122.302V17.7698H114.387V28.6803H106.689V0.971839H114.387V10.8562H122.302V0.971839H130ZM21.9558 18.3639C21.4137 18.4719 20.8716 18.58 20.3837 18.688C19.8415 18.796 19.3536 18.904 18.8115 19.0661C18.7573 19.0661 18.7031 19.1741 18.7031 19.1741C18.6489 19.7142 18.4862 19.9843 17.9441 20.1463C17.2936 20.3624 16.6972 20.5784 16.0467 20.7405C15.613 20.8485 15.1251 21.0105 14.6914 20.7945C14.583 20.7405 14.4746 20.6324 14.4204 20.5784C14.3661 20.4164 14.2577 20.4164 14.1493 20.4164C13.4445 20.4164 12.6856 20.4704 11.9808 20.4164C11.3845 20.3624 10.7882 20.2544 10.3003 19.9303C9.97498 19.7142 9.70392 19.3902 9.43286 19.1201C8.78232 18.526 8.2402 17.8778 7.86072 17.1216C7.42702 16.3114 7.3186 15.3932 7.37281 14.475C7.48123 13.3407 7.96914 12.4225 8.67389 11.6123C8.99917 11.2342 9.43286 10.8562 9.81234 10.4781C9.92077 10.37 10.0292 10.208 10.1376 10.1C10.5171 9.7759 11.005 9.66788 11.4387 9.55985C12.3061 9.39781 13.1735 9.45183 14.0951 9.50584C14.2577 9.50584 14.3119 9.50584 14.3661 9.3438C14.5288 9.01972 14.9083 9.01972 15.1793 9.01972C15.7214 9.12775 16.2636 9.23578 16.8057 9.39781C17.2394 9.50584 17.7273 9.66788 18.161 9.88393C18.5947 10.046 18.7031 10.316 18.6489 10.6941C18.6489 10.7481 18.7031 10.8562 18.7573 10.8562C19.0826 10.9642 19.4621 11.0182 19.7873 11.1262C20.4921 11.2883 21.1968 11.3963 21.9558 11.5583C22.0642 11.5583 22.2269 11.5583 22.2811 11.5043C22.6063 11.1262 24.2327 7.45336 24.9374 5.77897C22.3353 2.80827 18.4862 0.917826 14.2035 0.917826C6.34279 0.755788 0 7.07527 0 14.9071C0 22.7389 6.34279 29.0584 14.2035 29.0584C18.4862 29.0584 22.3353 27.168 24.9374 24.1973C24.1785 22.3608 22.4979 18.634 22.2811 18.4719C22.2269 18.3639 22.1184 18.3099 21.9558 18.3639ZM98.1776 18.3639C97.6355 18.4719 97.0934 18.58 96.6055 18.688C96.0634 18.796 95.5755 18.904 95.0334 19.0661C94.9792 19.0661 94.9249 19.1741 94.9249 19.1741C94.8707 19.7142 94.7081 19.9843 94.166 20.1463C93.5154 20.3624 92.9191 20.5784 92.2686 20.7405C91.8349 20.8485 91.347 21.0105 90.9133 20.7945C90.8048 20.7405 90.6964 20.6324 90.6422 20.5784C90.588 20.4164 90.4796 20.4164 90.3711 20.4164C89.6664 20.4164 88.9074 20.4704 88.2027 20.4164C87.6063 20.3624 87.01 20.2544 86.5221 19.9303C86.1968 19.7142 85.9258 19.3902 85.6547 19.1201C85.0042 18.526 84.462 17.8778 84.0826 17.1216C83.6489 16.3114 83.5404 15.3932 83.5947 14.475C83.7031 13.3407 84.191 12.4225 84.8957 11.6123C85.221 11.2342 85.6547 10.8562 86.0342 10.4781C86.1426 10.37 86.251 10.208 86.3595 10.1C86.739 9.7759 87.2269 9.66788 87.6605 9.55985C88.5279 9.39781 89.3953 9.45183 90.3169 9.50584C90.4796 9.50584 90.5338 9.50584 90.588 9.3438C90.7506 9.01972 91.1301 9.01972 91.4012 9.01972C91.9433 9.12775 92.4854 9.23578 93.0275 9.39781C93.4612 9.50584 93.9491 9.66788 94.3828 9.88393C94.8165 10.046 94.9249 10.316 94.8707 10.6941C94.8707 10.7481 94.9249 10.8562 94.9791 10.8562C95.3044 10.9642 95.6839 11.0182 96.0092 11.1262C96.7139 11.2883 97.4187 11.3963 98.1776 11.5583C98.2861 11.5583 98.4487 11.5583 98.5029 11.5043C98.8282 11.1262 100.455 7.45336 101.159 5.77897C98.5571 2.80827 94.7081 0.917826 90.4254 0.917826C82.5646 0.917826 76.2218 7.23731 76.2218 15.0691C76.2218 22.901 82.5646 29.2205 90.4254 29.2205C94.7081 29.2205 98.5571 27.33 101.159 24.3593C100.4 22.5229 98.7198 18.796 98.5029 18.634C98.4487 18.3639 98.3403 18.3099 98.1776 18.3639ZM43.0442 0.59375L55.4587 27.384V28.7343H48.1943L46.568 25.3315H36.1593L34.5329 28.7343H27.2686V27.384L39.6831 0.59375H43.0442ZM41.3636 12.5846L38.653 18.796H44.0742L41.3636 12.5846ZM53.995 7.72342H60.7173V28.7343H68.1443V7.72342H74.8123V0.971839H53.995V7.72342Z" fill="#FE5442" />
            <path d="M9.72546 38.2807H14.0351V52.4305C14.0351 53.7313 13.7382 54.8824 13.1445 55.8837C12.5603 56.8757 11.7318 57.643 10.6592 58.1858C9.58659 58.7286 8.3751 59 7.02474 59C4.81245 59 3.08859 58.4525 1.85315 57.3576C0.617717 56.2533 0 54.6952 0 52.6832H4.33839C4.33839 53.6845 4.55387 54.4238 4.98484 54.9011C5.4158 55.3783 6.09577 55.617 7.02474 55.617C7.84836 55.617 8.50439 55.3409 8.99282 54.7888C9.48125 54.2366 9.72546 53.4505 9.72546 52.4305V38.2807Z" fill="white" />
            <path d="M9.72546 38.2807H14.0351V52.4305C14.0351 53.7313 13.7382 54.8824 13.1445 55.8837C12.5603 56.8757 11.7318 57.643 10.6592 58.1858C9.58659 58.7286 8.3751 59 7.02474 59C4.81245 59 3.08859 58.4525 1.85315 57.3576C0.617717 56.2533 0 54.6952 0 52.6832H4.33839C4.33839 53.6845 4.55387 54.4238 4.98484 54.9011C5.4158 55.3783 6.09577 55.617 7.02474 55.617C7.84836 55.617 8.50439 55.3409 8.99282 54.7888C9.48125 54.2366 9.72546 53.4505 9.72546 52.4305V38.2807Z" fill="#FE5442" fill-opacity="0.5" />
            <path d="M34.9082 48.9632C34.9082 50.9753 34.5443 52.7393 33.8164 54.2553C33.0886 55.7714 32.0447 56.9412 30.6848 57.7647C29.3344 58.5882 27.7829 59 26.0303 59C24.2969 59 22.7502 58.5929 21.3903 57.7787C20.0303 56.9646 18.9769 55.8041 18.2298 54.2975C17.4828 52.7814 17.1045 51.0408 17.095 49.0755V48.0648C17.095 46.0528 17.4637 44.2841 18.2011 42.7587C18.9481 41.2239 19.9968 40.0495 21.3472 39.2353C22.7071 38.4118 24.2586 38 26.0016 38C27.7446 38 29.2913 38.4118 30.6417 39.2353C32.0016 40.0495 33.0503 41.2239 33.7877 42.7587C34.5347 44.2841 34.9082 46.0481 34.9082 48.0508V48.9632ZM30.5411 48.0368C30.5411 45.8937 30.1484 44.2654 29.3631 43.1517C28.5778 42.0381 27.4573 41.4813 26.0016 41.4813C24.5555 41.4813 23.4397 42.0334 22.6544 43.1377C21.8691 44.2326 21.4717 45.8422 21.4621 47.9666V48.9632C21.4621 51.0501 21.8547 52.6691 22.6401 53.8202C23.4254 54.9713 24.5555 55.5468 26.0303 55.5468C27.4765 55.5468 28.5874 54.9947 29.3631 53.8904C30.1389 52.7767 30.5315 51.1578 30.5411 49.0334V48.0368Z" fill="white" />
            <path d="M34.9082 48.9632C34.9082 50.9753 34.5443 52.7393 33.8164 54.2553C33.0886 55.7714 32.0447 56.9412 30.6848 57.7647C29.3344 58.5882 27.7829 59 26.0303 59C24.2969 59 22.7502 58.5929 21.3903 57.7787C20.0303 56.9646 18.9769 55.8041 18.2298 54.2975C17.4828 52.7814 17.1045 51.0408 17.095 49.0755V48.0648C17.095 46.0528 17.4637 44.2841 18.2011 42.7587C18.9481 41.2239 19.9968 40.0495 21.3472 39.2353C22.7071 38.4118 24.2586 38 26.0016 38C27.7446 38 29.2913 38.4118 30.6417 39.2353C32.0016 40.0495 33.0503 41.2239 33.7877 42.7587C34.5347 44.2841 34.9082 46.0481 34.9082 48.0508V48.9632ZM30.5411 48.0368C30.5411 45.8937 30.1484 44.2654 29.3631 43.1517C28.5778 42.0381 27.4573 41.4813 26.0016 41.4813C24.5555 41.4813 23.4397 42.0334 22.6544 43.1377C21.8691 44.2326 21.4717 45.8422 21.4621 47.9666V48.9632C21.4621 51.0501 21.8547 52.6691 22.6401 53.8202C23.4254 54.9713 24.5555 55.5468 26.0303 55.5468C27.4765 55.5468 28.5874 54.9947 29.3631 53.8904C30.1389 52.7767 30.5315 51.1578 30.5411 49.0334V48.0368Z" fill="#FE5442" fill-opacity="0.5" />
            <path d="M38.0399 58.7193V38.2807H45.3663C47.9042 38.2807 49.8292 38.758 51.1413 39.7126C52.4533 40.6578 53.1093 42.0475 53.1093 43.8817C53.1093 44.883 52.846 45.7674 52.3192 46.5348C51.7925 47.2928 51.0599 47.8496 50.1213 48.2052C51.1939 48.4672 52.0367 48.996 52.6496 49.7914C53.2721 50.5869 53.5834 51.5602 53.5834 52.7112C53.5834 54.6765 52.9417 56.1644 51.6584 57.1751C50.3751 58.1858 48.5459 58.7005 46.1708 58.7193H38.0399ZM42.3496 49.8195V55.3362H46.0415C47.0567 55.3362 47.8468 55.1023 48.4118 54.6344C48.9864 54.1571 49.2737 53.502 49.2737 52.6691C49.2737 50.7975 48.2825 49.8476 46.3001 49.8195H42.3496ZM42.3496 46.8436H45.5387C47.7127 46.8061 48.7997 45.9592 48.7997 44.3028C48.7997 43.3763 48.5219 42.7119 47.9665 42.3095C47.4206 41.8977 46.5539 41.6918 45.3663 41.6918H42.3496V46.8436Z" fill="white" />
            <path d="M38.0399 58.7193V38.2807H45.3663C47.9042 38.2807 49.8292 38.758 51.1413 39.7126C52.4533 40.6578 53.1093 42.0475 53.1093 43.8817C53.1093 44.883 52.846 45.7674 52.3192 46.5348C51.7925 47.2928 51.0599 47.8496 50.1213 48.2052C51.1939 48.4672 52.0367 48.996 52.6496 49.7914C53.2721 50.5869 53.5834 51.5602 53.5834 52.7112C53.5834 54.6765 52.9417 56.1644 51.6584 57.1751C50.3751 58.1858 48.5459 58.7005 46.1708 58.7193H38.0399ZM42.3496 49.8195V55.3362H46.0415C47.0567 55.3362 47.8468 55.1023 48.4118 54.6344C48.9864 54.1571 49.2737 53.502 49.2737 52.6691C49.2737 50.7975 48.2825 49.8476 46.3001 49.8195H42.3496ZM42.3496 46.8436H45.5387C47.7127 46.8061 48.7997 45.9592 48.7997 44.3028C48.7997 43.3763 48.5219 42.7119 47.9665 42.3095C47.4206 41.8977 46.5539 41.6918 45.3663 41.6918H42.3496V46.8436Z" fill="#FE5442" fill-opacity="0.5" />
            <path d="M67.676 53.357C67.676 52.5615 67.3887 51.9532 66.814 51.5321C66.2394 51.1016 65.2051 50.6524 63.7111 50.1845C62.2171 49.7072 61.0343 49.2393 60.1628 48.7807C57.7877 47.5267 56.6002 45.8376 56.6002 43.7132C56.6002 42.609 56.9162 41.6263 57.5483 40.7654C58.1899 39.8951 59.1046 39.2166 60.2921 38.7299C61.4892 38.2433 62.83 38 64.3144 38C65.8085 38 67.1397 38.2667 68.3081 38.8001C69.4765 39.3242 70.3815 40.0682 71.0231 41.0321C71.6744 41.996 72 43.0909 72 44.3168H67.6903C67.6903 43.381 67.3887 42.6557 66.7853 42.141C66.182 41.617 65.3344 41.3549 64.2426 41.3549C63.1891 41.3549 62.3703 41.5749 61.7861 42.0147C61.2019 42.4452 60.9098 43.016 60.9098 43.7273C60.9098 44.3917 61.2498 44.9485 61.9298 45.3977C62.6193 45.8469 63.6297 46.268 64.9609 46.6611C67.4126 47.3817 69.1987 48.2754 70.3192 49.3422C71.4397 50.4091 72 51.738 72 53.3289C72 55.0976 71.3152 56.4873 69.9457 57.498C68.5762 58.4993 66.7326 59 64.415 59C62.8061 59 61.3408 58.7146 60.0192 58.1437C58.6975 57.5635 57.6872 56.7727 56.988 55.7714C56.2985 54.7701 55.9537 53.6096 55.9537 52.2901H60.2777C60.2777 54.5455 61.6568 55.6731 64.415 55.6731C65.4397 55.6731 66.2394 55.4719 66.814 55.0695C67.3887 54.6578 67.676 54.0869 67.676 53.357Z" fill="white" />
            <path d="M67.676 53.357C67.676 52.5615 67.3887 51.9532 66.814 51.5321C66.2394 51.1016 65.2051 50.6524 63.7111 50.1845C62.2171 49.7072 61.0343 49.2393 60.1628 48.7807C57.7877 47.5267 56.6002 45.8376 56.6002 43.7132C56.6002 42.609 56.9162 41.6263 57.5483 40.7654C58.1899 39.8951 59.1046 39.2166 60.2921 38.7299C61.4892 38.2433 62.83 38 64.3144 38C65.8085 38 67.1397 38.2667 68.3081 38.8001C69.4765 39.3242 70.3815 40.0682 71.0231 41.0321C71.6744 41.996 72 43.0909 72 44.3168H67.6903C67.6903 43.381 67.3887 42.6557 66.7853 42.141C66.182 41.617 65.3344 41.3549 64.2426 41.3549C63.1891 41.3549 62.3703 41.5749 61.7861 42.0147C61.2019 42.4452 60.9098 43.016 60.9098 43.7273C60.9098 44.3917 61.2498 44.9485 61.9298 45.3977C62.6193 45.8469 63.6297 46.268 64.9609 46.6611C67.4126 47.3817 69.1987 48.2754 70.3192 49.3422C71.4397 50.4091 72 51.738 72 53.3289C72 55.0976 71.3152 56.4873 69.9457 57.498C68.5762 58.4993 66.7326 59 64.415 59C62.8061 59 61.3408 58.7146 60.0192 58.1437C58.6975 57.5635 57.6872 56.7727 56.988 55.7714C56.2985 54.7701 55.9537 53.6096 55.9537 52.2901H60.2777C60.2777 54.5455 61.6568 55.6731 64.415 55.6731C65.4397 55.6731 66.2394 55.4719 66.814 55.0695C67.3887 54.6578 67.676 54.0869 67.676 53.357Z" fill="#FE5442" fill-opacity="0.5" />

        </symbol>
</svg>
