<?xml version="1.0" encoding="UTF-8"?>
<svg id="icon-video" xmlns="http://www.w3.org/2000/svg" viewBox="0 0 24 24">
<path d="M5 5.00019V19.0002C5.00229 19.3265 5.08438 19.6473 5.23913 19.9346C5.39387 20.2219 5.61656 20.4669 5.88776 20.6484C6.15897 20.8299 6.47046 20.9422 6.79506 20.9756C7.11965 21.0091 7.4475 20.9626 7.75 20.8402L20 13.7402C20.3126 13.5672 20.5732 13.3137 20.7546 13.0059C20.9361 12.6982 21.0318 12.3474 21.0318 11.9902C21.0318 11.6329 20.9361 11.2822 20.7546 10.9744C20.5732 10.6667 20.3126 10.4131 20 10.2402L7.75 3.14019C7.45442 3.02013 7.13442 2.97252 6.81669 3.00134C6.49897 3.03016 6.19275 3.13456 5.9236 3.30584C5.65444 3.47712 5.43017 3.7103 5.2695 3.98592C5.10883 4.26153 5.01643 4.57158 5 4.89019" stroke="#FF5442" stroke-width="2" stroke-linecap="round" stroke-linejoin="round" />
</svg>
