<?xml version="1.0" encoding="UTF-8"?>
<svg id="logo-conrad" xmlns="http://www.w3.org/2000/svg" viewBox="0 0 124 32">
<g clip-path="url(#clip0_19650_3982)">
                <path d="M95.6641 4.84819L91.6195 15.127C91.4984 15.3936 91.4016 15.6846 91.4016 15.9755C91.4016 16.4118 91.7164 16.727 92.4188 16.9694H87.2359C88.0109 16.7512 88.6164 16.1936 88.8828 15.4421L95.6641 0.193649L102.445 15.4664C102.712 16.2179 103.341 16.7997 104.092 16.9936H98.9094C99.5875 16.727 99.9266 16.4361 99.9266 15.9997C99.9023 15.7088 99.8297 15.4179 99.7086 15.1512C99.6844 15.127 95.6641 4.84819 95.6641 4.84819ZM9.27578 1.84213C5.44922 1.84213 2.97891 4.5088 2.97891 8.55729C2.97891 12.63 5.35234 15.2967 9.22734 15.2967C11.2859 15.3452 13.2477 14.424 14.5312 12.824L14.2406 16.1936C12.4727 16.824 10.632 17.1391 8.79141 17.1633C3.34219 17.1633 0 13.3815 0 8.6785C0 3.78153 3.68125 0.242134 8.76719 0.242134C10.2203 0.314862 11.6492 0.436074 13.0781 0.630013C13.4656 0.654255 13.8289 0.436074 13.9984 0.0966797V3.99971C14.0227 3.97547 12.8359 1.84213 9.27578 1.84213ZM29.4016 15.2967C26.3984 15.2967 24.0734 12.3391 24.0734 8.5088C24.0734 4.72698 26.4227 1.91486 29.5953 1.91486C32.8164 1.91486 34.9234 4.53304 34.9234 8.55729C34.9477 12.533 32.6227 15.2967 29.4016 15.2967ZM29.4984 0.217892C24.6305 0.217892 21.3125 3.61183 21.3125 8.55729C21.2156 10.7876 22.0391 12.9694 23.5648 14.5936C25.1148 16.2179 27.2461 17.1391 29.4984 17.1633C34.1242 17.1633 37.6359 13.43 37.6359 8.58153C37.6602 3.61183 34.318 0.217892 29.4984 0.217892ZM57.4711 12.0967V3.29668C57.4711 1.52698 57.3016 1.23607 56.0422 0.823952H60.8859C59.7477 1.35729 59.675 1.57547 59.675 3.32092V17.2846L47.2023 5.45426V14.5936C47.2023 16.1936 47.3961 16.4846 48.7523 16.9694H43.5453C44.5383 16.6058 44.9258 16.1936 44.9258 14.6179V0.193649L57.4711 12.0967ZM79.2922 4.79971C79.3648 5.69668 79.0742 6.56941 78.5414 7.27244C78.0086 7.99971 77.2336 8.48456 76.3617 8.6785L79.5102 12.4846C80.7211 14.1573 82.1258 15.6846 83.7727 16.9452H80.2609L73.3828 8.5088C75.0297 8.14516 76.5797 7.15123 76.5797 5.26032C76.5555 4.07244 75.8047 3.03001 74.6664 2.64213C74.3031 2.52092 73.9156 2.47244 73.5281 2.49668C73.0195 2.49668 72.4867 2.56941 71.9781 2.71486V13.5755C71.9781 14.6906 72.0023 16.5573 73.4797 17.0179H73.068H68.5875H68.2C69.7742 16.5815 69.6773 14.6906 69.6773 13.5755V4.3391C69.6773 3.22395 69.8711 1.3088 68.4664 0.89668H74.2062C76.3133 0.872437 79.2922 1.69668 79.2922 4.79971ZM114.821 15.1027H113.61C112.617 15.1027 112.254 14.7149 112.254 13.5755V2.47244H114.579C116.347 2.35123 118.066 3.00577 119.326 4.24213C120.585 5.4785 121.239 7.22395 121.094 8.99365C121.118 12.7755 118.527 15.0785 114.821 15.1027ZM124 8.92092C124 3.46638 119.931 0.872437 114.603 0.872437H108.5C109.88 1.35729 109.953 1.69668 109.953 3.27244V14.6179C109.953 16.1936 109.59 16.6058 108.5 16.9452H113.707C120.052 16.9694 124 14.1088 124 8.92092ZM16.057 28.727C16.0813 28.727 16.1055 28.7027 16.1055 28.6785V28.533C16.1055 27.4664 16.1055 27.2482 16.0813 27.03C16.057 26.8118 16.0086 26.6664 15.7664 26.6421C15.6937 26.6179 15.5727 26.6179 15.5 26.6179C15.4273 26.6179 15.3789 26.5936 15.3789 26.5452C15.3789 26.4967 15.4273 26.4724 15.5242 26.4724C15.8875 26.4724 16.3477 26.4967 16.5414 26.4967C16.7109 26.4967 17.1711 26.4724 17.4375 26.4724C17.5344 26.4724 17.5828 26.4967 17.5828 26.5452C17.5828 26.5936 17.5344 26.6179 17.4617 26.6179C17.3891 26.6179 17.3164 26.6179 17.2437 26.6421C17.05 26.6906 17.0016 26.7876 17.0016 27.03C16.9773 27.2724 16.9773 27.4664 16.9773 28.533V29.7694C16.9531 30.2543 16.9773 30.7876 17.0258 31.2724C17.05 31.4906 17.0984 31.6361 17.2922 31.6361C17.4133 31.6603 17.5344 31.6603 17.6555 31.6603C17.7281 31.6603 17.7523 31.6846 17.7523 31.733C17.7523 31.7815 17.6797 31.8058 17.607 31.8058C17.1469 31.8058 16.6867 31.7815 16.493 31.7815C16.3234 31.7815 15.8633 31.8058 15.5969 31.8058C15.5 31.8058 15.4516 31.7815 15.4516 31.733C15.4516 31.6846 15.4758 31.6603 15.5727 31.6603C15.6453 31.6603 15.7422 31.6603 15.8148 31.6361C15.9602 31.6118 16.0086 31.4421 16.0328 31.2482C16.0812 30.9573 16.0813 30.3997 16.0813 29.7452V29.1149C16.0813 29.0906 16.0813 29.0906 16.057 29.0906L16.0328 29.0664H13.3688C13.3445 29.0664 13.3203 29.0664 13.3203 29.1149V29.7452C13.3203 30.3997 13.3203 30.9573 13.3688 31.2482C13.393 31.4664 13.4414 31.6118 13.6594 31.6118C13.7805 31.6361 13.9016 31.6361 14.0227 31.6361C14.0953 31.6361 14.1195 31.6603 14.1195 31.7088C14.1195 31.7573 14.0469 31.7815 13.9742 31.7815C13.5141 31.7815 13.0539 31.7573 12.8602 31.7573C12.6906 31.7573 12.2547 31.7815 11.9641 31.7815C11.8672 31.7815 11.8187 31.7573 11.8187 31.7088C11.8187 31.6603 11.8672 31.6361 11.9156 31.6361C11.9883 31.6361 12.0852 31.6361 12.1578 31.6118C12.3031 31.5876 12.3516 31.4179 12.3758 31.224C12.4242 30.7391 12.4484 30.23 12.4242 29.7209V28.4846C12.4242 27.4179 12.4242 27.1997 12.4 26.9815C12.3758 26.7633 12.3273 26.6179 12.0852 26.5936C12.0125 26.5694 11.8914 26.5694 11.7945 26.5694C11.7219 26.5694 11.6977 26.5452 11.6977 26.4967C11.6977 26.4482 11.7461 26.424 11.843 26.424C12.2305 26.424 12.6664 26.4482 12.8602 26.4482C13.0297 26.4482 13.4898 26.424 13.7562 26.424C13.8531 26.424 13.9016 26.4482 13.9016 26.4967C13.9016 26.5452 13.8531 26.5694 13.7805 26.5694C13.7078 26.5694 13.6352 26.5694 13.5625 26.5936C13.3687 26.6421 13.3203 26.7391 13.2961 26.9815C13.2719 27.224 13.2719 27.4179 13.2719 28.4846V28.63C13.2719 28.6785 13.2961 28.6785 13.3203 28.6785C13.3445 28.727 16.057 28.727 16.057 28.727ZM22.7656 31.5633C21.4094 31.5633 20.5859 30.3997 20.5859 28.9209C20.5859 27.1512 21.5062 26.7149 22.3297 26.7149C23.4922 26.7149 24.4125 27.7088 24.4125 29.2846C24.4125 31.3209 23.25 31.5876 22.7656 31.5633ZM22.5234 26.3512C21.3609 26.3027 20.3195 26.9573 19.8352 27.9997C19.2055 29.4058 19.8594 31.0543 21.2641 31.6603C21.3125 31.6846 21.3367 31.6846 21.3609 31.7088C21.7242 31.8543 22.0875 31.927 22.4508 31.927C23.6617 31.9997 24.7516 31.2724 25.2117 30.1573C25.357 29.7936 25.4297 29.4058 25.4055 29.0179C25.4297 28.2664 25.1391 27.5391 24.582 27.03C24.025 26.5209 23.2742 26.2785 22.5234 26.3512ZM28.893 26.8603L27.8273 26.8846C27.4156 26.9088 27.2461 26.933 27.1492 27.1027C27.1008 27.1755 27.0523 27.2724 27.0281 27.3452C27.0039 27.4179 26.9797 27.4179 26.9555 27.4179C26.907 27.4179 26.8828 27.3694 26.8828 27.3209C26.8828 27.224 27.0281 26.5452 27.0281 26.5209C27.0523 26.424 27.0766 26.3755 27.1008 26.3755C27.1977 26.424 27.3187 26.4482 27.4156 26.4482C27.6336 26.4724 27.9 26.4967 28.118 26.4967H30.9273C31.0969 26.4967 31.2664 26.4724 31.4117 26.4482C31.4844 26.424 31.5328 26.424 31.6055 26.3997C31.6539 26.3997 31.6781 26.4482 31.6781 26.5452C31.6781 26.6906 31.6539 27.1755 31.6539 27.3694C31.6539 27.4421 31.6297 27.4664 31.5812 27.4664C31.5328 27.4664 31.5086 27.4179 31.5086 27.3209L31.4844 27.2482C31.4602 27.0543 31.2664 26.8603 30.6609 26.8603L29.7648 26.8361V29.7452C29.7648 30.3997 29.7648 30.9573 29.8133 31.2482C29.8375 31.4664 29.8859 31.6118 30.0797 31.6118C30.2008 31.6361 30.3219 31.6361 30.443 31.6361C30.5156 31.6361 30.5398 31.6603 30.5398 31.7088C30.5398 31.7573 30.4914 31.7815 30.4187 31.7815C29.9344 31.7815 29.4984 31.7573 29.3047 31.7573C29.1352 31.7573 28.6992 31.7815 28.4086 31.7815C28.3117 31.7815 28.2633 31.7573 28.2633 31.7088C28.2633 31.6603 28.3117 31.6361 28.3844 31.6361C28.457 31.6361 28.5539 31.6361 28.6266 31.6118C28.7719 31.5876 28.8203 31.4179 28.8445 31.224C28.893 30.933 28.893 30.3755 28.893 29.7209V26.8603ZM34.5359 28.5088C34.5359 27.4421 34.5359 27.224 34.5117 27.0058C34.5117 26.7876 34.4391 26.6421 34.1969 26.6179C34.1242 26.5936 34.0031 26.5936 33.9305 26.5936C33.8578 26.5936 33.8094 26.5694 33.8094 26.5209C33.8094 26.4724 33.8578 26.4482 33.9789 26.4482C34.1727 26.4482 34.3664 26.4482 34.5602 26.4482C34.7539 26.4482 34.9234 26.4724 34.9961 26.4724C35.2141 26.4724 36.6188 26.4724 36.7641 26.4724C36.9094 26.4724 37.0063 26.4482 37.0789 26.424C37.1273 26.3997 37.1516 26.3997 37.1758 26.3755C37.2242 26.3755 37.2242 26.424 37.2242 26.4482C37.2 26.5936 37.1758 26.7633 37.1516 26.9088C37.1516 26.9815 37.1273 27.2724 37.1031 27.3694C37.1031 27.4179 37.0789 27.4421 37.0305 27.4421C36.982 27.4421 36.9578 27.3936 36.9578 27.3452C36.9578 27.2724 36.9336 27.1755 36.9094 27.1027C36.8609 26.9815 36.7883 26.8846 36.425 26.8361C36.3039 26.8118 35.5531 26.8118 35.4078 26.8118C35.3594 26.8118 35.3594 26.8361 35.3594 26.8846V28.6785C35.3594 28.727 35.3594 28.7512 35.4078 28.7512C35.5773 28.7512 36.3766 28.7512 36.5461 28.727C36.6672 28.727 36.7883 28.6785 36.8852 28.63C36.9336 28.5815 36.9578 28.5573 36.982 28.5573C37.0305 28.5573 37.0305 28.5815 37.0305 28.63C37.0305 28.6785 37.0063 28.7997 36.9578 29.1391C36.9578 29.2846 36.9094 29.5755 36.9094 29.624C36.9094 29.6724 36.9094 29.7452 36.8367 29.7452C36.7883 29.7452 36.7641 29.7209 36.7641 29.6967C36.7641 29.6967 36.7641 29.6967 36.7641 29.6724C36.7641 29.5997 36.7398 29.5027 36.7156 29.4058C36.6672 29.2603 36.5945 29.1633 36.3281 29.1391C35.9891 29.1149 35.65 29.1149 35.3109 29.1149C35.2625 29.1149 35.2625 29.1633 35.2625 29.1876V29.7452C35.2625 29.9876 35.2625 30.6421 35.2625 30.8361C35.2867 31.3209 35.3836 31.4421 36.1102 31.4421C36.3281 31.4664 36.5703 31.4179 36.7641 31.3694C36.9578 31.2967 37.0305 31.1512 37.1031 30.8603C37.1273 30.7876 37.1516 30.7633 37.1758 30.7633C37.2242 30.7633 37.2484 30.8361 37.2484 30.8846C37.2242 31.1512 37.2 31.3937 37.1516 31.6603C37.1031 31.8543 37.0547 31.8543 36.7883 31.8543C36.2555 31.8543 35.868 31.83 35.5531 31.83C35.2383 31.83 35.0445 31.8058 34.8023 31.8058C34.7297 31.8058 34.5844 31.8058 34.3906 31.83C34.2211 31.83 34.0273 31.83 33.9062 31.83C33.8094 31.83 33.7609 31.8058 33.7609 31.7573C33.7609 31.7088 33.7852 31.6846 33.882 31.6846C33.9547 31.6846 34.0516 31.6846 34.1242 31.6603C34.2695 31.6361 34.318 31.4664 34.3422 31.2724C34.3906 30.9815 34.3906 30.424 34.3906 29.7694L34.5359 28.5088ZM41.4867 29.7452C41.4867 30.6664 41.4867 31.127 41.632 31.2724C41.7531 31.3694 41.9469 31.4179 42.4797 31.4179C42.843 31.4179 43.1336 31.4179 43.3031 31.1997C43.4 31.0785 43.4727 30.933 43.4969 30.7633C43.4969 30.6906 43.5211 30.6664 43.5695 30.6664C43.6422 30.6664 43.6422 30.7149 43.6422 30.7876C43.618 31.0543 43.5695 31.3209 43.5453 31.5876C43.4969 31.733 43.4727 31.7815 43.1094 31.7815C42.6008 31.7815 42.2133 31.7573 41.8984 31.7573C41.5836 31.7573 41.3172 31.733 41.0266 31.733C40.9539 31.733 40.8086 31.733 40.6391 31.733C40.4695 31.7573 40.2758 31.7573 40.1547 31.7573C40.0578 31.7573 40.0094 31.733 40.0094 31.6846C40.0094 31.6361 40.0336 31.6118 40.1063 31.6118C40.1789 31.6118 40.2758 31.6118 40.3484 31.5876C40.4938 31.5633 40.5422 31.3937 40.5664 31.1997C40.6148 30.9088 40.6148 30.3512 40.6148 29.6967V28.4603C40.6148 27.3936 40.6148 27.1755 40.5906 26.9573C40.5664 26.7391 40.518 26.5936 40.2758 26.5694C40.2031 26.5452 40.1305 26.5452 40.0578 26.5452C39.9852 26.5452 39.9367 26.5209 39.9367 26.4724C39.9367 26.424 39.9852 26.3997 40.082 26.3997C40.4211 26.3997 40.857 26.424 41.0508 26.424C41.2445 26.424 41.7531 26.3997 42.0195 26.3997C42.1164 26.3997 42.1648 26.424 42.1648 26.4724C42.1648 26.5209 42.1164 26.5452 42.0438 26.5452C41.9711 26.5452 41.85 26.5452 41.7773 26.5694C41.5836 26.6179 41.5352 26.7149 41.5109 26.9573C41.4867 27.1997 41.4867 27.3936 41.4867 28.4603V29.7452ZM46.0398 31.733C45.9188 31.6846 45.8945 31.6603 45.8945 31.5149C45.8945 31.127 45.9188 30.6906 45.943 30.5936C45.943 30.4967 45.9672 30.3997 46.0156 30.3997C46.0883 30.3997 46.0883 30.4724 46.0883 30.5209C46.0883 30.6421 46.1125 30.7633 46.1609 30.8846C46.282 31.3452 46.6938 31.6361 47.1781 31.6118C47.6625 31.6603 48.0742 31.3209 48.1227 30.8361C48.1227 30.8118 48.1227 30.8118 48.1227 30.7876C48.1227 30.424 48.0258 30.1088 47.4203 29.6482L47.0812 29.4058C46.4758 29.0421 46.0883 28.4361 46.0156 27.733C46.0156 26.9573 46.6695 26.3755 47.6383 26.3755C47.9531 26.3755 48.268 26.424 48.5828 26.4967C48.6555 26.5209 48.6797 26.5452 48.6797 26.5694C48.6797 26.6664 48.6313 26.8603 48.6313 27.4179C48.6313 27.5633 48.607 27.6361 48.5586 27.6361C48.5102 27.6361 48.4859 27.5876 48.4859 27.5149C48.4375 27.03 48.0016 26.6664 47.5414 26.7149C47.0086 26.7149 46.6938 27.03 46.6938 27.4421C46.6938 27.7815 46.8633 28.024 47.4445 28.4603L47.6625 28.6058C48.5344 29.2361 48.825 29.7452 48.825 30.3997C48.825 30.8846 48.5828 31.3694 48.1711 31.6361C47.832 31.8543 47.4203 31.9512 47.0328 31.927C46.718 31.927 46.3789 31.8785 46.0398 31.733ZM57.2773 31.4664C56.6961 31.4664 56.1875 31.1027 55.9937 30.5452C55.9211 30.3755 55.9211 30.1815 55.9211 30.0118C55.8969 29.5997 56.0906 29.1876 56.4055 28.9452C56.5266 29.1149 56.9867 29.624 57.1805 29.8421C57.3742 30.0603 58.0523 30.7149 58.4641 31.0543C58.125 31.3209 57.7133 31.4664 57.2773 31.4664ZM61.0555 31.6846C60.7891 31.6603 60.5469 31.5876 60.2805 31.4421C59.9172 31.224 59.6023 31.0058 59.2875 30.7391C59.6992 30.2543 59.9414 29.6724 59.9898 29.0664C59.9898 28.9936 59.893 28.9452 59.7477 28.9209C59.457 28.8724 59.1906 28.8724 58.9 28.8724C58.8273 28.8724 58.7789 28.8967 58.7789 28.9452C58.7789 28.9936 58.8273 29.0179 58.8516 29.0179C58.9727 29.0179 59.0938 29.0664 59.2148 29.1149C59.2875 29.1876 59.3602 29.333 59.3359 29.4543C59.3117 29.8421 59.2148 30.23 58.9969 30.5452C58.8758 30.424 57.9797 29.624 57.7375 29.3573C57.1805 28.727 56.5508 28.1452 56.5508 27.4906C56.5266 27.0785 56.8414 26.7149 57.2531 26.6906C57.2773 26.6906 57.3016 26.6906 57.3258 26.6906C57.6164 26.6664 57.907 26.7876 58.1008 27.0058C58.2461 27.1755 58.3188 27.3694 58.3188 27.6118C58.3188 27.7088 58.3187 27.733 58.3672 27.733C58.4156 27.733 58.4398 27.7088 58.4398 27.6118C58.4883 27.2967 58.5125 27.0058 58.5125 26.6906C58.5125 26.6179 58.5125 26.5452 58.3914 26.4967C58.125 26.3997 57.8344 26.3512 57.5195 26.3512C56.2844 26.3512 55.7758 27.1027 55.7758 27.6603C55.7758 28.024 55.8969 28.3876 56.1391 28.6785C55.4852 28.9936 55.0492 29.624 54.9766 30.3512C54.9766 30.9815 55.4367 31.927 56.9383 31.927C57.568 31.9512 58.1734 31.7088 58.6336 31.2967C59.0938 31.7088 59.6992 31.927 60.3047 31.83H60.8375C60.9828 31.83 61.0555 31.8058 61.0555 31.7573C61.1523 31.7088 61.1281 31.6846 61.0555 31.6846ZM68.9266 29.1633C68.7812 29.2603 68.5875 29.3088 68.4422 29.2846C68.2484 29.2846 68.0789 29.2603 67.9094 29.2118C67.8367 29.1876 67.8367 29.1633 67.8367 29.0906V26.933C67.8367 26.8603 67.8609 26.8603 67.9094 26.8361C68.0305 26.8118 68.1516 26.7876 68.2727 26.8118C68.757 26.8361 69.193 27.1755 69.3383 27.6361C69.3867 27.7815 69.4109 27.9512 69.3625 28.1209C69.3625 28.4846 69.2414 28.8967 68.9266 29.1633ZM71.7844 31.6846C71.7117 31.6846 71.6633 31.6846 71.5664 31.6603C71.2516 31.5876 70.9609 31.4421 70.7914 31.1755C70.3555 30.7391 69.8711 30.1088 69.2414 29.3088C69.7984 28.9452 70.1617 28.3876 70.1617 27.7088C70.1617 27.3452 69.968 26.9573 69.6773 26.7391C69.2898 26.5209 68.8297 26.3997 68.3695 26.424C68.1516 26.424 67.5945 26.4482 67.3523 26.4482C67.207 26.4482 66.7469 26.424 66.3836 26.424C66.2867 26.424 66.2141 26.4482 66.2141 26.4967C66.2141 26.5452 66.2625 26.5694 66.3352 26.5694C66.4078 26.5694 66.5289 26.5694 66.6016 26.5936C66.8195 26.6421 66.8922 26.7633 66.9164 26.9815C66.9164 27.1997 66.9406 27.4179 66.9406 28.4846V29.7209C66.9406 30.3755 66.9406 30.933 66.8922 31.224C66.868 31.4421 66.8195 31.5876 66.6742 31.6118C66.6016 31.6361 66.5047 31.6361 66.432 31.6361C66.3594 31.6361 66.3352 31.6603 66.3352 31.7088C66.3352 31.7573 66.3836 31.7815 66.4805 31.7815C66.7711 31.7815 67.207 31.7573 67.3523 31.7573C67.4492 31.7573 67.982 31.7815 68.3937 31.7815C68.4906 31.7815 68.5391 31.7573 68.5391 31.7088C68.5391 31.6603 68.5148 31.6361 68.4664 31.6361C68.3453 31.6361 68.2484 31.6361 68.1031 31.6118C67.8852 31.5876 67.8609 31.4179 67.8367 31.224C67.7883 30.933 67.7883 30.3755 67.7883 29.7209V29.6482C67.7883 29.5997 67.8125 29.5755 67.8609 29.5755L68.4906 29.5997C68.5391 29.5997 68.5875 29.624 68.6117 29.6482C68.7086 29.7452 69.0477 30.23 69.3141 30.6179C69.5563 31.03 69.8953 31.3937 70.2828 31.6603C70.525 31.7573 70.7672 31.83 71.0578 31.7815H71.7359C71.8086 31.7815 71.857 31.7815 71.857 31.7088C71.857 31.7088 71.8328 31.6846 71.7844 31.6846ZM73.8914 28.5088C73.8914 27.4421 73.8914 27.224 73.8914 27.0058C73.8672 26.7876 73.8187 26.6421 73.5766 26.6179C73.5039 26.5936 73.3828 26.5936 73.3102 26.5936C73.2375 26.5936 73.1891 26.5694 73.1891 26.5209C73.1891 26.4724 73.2617 26.4482 73.3586 26.4482C73.5523 26.4482 73.7461 26.4482 73.9398 26.4482C74.1336 26.4482 74.3031 26.4724 74.3758 26.4724C74.5938 26.4724 76.0227 26.4724 76.1437 26.4724C76.2648 26.4724 76.3859 26.4482 76.4586 26.424C76.507 26.3997 76.5312 26.3997 76.5555 26.3755C76.6039 26.3755 76.6039 26.424 76.6039 26.4482C76.6039 26.5209 76.5555 26.5936 76.5312 26.9088C76.5312 27.0785 76.507 27.224 76.4828 27.3694C76.4828 27.4179 76.4586 27.4421 76.4102 27.4421C76.3617 27.4421 76.3375 27.3936 76.3375 27.3452C76.3375 27.2724 76.3133 27.1755 76.2891 27.1027C76.2406 26.9815 76.168 26.8846 75.8047 26.8361C75.6836 26.8118 74.9328 26.8118 74.7875 26.8118C74.7391 26.8118 74.7391 26.8361 74.7391 26.8846V28.6785C74.7391 28.727 74.7391 28.7512 74.7875 28.7512C74.9328 28.7512 75.7562 28.7512 75.9258 28.727C76.0469 28.727 76.168 28.6785 76.2891 28.63C76.3375 28.5815 76.3617 28.5573 76.3859 28.5573H76.4102C76.4344 28.5573 76.4586 28.5815 76.4344 28.6058C76.4344 28.6543 76.4102 28.7755 76.3617 29.1149C76.3617 29.2603 76.3375 29.5512 76.3375 29.5997C76.3375 29.6482 76.3375 29.7209 76.2648 29.7209C76.2164 29.7209 76.1922 29.6967 76.1922 29.6482C76.1922 29.5755 76.1922 29.4785 76.168 29.3815C76.1195 29.2361 76.0227 29.1391 75.7805 29.1149C75.6352 29.0906 74.9328 29.0906 74.7633 29.0906C74.7148 29.0906 74.7148 29.1391 74.7148 29.1633V29.7209C74.7148 29.9633 74.7148 30.6179 74.7148 30.8118C74.7391 31.2967 74.8359 31.4179 75.5625 31.4179C75.7805 31.4421 76.0227 31.3937 76.2164 31.3452C76.4102 31.2724 76.4828 31.127 76.5312 30.8361C76.5555 30.7633 76.5555 30.7391 76.6039 30.7391C76.6523 30.7391 76.6766 30.8118 76.6766 30.8603C76.6523 31.127 76.6281 31.3694 76.6039 31.6361C76.5555 31.83 76.507 31.83 76.2164 31.83C75.6836 31.83 75.2961 31.8058 74.9813 31.8058C74.6664 31.8058 74.4727 31.7815 74.2305 31.7815C74.1578 31.7815 74.0125 31.7815 73.8187 31.8058C73.6492 31.8058 73.4555 31.8058 73.3344 31.8058C73.2375 31.8058 73.1891 31.7815 73.1891 31.733C73.1891 31.6846 73.2133 31.6603 73.2859 31.6603C73.3586 31.6603 73.4555 31.6603 73.5281 31.6361C73.6734 31.6118 73.7219 31.4421 73.7461 31.2482C73.7945 30.9573 73.7945 30.3997 73.7945 29.7452L73.8914 28.5088ZM79.5586 31.733C79.4375 31.6846 79.4133 31.6603 79.4133 31.5149C79.4133 31.127 79.4617 30.6906 79.4617 30.5936C79.4617 30.4967 79.4859 30.3997 79.5344 30.3997C79.607 30.3997 79.607 30.4724 79.607 30.5209C79.607 30.6421 79.6312 30.7633 79.6797 30.8846C79.8008 31.3452 80.2367 31.6361 80.6969 31.6118C81.1813 31.6603 81.6172 31.3209 81.6414 30.8361V30.7876C81.6414 30.424 81.5445 30.1088 80.9391 29.6482L80.6 29.4058C79.9945 29.0421 79.607 28.4361 79.5344 27.733C79.5344 26.9573 80.1883 26.3755 81.157 26.3755C81.4719 26.3755 81.7867 26.424 82.1016 26.4967C82.1742 26.5209 82.1984 26.5452 82.1984 26.5694C82.1984 26.6664 82.1742 26.8603 82.1742 27.4179C82.1742 27.5633 82.15 27.6361 82.1016 27.6361C82.0289 27.6361 82.0289 27.5876 82.0289 27.5149C82.0047 27.3452 81.9562 27.1755 81.8352 27.0543C81.6414 26.8118 81.3508 26.6906 81.0602 26.6906C80.6484 26.6179 80.2852 26.9088 80.2125 27.3209C80.2125 27.3452 80.2125 27.3936 80.2125 27.3936C80.2125 27.733 80.382 27.9755 80.9633 28.4118L81.157 28.5573C82.0289 29.1876 82.3438 29.6967 82.3438 30.3512C82.3438 30.8361 82.1016 31.3209 81.6898 31.5876C81.3508 31.8058 80.9633 31.9027 80.5516 31.8785C80.2367 31.927 79.8734 31.8785 79.5586 31.733ZM88.0352 31.5633C86.6789 31.5633 85.8555 30.3997 85.8555 28.9209C85.8555 27.1512 86.7758 26.7149 87.6234 26.7149C88.7859 26.7149 89.682 27.7088 89.682 29.2846C89.6578 31.3209 88.4953 31.5876 88.0352 31.5633ZM87.793 26.3512C86.6305 26.3027 85.5891 26.9573 85.1047 27.9997C84.6445 29.0664 84.8867 30.2785 85.6859 31.0785C86.2188 31.6118 86.9453 31.9027 87.7203 31.8785C88.9313 31.9512 90.0211 31.2239 90.4813 30.1088C90.6266 29.7452 90.6992 29.3573 90.675 28.9694C90.7234 27.8058 89.9969 26.7633 88.907 26.424C88.5195 26.3512 88.1562 26.327 87.793 26.3512ZM101.113 26.8603L100.048 26.8846C99.6359 26.9088 99.4664 26.933 99.3695 27.1027C99.3211 27.1755 99.2969 27.2724 99.2484 27.3452C99.2242 27.4179 99.2 27.4179 99.1758 27.4179C99.1273 27.4179 99.1031 27.3694 99.1031 27.3209C99.1031 27.224 99.2242 26.5452 99.2484 26.5209C99.2727 26.424 99.2969 26.3755 99.3211 26.3755C99.418 26.424 99.5391 26.4482 99.6359 26.4482C99.8539 26.4724 100.12 26.4967 100.338 26.4967H103.172C103.341 26.4967 103.511 26.4724 103.656 26.4482C103.729 26.424 103.777 26.424 103.85 26.3997C103.898 26.3997 103.923 26.4482 103.923 26.5452C103.923 26.6906 103.898 27.1755 103.898 27.3694C103.898 27.4421 103.874 27.4664 103.826 27.4664C103.753 27.4664 103.753 27.4179 103.753 27.3209V27.2482C103.729 27.0543 103.535 26.8603 102.93 26.8603L102.034 26.8361V29.7452C102.009 30.23 102.034 30.7633 102.082 31.2482C102.106 31.4664 102.155 31.6118 102.348 31.6118C102.47 31.6361 102.591 31.6361 102.712 31.6361C102.784 31.6361 102.809 31.6603 102.809 31.7088C102.809 31.7573 102.736 31.7815 102.688 31.7815C102.203 31.7815 101.767 31.7573 101.573 31.7573C101.404 31.7573 100.944 31.7815 100.677 31.7815C100.58 31.7815 100.532 31.7573 100.532 31.7088C100.532 31.6603 100.556 31.6361 100.629 31.6361C100.702 31.6361 100.798 31.6361 100.871 31.6118C101.016 31.5876 101.065 31.4179 101.089 31.224C101.137 30.933 101.138 30.3755 101.138 29.7209C101.138 29.7694 101.113 26.8603 101.113 26.8603ZM106.393 31.733C106.296 31.6846 106.248 31.6603 106.248 31.5149C106.248 31.127 106.296 30.6906 106.296 30.5936C106.296 30.4967 106.345 30.3997 106.369 30.3997C106.417 30.3997 106.441 30.4724 106.441 30.5209C106.441 30.6421 106.466 30.7633 106.514 30.8846C106.635 31.3452 107.071 31.6361 107.531 31.6118C108.016 31.6603 108.452 31.3209 108.476 30.8361C108.476 30.8118 108.476 30.8118 108.476 30.7876C108.476 30.424 108.379 30.1088 107.773 29.6482L107.434 29.4058C106.829 29.0421 106.441 28.4361 106.369 27.733C106.369 26.9573 107.023 26.3755 107.991 26.3755C108.306 26.3755 108.621 26.424 108.936 26.4967C109.009 26.5209 109.033 26.5452 109.033 26.5694C109.033 26.6664 109.009 26.8603 109.009 27.4179C109.009 27.5633 108.984 27.6361 108.936 27.6361C108.863 27.6361 108.863 27.5876 108.863 27.5149C108.839 27.3452 108.791 27.1755 108.67 27.0543C108.476 26.8118 108.185 26.6906 107.895 26.6906C107.555 26.6421 107.265 26.8118 107.12 27.1027C107.071 27.1997 107.047 27.3209 107.047 27.4179C107.047 27.7573 107.216 27.9997 107.798 28.4361L108.016 28.5815C108.887 29.2118 109.178 29.7209 109.178 30.3755C109.178 30.8603 108.936 31.3452 108.524 31.6118C108.185 31.83 107.798 31.927 107.41 31.9027C107.071 31.927 106.732 31.8785 106.393 31.733ZM95.4703 29.1633C95.325 29.2603 95.1313 29.3088 94.9859 29.2846C94.7922 29.2846 94.6227 29.2603 94.4531 29.2118C94.4047 29.1876 94.3805 29.1633 94.3805 29.0906V26.933C94.3805 26.8603 94.4047 26.8603 94.4531 26.8361C94.5742 26.8118 94.6953 26.7876 94.8164 26.8118C95.4461 26.8361 95.9305 27.3694 95.9062 27.9997C95.9062 28.0482 95.9062 28.0724 95.9062 28.1209C95.9305 28.4846 95.7852 28.8967 95.4703 29.1633ZM98.3281 31.6846C98.2555 31.6846 98.207 31.6846 98.1102 31.6603C97.7953 31.5876 97.5047 31.4421 97.3352 31.1755C96.9234 30.7391 96.4148 30.1088 95.8094 29.3088C96.3664 28.9452 96.7297 28.3876 96.7297 27.7088C96.7297 27.3452 96.5359 26.9573 96.2453 26.7391C95.8578 26.5209 95.3977 26.3997 94.9375 26.424C94.7195 26.424 94.1625 26.4482 93.9445 26.4482C93.7992 26.4482 93.3391 26.424 92.9758 26.424C92.8789 26.424 92.8305 26.4482 92.8305 26.4967C92.8305 26.5452 92.8789 26.5694 92.9516 26.5694C93.0484 26.5694 93.1453 26.5694 93.2422 26.5936C93.4602 26.6421 93.5328 26.7633 93.557 26.9815C93.5812 27.1997 93.5812 27.4179 93.5812 28.4846V29.7209C93.5812 30.3755 93.5812 30.933 93.557 31.224C93.5086 31.4421 93.4844 31.5876 93.3391 31.6118C93.2664 31.6361 93.1695 31.6361 93.0969 31.6361C93.0242 31.6361 93 31.6603 93 31.7088C93 31.7573 93.0484 31.7815 93.1453 31.7815C93.4359 31.7815 93.8719 31.7573 94.0172 31.7573C94.1141 31.7573 94.6469 31.7815 95.0828 31.7815C95.1797 31.7815 95.2281 31.7573 95.2281 31.7088C95.2281 31.6603 95.1797 31.6361 95.1555 31.6361C95.0344 31.6361 94.9375 31.6118 94.7922 31.6118C94.5742 31.5876 94.55 31.4179 94.5258 31.224C94.4773 30.933 94.4773 30.3755 94.4773 29.7209V29.6482C94.4773 29.5997 94.5016 29.5755 94.55 29.5755L95.1797 29.5997C95.2281 29.5997 95.2766 29.624 95.3008 29.6482C95.3734 29.7452 95.7125 30.23 96.0031 30.6179C96.2453 31.03 96.5844 31.3937 96.9719 31.6603C97.1898 31.7573 97.4563 31.83 97.7469 31.7815H98.425C98.4977 31.7815 98.5703 31.7815 98.5703 31.7088C98.425 31.7088 98.4008 31.6846 98.3281 31.6846ZM111.576 26.7391H112.109V28.5088H112.375V26.7391H112.932V26.4724H111.576V26.7391ZM115.088 26.4724L114.337 27.4664L113.562 26.4724H113.32V28.5088H113.586V27.03V26.9573C113.586 26.9815 113.61 27.0058 113.634 27.0058L114.264 27.83H114.385L115.015 26.9815C115.039 26.9573 115.039 26.933 115.039 26.933C115.039 26.9573 115.039 27.0058 115.015 27.0058V28.4846H115.305V26.4482C115.378 26.4724 115.088 26.4724 115.088 26.4724Z" fill="#83889E" />
            </g>
            <defs>
                <clipPath id="clip0_19650_3982">
                    <rect width="124" height="32" fill="white" />
                </clipPath>
            </defs>
</svg>
