<?xml version="1.0" encoding="UTF-8"?>
<svg id="logo-redroof" xmlns="http://www.w3.org/2000/svg" viewBox="0 0 86 32">
<g clip-path="url(#clip0_19650_4086)">
                <path d="M65.4256 22.6753C66.1457 21.0678 66.8063 22.7027 67.4668 21.0786C67.7591 20.7388 68.5334 20.4314 69.0153 20.6039C69.5404 20.7926 69.9356 22.6322 68.7878 24.7521C67.8511 26.4836 66.2539 27.0877 65.7991 26.969C64.7813 26.7154 64.6028 24.5255 65.4256 22.6753ZM69.5891 17.8314C68.3331 17.1895 67.1474 17.8799 66.254 18.4355C65.8643 18.5541 65.8859 18.2414 65.3607 18.3655C65.0086 18.452 64.0234 19.8704 63.5253 20.7119C60.8236 25.2645 61.8035 28.6574 63.471 29.5259C65.6042 30.637 68.9827 29.2292 71.0996 25.2807C72.6806 22.3301 72.0418 19.0774 69.5891 17.8314Z" fill="#BCC1D4" />
                <path d="M56.124 22.7188C56.8441 21.106 57.5046 22.7423 58.1706 21.1168C58.4574 20.777 59.2317 20.4694 59.719 20.6421C60.2442 20.8307 60.6341 22.6702 59.4916 24.7901C58.5549 26.5216 56.9577 27.1258 56.4975 27.0072C55.4851 26.7535 55.3011 24.569 56.124 22.7188ZM60.293 17.8695C59.0315 17.2276 57.8457 17.918 56.9524 18.4736C56.5626 18.5922 56.5843 18.2795 56.059 18.4091C55.7125 18.4901 54.7217 19.914 54.2291 20.7501C51.5274 25.3028 52.5073 28.6957 54.1693 29.5641C56.3079 30.6753 59.6864 29.2674 61.7979 25.319C63.3789 22.3684 62.7402 19.1155 60.293 17.8695Z" fill="#BCC1D4" />
                <path d="M85.0954 6.97824C84.4457 6.15834 81.5707 6.34171 79.7949 6.92968C75.1224 8.47777 74.5268 13.1599 73.758 18.3923C72.7618 18.7968 72.8484 20.1184 73.4873 20.5283C73.3573 21.4184 72.2908 27.5892 72.4641 29.5527C72.7293 32.5734 75.1495 31.4514 75.4527 30.1838C75.642 29.407 75.2091 29.6929 75.1875 29.612C74.8303 28.1772 75.599 23.193 76.1458 20.0482C76.985 19.9511 78.057 19.8756 79.4105 19.8595C79.5296 19.8595 79.4106 20.4475 79.7245 20.3396C81.4083 19.7894 82.5994 16.9305 80.5312 16.8873C79.9735 16.8756 78.241 17.1516 76.6059 17.5509C76.6256 17.4428 76.6373 17.3782 76.6373 17.3782C77.8122 10.6571 80.1078 9.59987 83.6 10.0206C83.8868 10.0598 83.5882 10.4575 84.0548 10.3874C85.5491 9.92346 85.8209 7.88445 85.0954 6.97824Z" fill="#BCC1D4" />
                <path d="M15.6908 16.0463C15.2035 16.9364 9.70811 19.984 8.78768 20.3562C8.81518 19.5471 9.40491 15.1779 9.42656 14.9729C9.62143 12.826 8.73354 13.1065 7.79147 12.9825C8.78226 10.4688 14.1261 12.9124 15.2793 13.921C16.0481 14.5953 16.1835 15.1455 15.6908 16.0463ZM16.2809 10.9542C13.5793 9.08248 9.56733 8.18706 7.18507 9.27666C4.59167 10.458 5.2414 14.0883 5.31719 15.3505C5.42563 16.9364 5.65821 19.3745 5.60949 21.6022C5.1493 21.926 5.05724 22.6649 5.60949 23.0803C5.56077 23.8139 5.40912 24.6931 5.37651 25.335C5.17063 29.2242 7.82371 28.6685 8.18647 27.2175C8.37584 26.43 7.93188 26.9854 8.00771 26.5649C8.03914 26.3707 8.22969 25.0599 8.22969 25.0599C8.22969 25.0599 8.48429 25.2435 15.0679 29.8823C16.5892 30.9557 17.7966 29.2781 15.1327 27.0288C10.2166 22.8807 10.0054 22.6811 10.0054 22.6811C10.0054 22.6811 16.627 19.2612 17.9589 17.5297C19.1771 15.9492 18.9772 12.8206 16.2809 10.9542Z" fill="#BCC1D4" />
                <path d="M51.2458 16.2885C50.7532 17.1785 45.2577 20.2262 44.3373 20.5984C44.3648 19.7893 44.9599 15.42 44.9762 15.2204C45.1711 13.0735 44.2832 13.3541 43.3411 13.2246C44.3373 10.7164 49.6757 13.1546 50.8289 14.1632C51.5978 14.8375 51.7385 15.3877 51.2458 16.2885ZM51.836 11.1964C49.1289 9.32468 45.117 8.42922 42.7347 9.51886C40.1467 10.7002 40.791 14.3304 40.8668 15.5926C40.9753 17.1785 41.2079 19.6166 41.1591 21.8444C40.6989 22.1681 40.6069 22.9071 41.1591 23.3224C41.1104 24.056 40.9643 24.9407 40.9261 25.5772C40.7203 29.4663 43.3788 28.9107 43.7361 27.4597C43.9255 26.6722 43.4815 27.2276 43.5573 26.807C43.5888 26.6129 43.7793 25.3021 43.7793 25.3021C43.7793 25.3021 44.0339 25.4857 50.6174 30.1244C52.1388 31.2032 53.3462 29.5203 50.6823 27.2709C45.7662 23.1229 45.555 22.9233 45.555 22.9233C45.555 22.9233 52.1766 19.5033 53.5085 17.7718C54.7267 16.1914 54.5268 13.0628 51.836 11.1964Z" fill="#BCC1D4" />
                <path d="M35.6854 14.2985C35.0195 16.6287 35.0303 17.0926 34.9274 17.9017C32.3828 17.6211 31.2295 19.1747 29.3562 21.1274C28.3329 22.1901 27.7915 22.8212 26.1889 24.2561C25.9831 24.4071 25.745 24.6173 25.4526 24.8979C22.87 27.2875 21.2024 26.8074 21.0075 25.9606C27.7211 21.4619 26.8495 18.4736 25.5609 17.6483C23.8554 16.5587 20.347 17.4431 18.2246 21.7478C17.694 22.8212 17.4883 23.927 17.537 24.9519C16.6816 25.6316 16.8386 26.9369 18.0893 27.1796C18.6794 28.3825 19.681 29.2132 20.8992 29.3211C23.2653 29.5422 26.2106 27.2282 27.0768 26.4892C27.0768 26.5205 27.0651 26.5593 27.0454 26.6078C26.7099 27.3198 26.6989 28.841 27.6084 29.3103C29.0324 30.0438 31.2414 29.1322 33.2663 26.5107C33.2349 26.9638 33.2349 27.3306 33.2624 27.6489C33.4627 29.8712 35.6608 29.4451 36.2077 27.7134C36.3699 27.1794 36.1428 27.6273 35.9099 27.2711C36.1428 23.7056 36.5108 20.3558 38.3246 15.0912C39.0772 12.9012 36.3026 12.1462 35.6854 14.2985ZM20.5365 23.8083C20.1358 22.2926 21.9712 19.2287 23.4548 19.6494C24.6946 20.0053 22.8971 22.6432 20.5365 23.8083ZM29.9085 26.0738C29.4645 25.9067 30.0275 24.2129 31.3216 22.4274C32.4802 20.8361 33.6767 19.8005 34.0503 20.1727C34.3808 20.5019 33.7686 22.2063 32.5344 23.8299C31.7656 24.8332 30.4174 26.2626 29.9085 26.0738Z" fill="#BCC1D4" />
                <path d="M30.3145 13.759C31.6356 14.2283 34.7054 11.801 31.484 10.3985C28.2138 8.97444 16.8656 4.09817 9.6323 0.942574C8.3004 0.365403 7.32583 0.300703 6.03726 1.22324C5.15475 1.85435 2.89163 3.46719 1.23488 4.6431C-0.416441 5.82441 0.980289 8.80201 3.50344 6.75222C6.06435 4.76718 7.23378 3.55887 8.86888 4.26012C13.5846 6.29371 26.2918 12.0276 29.9463 13.3492C30.3687 13.5003 29.9425 13.6297 30.3145 13.759Z" fill="#BCC1D4" />
                <path d="M78.1056 27.6543C78.9448 27.6543 79.6108 28.3339 79.6108 29.1862C79.6108 30.0547 78.9449 30.7289 78.1003 30.7289C77.2665 30.7289 76.5843 30.0547 76.5843 29.1862C76.5843 28.3339 77.2665 27.6543 78.1003 27.6543H78.1056ZM78.1017 27.8915C77.4303 27.8915 76.8781 28.4687 76.8781 29.1861C76.8781 29.9197 77.4303 30.4915 78.1071 30.4915C78.7893 30.4954 79.3307 29.9197 79.3307 29.1915C79.3307 28.474 78.7893 27.8915 78.1071 27.8915H78.1017ZM77.8149 30.0815H77.5442V28.3662C77.6848 28.3505 77.8259 28.327 78.0261 28.327C78.2862 28.327 78.4538 28.3811 78.5567 28.4566C78.6596 28.5322 78.7138 28.6453 78.7138 28.8124C78.7138 29.0336 78.5622 29.1737 78.3834 29.2278V29.2395C78.5296 29.2669 78.6325 29.4066 78.6651 29.6548C78.7083 29.9245 78.7465 30.0217 78.7736 30.081H78.4867C78.4474 30.0219 78.4054 29.8708 78.3732 29.6441C78.3339 29.4229 78.227 29.3419 78.0051 29.3419H77.8157L77.8149 30.0815ZM77.8149 29.1322H78.0153C78.2373 29.1322 78.4267 29.0511 78.4267 28.8409C78.4267 28.6898 78.3183 28.5387 78.0153 28.5387C77.9233 28.5387 77.8636 28.5426 77.8149 28.5505V29.1322Z" fill="#BCC1D4" />
            </g>
            <defs>
                <clipPath id="clip0_19650_4086">
                    <rect width="86" height="32" fill="white" />
                </clipPath>
            </defs>
</svg>
