<?xml version="1.0" encoding="UTF-8"?>
<svg id="logo-ramada" xmlns="http://www.w3.org/2000/svg" viewBox="0 0 101 32">
<path d="M27.0344 19.2237H28.8797L23.3674 5.78711H22.1648L16.5748 19.2237H18.3171L19.9997 15.0526H25.3713L27.0344 19.2237ZM24.81 13.7086H20.5418L22.687 8.3562L24.81 13.7086Z" fill="#83889E" />
            <path d="M27.0344 19.2237H28.8797L23.3674 5.78711H22.1648L16.5748 19.2237H18.3171L19.9997 15.0526H25.3713L27.0344 19.2237ZM24.81 13.7086H20.5418L22.687 8.3562L24.81 13.7086Z" stroke="#83889E" stroke-width="0.5" />
            <path d="M47.1569 6.06934H45.9563L41.0632 16.7368L36.1344 6.06934H34.9517L33.3485 19.222H34.9517L36.0152 9.73822L40.4242 19.222H41.4857L45.9563 9.53948L46.9566 19.222H48.7008L47.1569 6.06934Z" fill="#83889E" />
            <path d="M47.1569 6.06934H45.9563L41.0632 16.7368L36.1344 6.06934H34.9517L33.3485 19.222H34.9517L36.0152 9.73822L40.4242 19.222H41.4857L45.9563 9.53948L46.9566 19.222H48.7008L47.1569 6.06934Z" stroke="#83889E" stroke-width="0.5" />
            <path d="M63.6489 19.2237H65.4925L59.9819 5.78711H58.7797L53.188 19.2237H54.9302L56.6149 15.0526H61.9864L63.6489 19.2237ZM61.4242 13.7086H57.1559L59.3008 8.3562L61.4242 13.7086Z" fill="#83889E" />
            <path d="M63.6489 19.2237H65.4925L59.9819 5.78711H58.7797L53.188 19.2237H54.9302L56.6149 15.0526H61.9864L63.6489 19.2237ZM61.4242 13.7086H57.1559L59.3008 8.3562L61.4242 13.7086Z" stroke="#83889E" stroke-width="0.5" />
            <path fill-rule="evenodd" clip-rule="evenodd" d="M70.6633 6.12867V19.1624C71.8656 19.2635 72.5678 19.3032 73.5287 19.3032C75.5329 19.3032 76.9159 19.1008 78.1579 18.6622C80.4041 17.8403 81.9063 15.4538 81.9063 12.7062C81.9063 10.8219 81.1858 9.05718 79.9439 7.87385C78.6201 6.65111 76.5765 6.00977 73.9694 6.00977C73.2688 6.00977 72.3659 6.02964 71.4868 6.09094L70.6633 6.12867ZM72.4073 7.51242C72.9271 7.47065 73.1691 7.47065 73.5284 7.47065C75.0124 7.47065 76.2547 7.71284 77.2586 8.19486C78.9197 8.97532 80.0028 10.8414 80.0028 12.9063C80.0028 14.2105 79.582 15.4137 78.8002 16.2952C77.8976 17.359 76.4769 17.8397 74.2505 17.8397C73.631 17.8397 73.1473 17.7982 72.4069 17.6989L72.4073 7.51242Z" fill="#83889E" />
            <path d="M70.6633 6.12867V19.1624C71.8656 19.2635 72.5678 19.3032 73.5287 19.3032C75.5329 19.3032 76.9159 19.1008 78.1579 18.6622C80.4041 17.8403 81.9063 15.4538 81.9063 12.7062C81.9063 10.8219 81.1858 9.05718 79.9439 7.87385C78.6201 6.65111 76.5765 6.00977 73.9694 6.00977C73.2688 6.00977 72.3659 6.02964 71.4868 6.09094L70.6633 6.12867ZM72.4073 7.51242C72.9271 7.47065 73.1691 7.47065 73.5284 7.47065C75.0124 7.47065 76.2547 7.71284 77.2586 8.19486C78.9197 8.97532 80.0028 10.8414 80.0028 12.9063C80.0028 14.2105 79.582 15.4137 78.8002 16.2952C77.8976 17.359 76.4769 17.8397 74.2505 17.8397C73.631 17.8397 73.1473 17.7982 72.4069 17.6989L72.4073 7.51242Z" stroke="#83889E" stroke-width="0.5" />
            <path fill-rule="evenodd" clip-rule="evenodd" d="M96.0362 19.2237H97.8811L92.3689 5.78711H91.1666L85.575 19.2237H87.3192L89.0019 15.0526H94.3734L96.0362 19.2237ZM93.8115 13.7086H89.5412L91.6861 8.3562L93.8115 13.7086Z" fill="#83889E" />
            <path d="M96.0362 19.2237H97.8811L92.3689 5.78711H91.1666L85.575 19.2237H87.3192L89.0019 15.0526H94.3734L96.0362 19.2237ZM93.8115 13.7086H89.5412L91.6861 8.3562L93.8115 13.7086Z" stroke="#83889E" stroke-width="0.5" />
            <path d="M11.7254 19.6379L6.0994 10.9379L6.47142 10.0887C8.66514 9.81217 10.0825 8.38531 10.0825 6.53537C10.0825 4.06059 8.39075 3.53646 6.37412 3.53646C5.72772 3.53646 3.66025 3.58531 3.66025 3.58531L3.6855 19.3414H1.49548V2.03381C1.49548 2.03381 5.62672 1.90918 6.44785 1.90918C8.5638 1.90918 12.35 2.13318 12.35 6.36021C12.35 9.81251 9.23713 10.788 8.73887 11.0373L13.7673 18.7146L11.7254 19.6379Z" fill="#83889E" />
            <path d="M11.7254 19.6379L6.0994 10.9379L6.47142 10.0887C8.66514 9.81217 10.0825 8.38531 10.0825 6.53537C10.0825 4.06059 8.39075 3.53646 6.37412 3.53646C5.72772 3.53646 3.66025 3.58531 3.66025 3.58531L3.6855 19.3414H1.49548V2.03381C1.49548 2.03381 5.62672 1.90918 6.44785 1.90918C8.5638 1.90918 12.35 2.13318 12.35 6.36021C12.35 9.81251 9.23713 10.788 8.73887 11.0373L13.7673 18.7146L11.7254 19.6379Z" stroke="#83889E" stroke-width="0.5" />
            <path d="M98.6231 5.51855C99.1702 5.51855 99.6398 5.945 99.6398 6.52302C99.6398 7.10643 99.1702 7.53287 98.6231 7.53287C98.0706 7.53287 97.6013 7.10643 97.6013 6.52302C97.6013 5.945 98.071 5.51855 98.6231 5.51855ZM98.6231 5.68125C98.1572 5.68125 97.7942 6.04234 97.7942 6.52302C97.7942 7.01413 98.1572 7.37018 98.6231 7.37018C99.0837 7.37018 99.4463 7.01413 99.4463 6.52302C99.4466 6.04268 99.084 5.68125 98.6231 5.68125ZM98.4086 7.10643H98.2299V5.945H98.6756C98.95 5.945 99.0877 6.04807 99.0877 6.27544C99.0877 6.48495 98.9557 6.57523 98.7823 6.5951L99.1163 7.10643H98.9197L98.611 6.60083H98.4086V7.10643ZM98.4086 6.4543H98.6197C98.8382 6.4543 98.9086 6.393 98.9086 6.26466C98.9086 6.15249 98.8544 6.09119 98.6487 6.09119H98.4086V6.4543Z" fill="#83889E" />
            <path d="M1.52075 25.9582L2.10925 25.7979L3.23775 29.7935H3.25223L4.49251 25.8915H5.0938L6.22769 29.7935H6.24385L7.53126 25.7979L8.06589 25.9582L6.50376 30.5143H5.96206L4.76521 26.6144H4.75275L3.49227 30.5143H2.95058L1.52075 25.9582Z" fill="#83889E" />
            <path d="M16.761 25.7998C18.1295 25.7998 19.2129 26.6941 19.2129 28.2045C19.2129 29.6206 18.1295 30.6089 16.761 30.6089C15.3941 30.6089 14.311 29.7149 14.311 28.2045C14.311 26.7878 15.3944 25.7998 16.761 25.7998ZM16.761 30.1279C17.8369 30.1279 18.5971 29.2737 18.5971 28.2042C18.5971 27.1347 17.8369 26.2801 16.761 26.2801C15.6867 26.2801 14.9265 27.1347 14.9265 28.2042C14.9265 29.2737 15.6867 30.1279 16.761 30.1279Z" fill="#83889E" />
            <path d="M26.7094 25.8916H28.1053C28.9809 25.8916 29.5751 26.3396 29.5751 27.1073C29.5751 27.8641 29.0607 28.3034 28.4143 28.3916V28.4041C28.7214 28.4637 28.9813 28.8791 29.1725 29.1196L30.104 30.3477L29.595 30.6549L28.5062 29.1738C28.219 28.8049 28.0854 28.5358 27.645 28.5358H27.2784L27.2494 30.5158H26.67L26.7094 25.8916ZM27.271 28.0976H27.8453C28.414 28.0976 29.0008 27.8968 29.0008 27.2211C29.0008 26.728 28.721 26.2924 27.9716 26.2924H27.2838L27.271 28.0976Z" fill="#83889E" />
            <path d="M38.6188 30.5164L38.6605 25.8936H39.2325L39.1931 30.034H41.1626V30.5164H38.6188Z" fill="#83889E" />
            <path d="M49.5402 25.8916H50.9306C52.7069 25.8916 53.4273 27.0153 53.4273 28.1427C53.4273 29.7073 52.2719 30.5144 50.7771 30.5144H49.4988L49.5402 25.8916ZM50.0748 30.0755H50.6906C52.0123 30.0755 52.8537 29.447 52.8537 28.1767C52.8537 27.0153 52.0574 26.3322 50.8225 26.3322H50.1149L50.0748 30.0755Z" fill="#83889E" />
            <path d="M60.4276 25.9582L61.0161 25.7979L62.1429 29.7935H62.1591L63.3994 25.8915H64.0007L65.1366 29.7935H65.149L66.4381 25.7979L66.9727 25.9582L65.4106 30.5143H64.8693L63.6741 26.6144H63.6596L62.3991 30.5143H61.8574L60.4276 25.9582Z" fill="#83889E" />
            <path d="M74.6875 25.8916H75.2619L75.2222 30.5144H74.6461L74.6875 25.8916Z" fill="#83889E" />
            <path d="M83.7893 25.8916H85.1778C86.9543 25.8916 87.6748 27.0153 87.6748 28.1427C87.6748 29.7073 86.519 30.5144 85.0242 30.5144H83.7479L83.7893 25.8916ZM84.3236 30.0755H84.9377C86.2611 30.0755 87.1025 29.447 87.1025 28.1767C87.1025 27.0153 86.3083 26.3322 85.073 26.3322H84.3637L84.3236 30.0755Z" fill="#83889E" />
            <path d="M95.4639 25.8916H97.8397V26.3723H96.0305L96.018 27.944H97.7805V28.4247H96.0254L96.0109 30.0341H97.8667V30.5144H95.4221L95.4639 25.8916Z" fill="#83889E" />
            <path d="M1.26245 22.707H98.4339" stroke="#83889E" stroke-width="0.7304" />
</svg>
