<?xml version="1.0" encoding="UTF-8"?>
<svg id="logo-catchjobs-line" xmlns="http://www.w3.org/2000/svg" viewBox="0 0 214 26">
<path d="M204.122 25.7317C201.957 25.7317 200.126 25.3863 198.631 24.6957C197.157 24.0051 196.03 23.0582 195.249 21.8552C194.467 20.6299 194.077 19.2486 194.077 17.7114H198.731C198.731 18.3575 198.91 18.9924 199.267 19.6162C199.624 20.2177 200.193 20.7079 200.974 21.0866C201.778 21.4653 202.827 21.6547 204.122 21.6547C205.283 21.6547 206.254 21.4876 207.035 21.1534C207.816 20.8193 208.397 20.3848 208.776 19.8501C209.156 19.2932 209.346 18.6694 209.346 17.9787C209.346 17.1099 208.977 16.4192 208.241 15.9068C207.504 15.3722 206.365 15.038 204.825 14.9043L202.682 14.7372C200.338 14.5367 198.463 13.8127 197.057 12.5651C195.673 11.2952 194.981 9.62431 194.981 7.55241C194.981 5.99291 195.349 4.6562 196.086 3.54228C196.822 2.40608 197.849 1.53722 199.166 0.935697C200.506 0.311899 202.068 0 203.854 0C205.707 0 207.303 0.323038 208.642 0.969113C209.982 1.61519 211.02 2.52861 211.756 3.70937C212.493 4.86785 212.861 6.23798 212.861 7.81975H208.207C208.207 7.15139 208.04 6.53874 207.705 5.98177C207.392 5.40253 206.912 4.94582 206.265 4.61165C205.64 4.25519 204.836 4.07696 203.854 4.07696C202.917 4.07696 202.135 4.23291 201.51 4.54481C200.885 4.85671 200.416 5.28 200.104 5.81469C199.791 6.34937 199.635 6.92861 199.635 7.55241C199.635 8.30988 199.914 8.97823 200.472 9.55747C201.03 10.1144 201.912 10.4375 203.117 10.5266L205.26 10.7271C207.002 10.8608 208.531 11.2284 209.848 11.8299C211.165 12.4314 212.181 13.2446 212.895 14.2694C213.632 15.2942 214 16.5306 214 17.9787C214 19.516 213.598 20.8749 212.794 22.0557C211.991 23.2142 210.841 24.1165 209.346 24.7625C207.872 25.4086 206.131 25.7317 204.122 25.7317Z" fill="#FE5442" fill-opacity="0.5" />
            <path d="M175.932 25.4401V21.6304H182.06C183.176 21.6304 184.024 21.3297 184.604 20.7282C185.185 20.1044 185.475 19.2578 185.475 18.1884C185.475 17.119 185.185 16.2947 184.604 15.7155C184.024 15.114 183.176 14.8132 182.06 14.8132H175.932V11.9059H181.725C183.354 11.9059 184.805 12.1064 186.078 12.5074C187.372 12.8861 188.377 13.5322 189.091 14.4456C189.828 15.359 190.196 16.5844 190.196 18.1216V18.5894C190.196 20.0375 189.873 21.274 189.225 22.2988C188.6 23.3013 187.651 24.0811 186.379 24.638C185.129 25.1727 183.578 25.4401 181.725 25.4401H175.932ZM171.947 25.4401V0.710938H176.602V25.4401H171.947ZM175.932 14.0446V11.1373H181.155C182.294 11.1373 183.131 10.8365 183.667 10.235C184.203 9.63347 184.47 8.83145 184.47 7.82891C184.47 6.82638 184.203 6.02436 183.667 5.42284C183.131 4.82132 182.294 4.52056 181.155 4.52056H175.932V0.710938H180.72C183.488 0.710938 185.587 1.29018 187.015 2.44866C188.466 3.60714 189.192 5.26689 189.192 7.4279V7.89575C189.192 9.41069 188.823 10.6249 188.087 11.5383C187.372 12.4294 186.379 13.0755 185.107 13.4765C183.834 13.8552 182.372 14.0446 180.72 14.0446H175.932Z" fill="#FE5442" fill-opacity="0.5" />
            <path d="M154.536 25.7317C152.326 25.7317 150.406 25.3418 148.776 24.562C147.169 23.7823 145.83 22.7686 144.758 21.521C143.709 20.2512 142.916 18.8922 142.381 17.4441C141.867 15.9737 141.611 14.559 141.611 13.2V12.4648C141.611 10.9722 141.878 9.49064 142.414 8.02026C142.95 6.5276 143.754 5.17975 144.825 3.97671C145.919 2.77367 147.269 1.8157 148.877 1.10278C150.484 0.367595 152.37 0 154.536 0C156.679 0 158.554 0.367595 160.161 1.10278C161.768 1.8157 163.108 2.77367 164.179 3.97671C165.273 5.17975 166.088 6.5276 166.623 8.02026C167.159 9.49064 167.427 10.9722 167.427 12.4648V13.2C167.427 14.559 167.159 15.9737 166.623 17.4441C166.11 18.8922 165.318 20.2512 164.246 21.521C163.197 22.7686 161.858 23.7823 160.228 24.562C158.621 25.3418 156.723 25.7317 154.536 25.7317ZM154.536 21.3205C155.786 21.3205 156.902 21.0977 157.884 20.6522C158.889 20.2066 159.737 19.5939 160.429 18.8142C161.143 18.0122 161.679 17.1099 162.036 16.1073C162.416 15.0825 162.605 14.002 162.605 12.8658C162.605 11.6405 162.416 10.5154 162.036 9.49064C161.679 8.46583 161.143 7.57469 160.429 6.81722C159.737 6.05975 158.889 5.46937 157.884 5.04608C156.88 4.62279 155.763 4.41114 154.536 4.41114C153.286 4.41114 152.158 4.62279 151.154 5.04608C150.149 5.46937 149.29 6.05975 148.575 6.81722C147.883 7.57469 147.348 8.46583 146.968 9.49064C146.611 10.5154 146.432 11.6405 146.432 12.8658C146.432 14.002 146.611 15.0825 146.968 16.1073C147.348 17.1099 147.883 18.0122 148.575 18.8142C149.29 19.5939 150.149 20.2066 151.154 20.6522C152.158 21.0977 153.286 21.3205 154.536 21.3205Z" fill="#FE5442" fill-opacity="0.5" />
            <path d="M129.236 25.7409C127.473 25.7409 125.921 25.3956 124.582 24.7049C123.243 24.0143 122.205 23.0006 121.468 21.6639C120.731 20.3272 120.363 18.6897 120.363 16.7515V15.6821H125.084V17.1525C125.084 18.4447 125.464 19.4695 126.223 20.227C126.982 20.9621 127.975 21.3297 129.203 21.3297C130.453 21.3297 131.446 20.9621 132.183 20.227C132.942 19.4695 133.322 18.4447 133.322 17.1525V4.21986H138.076V16.7515C138.076 18.6897 137.708 20.3272 136.971 21.6639C136.235 23.0006 135.208 24.0143 133.891 24.7049C132.574 25.3956 131.022 25.7409 129.236 25.7409ZM128.837 4.88821V0.710996L138.076 0.710996V4.88821H128.837Z" fill="#FE5442" fill-opacity="0.5" />
            <path d="M114.933 1.04494V25.5705H108.127V15.8844H101.13V25.5228H94.3239V1.04494H101.13V9.77687H108.127V1.04494H114.933ZM19.4111 16.4092C18.9319 16.5046 18.4526 16.6001 18.0213 16.6955C17.5419 16.7909 17.1105 16.8864 16.6313 17.0296C16.5834 17.0296 16.5354 17.125 16.5354 17.125C16.4875 17.6021 16.3437 17.8407 15.8644 17.9838C15.2893 18.1747 14.762 18.3655 14.1869 18.5087C13.8035 18.6041 13.3721 18.7473 12.9887 18.5564C12.8928 18.5087 12.797 18.4132 12.7491 18.3655C12.7011 18.2224 12.6052 18.2224 12.5094 18.2224C11.8863 18.2224 11.2154 18.2701 10.5922 18.2224C10.0651 18.1747 9.53786 18.0793 9.10651 17.793C8.81889 17.6021 8.57925 17.3159 8.3396 17.0773C7.76446 16.5524 7.28517 15.9798 6.94967 15.3118C6.56624 14.596 6.47038 13.7849 6.51831 12.9737C6.61416 11.9717 7.04553 11.1605 7.6686 10.4448C7.95618 10.1108 8.3396 9.77687 8.6751 9.44285C8.77096 9.34735 8.86683 9.20424 8.96266 9.10883C9.29818 8.82252 9.72953 8.7271 10.113 8.63166C10.8798 8.48851 11.6467 8.53624 12.4615 8.58395C12.6053 8.58395 12.6532 8.58395 12.7011 8.4408C12.8449 8.15451 13.1804 8.15451 13.42 8.15451C13.8993 8.24994 14.3787 8.34538 14.8579 8.48851C15.2414 8.58395 15.6727 8.7271 16.0562 8.91796C16.4396 9.06113 16.5354 9.29965 16.4875 9.63367C16.4875 9.68137 16.5354 9.77687 16.5834 9.77687C16.8709 9.87228 17.2065 9.91998 17.494 10.0154C18.1171 10.1586 18.7401 10.254 19.4111 10.3971C19.507 10.3971 19.6508 10.3971 19.6987 10.3494C19.9863 10.0154 21.4242 6.77077 22.0472 5.2916C19.7467 2.66726 16.3437 0.997229 12.5573 0.997229C5.60767 0.854083 0 6.43676 0 13.3555C0 20.2741 5.60767 25.8568 12.5573 25.8568C16.3437 25.8568 19.7467 24.1868 22.0472 21.5625C21.3762 19.9401 19.8904 16.6478 19.6987 16.5046C19.6508 16.4092 19.5549 16.3615 19.4111 16.4092ZM86.7989 16.4092C86.3197 16.5046 85.8404 16.6001 85.409 16.6955C84.9298 16.7909 84.4984 16.8864 84.0191 17.0296C83.9712 17.0296 83.9232 17.125 83.9232 17.125C83.8753 17.6021 83.7315 17.8407 83.2523 17.9838C82.6771 18.1747 82.1499 18.3655 81.5748 18.5087C81.1913 18.6041 80.76 18.7473 80.3766 18.5564C80.2806 18.5087 80.1848 18.4132 80.1369 18.3655C80.089 18.2224 79.9931 18.2224 79.8972 18.2224C79.2742 18.2224 78.6031 18.2701 77.9801 18.2224C77.4528 18.1747 76.9257 18.0793 76.4943 17.793C76.2067 17.6021 75.9671 17.3159 75.7274 17.0773C75.1523 16.5524 74.673 15.9798 74.3375 15.3118C73.9541 14.596 73.8582 13.7849 73.9062 12.9737C74.002 11.9717 74.4334 11.1605 75.0564 10.4448C75.344 10.1108 75.7274 9.77687 76.0629 9.44285C76.1588 9.34735 76.2546 9.20424 76.3505 9.10883C76.6861 8.82252 77.1174 8.7271 77.5008 8.63166C78.2676 8.48851 79.0345 8.53624 79.8493 8.58395C79.9931 8.58395 80.041 8.58395 80.089 8.4408C80.2327 8.15451 80.5682 8.15451 80.8079 8.15451C81.2872 8.24994 81.7664 8.34538 82.2457 8.48851C82.6292 8.58395 83.0605 8.7271 83.4439 8.91796C83.8274 9.06113 83.9232 9.29965 83.8753 9.63367C83.8753 9.68137 83.9232 9.77687 83.9711 9.77687C84.2587 9.87228 84.5943 9.91998 84.8819 10.0154C85.5049 10.1586 86.128 10.254 86.7989 10.3971C86.8949 10.3971 87.0386 10.3971 87.0865 10.3494C87.3741 10.0154 88.8124 6.77077 89.4348 5.2916C87.1344 2.66726 83.7315 0.997229 79.9452 0.997229C72.9955 0.997229 67.3878 6.57991 67.3878 13.4986C67.3878 20.4173 72.9955 26 79.9452 26C83.7315 26 87.1344 24.33 89.4348 21.7056C88.7638 20.0833 87.2783 16.7909 87.0865 16.6478C87.0386 16.4092 86.9428 16.3615 86.7989 16.4092ZM38.0554 0.710938L49.0311 24.3777V25.5705H42.6086L41.1708 22.5645H31.9685L30.5306 25.5705H24.1082V24.3777L35.0839 0.710938H38.0554ZM36.5696 11.3037L34.1732 16.7909H38.9661L36.5696 11.3037ZM47.737 7.00934H53.6802V25.5705H60.2465V7.00934H66.1416V1.04494H47.737V7.00934Z" fill="#FF5442" />
</svg>
