<?xml version="1.0" encoding="UTF-8"?>
<svg id="logo-marriott" xmlns="http://www.w3.org/2000/svg" viewBox="0 0 83 32">
<path d="M75.6808 18.4462C74.6914 17.9316 74.5374 16.4776 74.5594 12.9412L74.5814 7.52163L72.6904 7.51943L73.1302 6.51654H74.5814V3.95018L78.0555 2.66699V6.43113L79.6607 6.43332L79.2429 7.54572L78.0555 7.54353V16.9221C78.1215 17.6776 78.3854 18.1221 78.7372 18.4462H75.6808Z" fill="#83889E" />
            <path d="M24.2282 27.0435C24.1183 26.7391 23.8984 26.5442 23.5686 26.5442C23.1068 26.5442 22.9309 26.7807 22.9309 27.107C22.9309 27.8843 24.69 27.742 24.69 29.0602C24.69 29.796 24.0523 30.3259 23.1508 30.3259C22.843 30.3259 22.4911 30.2514 22.2273 30.0784C22.2933 29.8354 22.3592 29.5945 22.4032 29.3471H22.5131C22.5791 29.7434 22.9089 29.9799 23.3047 29.9799C23.6565 29.9799 23.9864 29.7784 23.9864 29.3821C23.9864 28.4602 22.2493 28.7953 22.2493 27.407C22.2493 26.7457 22.711 26.1982 23.5906 26.1982C24.0083 26.1982 24.3821 26.3537 24.4921 26.4741C24.4261 26.6581 24.3821 26.8486 24.3162 27.0435H24.2282Z" fill="#83889E" />
            <path d="M2.61353 23.5004H79.0006V22.918H2.61353V23.5004Z" fill="#83889E" />
            <path d="M27.3276 28.1998C27.3276 27.9764 27.1297 27.7969 26.9098 27.7969C26.6899 27.7969 26.514 27.9764 26.514 28.1998C26.514 28.4231 26.6899 28.6027 26.9098 28.6027C27.1297 28.6027 27.3276 28.4231 27.3276 28.1998Z" fill="#83889E" />
            <path d="M48.4155 6.93525C49.0532 6.40096 50.1746 6.39001 50.9002 6.7316C51.208 6.88489 51.4939 7.08853 51.6918 7.35568L50.2845 9.52789C50.1086 9.38775 49.9767 9.32425 49.7568 9.21038C49.0532 8.91039 48.3276 9.08557 47.9098 9.46439V15.8037C47.8878 16.9007 48.0857 17.9014 48.6574 18.4204H45.4691C44.7875 17.9124 44.6335 17.1 44.5676 16.3883L44.5456 7.95786C44.5676 7.27466 44.3917 6.97466 44.1278 6.59147L47.426 6.6046C47.6899 6.79511 47.7119 7.12577 47.8438 7.37978L48.4155 6.93525Z" fill="#83889E" />
            <path d="M52.4384 9.0189C52.4164 8.21747 52.5923 7.25837 52.0646 6.56641H55.1209C55.3408 6.71969 55.4508 6.97369 55.5167 7.21457C55.6926 7.42917 55.6706 7.73572 55.7366 7.98972L55.7806 16.972C55.8905 17.5063 56.1104 18.045 56.5062 18.4654L53.2299 18.472C52.1525 17.4384 52.5043 15.7392 52.4164 13.9852L52.4384 9.0189Z" fill="#83889E" />
            <path d="M57.2975 9.10666C57.6273 8.19354 58.6608 7.73589 59.4084 7.23882C60.5518 6.82058 61.8271 5.77826 63.1024 6.63007C64.1798 7.32859 65.1253 8.11689 65.807 9.19643C65.9609 9.61467 66.0488 10.0855 66.1588 10.53C66.1588 11.1278 66.2907 11.5723 66.2687 12.1701C66.3127 12.8183 66.3127 13.4029 66.2687 14.0379C66.2247 15.1175 65.719 16.0831 64.8615 16.832C63.5861 17.9641 61.981 19.2473 60.2439 18.3692C58.6828 17.6444 56.8578 16.2101 56.9677 14.2394C56.9017 12.8423 56.8358 11.6358 57.0337 10.276C57.0996 9.88182 57.0776 9.45044 57.2975 9.10666ZM60.4858 15.4591C60.6397 16.0196 60.9256 16.705 61.6072 16.7817C62.003 16.7948 62.2888 16.4641 62.5307 16.1839C63.2343 14.7868 63.1244 13.2628 63.1244 11.673C62.9045 10.4928 63.1904 8.87893 61.9151 8.15413C61.4533 7.98989 61.1235 8.29426 60.8376 8.57455C60.3319 9.32344 60.2879 10.1818 60.2439 11.1343C60.09 12.6584 60.2659 13.9219 60.4858 15.4591Z" fill="#83889E" />
            <path d="M68.5341 18.4462C67.5446 17.9316 67.3907 16.4776 67.4127 12.9412L67.4347 7.52163L65.5657 7.51943L65.9835 6.51654H67.4347V3.95018L70.9308 2.66699V6.43113L72.5139 6.43332L72.0962 7.54572L70.9308 7.54353V16.9221C70.9968 17.6776 71.2606 18.1221 71.6124 18.4462H68.5341Z" fill="#83889E" />
            <path d="M36.6952 7.95786C36.6732 7.27466 36.5413 6.97466 36.2775 6.59147L39.5757 6.6046C39.8395 6.79511 39.8615 7.12577 39.9935 7.37978L40.5652 6.93525C41.2028 6.40096 42.3242 6.39001 43.0498 6.7316C43.3577 6.88489 43.6435 7.08853 43.8414 7.35568L42.4342 9.52789C42.2583 9.38775 42.1263 9.32425 41.9064 9.21038C41.2028 8.91039 40.4772 9.08557 40.0594 9.46439V15.8037C40.0374 16.9007 40.2353 17.9014 40.807 18.4204H37.6187C36.9591 17.9124 36.7612 17.1569 36.7172 16.3883L36.6952 7.95786Z" fill="#83889E" />
            <path d="M11.6952 11.2923L10.5079 13.7535C9.6723 15.2053 8.52892 16.9856 6.76986 17.4279C6.08823 17.6644 5.47256 17.4498 4.81291 17.4038L2.68005 20.8745C2.85596 21.0453 3.07585 21.1877 3.29573 21.2709C7.03372 22.6942 8.55091 21.1636 12.2229 12.8623L15.7191 20.257H20.3586L18.1598 15.2666L19.4131 12.6871L22.8433 20.1432L27.2849 20.1716L19.501 3.16182L15.917 4.93331L18.7315 11.2813L17.5001 13.7754L12.3549 2.72168L8.59488 4.6355L11.6952 11.2923Z" fill="#83889E" />
            <path d="M25.9653 14.2922C26.0533 13.0594 26.7349 11.9033 27.8783 11.2814C29.0217 10.5807 30.341 10.3026 31.5283 9.69162C31.7262 9.52739 31.9681 9.32375 31.9901 9.0566C32.0121 8.72595 31.8362 8.47194 31.5503 8.35807C29.7473 7.97707 28.2741 9.09383 26.9768 10.1996C27.1307 9.38725 27.2626 8.49822 27.6584 7.7362C27.8343 7.53255 27.9663 7.25227 28.2081 7.10117C29.4834 6.47711 31.0666 6.29973 32.4738 6.40046C33.6392 6.4771 34.7166 7.30263 35.1124 8.35807C35.3103 8.85295 35.2883 9.41353 35.3323 9.92154L35.3543 16.8082C35.3543 17.4038 35.6401 17.9644 35.9919 18.4462H32.6937C32.2979 18.0914 32.1 17.6447 31.9901 17.0863C31.0666 17.9009 29.1316 19.1075 27.9882 18.306C26.8009 17.7739 25.7015 15.9805 25.9653 14.2922ZM31.8142 11.8967C31.7922 11.4193 31.4624 11.369 31.2205 11.369C30.4289 11.4828 29.7473 12.1419 29.3515 12.8186C29.0217 13.4207 28.9337 13.9287 28.9117 14.4565C28.9117 15.0258 28.8678 15.4484 29.1096 15.8798C29.2416 16.1601 29.5054 16.2871 29.7913 16.3615C30.297 16.4645 30.7588 16.3243 31.1545 16.0572C32.1 15.536 31.9241 14.4937 31.9461 13.5674L31.8142 11.8967Z" fill="#83889E" />
            <path d="M57.4081 28.1988C57.4081 27.9755 57.2102 27.7959 56.9903 27.7959C56.7704 27.7959 56.5945 27.9755 56.5945 28.1988C56.5945 28.4222 56.7704 28.6017 56.9903 28.6017C57.2102 28.6017 57.4081 28.4222 57.4081 28.1988Z" fill="#83889E" />
            <path d="M29.725 26.301H30.9563C31.2202 26.301 31.6599 26.2901 31.9018 26.4171C32.2316 26.5901 32.3855 26.8485 32.3855 27.2404C32.3855 27.8054 32.0337 28.1623 31.484 28.2762C31.8139 28.828 32.1657 29.3579 32.5175 29.8944L32.7374 30.2513C32.5615 30.2382 32.3856 30.2228 32.2096 30.2228C32.0337 30.2228 31.8798 30.2382 31.7039 30.2513L31.0003 29.0426C30.9123 28.8871 30.7584 28.6221 30.6265 28.4032H30.5825V30.2513C30.4506 30.2382 30.2967 30.2228 30.1647 30.2228C30.0108 30.2228 29.8789 30.2382 29.725 30.2513V26.301ZM30.5825 28.1557C31.1982 28.2127 31.506 27.9258 31.506 27.3324C31.506 27.2514 31.484 27.166 31.4621 27.0433C31.3741 26.566 30.9343 26.612 30.5825 26.612V28.1557Z" fill="#83889E" />
            <path d="M35.8157 26.3008C35.7937 26.3818 35.7717 26.4694 35.7717 26.5482C35.7717 26.6292 35.7937 26.7168 35.8157 26.7957C35.4419 26.7497 35.0681 26.7037 34.4744 26.7168V27.954H35.0681C35.3319 27.954 35.5738 27.9299 35.7937 27.9015C35.7717 27.9825 35.7497 28.0679 35.7497 28.1489C35.7497 28.2299 35.7717 28.3175 35.7937 28.3964C35.5738 28.3679 35.3319 28.346 35.0681 28.346H34.4744V29.8065C35.0681 29.8022 35.4419 29.7737 35.8157 29.7277C35.7937 29.8065 35.7717 29.8941 35.7717 29.9751C35.7717 30.054 35.7937 30.1416 35.8157 30.2226H33.5948V26.3008H35.8157Z" fill="#83889E" />
            <path d="M38.6302 27.0435C38.4983 26.7391 38.2784 26.5442 37.9486 26.5442C37.5088 26.5442 37.3109 26.7807 37.3109 27.107C37.3109 27.8843 39.07 27.742 39.07 29.0602C39.07 29.796 38.4543 30.3259 37.5528 30.3259C37.223 30.3259 36.8931 30.2514 36.6293 30.0784C36.6952 29.8354 36.7612 29.5945 36.7832 29.3471H36.8931C36.9811 29.7434 37.2889 29.9799 37.6847 29.9799C38.0585 29.9799 38.3663 29.7784 38.3663 29.3821C38.3663 28.4602 36.6513 28.7953 36.6513 27.407C36.6513 26.7457 37.091 26.1982 37.9925 26.1982C38.3883 26.1982 38.7621 26.3537 38.8941 26.4741C38.8281 26.6581 38.7621 26.8486 38.7182 27.0435H38.6302Z" fill="#83889E" />
            <path d="M41.9284 30.3259C40.6531 30.3259 39.7955 29.577 39.7955 28.2697C39.7955 27.1245 40.6311 26.1982 42.0823 26.1982C43.7314 26.1982 44.2152 27.3544 44.2152 28.2478C44.2152 29.3712 43.3576 30.3259 41.9284 30.3259ZM40.763 28.4383C40.763 29.185 41.0928 29.9799 41.9724 29.9799C42.8519 29.9799 43.2477 29.0931 43.2477 28.1383C43.2477 27.396 42.8959 26.5442 42.0383 26.5442C41.2468 26.5442 40.763 27.1486 40.763 28.4383Z" fill="#83889E" />
            <path d="M45.1826 26.301H46.414C46.6778 26.301 47.0956 26.2901 47.3375 26.4171C47.6673 26.5901 47.8432 26.8485 47.8432 27.2404C47.8432 27.8054 47.4694 28.1623 46.9417 28.2762C47.2715 28.828 47.6233 29.3579 47.9751 29.8944L48.195 30.2513C48.0191 30.2382 47.8432 30.2228 47.6673 30.2228C47.4914 30.2228 47.3155 30.2382 47.1396 30.2513L46.4579 29.0426C46.37 28.8871 46.2161 28.6221 46.0841 28.4032H46.0402V30.2513C45.8862 30.2382 45.7543 30.2228 45.6004 30.2228C45.4685 30.2228 45.3145 30.2382 45.1826 30.2513V26.301ZM46.0402 28.1557C46.6558 28.2127 46.9417 27.9258 46.9417 27.3324C46.9417 27.2514 46.9417 27.166 46.9197 27.0433C46.8317 26.566 46.392 26.612 46.0402 26.612V28.1557Z" fill="#83889E" />
            <path d="M50.6577 30.2511C50.5258 30.2379 50.3719 30.2226 50.218 30.2226C50.086 30.2226 49.9321 30.2379 49.8002 30.2511V26.7103C49.3824 26.7103 49.0306 26.7497 48.7228 26.7913C48.7228 26.7103 48.7448 26.6292 48.7448 26.5438C48.7448 26.4628 48.7228 26.3818 48.7228 26.3008H51.6912C51.6912 26.3818 51.6692 26.4628 51.6692 26.5438C51.6692 26.6292 51.6912 26.7103 51.6912 26.7913C51.3614 26.7497 51.0096 26.7103 50.6577 26.7103V30.2511Z" fill="#83889E" />
            <path d="M54.3963 27.0435C54.2864 26.7391 54.0665 26.5442 53.7367 26.5442C53.2749 26.5442 53.099 26.7807 53.099 27.107C53.099 27.8843 54.8581 27.742 54.8581 29.0602C54.8581 29.796 54.2204 30.3259 53.3189 30.3259C53.0111 30.3259 52.6592 30.2514 52.3954 30.0784C52.4614 29.8354 52.5273 29.5945 52.5713 29.3471H52.6812C52.7472 29.7434 53.077 29.9799 53.4728 29.9799C53.8246 29.9799 54.1325 29.7784 54.1325 29.3821C54.1325 28.4602 52.4174 28.7953 52.4174 27.407C52.4174 26.7457 52.8791 26.1982 53.7587 26.1982C54.1764 26.1982 54.5502 26.3537 54.6602 26.4741C54.5942 26.6581 54.5502 26.8486 54.4843 27.0435H54.3963Z" fill="#83889E" />
            <path d="M61.4979 27.0435C61.366 26.7391 61.1461 26.5442 60.8162 26.5442C60.3765 26.5442 60.1786 26.7807 60.1786 27.107C60.1786 27.8843 61.9376 27.742 61.9376 29.0602C61.9376 29.796 61.322 30.3259 60.4205 30.3259C60.0906 30.3259 59.7608 30.2514 59.4969 30.0784C59.5629 29.8354 59.6069 29.5945 59.6509 29.3471H59.7608C59.8488 29.7434 60.1566 29.9799 60.5524 29.9799C60.9262 29.9799 61.234 29.7784 61.234 29.3821C61.234 28.4602 59.5189 28.7953 59.5189 27.407C59.5189 26.7457 59.9807 26.1982 60.8382 26.1982C61.256 26.1982 61.6298 26.3537 61.7617 26.4741C61.6958 26.6581 61.6298 26.8486 61.5858 27.0435H61.4979Z" fill="#83889E" />
            <path d="M62.9717 26.3008C63.1256 26.3139 63.2575 26.3314 63.4114 26.3314C63.5654 26.3314 63.6973 26.3139 63.8512 26.3008V27.9365C63.8512 28.254 63.8292 28.7248 63.8952 29.0248C63.9392 29.3073 63.9831 29.4847 64.181 29.6861C64.3789 29.8591 64.5988 29.9335 64.8627 29.9335C65.3904 29.9335 65.6762 29.7387 65.8741 29.2372C65.9841 28.9832 65.9841 28.3285 65.9841 28.046V26.3008C66.05 26.3139 66.138 26.3183 66.2039 26.3183C66.2919 26.3183 66.3798 26.3139 66.4458 26.3008V28.3504C66.4238 29.0073 66.4458 29.6051 65.8301 30.0211C65.5223 30.2445 65.1265 30.3255 64.7307 30.3255C64.0491 30.3255 63.2795 30.1065 63.0816 29.3576C63.0157 29.1343 62.9717 28.8803 62.9717 28.6504V26.3008Z" fill="#83889E" />
            <path d="M67.8085 26.3008C67.9624 26.3139 68.1163 26.3314 68.2482 26.3314C68.4022 26.3314 68.5341 26.3139 68.688 26.3008V30.2511C68.5341 30.2379 68.4022 30.2226 68.2482 30.2226C68.1163 30.2226 67.9624 30.2379 67.8085 30.2511V26.3008Z" fill="#83889E" />
            <path d="M71.6131 30.2511C71.4592 30.2379 71.3052 30.2226 71.1733 30.2226C71.0194 30.2226 70.8875 30.2379 70.7336 30.2511V26.7103C70.3378 26.7103 69.964 26.7497 69.6561 26.7913C69.6781 26.7103 69.7001 26.6292 69.7001 26.5438C69.7001 26.4628 69.6781 26.3818 69.6561 26.3008H72.6465C72.6245 26.3818 72.6026 26.4628 72.6026 26.5438C72.6026 26.6292 72.6245 26.7103 72.6465 26.7913C72.2947 26.7497 71.9649 26.7103 71.6131 26.7103V30.2511Z" fill="#83889E" />
            <path d="M75.7468 26.3008C75.7248 26.3818 75.7248 26.4694 75.7248 26.5482C75.7248 26.6292 75.7248 26.7168 75.7468 26.7957C75.395 26.7497 74.9992 26.7037 74.4055 26.7168V27.954H74.9992C75.2631 27.954 75.5049 27.9299 75.7248 27.9015C75.7028 27.9825 75.7028 28.0679 75.7028 28.1489C75.7028 28.2299 75.7028 28.3175 75.7248 28.3964C75.5049 28.3679 75.2631 28.346 74.9992 28.346H74.4055V29.8065C74.9992 29.8022 75.395 29.7737 75.7468 29.7277C75.7248 29.8065 75.7248 29.8941 75.7248 29.9751C75.7248 30.054 75.7248 30.1416 75.7468 30.2226H73.548V26.3008H75.7468Z" fill="#83889E" />
            <path d="M78.5607 27.0435C78.4508 26.7391 78.2309 26.5442 77.9011 26.5442C77.4393 26.5442 77.2634 26.7807 77.2634 27.107C77.2634 27.8843 79.0225 27.742 79.0225 29.0602C79.0225 29.796 78.3848 30.3259 77.4833 30.3259C77.1755 30.3259 76.8237 30.2514 76.5598 30.0784C76.6258 29.8354 76.6917 29.5945 76.7137 29.3471H76.8237C76.9116 29.7434 77.2195 29.9799 77.6372 29.9799C77.989 29.9799 78.2969 29.7784 78.2969 29.3821C78.2969 28.4602 76.5818 28.7953 76.5818 27.407C76.5818 26.7457 77.0436 26.1982 77.9231 26.1982C78.3409 26.1982 78.7147 26.3537 78.8246 26.4741C78.7586 26.6581 78.7147 26.8486 78.6487 27.0435H78.5607Z" fill="#83889E" />
            <path d="M2.72339 26.3008C2.8773 26.3139 3.00923 26.3314 3.16315 26.3314C3.29508 26.3314 3.449 26.3139 3.60291 26.3008V27.8621C3.88876 27.873 4.19659 27.8905 4.48244 27.8905C4.76829 27.8905 5.07613 27.873 5.36197 27.8621V26.3008C5.51588 26.3139 5.64782 26.3314 5.80173 26.3314C5.93366 26.3314 6.08758 26.3139 6.2415 26.3008V30.2511C6.08758 30.2379 5.93366 30.2226 5.80173 30.2226C5.64782 30.2226 5.51588 30.2379 5.36197 30.2511V28.3219C5.07613 28.311 4.76829 28.2934 4.48244 28.2934C4.19659 28.2934 3.88876 28.311 3.60291 28.3219V30.2511C3.449 30.2379 3.29508 30.2226 3.16315 30.2226C3.00923 30.2226 2.8773 30.2379 2.72339 30.2511V26.3008Z" fill="#83889E" />
            <path d="M9.40778 30.3259C8.13246 30.3259 7.25293 29.577 7.25293 28.2697C7.25293 27.1245 8.11047 26.1982 9.5397 26.1982C11.1888 26.1982 11.6726 27.3544 11.6726 28.2478C11.6726 29.3712 10.815 30.3259 9.40778 30.3259ZM8.22041 28.4383C8.22041 29.185 8.57222 29.9799 9.42976 29.9799C10.3093 29.9799 10.7271 29.0931 10.7271 28.1383C10.7271 27.396 10.3753 26.5442 9.49573 26.5442C8.70415 26.5442 8.22041 27.1486 8.22041 28.4383Z" fill="#83889E" />
            <path d="M13.8278 30.2511C13.6959 30.2379 13.5419 30.2226 13.41 30.2226C13.2561 30.2226 13.1242 30.2379 12.9702 30.2511V26.7103C12.5525 26.7103 12.2007 26.7497 11.8928 26.7913C11.9148 26.7103 11.9148 26.6292 11.9148 26.5438C11.9148 26.4628 11.9148 26.3818 11.8928 26.3008H14.8612C14.8612 26.3818 14.8392 26.4628 14.8392 26.5438C14.8392 26.6292 14.8612 26.7103 14.8612 26.7913C14.5314 26.7497 14.1796 26.7103 13.8278 26.7103V30.2511Z" fill="#83889E" />
            <path d="M17.9393 26.3008C17.9393 26.3818 17.9173 26.4694 17.9173 26.5482C17.9173 26.6292 17.9393 26.7168 17.9393 26.7957C17.5875 26.7497 17.1917 26.7037 16.598 26.7168V27.954H17.2137C17.4775 27.954 17.6974 27.9299 17.9173 27.9015C17.8953 27.9825 17.8953 28.0679 17.8953 28.1489C17.8953 28.2299 17.8953 28.3175 17.9173 28.3964C17.6974 28.3679 17.4775 28.346 17.2137 28.346H16.598V29.8065C17.1917 29.8022 17.5875 29.7737 17.9393 29.7277C17.9393 29.8065 17.9173 29.8941 17.9173 29.9751C17.9173 30.054 17.9393 30.1416 17.9393 30.2226H15.7405V26.3008H17.9393Z" fill="#83889E" />
            <path d="M19.9182 29.8065C20.424 29.8065 20.8417 29.7671 21.2375 29.7277C21.2155 29.8065 21.1935 29.8941 21.1935 29.9751C21.1935 30.054 21.2155 30.1416 21.2375 30.2226H19.0387V26.3008C19.1926 26.3139 19.3245 26.3314 19.4785 26.3314C19.6324 26.3314 19.7643 26.3139 19.9182 26.3008V29.8065Z" fill="#83889E" />
            <path d="M79.1538 17.4145C79.1538 16.7094 79.7255 16.1904 80.4071 16.1904C81.0888 16.1904 81.6605 16.7094 81.6605 17.4145C81.6605 18.124 81.0888 18.6429 80.4071 18.6429C79.7255 18.6429 79.1538 18.124 79.1538 17.4145ZM80.4071 18.4393C80.9788 18.4393 81.4186 18.0057 81.4186 17.4145C81.4186 16.8342 80.9788 16.3941 80.4071 16.3941C79.8574 16.3941 79.3957 16.8342 79.3957 17.4145C79.3957 18.0057 79.8574 18.4393 80.4071 18.4393ZM80.1433 18.124H79.9454V16.7094H80.4731C80.8029 16.7094 80.9788 16.8342 80.9788 17.1123C80.9788 17.3663 80.8249 17.4758 80.605 17.5021L81.0228 18.124H80.7809L80.4071 17.5108H80.1433V18.124ZM80.4071 17.3291C80.583 17.3291 80.7589 17.316 80.7589 17.0992C80.7589 16.924 80.605 16.8911 80.4511 16.8911H80.1433V17.3291H80.4071Z" fill="#83889E" />
</svg>
