<?xml version="1.0" encoding="UTF-8"?>
<svg id="logo-radison" xmlns="http://www.w3.org/2000/svg" viewBox="0 0 82 32">
<path d="M49.5467 10.332C48.8037 8.73029 48.2797 10.0846 48.2797 10.0846C47.7835 11.475 44.6534 15.0093 44.0324 15.6351C41.4208 17.9069 42.3246 16.4887 42.1139 15.4734C42.1139 15.4734 42.2248 13.6241 42.7433 13.2042C42.7433 13.2042 43.0178 13.3264 43.2312 12.2032C43.2312 12.2032 43.8605 10.7461 42.1777 10.4708C42.1777 10.4708 41.0244 9.68107 40.5032 11.914C40.5032 11.914 39.519 16.1352 40.8636 18.0622C40.8636 18.0622 41.5566 19.3303 45.0859 15.8766L45.0804 15.8687C46.3113 14.6536 48.1744 12.4567 48.1744 12.4567C50.1483 16.0884 47.1402 17.0644 47.1402 17.0644C46.0119 17.8014 47.1568 17.9737 47.1568 17.9737C51.7895 18.0715 52.161 15.2626 52.161 15.2626C52.2719 13.2438 49.5467 10.332 49.5467 10.332Z" fill="#83889E" />
            <path d="M37.9644 1.80994C37.9644 1.80994 36.459 -0.0948828 36.7141 2.09921C36.7141 2.09921 36.9193 6.67918 36.1679 12.3798C36.0792 12.1575 35.9655 11.9321 35.8047 11.7066C35.8047 11.7066 34.4934 9.95187 33.0185 10.4413C33.0185 10.4413 31.1444 11.0333 30.0548 13.8756C30.0548 13.8756 29.2868 15.8416 29.5058 17.3182C29.5058 17.3182 29.4336 21.2056 34.1496 18.4583C34.1496 18.4583 34.6487 18.1548 35.2337 17.56C35.1228 18.044 34.937 18.3637 34.9176 18.8614C34.9176 18.8614 34.7484 19.8876 35.217 20.1462C35.3944 20.2464 35.5885 20.1068 36.0043 19.1117C36.0043 19.1117 39.3562 10.483 39.5364 6.9209C39.5364 6.9209 40.7146 5.15244 37.9644 1.80994ZM32.1174 17.3376C32.1174 17.3376 31.7709 17.1066 31.793 16.064C31.793 16.064 31.8901 14.2538 33.1155 12.8022C33.1155 12.8022 33.4565 12.3686 33.7392 12.3158C33.8307 12.3001 33.9804 12.4357 34.0497 12.989C34.0662 13.1222 33.6782 13.153 33.8196 13.5841C33.8196 13.5841 34.4739 15.2415 35.849 14.4934C35.7908 14.8355 35.7298 15.1777 35.6632 15.5195C34.9479 16.5179 33.4426 18.2414 32.1174 17.3376Z" fill="#83889E" />
            <path d="M45.5058 6.02297C45.5804 5.33089 45.1537 4.71598 44.5576 4.65205C43.9782 4.58899 43.4514 5.06897 43.3544 5.73094C43.2907 6.01471 43.2908 6.23702 43.2766 6.5457C43.257 6.81843 42.9106 7.78871 43.2153 7.86658C43.5175 7.94541 44.4546 7.36049 44.9093 7.01839C45.2254 6.82369 45.4586 6.45958 45.5058 6.02297Z" fill="#83889E" />
            <path d="M64.7374 9.78853C64.7374 9.78853 61.5214 14.5826 61.5325 16.1787C61.5325 16.1787 61.4023 17.6526 63.0685 17.5942C63.0685 17.5942 64.7513 17.4941 65.9601 16.4958C65.9601 16.4958 66.7336 15.7225 67.1855 15.631C67.1855 15.631 68.2806 15.7452 67.9284 14.285C67.9284 14.285 67.5653 12.6333 67.155 12.0076C67.155 12.0076 66.7835 11.2737 66.326 11.5543C66.326 11.5543 65.8936 11.7515 66.0377 12.5305C66.0377 12.5305 66.0016 12.562 66.2235 13.1926C66.2235 13.1926 66.7419 14.7915 66.4369 14.836C66.4369 14.836 66.2927 14.8517 66.1208 15.0141C66.0238 15.1055 65.8298 15.32 65.6218 15.4674C65.6218 15.4674 64.1525 16.4573 64.4824 15.0582C64.4824 15.0582 64.6764 14.2184 64.8872 13.6985C64.8872 13.6985 65.705 11.3961 66.6088 10.1642C66.6088 10.1642 67.4876 9.1047 66.4148 9.1881C66.348 9.19086 66.1875 9.24327 66.1098 9.20386C66.1098 9.20386 65.5442 8.71808 64.7374 9.78853Z" fill="#83889E" />
            <path d="M58.0212 11.8906C57.4528 11.532 56.8096 10.2027 57.3114 9.57143C57.5305 9.29869 57.9768 9.05441 57.9102 8.66502C57.7661 7.80299 56.2663 8.66773 55.989 9.69387C55.4317 11.2483 53.7545 12.2411 53.7545 12.2411C53.4828 12.4855 53.4162 13.1197 53.4162 13.1197C53.3635 14.2654 54.0927 13.4588 54.0927 13.4588C55.1406 12.644 55.8837 12.0684 55.8837 12.0684C57.8576 15.6973 54.844 16.6733 54.844 16.6733C54.4475 16.8263 54.3505 17.0099 54.3505 17.2432C54.3615 17.5546 54.8662 17.5821 54.8662 17.5821C59.4961 17.6791 59.8675 14.8709 59.8675 14.8709C60.081 13.625 58.7919 12.4301 58.0212 11.8906Z" fill="#83889E" />
            <path d="M28.1667 17.4969C28.1667 17.4969 28.158 17.4417 28.1109 17.3999C27.9861 17.314 27.3734 17.5914 26.7663 17.9563C26.6692 18.0115 26.5833 18.0652 26.5001 18.1093C26.2783 18.2512 26.0621 18.3876 25.9761 18.4624C25.9761 18.4624 25.5852 18.7769 25.6267 18.073C25.6295 18.0651 25.6295 18.0572 25.6295 18.0415C25.6351 17.8854 25.6657 17.6884 25.6767 17.474C25.6767 17.474 26.2117 15.3273 26.4419 14.7266C26.4419 14.7266 26.5694 14.1591 26.769 13.5142C26.769 13.5142 27.684 12.5631 26.0067 12.2544C26.0067 12.2544 25.2054 10.2773 24.3405 13.3918C24.2823 13.0718 23.9884 12.577 23.5392 12.3795C23.4478 12.3322 23.3202 12.2905 23.1427 12.2763C23.0759 12.2684 23.0319 12.2842 22.8849 12.2684C22.8849 12.2684 22.0809 11.9934 21.2187 13.0721C20.3038 14.0815 17.6312 17.296 18.2412 19.985C18.2412 19.985 18.5738 21.3783 19.8048 21.3699C19.8048 21.3699 21.4377 21.3856 22.6687 20.2186C22.6687 20.2186 23.0402 19.8875 23.4339 19.4039C23.4504 19.571 23.4755 19.7516 23.5253 19.9297C23.5309 19.9691 23.5395 20.0006 23.5505 20.0353C23.5505 20.0353 23.5945 20.3467 23.8499 20.5832C24.0385 20.7558 24.3379 20.8866 24.8202 20.8219C24.8674 20.814 24.9201 20.7984 24.97 20.7826C24.97 20.7826 26.6972 20.3625 26.6556 19.6258C26.6336 19.2616 26.7665 19.189 26.7665 19.189C26.7665 19.189 26.8746 19.126 26.8357 18.9998C26.8357 18.9998 28.2138 18.0808 28.1667 17.4969ZM23.1872 18.516C23.0458 18.7438 22.9126 19.0023 22.5411 19.242C22.5411 19.242 20.6531 20.4016 20.7197 18.7635C20.7197 18.7635 20.7834 17.8541 21.0939 17.0115C21.0939 17.0115 21.9644 14.7925 23.3118 13.5022C23.4338 13.3769 23.5419 13.3635 23.6113 13.4549C23.7998 13.7111 23.833 14.0059 23.9744 14.2474C24.0129 14.3105 24.0548 14.375 24.0992 14.442C23.9384 15.2707 23.5253 16.8502 23.4532 18.0404C23.4037 18.2043 23.287 18.363 23.1872 18.516Z" fill="#83889E" />
            <path d="M10.017 9.52942C9.89231 9.29846 9.61226 9.42692 8.94415 10.511C8.94415 10.511 3.22747 20.1964 2.07415 24.7875C2.07415 24.7875 0.807164 27.9604 2.50387 29.1005C2.50387 29.1005 2.88094 29.7011 3.34669 29.8099C3.47424 30.4964 3.71814 31.1307 4.18946 30.9138C4.353 30.835 4.37801 30.2746 4.3586 29.7264L4.36723 29.7293C4.35623 29.2705 4.40025 28.87 4.45597 28.553C4.49448 28.4221 4.5306 28.2889 4.56683 28.1329C4.56683 28.1329 4.59198 28.0327 4.63914 27.849C4.65878 27.7859 4.67217 27.7576 4.67217 27.7576L4.66114 27.7604C5.18233 25.6914 7.80228 15.5445 9.89544 11.2482C9.89544 11.2482 10.3803 10.194 10.017 9.52942Z" fill="#83889E" />
            <path d="M79.2335 16.4918C78.4599 16.0133 76.328 11.7116 76.328 11.7116C75.8346 10.9667 74.9834 11.87 74.9834 11.87C74.4123 12.3122 73.6194 13.6998 73.2119 14.5313C72.6684 15.4628 72.807 14.2475 72.807 14.2475C72.8345 13.9165 72.9317 13.3909 73.3005 13.1463C73.3005 13.1463 73.5861 13.3851 73.9021 12.2898C73.9021 12.2898 74.5036 10.8522 73.0177 10.4629C73.0177 10.4629 71.9448 9.56463 71.2184 11.742C71.2184 11.742 70.2092 14.8926 70.6112 16.8559C70.6112 16.8559 70.797 19.1583 72.7404 17.3563C72.9317 17.1758 73.1397 16.8976 73.3559 16.5862C73.7552 15.969 73.8661 15.7437 74.1433 15.1014C74.6202 13.9835 75.4574 12.9741 75.6071 12.8044C75.499 14.1142 77.0044 17.5707 77.0044 17.5707C77.5312 19.3337 78.3823 19.2697 78.3823 19.2697C82.7738 19.4203 79.2335 16.4918 79.2335 16.4918Z" fill="#83889E" />
            <path d="M12.2876 26.86C12.4179 26.7015 12.5427 26.454 13.2108 26.2901C13.2108 26.2901 35.9445 18.5456 66.1885 20.0945C66.1885 20.0945 67.9046 20.0314 67.4388 20.7841C67.1643 21.2263 66.6542 21.254 65.6839 21.3045C65.6839 21.3045 65.3568 21.3596 64.0704 21.3438C64.0704 21.3438 67.1616 22.5506 54.9547 22.3004C54.9547 22.3004 56.0304 23.4016 51.5419 23.0847C51.5419 23.0847 39.0218 22.5116 13.7182 27.114C13.7182 27.114 11.7275 27.541 12.2876 26.86Z" fill="#83889E" />
            <path d="M69.493 20.2734C70.419 20.3286 71.4586 20.3444 72.9002 20.4824C73.6488 20.5612 74.8022 20.5612 74.9657 21.0444C75.1154 21.4921 74.5527 21.9509 73.5435 22.1456C73.0334 22.2457 72.7118 22.3292 72.2543 22.3126C71.7109 22.2969 70.5437 22.3364 70.5105 21.7065C70.4885 21.3148 69.7231 21.3171 69.2186 21.2974C68.1983 21.2579 68.3036 20.9664 68.5254 20.6188C68.6585 20.4075 68.9357 20.2679 69.493 20.2734Z" fill="#83889E" />
            <path d="M79.954 11.827C80.4142 11.827 80.7996 12.1943 80.7996 12.6696C80.7996 13.1425 80.4142 13.5122 79.954 13.5122C79.4911 13.5122 79.1084 13.1424 79.1084 12.6696C79.1084 12.1943 79.491 11.827 79.954 11.827ZM79.954 13.6791C80.514 13.6791 80.9604 13.2313 80.9604 12.6696C80.9604 12.1107 80.514 11.6631 79.954 11.6631C79.394 11.6631 78.9476 12.1107 78.9476 12.6696C78.9476 13.2316 79.394 13.6791 79.954 13.6791ZM80.1286 12.7197C80.2783 12.7142 80.428 12.6338 80.428 12.4107C80.428 12.1719 80.2451 12.1104 80.0372 12.1104H79.563V13.2421H79.7294V12.7195H79.9374L80.2284 13.2421H80.4142L80.1286 12.7197ZM80.0122 12.2775C80.1452 12.2775 80.2644 12.2853 80.2644 12.4303C80.2644 12.5833 80.0565 12.5581 79.9013 12.5581H79.7294V12.2775H80.0122Z" fill="#83889E" />
            <path d="M18.701 25.768C18.701 25.768 13.78 18.3489 13.2782 16.7722C13.2782 16.7722 13.0591 16.1746 12.757 15.8294C13.073 15.8294 13.4279 15.8216 13.8354 15.7979C13.8354 15.7979 16.447 15.7507 17.5505 13.7235C17.8526 13.1702 18.4348 11.2653 16.1837 8.8738C16.1837 8.8738 13.3392 5.48408 6.87393 5.05307C6.87393 5.05307 5.13014 4.22714 1.80326 6.99122C1.80326 6.99122 0.55011 7.98954 1.25429 8.2231C1.57587 8.32873 1.8005 8.32877 2.09436 8.2468C2.09436 8.2468 7.49497 6.4115 14.2042 10.2796C14.2042 10.2796 16.8518 11.9564 15.205 13.6304C15.205 13.6304 14.5507 14.3587 12.8845 14.6231C12.8845 14.6231 12.488 14.7019 11.7062 14.7815C11.7062 14.7815 11.3154 14.813 10.783 14.8367C10.783 14.8367 10.1093 14.8312 10.0372 15.0314C10.0066 15.1536 10.1204 15.2009 10.4864 15.379C10.4864 15.3763 10.4892 15.379 10.4864 15.379C9.78773 15.4578 9.52432 15.5572 9.35798 15.7432C9.35798 15.7432 9.22214 15.9048 9.29436 16.0853C9.76015 17.3283 11.8949 22.4449 16.7188 26.4603C16.7188 26.4603 19.494 28.6349 20.1122 28.0982C20.3035 27.9311 19.6075 27.036 18.701 25.768Z" fill="#83889E" />
</svg>
