<?xml version="1.0" encoding="UTF-8"?>
<svg id="Layer_1" xmlns="http://www.w3.org/2000/svg" version="1.1" viewBox="0 0 113.3 32">
  <!-- Generator: Adobe Illustrator 30.1.0, SVG Export Plug-In . SVG Version: 2.1.1 Build 136)  -->
  <defs>
    <style>
      .st0 {
        fill: #83889e;
      }
    </style>
  </defs>
  <g>
    <path class="st0" d="M15.9,3.1l-.4.8-2,7.3c2.1-.8,6.9-3.2,5.7-5.9-.4-1.9-2.1-3.1-4.1-2.7-3,.5-5.9,1.8-8.3,3.7s-1.3,1.3-1.6,2,0,1.4.6,2c-.6,0-3.5-.2-3.5-.7,0-.9,1.5-2.2,2.3-2.7,3.2-2.2,6.7-3.9,10.5-4.8s4.5-.7,6.2.4,1.3,2,.7,3.1c-1.5,2.6-5.8,4.9-8.6,6-.2.5-1.7,5.9-1.2,6h.6c-.3.6-1.6,2.1-2.2,2s0-3.8.2-4.4l.9-5,1.2-6.7c1-.2,1.8-.4,3-.5Z"/>
    <g>
      <g>
        <path class="st0" d="M89.2,18.6c-1.2.4-2.4,1-3.7,1-.2-1.1,2.3-8,1.7-8.1s-2,1.6-2.4,2.1l-3.8,5.2c-.3.4-.5.7-.9.9l2.2-10.3c.5-2.6,1-5.2,1.1-7.8l3.2-.5c-.3.5-.5,1-.6,1.5-1.1,4.6-2.3,9-3.8,13.6,1.4-1.8,2.7-3.6,4.3-5.2s2.3-1.9,2.9-1.5.2.5.2.6l-.8,3.7c-.2.8-1.1,4.8.5,4.7Z"/>
        <g>
          <path class="st0" d="M72.2,17.7c-.4.5-2,2-2.7,1.9s1.1-7.7,1.3-8.5l1.5-7.6c1-.3,2.1-.4,3.1-.5-.4.7-.6,1.2-.8,1.9-1.1,4-2.1,7.9-2.9,12s.1.6.5.7Z"/>
          <path class="st0" d="M73.5,2.9c-2.8.7-7.4,2.6-8.7,5.1s-.2,1.3.5,2c-.6,0-3.3-.3-3.5-.7-.3-.8,1.7-2.6,2.6-3.1,3.8-2.5,8.2-3.9,12.7-4.3s2.9,0,4.2.5c.1.8-.1,1.5-.6,2.1-1.7-2.1-4.8-2.1-7.1-1.6Z"/>
        </g>
      </g>
      <g>
        <path class="st0" d="M98.4,15.3l-2.5,2.5c-1.7,1.8-4.8,2.4-4.8,1,.3-5.4,6.4-8.4,11.2-9.5-1.5,2.3-2.3,6.1-2,8.8s.2.6.4.7.5.2.9.3c-1.2.3-2.4.5-3.8.5l.6-4.2ZM98.6,14c.2-.9.4-2.1.5-3.1-3.3.9-5.5,4-5.3,7.3.7,1,4.5-3.5,4.8-4.2Z"/>
        <path class="st0" d="M108.7,18.7c-.8.5-1.8.9-2.9,1s-2.1-.7-2.1-2,.4-2.5.8-3.7l1.4-4.3,2.2-.2-1.5,4.1c-.5,1.3-1,4.1.4,4.9s1.1.1,1.8.1Z"/>
        <path class="st0" d="M111,5.2c-.7.8-3,2.5-4.2,2.3,0-.8.3-1.5.6-2.2,1.3.2,2.2,0,3.6-.1Z"/>
      </g>
    </g>
    <g>
      <path class="st0" d="M50.3,15.3l-2.4,2.5c-1.1,1.1-3.4,2.3-4.7,1.5-.5-5.5,6.6-9.1,11.1-10-1.6,2.3-2.3,6-2,8.7s.2.6.4.8.5.2.9.3c-1.2.3-2.4.5-3.8.5l.6-4.2ZM50.6,14l.5-3.2c-3.3.9-5.5,4-5.3,7.4.9.8,4.4-3.5,4.8-4.2Z"/>
      <g>
        <path class="st0" d="M25.6,18c1.2,1.3,2.5-.3,3.6-.6-1.2,1.2-4.5,3.5-6.1,1.7s-1.8-3.7-.9-5.5,2.7-3.4,4.8-4,3.2,1.3,3.7,2.6c-.3,1-5.3,2.8-6.4,3.3.1,1,.5,1.9,1.2,2.6ZM28,12.6c-.3-.9-.8-1.5-1.6-2s-.8.2-1,.5c-.8,1.2-1.1,2.4-1.1,3.9.8-.3,4-1.3,3.6-2.4Z"/>
        <path class="st0" d="M40.2,11.3c-.7.1-1.2.2-1.7.7-3.5,3.3-3.7,5.5-4,5.8-.7.7-1.3,1.2-2.3,1.8,1-3.2,1.7-6.3,2.2-9.7,1.1,0,2.2-.2,3.2-.5-.3.5-.5,1.1-.7,1.7l-1.1,3.2c1.5-1.9,3.1-3.7,5.1-4.9.9.3,1.6.4,2.6.5-1,.6-2.1,1.2-3.3,1.4Z"/>
      </g>
    </g>
  </g>
  <g>
    <path class="st0" d="M9.9,24.8h.5v3.4l2.3-3.4h.6l-1.9,2.7,2.2,3.3h-.6l-1.9-2.9-.7,1v1.9h-.5v-6Z"/>
    <path class="st0" d="M15.8,24.8h.5v.6h-.5v-.6ZM15.8,26.3h.5v4.5h-.5v-4.5Z"/>
    <path class="st0" d="M19.2,30v-3.4h-.6v-.3h.6v-1.3h.5v1.3h1v.3h-1v3.3c0,.4.3.5.7.5s.3,0,.4,0v.3c-.1,0-.3,0-.4,0-.7,0-1.1-.2-1.1-.8Z"/>
    <path class="st0" d="M22.8,28.6h0c0-1.6,1-2.4,1.9-2.4s.6,0,.8.2v.4c-.2-.1-.5-.2-.8-.2-.6,0-1.4.6-1.4,1.9h0c0,1.5.7,2,1.4,2s.5,0,.7-.2v.4c-.2.1-.4.2-.8.2-1,0-1.9-.7-1.9-2.2Z"/>
    <path class="st0" d="M27.8,24.8h.5v2.2c.2-.4.6-.7,1.3-.7s1.4.5,1.4,1.4v3.1h-.5v-3.1c0-.7-.4-1.1-1-1.1s-1.2.5-1.2,1.2v3h-.5v-6Z"/>
    <path class="st0" d="M33.4,28.6h0c0-1.6.8-2.4,1.7-2.4s1.6.8,1.6,2.2v.3h-2.8c0,1.2.7,1.8,1.6,1.8s.7,0,1.1-.3v.4c-.4.2-.7.2-1.2.2-1,0-2-.7-2-2.2ZM36.3,28.4c0-1-.5-1.8-1.1-1.8s-1.2.6-1.2,1.8h2.4Z"/>
    <path class="st0" d="M39.3,26.3h.5v.7c.2-.4.6-.7,1.3-.7s1.4.5,1.4,1.4v3.1h-.5v-3.1c0-.7-.4-1.1-1-1.1s-1.2.5-1.2,1.2v3h-.5v-4.5Z"/>
    <path class="st0" d="M48.3,27.9h0c0-2.1.8-3.1,2-3.1s2,1,2,3h0c0,2.1-.8,3.1-2,3.1s-2-1-2-3ZM51.7,27.9h0c0-1.9-.6-2.8-1.5-2.8s-1.5.9-1.5,2.6h0c0,1.9.6,2.8,1.5,2.8s1.5-.9,1.5-2.6Z"/>
    <path class="st0" d="M55,26.6h-.6v-.3h.6v-.5c0-.4.1-.7.4-.8.2-.1.5-.2.8-.2s.3,0,.4,0v.3c0,0-.3,0-.4,0-.5,0-.7.2-.7.7v.5h1v.3h-1v4.1h-.5v-4.1Z"/>
    <path class="st0" d="M62.2,24.8h1.1c.7,0,1.3.2,1.7.5.3.2.6.6.6,1h0c0,.9-.7,1.3-1.5,1.5,1,.2,1.6.6,1.6,1.5h0c0,1-1,1.6-2.6,1.6h-.8v-6ZM65,26.3c0-.7-.7-1.2-1.7-1.2h-.5v2.4h.4c1.2,0,1.9-.5,1.9-1.3h0ZM63.1,27.9h-.4v2.5h.3c1.3,0,2-.4,2-1.2h0c0-.8-.7-1.3-1.9-1.3Z"/>
    <path class="st0" d="M68,29.4v-3.1h.5v3.1c0,.7.4,1.1,1,1.1s1.2-.5,1.2-1.2v-3h.5v4.5h-.5v-.7c-.2.4-.6.7-1.3.7s-1.4-.5-1.4-1.4Z"/>
    <path class="st0" d="M73.6,29.5h0c0-.9.6-1.5,1.6-1.5s.8,0,1,.2v-.6c0-.6-.4-1-1.2-1s-.8,0-1.2.2v-.3c.3-.1.7-.2,1.2-.2s.9.1,1.2.3c.3.2.5.5.5,1v3.2h-.5v-.6c-.3.4-.7.7-1.3.7s-1.4-.6-1.4-1.4ZM76.3,29.4v-.9c-.3-.1-.7-.2-1-.2-.8,0-1.2.5-1.2,1.1h0c0,.7.3,1.2,1,1.2s1.2-.6,1.2-1.2Z"/>
    <path class="st0" d="M82.9,24.8h.5v3.4l2.3-3.4h.6l-1.9,2.7,2.2,3.3h-.6l-1.9-2.9-.7,1v1.9h-.5v-6Z"/>
    <path class="st0" d="M88.7,24.8h.5v2.2c.2-.4.6-.7,1.3-.7s1.4.5,1.4,1.4v3.1h-.5v-3.1c0-.7-.4-1.1-1-1.1s-1.2.5-1.2,1.2v3h-.5v-6Z"/>
    <path class="st0" d="M94.2,29.5h0c0-.9.6-1.5,1.6-1.5s.8,0,1,.2v-.6c0-.6-.4-1-1.2-1s-.8,0-1.2.2v-.3c.3-.1.7-.2,1.2-.2s.9.1,1.2.3c.3.2.5.5.5,1v3.2h-.5v-.6c-.3.4-.7.7-1.3.7s-1.4-.6-1.4-1.4ZM96.9,29.4v-.9c-.3-.1-.7-.2-1-.2-.8,0-1.2.5-1.2,1.1h0c0,.7.3,1.2,1,1.2s1.2-.6,1.2-1.2Z"/>
    <path class="st0" d="M99.8,28.6h0c0-1.5.8-2.3,1.8-2.3s1.8.9,1.8,2.3h0c0,1.5-.8,2.3-1.8,2.3s-1.8-.9-1.8-2.3ZM102.9,28.6h0c0-1.3-.6-2-1.3-2s-1.3.8-1.3,1.9h0c0,1.3.6,2,1.3,2s1.3-.8,1.3-1.9Z"/>
  </g>
</svg>