<?xml version="1.0" encoding="UTF-8"?>
<svg id="Layer_1" xmlns="http://www.w3.org/2000/svg" version="1.1" viewBox="0 0 64 32">
  <!-- Generator: Adobe Illustrator 30.1.0, SVG Export Plug-In . SVG Version: 2.1.1 Build 136)  -->
  <defs>
    <style>
      .st0 {
        fill: #83889e;
      }
    </style>
  </defs>
  <g>
    <path class="st0" d="M5.4,30.5c-1.6-.9-1-3.3,0-4.3l.2.8c.2.8.5,1.4,1.3,1.5s1.6-.5,2-1.3c.6-1.3.6-2.5.5-3.8h-.6c-1.4-.2-2.7-.6-3.8-1.6s-1.2-1.4-1.4-2.3-.2-2,0-2.9c.4-1.4,1.1-2.8,2.1-3.9,1.6-1.8,3.8-2.6,6.2-2.6s2.1.2,3,.7c1.4.6,2.4,1.9,2.7,3.3s.2,1.4.2,2.2c0,1.9-1.1,3.6-2.8,4.5s-1.7.7-2.6.8v1c0,.9,0,1.7-.2,2.6s-.4,2.1-.9,3-.7,1.2-1.2,1.7-1.3.9-2.1,1-2,0-2.8-.4ZM7.6,19.2v-.7c.6.4,1.2.9,1.9.9v-1.7c0-.9.3-1.8.9-2.5s1.1-.9,1.8-1.1,1.3-.2,2-.2c-.8-1-1.9-1.5-3.2-1.5s-2.3.5-3.3,1.2-2,2.3-2.1,3.9c-.2,2.7,1,5,3.9,5.4v-1.2c0-.1,0-.2-.2-.3-.2-.1-.5-.2-.7-.3-.7-.4-1.1-1.2-1-2ZM14.8,16.2c0-.6,0-1.3-.3-1.9-.9.2-1.9,1.1-1.9,2.1v2.5c1.3-.5,2-1.4,2.2-2.7Z"/>
    <g>
      <path class="st0" d="M47.7,9.8c.2-.4,0-.5,0-1.3s0-.9,0-1.3c.3-1.3.8-2.6,1.8-3.5s1.1-.7,1.7-.7.9,0,1.4.2.6.4.8.8c.3.7.2,1.5-.2,2.2s-1.4.8-2.1.6l.4-.4c.5-.5.8-1.2.4-1.8s-.4-.3-.7-.2-.5.4-.7.7c-.4.8-.4,1.6-.4,2.4s.3,1.8,1.3,2.1.8,0,1.2-.2c.8-.5,1.4-1.2,1.9-2s0-.2,0-.3c-.6-1.5-.4-3.2.6-4.6s1.5-1.4,2.5-1.6,1.9.1,2.6.8.8,1.2,1,1.9.1,1,0,1.5c-.1,1.3-.8,2.5-1.8,3.3s-2.7,1.1-3.7.2l-.5-.4c-.6.7-1.3,1.4-2,2.1s-1.1.9-1.7,1.2c-1.1.5-2.1,0-2.9-.8-.3.4-.7.8-1.1,1.1-.6.6-1.2,1.1-1.9,1.5s-.8.4-1.2.5-.7-.2-.9-.6-.2-.8-.2-1.2v-5.9c0,0,.1-.4.1-.4l2.4-.8v5.5c0,.2.2.6.4.7s.3,0,.4-.1c.3-.3.6-.6.8-.9s.2-.3.3-.4ZM58.6,7.1v-1.6c0,0,.1-2.3.1-2.3,0-.2,0-.4,0-.5-.1-.4-.4-.6-.8-.6s-.7.1-.9.5-.1.5-.1.7v3.7c-.2.3-.1.5.1.7s.6.4,1,.2.6-.4.6-.9Z"/>
      <g>
        <path class="st0" d="M22.4,13.9c.4,0,.5,0,.7-.2.5-.7,1.6-1.3,2.5-1.2v1.8c0,0-.2,3.7-.2,3.7,0,.3,0,.6.2.8.3.5,1-.2,1.2-.4l.6-.7c0-.1.1-.3,0-.5-.2-.5-.2-.9-.2-1.4,0-1.4.5-2.7,1.4-3.8s.9-.9,1.5-1.1,1.4-.2,2,0,.9.7.9,1.3c.1.9-.1,2-1.1,2.3s-.9.2-1.4,0l.2-.2c.3-.2.5-.5.6-.8s.2-.8,0-1.2-.5-.4-.8-.2c-.6.3-.9,1.4-1,2.1s0,1.9.5,2.5,1.3.7,1.9.3c1-.6,1.7-1.6,2.3-2.6v-3.9s0-1.3,0-1.3l2.5-.9v5.5c0,.3.2.8.6.7s.5-.3.6-.5c.3-.3.5-.7.8-1v-1.2s0-2.3,0-2.3c0-.3,0-.5,0-.8h-.8c-.1-.5.3-1.1.8-1.3,0-1.2.2-2.3.6-3.4s.5-1.2,1-1.7,1.3-1,2.1-1.1.9,0,1.4,0c.9.2,1.4.9,1.6,1.8s0,1.1-.5,1.4-.9.4-1.4.4-.6-.1-.8-.4-.5-1,0-1.4l.5-.5s.1-.1.1-.2c-.1-.2-.4-.3-.6-.2-.4,0-.7.4-.9.7-.2.6-.2,1.2-.3,1.8v1.7s.9-.1.9-.1c0,.4-.1.8-.4,1.1s-.6.3-.6.6v6.9c-.2.5-.3,1-.4,1.4-.3.9-.7,1.6-1.4,2.2s-1.2.6-1.8.5-.5,0-.7-.2h0s.3-.2.3-.2c.4-.2.7-.5.9-.9s.4-1,.4-1.5,0-1.1,0-1,0,0,0,0l-.7.7c-.5.5-1,.9-1.6,1.2s-1.4.6-1.8,0-.3-.5-.3-.7c-.6.6-1.1,1.2-1.7,1.8s-.9.7-1.4,1c-.9.6-2,.5-2.8-.2s-.3-.3-.6-.5l-1.2,1.5c-.5.6-1,1.1-1.6,1.5s-1.2.2-1.7-.3c-.8.8-2.3,2.5-3.6,1.5s-.7-.7-.9-1.2c-.4-.8-.5-1.7-.5-2.5s.2-1.4.5-2.1,1-1.7,1.9-2.2,1.1-.6,1.7-.7ZM21.8,20.6c.2,0,.3-.2.5-.4.6-1,.9-2.3.8-3.4s-.2-1-.4-1.4-.2-.2-.3-.2c-.2,0-.3,0-.4.1-1,.9-1.3,3.2-1,4.5s.4,1.1.9.9Z"/>
        <path class="st0" d="M36.8,7.1c-.6.8-2,1.3-2.9.7,0,0,0-.2,0-.2.3-.3.3-.7.2-1s0-1,.4-1.3,1.2-.5,1.8-.3.7.5.8.8c0,.5,0,.9-.3,1.3Z"/>
      </g>
    </g>
  </g>
  <path class="st0" d="M38.2,30.3h-.7s-.1,0-.1,0l-1.2-2.2v2.3s-.7,0-.7,0v-3.3s.9,0,.9,0c0,0,0,0,.1.1l1.1,2.1v-2.2s.7,0,.7,0v3.3Z"/>
  <path class="st0" d="M61.2,30.3c-.3,0-.5,0-.8,0l-1.2-2.3v2.3s-.7,0-.7,0v-3.3s.9,0,.9,0l1.1,2.1v-2.1s.7,0,.7,0v3.3Z"/>
  <path class="st0" d="M54.8,29.8c-.6.6-1.8.5-2.5.5v-3.3c.7,0,1.6-.2,2.2.2.4.2.7.6.8,1s0,1.2-.4,1.6ZM54.4,29.1c.1-.4.2-.7,0-1.1-.3-.5-.7-.6-1.3-.5v2.1c.6,0,1,0,1.3-.6Z"/>
  <path class="st0" d="M28,30.3c-.6.2-1.2,0-1.6-.3s-.4-.6-.5-1c-.1-.6,0-1.2.5-1.7s.6-.4.9-.4c.7-.1,1.5.3,1.7,1s.1,1,0,1.5-.5.7-.9.9ZM27.2,29.6c.3.2.8,0,1-.3s.3-1.1,0-1.5-.4-.4-.7-.3c-.5,0-.7.7-.7,1.1s0,.7.4,1Z"/>
  <path class="st0" d="M44.2,29v-.6s1.2,0,1.2,0v1.6c0,.1,0,.2-.2.2-.7.2-1.3.2-2,0s-.7-.6-.8-1,0-.7,0-1.1c.4-1.1,1.6-1.3,2.6-1s.1.1.1.2v.5c-.6-.2-1-.2-1.4,0-.7.3-.7,1.3-.3,1.7s.7.4,1.1.3v-.7s-.5,0-.5,0Z"/>
  <path class="st0" d="M51.3,30.3c-.1,0-.2,0-.2-.2l-.2-.8c0-.3-.3-.4-.7-.3v1.3s-.8,0-.8,0v-3.3c.6,0,1.4-.2,1.9,0,.3.1.5.4.5.8s-.2.7-.5.8c.2.2.3.3.4.5l.3,1.1h-.6ZM50.8,28.3c.2,0,.2-.3.2-.5,0-.4-.5-.4-.8-.3v.9c.2,0,.4,0,.7-.2Z"/>
  <path class="st0" d="M48,30.2l-.2-.6s0-.1-.1-.1h-.8s-.2.8-.2.8h-.8s1-3.3,1-3.3h.9c0,0,.1,0,.1.1l1,3.2h-.7s-.2,0-.2-.1ZM47.7,28.9l-.4-1.2-.3,1.2h.7Z"/>
  <polygon class="st0" points="57.8 28.9 56.6 28.9 56.6 29.7 57.9 29.7 57.9 30.3 55.8 30.3 55.8 27 57.9 27 57.9 27.6 56.6 27.6 56.6 28.3 57.8 28.3 57.8 28.9"/>
  <polygon class="st0" points="34.8 28.9 33.6 28.9 33.6 29.7 34.9 29.7 34.9 30.3 32.8 30.3 32.8 27 34.8 27 34.8 27.6 33.6 27.6 33.6 28.3 34.8 28.3 34.8 28.9"/>
  <path class="st0" d="M30.4,30.3l-1.1-3.3h.9s.7,2.4.7,2.4l.7-2.2c0,0,0-.2.1-.2.2,0,.5,0,.7,0l-1.1,3.2c0,.1-.1.2-.2.2h-.8Z"/>
  <path class="st0" d="M24.9,29.7c.2,0,.5,0,.7,0,0,.2,0,.4.1.6-.4.2-.9.2-1.3.1s-1-.4-1.2-.9c-.3-1,0-2,.9-2.4s1-.2,1.5,0,.1.1.1.2v.5c-.4,0-.6-.1-.8-.1-.6,0-1,.5-1,1.1s.4,1.1,1,1.1Z"/>
  <polygon class="st0" points="40.3 30.3 39.5 30.3 39.5 27.6 38.7 27.6 38.7 27 41.2 27 41.2 27.6 40.3 27.6 40.3 30.3"/>
  <g>
    <path class="st0" d="M22.3,5.1c-.4,0-.8,0-1.1,0h-.8s0,3,0,3h2s0,.6,0,.6h-3.8s0-5.1,0-5.1h3.6c0,0,.1,0,.2.1v.4c0,0-2,0-2,0v.4s2.1,0,2.1,0l-.2.6Z"/>
    <path class="st0" d="M5,7.6c.3.5,1,.6,1.5.5s.3-.3.2-.6c.3,0,.6.2.7.4s0,.3-.1.4c-.3.3-.7.4-1.2.4-.9,0-1.7,0-2.5-.5s-.9-1.2-.9-2.1c0-1.2.8-2.3,1.9-2.5s.9-.2,1.4-.1.7,0,1,.3.6.6.4,1-.4.3-.6.2-.4-.1-.6-.2.3-.3,0-.6-.3-.2-.4-.2c-.6,0-1.1.4-1.2,1s0,1,0,1.5,0,.9.3,1.3Z"/>
    <path class="st0" d="M11,8.6l-.3-.6c0-.1-.2-.1-.3-.1h-1.7s-.4.7-.4.7h-.6s2.3-5.1,2.3-5.1h.4c0,0,.2,0,.2.1l.5,1,1.8,3.9h-2ZM10.3,7.3l-.7-1.5-.7,1.5h1.4Z"/>
    <polygon class="st0" points="17.4 4.5 17.2 5.1 15.3 5 15.3 8.6 13.4 8.6 13.4 3.5 17.1 3.5 17.3 4 15.3 4 15.3 4.5 17.4 4.5"/>
  </g>
</svg>