<?xml version="1.0" encoding="UTF-8"?>
<svg id="Layer_1" xmlns="http://www.w3.org/2000/svg" version="1.1" viewBox="0 0 84 32">
  <!-- Generator: Adobe Illustrator 30.1.0, SVG Export Plug-In . SVG Version: 2.1.1 Build 136)  -->
  <defs>
    <style>
      .st0 {
        fill: #83889e;
      }
    </style>
  </defs>
  <path class="st0" d="M19.9,24.5c1.1-.3,2.2-.5,3.3-.8,2-.4,3.9-.9,5.9-1.2,1.4-.3,2.7-.5,4.1-.7,1-.2,2-.3,3-.4,1-.1,1.9-.3,2.9-.4.9-.1,1.8-.2,2.7-.3.8,0,1.6-.2,2.4-.3.7,0,1.4-.1,2.1-.2.8,0,1.6-.1,2.4-.2.4,0,.8,0,1.2,0,.8,0,1.5,0,2.3-.1.8,0,1.7,0,2.5,0,2.3-.1,4.7,0,7.1,0,.7,0,1.5,0,2.2,0,.9,0,1.9,0,2.8.1.2,0,.4,0,.5.1.3.1.3.3.1.6-.2.3-.6.4-.9.4-.7,0-1.4,0-2.1,0,0,0,0,0-.1,0,0,0,0,0,0,0,.3.3.2.3-.1.5-.5.2-1,.2-1.5.3-2.3.2-4.6.1-6.9.1-.1,0-.3,0-.4,0,0,.4,0,.5-.5.6-.3,0-.6.1-.9.1-.8,0-1.5,0-2.3,0-1,0-1.9,0-2.9,0-.1,0-.2,0-.3,0-1,0-2,0-3,0-.8,0-1.5,0-2.3.1-1,0-2.1.2-3.1.3-.6,0-1.3,0-1.9.2-.8,0-1.6.2-2.4.3-.7,0-1.4.1-2.1.2-.7,0-1.3.2-2,.3-.8.1-1.6.2-2.4.3-.5,0-1.1.1-1.6.2-.7.1-1.4.2-2.1.3-.7,0-1.4.2-2,.3-.8.1-1.6.3-2.4.4-.1,0-.2,0-.4,0-.3-.4-.6-.8-.9-1.3Z"/>
  <path class="st0" d="M19.9,24.5c.3.5.5.9.9,1.3.3.4.5.7.8,1.1.1.2.2.3.3.5,0,.2,0,.3-.2.3,0,0-.2,0-.3,0-.3,0-.6-.2-.9-.3-.6-.3-1.1-.7-1.6-1,0,0-.2-.1-.3-.2-.4-.3-.7-.6-1.1-1-.6-.6-1.1-1.2-1.7-1.8-1.8-2.1-3.3-4.4-4.3-7,0,0,0,0,0,0-.2-.5,0-.7.4-.8.2,0,.3,0,.5,0,0-.1-.1-.1-.2-.1,0,0-.1,0-.1-.2,0,0,0-.1.2-.1.2,0,.3,0,.5,0,.8,0,1.6-.1,2.5-.3.6-.1,1.1-.3,1.6-.7.5-.4.8-.8.8-1.5,0-.3-.1-.6-.3-.8-.3-.5-.8-.9-1.3-1.2-1.8-1-3.7-1.8-5.8-2.1-1.7-.3-3.4-.3-5.2,0-.2,0-.4.1-.7.2-.3,0-.5,0-.8,0-.2,0-.2-.2-.2-.4,0-.2.2-.3.3-.4,1.1-1,2.3-1.8,3.7-2.2.5-.1,1-.2,1.6,0,.4,0,.8,0,1.2.1,2.4.3,4.7,1.1,6.7,2.5.8.6,1.5,1.3,2,2.2.4.7.7,1.4.7,2.2,0,.9-.4,1.7-1.1,2.3-.7.6-1.5.9-2.4,1-.5,0-.9,0-1.4,0,.4.7.7,1.5,1.1,2.2,1.3,2.2,2.6,4.3,4,6.4,0,0,0,0,0,0Z"/>
  <path class="st0" d="M37.3,12.4c.4-2.8.5-5.6.5-8.3,0-.5,0-1.1,0-1.6,0-.2,0-.3,0-.5,0-.3.2-.4.5-.2.1,0,.2.1.3.2,1,1,1.8,2.2,2.1,3.6.1.6.1,1.2-.1,1.7,0,.2,0,.4,0,.6-.2,1.8-.7,3.5-1.3,5.2-.6,2-1.3,3.9-2.1,5.9-.1.3-.2.6-.4.9,0,.1-.2.3-.3.2-.2,0-.3-.2-.3-.3-.1-.4,0-.8,0-1.2,0-.2.1-.4.2-.7,0,0,0,0,0-.1-.1,0-.2.1-.2.2-.8.7-1.7,1.1-2.7,1.4-.3,0-.5.1-.8,0-.9,0-1.4-.6-1.6-1.5-.2-.9,0-1.8.1-2.7.3-1.1.7-2.2,1.5-3.1.4-.4.8-.8,1.3-1.1.6-.3,1.2-.3,1.7,0,.7.3,1.2.8,1.5,1.4,0,0,0,.1.1.2ZM37,14.6c-.2,0-.3.1-.5.1-.6,0-1.4-.5-1.5-1.1,0-.1,0-.2,0-.3.3-.2.1-.5,0-.7,0-.1-.1-.2-.3,0-.2.1-.3.2-.5.4-.6.7-1,1.6-1.2,2.5,0,.4-.1.8,0,1.2,0,.6.3.8.9.9.5,0,.9-.1,1.3-.4.4-.3.8-.7,1.1-1.1.4-.4.5-.9.5-1.4Z"/>
  <path class="st0" d="M4,26.6c0-.7.2-1.3.4-1.9.7-2.5,1.8-4.8,3-7.1,1.1-2.3,2.4-4.5,3.6-6.7.2-.3.4-.7.7-1,.1-.1.2-.3.4-.2.2,0,.2.3.2.4,0,.5,0,.9-.2,1.3-.3.7-.6,1.4-.9,2.2-.9,2.4-1.7,4.9-2.4,7.3-.7,2.3-1.3,4.6-1.9,6.9-.1.5-.2,1-.1,1.6,0,.2,0,.5,0,.7,0,.1,0,.2-.2.3-.1,0-.3,0-.4-.1-.2-.2-.2-.4-.3-.6,0-.2-.2-.3-.4-.5-.4-.3-.8-.7-1.1-1.1-.3-.4-.3-.9-.3-1.4Z"/>
  <path class="st0" d="M25,19.3c-.2.2-.3.4-.5.5-.8.8-1.8,1.2-2.9,1.3-.5,0-1-.2-1.3-.6-.3-.4-.4-.8-.4-1.3,0-.9.2-1.7.5-2.5.6-1.3,1.4-2.4,2.3-3.5.2-.2.4-.4.6-.6.6-.5,2-.4,2.4.5,0,0,0,0,0,0,.1,0,0-.1.1-.2,0-.2.2-.5.3-.7,0-.1.1-.3.2-.4.3-.4.6-.4.9,0,.1.2.3.4.6.4,0,0,.2,0,.3.1.3.2.4.5.2.8-.1.2-.2.5-.3.8-.3,1-.6,2-.8,3,0,.3-.1.6-.1.9,0,.3.1.3.4.2.5-.3,1-.6,1.5-.9.1,0,.3-.1.4-.1.1,0,.2,0,.2.2,0,.2-.1.3-.2.5-.2.3-.5.5-.8.7-.3.2-.4.4-.4.7,0,.2,0,.4-.2.5-.5.4-1.1.7-1.8.7-.5,0-.8-.3-.9-.7,0-.2,0-.4-.1-.6ZM23.1,19.5c.5,0,1.2-.3,1.5-.7.2-.3.5-.6.5-1,0-.9.3-1.9.5-2.8,0-.3.1-.6,0-.8,0,0,0-.2-.1-.3-.2-.5-.3-.5-.6-.1-.7.8-1.3,1.7-1.7,2.6-.3.5-.4,1.1-.5,1.7,0,.3-.1.6,0,.9,0,.4.3.5.6.5Z"/>
  <path class="st0" d="M48.9,12.6c-.7.8-1.3,1.5-2,2.2-.7.8-1.5,1.6-2.4,2.3-.4.3-.9.7-1.4.9-.2.1-.5.2-.7.2-.3,0-.6,0-.7-.4-.3-.6-.5-1.2-.5-1.8-.1-1.4,0-2.8.3-4.1,0-.3.2-.7.4-.9.3-.4.6-.5,1.1-.3.2,0,.4.1.5.2.5.2.8.6.7,1.1,0,.4-.1.7-.3,1.1,0,.1,0,.2-.2.3-.2,0-.3.3-.4.5-.2.4-.2.8-.3,1.2,0,.5,0,1,0,1.5,0,.3.1.4.4.2.5-.3,1-.7,1.5-1.2,1.2-1.3,2.3-2.6,3.3-4,.3-.4.5-.8.7-1.2,0-.2.2-.5.5-.5.3,0,.4.2.6.4.1.3.3.5.5.7.6.7,1.2,1.5,1.6,2.4.2.4.4.9.5,1.4,0,.4,0,.8-.1,1.2-.4.8-1,1.3-1.8,1.6-.9.4-1.8.5-2.8.4,0,0,0,0-.1,0-.1,0-.3,0-.4-.3,0-.2,0-.3.2-.4.1-.1.3-.2.5-.3.7-.3,1.2-.9,1.4-1.7.1-.5,0-1,0-1.4-.1-.4-.3-.8-.5-1.2Z"/>
  <path class="st0" d="M75.3,13.1c-.1,0-.2.2-.2.2-.5.6-.9,1.2-1.1,1.9-.3.6-.6,1.2-1,1.7-.2.3-.5.6-.8.8-.1,0-.3.2-.4.2-.4.1-.7,0-.9-.3-.1-.2-.2-.4-.2-.6-.2-.8-.1-1.6,0-2.4.1-.9.3-1.7.5-2.5,0-.3.2-.7.4-1,.1-.2.2-.3.4-.5.2-.2.5-.2.8-.1.2,0,.4.2.6.3.5.2.7.6.6,1.2,0,.3-.1.6-.3.9,0,.2-.2.4-.5.5-.1,0-.2.1-.2.2-.2.4-.2.8-.2,1.2,0,0,0,.1,0,.2,0,0,.1,0,.2,0,0-.1.1-.2.2-.4.3-.6.7-1.2,1.1-1.8.2-.3.4-.5.7-.7.1-.1.3-.2.5-.3.3,0,.5,0,.7.2,0,0,.1.2.2.3.5,1,1.1,2.1,1.7,3.1.3.5.7,1,1.2,1.4.3.2.5.5.8.8,0,0,.1.2.1.2.4.7.2,1.1-.6,1.3-.5.1-1,.1-1.5,0-.2,0-.4-.2-.6-.3-.2-.2-.4-.5-.5-.7-.4-1.1-.9-2.2-1.3-3.4-.1-.5-.3-.9-.3-1.4,0,0,0-.1,0-.2Z"/>
  <path class="st0" d="M68.1,14.8c0,.5-.2.8-.7.9-.2,0-.3,0-.5.2-.2.1-.4.3-.6.5-.7.7-1.6,1-2.5,1.2-.2,0-.4,0-.6,0-.9,0-1.5-.7-1.3-1.6,0-.3.2-.6.3-1,.2-.6.5-1.1.8-1.7.6-1.1,1.2-2.1,1.9-3.2.2-.2.3-.4.6-.6.2-.2.5-.3.8-.1,0,0,.2,0,.3,0,0,0,.2,0,.2,0,.3,0,.4.2.3.5,0,.1,0,.2-.2.3-.7,1-1.2,2.1-1.7,3.3-.2.5-.4,1.1-.5,1.6,0,0,0,.1,0,.2,0,.4.1.5.5.4.4,0,.6-.3.9-.5.1-.1.3-.3.5-.4.1,0,.1-.1.1-.2,0-.2,0-.5-.1-.7,0-.3-.2-.6-.3-.9,0-.2-.1-.5-.1-.7,0-.1,0-.3.1-.4.2-.3.5-.4.7-.1.2.2.3.5.5.7.3.6.4,1.2.6,1.8,0,.2,0,.3,0,.4Z"/>
  <path class="st0" d="M56.3,12.2c-.6.5-1.2.9-1.7,1.4-.1.1-.3.3-.4.2-.2,0-.2-.3-.2-.5,0-.4.2-.8.6-1.1.6-.4,1-.8,1.4-1.4.2-.3.4-.6.5-1,.2-.5.5-.9,1-1.1.1,0,.2-.1.4-.1.2,0,.3,0,.4.1.1.2.1.3,0,.5,0,.1-.2.2-.3.3-.4.3-.5.8-.3,1.3.2.5.4,1,.9,1.3.5.4,1,.8,1.3,1.3.6.9.5,1.6,0,2.5-.5.7-1.2,1.1-2.1,1.3-.7.2-1.5.3-2.2.3-.1,0-.2,0-.3,0-.3,0-.4-.4-.2-.6,0,0,.1-.1.2-.2,0,0,.1,0,.2-.1,1.2-.5,1.7-1.4,1.5-2.7,0-.5-.3-1.2-.6-1.7Z"/>
  <path class="st0" d="M72.1,22.1c-.4,0-.8,0-1.1-.1-.3,0-.5-.2-.5-.5,0-.2-.1-.2-.3-.3-.2,0-.4,0-.6,0-.3,0-.5,0-.8,0-.4,0-.5-.3-.2-.6.2-.3.5-.3.8-.3.3,0,.5,0,.8,0,1,0,2.1,0,3.1.2.3,0,.7,0,1,.1,0,0,.2,0,.3,0,.3.1.4.4.2.7-.1.2-.3.3-.5.4-.4.2-.8.3-1.3.3-.3,0-.6.1-.8,0Z"/>
  <path class="st0" d="M44,7.7c.2-.5.1-1.2.3-1.8.1-.5.5-.8,1-.9.5,0,1,.4,1.1,1,0,.5,0,.9-.5,1.2-.4.3-.8.6-1.2.8,0,0-.1,0-.2,0-.3.1-.4,0-.4-.4Z"/>
  <path class="st0" d="M17.5,25.2c.4.3.7.6,1.1,1-.5.1-.9.2-1.4.3-.6.1-1.2.2-1.8.3-.3,0-.6.1-.9,0-.1,0-.2,0-.3-.1,0-.1,0-.2,0-.3.2-.2.4-.4.7-.4.8-.3,1.7-.5,2.5-.8Z"/>
  <path class="st0" d="M79.6,11.8c.6,0,1,.4,1,1,0,.5-.4,1-1,1-.5,0-1-.4-1-1,0-.5.4-1,1-1ZM80.4,12.8c0-.5-.3-.8-.8-.8-.4,0-.8.4-.8.8,0,.4.3.8.8.8.5,0,.8-.3.8-.8Z"/>
  <path class="st0" d="M80,13.3c-.1,0-.2,0-.2,0,0-.1-.1-.2-.2-.3,0,0,0-.1-.2,0,0,0,0,0,0,.2,0,0,0,.2,0,.2,0,0,0,0,0,0,0,0,0,0,0,0,0-.3,0-.6,0-.9,0,0,0,0,.1,0,.2,0,.3,0,.5,0,.2,0,.4.3.2.5-.2.2-.1.3,0,.5,0,0,0,0,0,.1ZM79.6,12.7s0,0,.1,0c0,0,.1,0,.1-.1,0,0,0-.1-.1-.1,0,0-.2,0-.2,0,0,0-.1,0-.1.1,0,0,0,.1.1.1,0,0,0,0,.1,0Z"/>
</svg>