<?xml version="1.0" encoding="UTF-8"?>
<svg id="Layer_1" xmlns="http://www.w3.org/2000/svg" version="1.1" viewBox="0 0 44 32">
  <!-- Generator: Adobe Illustrator 30.1.0, SVG Export Plug-In . SVG Version: 2.1.1 Build 136)  -->
  <defs>
    <style>
      .st0 {
        fill: #83889e;
      }

      .st1 {
        fill: #fff;
      }

      .st2 {
        fill: #e11f26;
      }

      .st3 {
        fill: #201f1d;
      }
    </style>
  </defs>
  <path class="st0" d="M41.8,24.2c-.2-.4-.4-.7-.6-1-.1-.3-.3-.5-.4-.8-.1-.2-.3-.5-.4-.8-.2-.3-.4-.7-.5-1,0-.1-.2-.3-.2-.4h0c0,0,0,0,0-.1-.2-.3-.3-.6-.5-.9,0,0,0-.1-.1-.2,0,0,0,0,0,0,0-.2.2-.4.3-.6.2-.5.5-1.1.7-1.6.2-.4.3-.8.5-1.2.2-.5.5-1.1.7-1.6.2-.4.4-.8.5-1.2,0-.2.1-.3.2-.5,0,0,0,0,0,0,0,0,0,0,0,0-.1,0-.3.1-.5.2-.2,0-.5.1-.7.2-.2,0-.4,0-.7.1-.1,0-.3,0-.4,0-.1,0-.3,0-.5,0-.2,0-.4,0-.5,0-.3,0-.5,0-.8,0s-.3,0-.4,0c-.1,0-.2,0-.4,0s0,0,0,0c0-.1,0-.2,0-.3,0-.3,0-.5,0-.8,0-.2,0-.3,0-.5,0-.3,0-.6,0-.9,0-.3-.1-.6-.2-.8-.2-.5-.6-1-1.1-1.3-.2-.1-.4-.3-.6-.4,0,0,0,0,0-.1V1.1s0,0,0,0H11.3s0,0,0,.1c0,1.5,0,2.9,0,4.4h0c0,.1,0,.1,0,.1,0,0,0,0-.1,0,0,0-.2,0-.2,0h0c-.3,0-.5,0-.8,0-.2,0-.3,0-.5,0-.3,0-.5,0-.8,0-.3,0-.6,0-.9,0-.1,0-.2,0-.4,0t0,0c-.2,0-.4,0-.6,0-.2,0-.4,0-.5,0-.2,0-.4,0-.6.1-.2,0-.5.1-.7.2-.1,0-.2,0-.3,0t0,0s0,0,0,0c-.4.1-.8.2-1.2.4-.2,0-.4.2-.6.3h0s0,0,0,0c0,0,0,0-.1,0h0s0,0,0,0c-.1,0-.3.2-.4.2,0,0-.2.1-.3.2,0,0,0,0,0,0,0,0,.2.2.3.3.2.2.4.5.7.7.1.1.2.3.4.4.1.2.3.3.4.5,0,.1.2.2.3.3.1.1.2.3.4.4.2.2.4.4.5.6.1.1.2.3.4.4.1.1.3.3.4.4.2.2.4.4.5.6,0,0,.2.2.3.3s0,0,0,0c0,0,0,0,0,0,0,.2-.1.4-.2.7-.1.5-.3.9-.4,1.4-.2.5-.3,1-.5,1.5-.2.5-.3,1-.5,1.5,0,.3-.2.5-.2.8,0,0,0,0,0,0,0,0,0,0,.1,0,.2,0,.4-.2.7-.2.4-.1.9-.2,1.4-.3.5,0,.9-.1,1.4-.2,0,0,0,0,.1,0,0,.1,0,.3,0,.4h0c0,0,0,0,0,.1h0c0,.2,0,.4,0,.7,0,.2,0,.4,0,.6,0,.1,0,.3,0,.4,0,.2,0,.4,0,.7.1.4.3.7.5,1,.2.2.4.5.6.7.2.2.4.3.6.4.3.1.5.3.8.4.4.1.8.2,1.2.3.3,0,.5,0,.8.1,0,0,0,0,0,0,0,.1.1.2.2.3.1.2.2.4.4.6.1.2.2.3.3.4.1.2.3.3.4.5.2.2.4.4.6.6.3.3.6.6.9.8.2.2.4.4.6.5,0,0,.1.1.2.2,0,0,0,0,0,0,0,0,0,0,0,0,0,0,0,0,.1.1.3.3.7.5,1,.7.6.4,1.2.8,1.8,1.1.6.3,1.2.6,1.8.9.3.2.7.3,1,.5.2,0,.4.2.7.3,0,0,0,0,0,0h0s0,0,0,0c.1,0,.2,0,.3-.1.4-.2.7-.3,1.1-.5.4-.2.8-.4,1.1-.6.3-.2.7-.4,1-.6.3-.2.7-.4,1-.6.3-.2.6-.4.8-.6.3-.3.7-.5,1-.8.2-.2.4-.3.6-.5.1-.1.3-.3.4-.4.2-.2.5-.4.7-.7,0,0,0,0,.1-.1,0-.1.2-.2.3-.3,0,0,0,0,0,0,0,0,0,0,0,0,.1,0,.2,0,.3.1.3,0,.5.1.8.2.2,0,.4,0,.6.1.2,0,.4,0,.7,0,.2,0,.5,0,.7,0,.2,0,.3,0,.5,0,.2,0,.3,0,.5,0,.2,0,.5,0,.7,0,.2,0,.4,0,.5,0,0,0,0,0,0,0h0c.3,0,.5,0,.8,0,.3,0,.6,0,.9-.1.5,0,.9-.2,1.4-.3.4-.1.9-.2,1.3-.4,0,0,.2,0,.2,0,0,0,0,0,0,0,0,0-.1-.2-.2-.3ZM12.1,1.8h1.8c0,0,.2,0,.3,0h5.9s0,0,.1,0h5.5c0,0,.2,0,.3,0h5.7s0,0,.1,0h2s0,0,0,0,0,0,0,0v2.8c0,0,0,0,0,.1v2.3s0,0,0,0c0,0,0,0,0,0-.4-.1-.7-.2-1.1-.3-.3,0-.5,0-.8-.1,0,0,0,0,0,0,0,0,0,0,0,0-.3,0-.7,0-1,0s-.2,0-.4,0c-.1,0-.3,0-.4,0-.1,0-.2,0-.4,0-.2,0-.3,0-.5,0-.2,0-.4,0-.5.1-.1,0-.2,0-.4,0-.4.1-.8.2-1.2.4-.4.1-.7.3-1.1.4,0,0,0,0,0,0-.5.2-1,.4-1.5.7-.5.2-1,.5-1.4.8-.6.4-1.2.7-1.8,1.1,0,0-.2,0-.2.1-.1,0-.3.2-.4.3-.1,0-.3.2-.4.2,0,0,0,0,0,0-.3.2-.7.4-1,.5-.4.2-.8.4-1.2.5-.5.2-1.1.4-1.6.5-.4,0-.7.1-1.1.2-.2,0-.4,0-.6,0-.1,0-.2,0-.3,0-.1,0-.3,0-.4,0s-.3,0-.5,0c-.2,0-.4,0-.5,0-.1,0-.3,0-.4,0-.1,0-.3,0-.4,0,0,0,0,0,0,0,0,0,0,0,0,0v-2s0,0,0,0v-5.8s0,0,0-.1c0-.9,0-1.8,0-2.7s0-.1.1-.1ZM11.3,9.7v.6s0,0,0,0v.4s0,0,0,.1c0,0,0,0,0,0,0,.2,0,.3,0,.5,0,0,0,0,0,.1v1.1q0,0,0,0s0,0,0,0h0c-.2,0-.4-.1-.6-.2-.3-.1-.6-.3-.9-.5-.1,0-.2-.2-.3-.3,0,0,0,0,0,0-.2-.2-.4-.4-.5-.7,0-.2-.1-.4-.1-.6,0-.2,0-.4,0-.6,0-.2.2-.4.3-.6.2-.2.4-.4.6-.5.3-.2.7-.3,1-.4.1,0,.3,0,.5-.1,0,0,0,0,0,0v.7s0,0,0,0c0,0,0,0,0,.1v.6s0,0,0,.1c0,0,0,0,0,0ZM8.3,9.5c0,.2-.1.4-.1.6,0,.2,0,.4,0,.6h0c0,.1,0,.2,0,.4,0,0,0,.1,0,.2,0,.3,0,.7,0,1,0,.3,0,.6,0,.9,0,.2,0,.5,0,.7,0,.3,0,.6,0,1,0,.3,0,.7,0,1,0,.1,0,.3,0,.5,0,0,0,.1,0,.2,0,0,0,0,0,0,0,0,0,0,0,0v.3s0,0,0,0h0c-.2,0-.3,0-.5,0,0,0-.2,0-.3,0,0,0-.2,0-.2,0-.2,0-.4,0-.7.1-.3,0-.5.1-.8.2,0,0-.2,0-.3.1,0,0,0,0,0,0h0c0,0,0,0,0-.1,0-.2.2-.5.3-.7.1-.4.3-.8.4-1.1,0-.3.2-.5.3-.8.1-.3.2-.7.4-1,0-.2.1-.3.2-.5,0-.2.1-.4.2-.6,0,0,0,0,0-.1,0-.2,0-.3-.1-.4,0,0,0,0-.1-.1-.1-.1-.3-.3-.4-.5-.2-.2-.4-.4-.5-.6,0,0-.2-.2-.3-.3-.2-.2-.4-.4-.5-.6,0,0-.1-.1-.2-.2-.2-.2-.4-.4-.6-.7,0,0,0,0,0,0-.1-.2-.3-.3-.4-.5-.2-.2-.3-.4-.5-.5-.1-.1-.2-.3-.4-.4,0,0,0,0,0,0,0,0,0,0,.1,0,.6-.2,1.1-.4,1.7-.6.4-.1.7-.2,1.1-.3.3,0,.7-.2,1-.2.2,0,.4,0,.6-.1.2,0,.4,0,.6,0,.2,0,.4,0,.6,0,.6,0,1.1,0,1.7,0,.2,0,.4,0,.5,0,.1,0,.2,0,.4,0,0,0,0,0,0,0h0c0,.2,0,.3,0,.5,0,0,0,0,0,0v.7s0,0,0,0c-.1,0-.3,0-.4.1-.4.1-.9.3-1.3.5-.2.1-.5.3-.7.5-.2.2-.4.5-.5.8ZM13.2,22.7c-.1,0-.2,0-.3,0-.1,0-.3,0-.4,0-.2,0-.4,0-.6-.1-.4,0-.7-.2-1.1-.3-.2-.1-.4-.2-.7-.4-.3-.2-.6-.5-.8-.9-.1-.3-.2-.5-.3-.8,0-.2,0-.4,0-.6,0-.1,0-.3,0-.4h0c0-.2,0-.3,0-.5,0-.2,0-.5,0-.7,0-.1,0-.2,0-.3,0,0,0,0,0,0,0-.2,0-.4,0-.6h0c0-.3,0-.5,0-.7,0,0,0-.2,0-.3,0-.3,0-.5,0-.8,0-.1,0-.3,0-.4,0,0,0-.1,0-.2,0-.2,0-.4,0-.6s0-.1,0-.2v-.7c0-.1,0-.2,0-.3,0-.1,0-.2,0-.3,0-.2,0-.4,0-.5h0c0-.1,0-.1,0-.1,0,0,0,0,0,0,.2.2.4.3.6.5.3.2.6.4,1,.6.5.2.9.4,1.4.5.2,0,.4,0,.6.1.1,0,.2,0,.4,0,.2,0,.4,0,.6,0,0,0,.1,0,.2,0,.2,0,.3,0,.5,0,0,0,.1,0,.2,0,0,0,.1,0,.2,0,.1,0,.3,0,.4,0,0,0,.1,0,.2,0,.4,0,.9-.1,1.3-.2.5-.1,1.1-.3,1.6-.5.3-.1.6-.2.9-.3.5-.2,1-.4,1.4-.7.3-.2.7-.4,1-.5.3-.2.7-.4,1-.6.3-.2.6-.3.9-.5.3-.2.7-.4,1-.6.4-.3.9-.5,1.4-.7.4-.2.9-.4,1.3-.6.3-.1.6-.2.9-.3.4-.1.8-.2,1.2-.3.3,0,.6-.1.8-.2.2,0,.4,0,.6,0,.3,0,.5,0,.8,0,.2,0,.3,0,.5,0s.2,0,.3,0c0,0,.1,0,.2,0,.1,0,.2,0,.4,0,0,0,.1,0,.2,0,.1,0,.3,0,.4,0,.3,0,.6.1.8.2.1,0,.3.1.4.2.3.1.5.3.7.5.1.1.3.2.4.4.1.2.3.3.4.5.2.3.3.7.4,1,0,.1,0,.3,0,.4,0,.1,0,.2,0,.4,0,0,0,.2,0,.3,0,.1,0,.3,0,.4,0,0,0,.1,0,.2,0,.2,0,.5,0,.7,0,.2,0,.4,0,.7,0,.2,0,.4,0,.6,0,.1,0,.3,0,.4,0,0,0,.1,0,.2,0,.2,0,.5,0,.7,0,.2,0,.5,0,.7,0,.2,0,.4,0,.6,0,.1,0,.3,0,.4,0,0,0,0,0,0,0,.2,0,.4,0,.6s0,0,0,0c0,.2,0,.4,0,.6h0c0,.3,0,.6,0,.8,0,0,0,.2,0,.2,0,0,0,0,0,0,0-.2-.2-.3-.3-.5-.1-.1-.2-.2-.3-.3,0,0-.2-.2-.3-.2-.5-.3-1-.6-1.5-.7-.2,0-.4-.1-.6-.2-.2,0-.3,0-.5,0-.2,0-.4,0-.5,0h0c-.4,0-.8,0-1.1,0-.1,0-.3,0-.4,0,0,0,0,0,0,0-.1,0-.3,0-.4,0,0,0-.2,0-.2,0-.2,0-.5,0-.7.1-.3,0-.6.1-.9.2-.4,0-.7.2-1.1.3-.5.1-.9.3-1.4.5-.2,0-.4.2-.6.3-.2.1-.4.2-.6.4-.7.4-1.4.7-2.1,1.1-.3.1-.6.3-.9.4-.3.1-.6.3-.9.4-.3.1-.6.3-.9.4-.3.1-.7.3-1,.4-.2,0-.4.2-.6.2-.2,0-.5.2-.7.3-.4.1-.9.3-1.3.4-.3,0-.5.1-.8.2-.2,0-.4,0-.5,0-.1,0-.3,0-.4,0-.3,0-.6,0-1,0-.2,0-.4,0-.5,0ZM34.5,19.8s0,0,0,0,0,0,0,0c0-.1,0-.3.1-.4,0-.3.1-.6.1-.9h0s0,0,0,0c0,0,0,0,0,0,.3.1.5.3.7.4.2.1.3.2.5.4,0,0,.2.2.2.3,0,0,0,0,0,0,.2.3.3.5.4.9,0,.2,0,.5,0,.7,0,.2-.1.3-.2.4-.1.2-.3.3-.5.4-.3.2-.6.3-.9.5-.2.1-.5.2-.7.3-.2,0-.4.1-.5.2-.1,0-.2,0-.4.1,0,0-.2,0-.3,0,0,0,0,0,0,0,0,0,0,0,0,0,.1-.3.3-.7.5-1,0,0,0,0,0,0,0,0,0,0,0,0,.1-.3.2-.5.4-.8,0,0,0,0,0,0,0-.2.1-.4.2-.6,0,0,0,0,0,0,0-.2,0-.3.1-.5,0,0,0,0,0,0ZM32,23.5c0,.2-.2.3-.3.4-.3.4-.6.8-.9,1.2-.2.2-.5.5-.7.7-.5.5-1,.9-1.6,1.3,0,0,0,0,0,0,0,0,0,0,0,0-.1.1-.3.2-.5.3-.4.3-.8.6-1.3.8-.2.1-.3.2-.5.3,0,0,0,0,0,0-.2.1-.4.2-.6.4-.3.2-.6.3-.9.5-.3.1-.6.3-.9.4-.2,0-.3.2-.5.2q0,0-.2,0c-.1,0-.2-.1-.4-.2-.6-.3-1.1-.6-1.7-.8-.2-.1-.5-.3-.7-.4,0,0,0,0,0,0,0,0-.2,0-.3-.1-.3-.1-.5-.3-.8-.5-.3-.2-.7-.4-1-.6-.1,0-.2-.2-.4-.3,0,0,0,0,0,0-.1,0-.2-.2-.4-.3-.3-.3-.6-.5-.9-.8-.2-.2-.4-.4-.6-.5-.3-.4-.7-.7-1-1.1l-.4-.6s0,0,0,0c0,0,0,0,0,0,0-.1-.2-.2-.2-.3,0,0,0,0,0,0,0,0,.2,0,.3,0,.1,0,.3,0,.5,0,.2,0,.4,0,.6,0,.4,0,.7-.1,1.1-.2.6-.2,1.2-.3,1.8-.6.7-.2,1.3-.5,1.9-.8,0,0,0,0,0,0,0,0,.2,0,.3-.1.2,0,.4-.2.6-.3,0,0,0,0,.1,0,0,0,.2,0,.3-.1.5-.2,1.1-.5,1.6-.7.7-.3,1.5-.7,2.2-1,.3-.1.5-.2.8-.4,0,0,0,0,0,0,.6-.3,1.1-.5,1.7-.7.3,0,.6-.2.9-.2.1,0,.3,0,.4,0,.1,0,.3,0,.4,0,0,0,.2,0,.3,0,.2,0,.3,0,.5,0,.1,0,.2,0,.4,0,.2,0,.4,0,.6,0,.1,0,.2,0,.3,0s.2,0,.3,0c0,0,0,0,0,0,0,0,0,0,0,0,0,0,.1,0,.2,0,.3,0,.6,0,.9,0,.3,0,.5,0,.8.1,0,0,0,0,0,0,0,0,0,0,0,0h0c0,.3,0,.5,0,.8,0,.2,0,.4-.1.6-.1.6-.3,1.2-.5,1.8,0,0,0,0,0,.1,0,0,0,0,0,.1-.2.5-.4,1-.7,1.4-.1.2-.2.4-.4.6,0,0,0,0,0,0ZM41.1,24.2c0,0-.2,0-.3,0-.2,0-.4.1-.6.1-.3,0-.7.2-1,.2-.2,0-.4,0-.7.1-.1,0-.2,0-.4,0-.1,0-.3,0-.4,0,0,0-.2,0-.3,0,0,0-.2,0-.3,0,0,0-.2,0-.3,0-.2,0-.3,0-.5,0-.2,0-.4,0-.6,0-.1,0-.2,0-.3,0-.1,0-.3,0-.4,0-.3,0-.5,0-.8,0-.1,0-.2,0-.4,0,0,0-.2,0-.3,0-.2,0-.4,0-.5,0-.4,0-.7-.1-1.1-.2,0,0,0,0,0,0,0,0,0,0,0,0,0,0,.1-.2.2-.3,0,0,0-.1.1-.2,0,0,0,0,0,0,0,0,0,0,0,0,0-.1.1-.2.2-.4,0,0,0,0,.1,0,.8-.1,1.6-.3,2.3-.6.4-.1.7-.3,1-.5.2-.1.4-.3.6-.5.2-.2.3-.5.4-.8,0-.3,0-.6,0-.9,0,0,0-.2,0-.3,0-.2,0-.4,0-.7,0-.2,0-.4,0-.5,0-.3,0-.7,0-1,0-.3,0-.7,0-1,0,0,0,0,0,0,0-.2,0-.5,0-.7,0-.2,0-.4,0-.5,0-.2,0-.5,0-.7,0,0,0,0,0-.1,0,0,0-.2,0-.3,0-.1,0-.2,0-.4,0,0,0-.1,0-.2,0,0,0,0,0-.1,0,0,0,0,0,0,0-.1,0-.3,0-.4,0,0,0,0,0,0,0,0,0,0,0,0,0,0,.1,0,.2,0,0,0,.1,0,.2,0,.3,0,.5,0,.8,0,.2,0,.3,0,.5,0,.2,0,.3,0,.5,0,.1,0,.2,0,.3,0,.1,0,.3,0,.4,0,.1,0,.3,0,.4,0,.3,0,.5-.1.8-.2,0,0,0,0,0,0,0,0,0,0,0,.1-.1.3-.2.6-.4.8,0,.2-.2.3-.2.5-.1.3-.2.5-.4.8,0,.2-.2.3-.2.5-.1.3-.3.7-.5,1-.1.3-.2.5-.4.8-.1.3-.3.6-.4,1,0,.1-.1.3-.2.4,0,.1,0,.3,0,.4,0,0,0,0,0,.1.1.2.2.4.3.7.2.4.4.8.6,1.2.2.3.4.7.5,1,.2.5.5,1,.7,1.4.1.2.2.4.3.7,0,0,0,0,0,0,0,0,0,0,0,0Z"/>
  <path class="st2" d="M4.8,6.3s0,0,0,0c0,0,0,0,0,0h0Z"/>
  <path class="st2" d="M7.5,5.8s0,0,0,0c0,0,0,0,0,0h0Z"/>
  <polygon class="st2" points="10.9 5.6 10.9 5.6 10.9 5.6 10.9 5.6 10.9 5.6"/>
  <polygon class="st2" points="3 7 3 7 3 7 3 7 3 7"/>
  <polygon class="st2" points="2.8 7 2.8 7.1 2.8 7.1 2.8 7 2.8 7"/>
  <path class="st2" d="M16.7,27.3s0,0,0,0c0,0,0,0,0,0Z"/>
  <path class="st2" d="M8.4,18s0,0,0,0c0,0,0,0,0,0,0,0,0,0,0,0,0,0,0,0,0,0Z"/>
  <path class="st2" d="M8.4,17.9s0,0,0,0c0,0,0,0,0,0,0,0,0,0,0,0,0,0,0,0,0,0Z"/>
  <path class="st3" d="M4.7,18.3s0,0,0,0c0,0,0,0,0,0,0,0,0,0,0,0Z"/>
  <path class="st2" d="M37.2,25.5s0,0,0,0c0,0,0,0,0,0Z"/>
  <polygon class="st2" points="39.6 20.1 39.6 20.1 39.6 20.1 39.6 20.1 39.6 20.1"/>
  <path class="st0" d="M14.2,12.9c-.1,0-.3,0-.4,0-.2,0-.3,0-.5,0-.2,0-.4,0-.6,0-.1,0-.3,0-.4,0-.1,0-.3,0-.4,0,0,0,0,0,0,0,0,0,0,0,0,0,0-.7,0-1.3,0-2,0,0,0,0,0,0,.7,0,1.4,0,2.1,0,0,0,0,0,0,0,0,0,0,0,0,0,0-.1,0-.2,0-.3,0-1.8,0-3.6,0-5.3,0-.2,0-.1-.1-.1-.7,0-1.3,0-2,0,0,0,0,0,0,0,0,0,0,0,0-.1,0-.9,0-1.8,0-2.7,0-.1,0-.1.1-.1.6,0,1.2,0,1.8,0,0,0,.2,0,.3,0,0,0,0,0,0,0,0,.9,0,1.8,0,2.7,0,0,0,.1,0,.2,0,0,.1,0,.2,0,1.9,0,3.7,0,5.6,0,0,0,0,0,.1,0,0,.1,0,.2,0,.3,0,1.7,0,3.5,0,5.2,0,0,0,.2,0,.3,0,0-.2,0-.3,0-1.8,0-3.6,0-5.4,0-.2,0-.1,0-.1.1,0,.7,0,1.4,0,2.1,0,0,0,0,0,.1Z"/>
  <path class="st0" d="M28.1,27.1h-2s0,0,0,0c0,0,0-.1,0-.2,0-1.2,0-2.3,0-3.5,0,0,0-.1,0-.2,0,0-.1,0-.2,0,0,0,0,0,0,0,0,0,0,0,0,0v-.6s0,0,0,0c0,0,.1,0,.2,0s0,0,0,0h0c0-.4,0-.8,0-1.1h0c0-.2,0-.1-.1-.1h-4.7s0,0-.1,0c0,0,0,0-.1,0-.2,0-.4.2-.6.3,0,0-.2,0-.3.1v5.4s0,0,0,0h-2.3s0,0-.1,0c0,0,0,0,0,0,.1,0,.2.2.4.3.3.2.7.4,1,.6.3.2.5.3.8.5,0,0,.2.1.3.1,0,0,0-.1,0-.2v-1.3c0-.1,0-.1.1-.1h5.7c.1,0,.1,0,.1.1v1.2c0,0,0,0,0,.1,0,0,0,0,0,0,.2,0,.3-.2.5-.3.4-.3.9-.5,1.3-.8.1-.1.3-.2.5-.3,0,0,0,0,0,0,0,0-.2,0-.3,0ZM22.8,23.1h0c0,0,0,0,0,0,0,0,0,0-.1,0-.1,0-.2,0-.4,0-.2,0-.5,0-.7,0-.1,0-.2,0-.3.2,0,.1,0,.2,0,.4,0,.2,0,.3,0,.4,0,0,0,.2,0,.2,0,0,.1.2.2.2.1,0,.2,0,.4,0h.7c.1,0,.1,0,.1.1,0,.2,0,.3,0,.5,0,0,0,0,0,0-.2,0-.4,0-.6,0,0,0-.2,0-.3,0-.2,0-.4,0-.6,0-.1,0-.2,0-.3-.1-.2-.1-.3-.3-.4-.5,0,0,0,0,0,0,0-.2-.1-.4-.1-.6,0-.1,0-.3,0-.4,0-.2,0-.4.2-.6.2-.3.4-.5.8-.5.1,0,.3,0,.4,0,.1,0,.3,0,.4,0h0s.5,0,.5,0c0,0,0,0,0,0,0,0,0,0,0,0,0,0,0,0,0,0,0,.2,0,.3,0,.5ZM25.6,25.4s0,0,0,0h0c-.5,0-.9,0-1.4,0-.1,0-.3,0-.5,0-.3,0-.6-.2-.7-.6,0-.2,0-.5,0-.7,0-.1.1-.3.2-.4,0,0,.2-.1.2-.1,0,0,.2,0,.3,0,.3,0,.6,0,.9,0h.2s0,0,0,0c0,0,0,0,0-.1,0,0,0,0,0,0,0,0-.1,0-.2,0-.2,0-.4,0-.6,0h-.8s0,0,0,0v-.6h0c0,0,0,0,0,0h0c.3,0,.6,0,.9,0,.3,0,.6,0,.9,0,.4,0,.6.2.7.6,0,.1,0,.3,0,.4,0,.1,0,.3,0,.4v1.4Z"/>
  <path class="st1" d="M37,14.4c0-.1,0-.2,0-.4,0,0,0-.1,0-.2,0,0,0,0,0-.1.1,0,.3,0,.4,0,.3,0,.5,0,.8,0,.4,0,.9,0,1.3,0,.2,0,.3,0,.5-.1,0,0,0,0,0,0,0,0,0,0,0,0,0,0,0,0,0,.1-.1.3-.3.6-.5.9-.1.2-.2.4-.3.6-.2.4-.4.8-.5,1.2-.3.6-.5,1.1-.8,1.7,0,.2-.2.4-.2.5,0,0,0,.1,0,.2,0,.1.2.3.2.4.2.4.4.7.6,1.1.2.4.4.8.6,1.2.2.4.4.8.6,1.3.1.3.2.5.4.8,0,0,0,0,0,0,0,0,0,0,0,0,0,0,0,0-.1,0-.2,0-.5.1-.7.2-.4,0-.7.1-1.1.2-.2,0-.5,0-.7.1-.2,0-.4,0-.6,0-.1,0-.3,0-.4,0-.5,0-1,0-1.5,0-.2,0-.4,0-.6,0-.2,0-.4,0-.6,0-.2,0-.5,0-.7,0-.1,0-.3,0-.4,0,0,0,0,0-.1,0,0,0,0,0,0,0,0-.1.1-.2.2-.4,0,0,0,0,.1,0,.8-.1,1.6-.3,2.3-.6.4-.1.7-.3,1-.5.2-.1.4-.3.6-.5.2-.2.3-.5.4-.8,0-.3,0-.6,0-.9,0,0,0-.2,0-.3,0-.2,0-.4,0-.7,0-.2,0-.4,0-.5,0-.3,0-.7,0-1,0-.3,0-.7,0-1,0,0,0,0,0,0,0-.2,0-.5,0-.7,0-.2,0-.3,0-.5,0-.2,0-.5,0-.7,0,0,0,0,0-.1,0,0,0-.2,0-.3,0,0,0,0,0,0h0Z"/>
  <path class="st1" d="M32,23.4v-2s0,0,0-.1c0,0,0,0-.1,0h-5.8c0,.5,0,.8,0,1.1h0c0,.1,0,.1,0,.1,0,0-.1,0-.2,0,0,0,0,0,0,0v.6s0,0,0,0c0,0,0,0,0,0,0,0,.1,0,.2,0,0,0,0,.1,0,.2,0,1.2,0,2.3,0,3.5,0,0,0,.1,0,.2,0,0,0,0,0,0h2c0,0,.2,0,.3,0,0,0,0,0,0,0,.5-.4,1.1-.8,1.6-1.3.2-.2.5-.5.7-.7.3-.4.7-.7.9-1.2.1-.1.2-.3.3-.4,0,0,0,0,0,0ZM27.7,22.1h-.4s0,0-.1,0c-.1,0-.2,0-.2.2,0,0,0,.1,0,.2,0,.1,0,.1.1.1h.7s0,0,0,0v.4s0,0,0,0c0,0,0,0,0,0h-.7s0,0,0,0v2.1s0,0,0,0c0,0,0,0,0,0h-.4s0,0,0,0h0c0-.7,0-1.4,0-2,0-.2,0-.1-.1-.1h-.3c0,0,0,0,0,0,0-.1,0-.2,0-.3s0,0,0,0h.4c0,0,0,0,0,0,0,0,0-.2,0-.2,0,0,0-.2,0-.3,0-.2.2-.3.3-.3,0,0,.1,0,.2,0,.2,0,.4,0,.7,0s0,0,0,0c0,0,0,0,0,0,0,0,0,.1,0,.2,0,0,0,0,0,0ZM30.1,23s0,0,0,0h-.7c0,0-.2,0-.3,0-.2,0-.3.2-.4.3,0,0,0,.1,0,.2,0,0,0,0,0,0h1.4c.1,0,.1,0,.1.1v.3s0,0,0,0h-1.5s0,0,0,0c0,.2,0,.4.2.6,0,0,.2,0,.3.1,0,0,.1,0,.2,0h.7c.1,0,.1,0,.1.1v.3s0,0,0,0h-.3c-.2,0-.4,0-.7,0-.1,0-.3,0-.4,0-.2,0-.3-.1-.4-.3-.1-.1-.2-.3-.2-.5,0-.3,0-.6,0-.9,0-.3.3-.6.6-.8.2,0,.4-.1.6-.1.3,0,.6,0,.9,0h0s0,0,0,0v.3Z"/>
  <path class="st1" d="M20.1,10.6c0,0,0-.2,0-.3,0-1.7,0-3.5,0-5.2,0-.1,0-.2,0-.3,0,0,0,0,0,0,0,0,0,0,0,0,.4,0,.8,0,1.2,0,1.5,0,3.1,0,4.6,0,0,0,0,0,0,0,0,0,0,0,0,0,0,0,0,.1,0,.2,0,.9,0,1.9,0,2.8,0,0,0,.1,0,.2-.5.2-1,.4-1.5.7-.5.2-1,.5-1.4.8-.6.4-1.2.7-1.8,1.1,0,0-.2,0-.2.1,0,0,0,0-.1,0-.2,0-.4,0-.6,0,0,0-.2,0-.3,0h0Z"/>
  <path class="st1" d="M11.3,6.8v.7s0,0,0,0c-.1,0-.3,0-.4.1-.4.1-.9.3-1.3.5-.2.1-.5.3-.7.5-.2.2-.4.5-.5.8,0,.2-.1.4-.1.6,0,.2,0,.4,0,.6h0c0,.1,0,.2,0,.4,0,0,0,.1,0,.2,0,.3,0,.7,0,1,0,.3,0,.6,0,.9,0,.2,0,.5,0,.7,0,.3,0,.6,0,1,0,.3,0,.7,0,1,0,.1,0,.3,0,.5,0,0,0,.1,0,.2,0,0,0,0,0,0,0,0,0,0,0,0,0-.1,0-.1-.1-.1,0,0,0,0,0,0-.2,0-.4,0-.6,0-.3,0-.6,0-1,.1,0,0-.2,0-.2,0,0,0,0,0,0,0,0,0,0,0,0-.1.1-.4.3-.8.4-1.2.2-.7.5-1.3.7-2,0-.2.1-.4.2-.6,0,0,0-.2,0-.3,0-.2,0-.3-.1-.5,0-.2-.2-.3-.3-.4-.3-.4-.7-.8-1-1.1s-.4-.4-.6-.7c-.3-.4-.7-.7-1-1.1-.2-.2-.4-.5-.7-.7,0,0,0,0,0,0,0,0,0,0,0,0,.1,0,.2,0,.3-.1.4-.2.9-.3,1.3-.4.4,0,.7-.2,1.1-.3.4,0,.8-.2,1.2-.2.4,0,.8-.1,1.2-.1.4,0,.9,0,1.3,0,.2,0,.5,0,.7,0,0,0,.1,0,.2,0,0,0,0,0,0,0Z"/>
  <path class="st1" d="M20.1,21.7c0,.3,0,.5,0,.8,0,1.5,0,3,0,4.5,0,0,0,0,0,0,0,0,0,0,0,0,0,0,0,0,0,0-.8,0-1.5,0-2.3,0,0,0,0,0-.1,0-.1,0-.2-.2-.4-.3-.3-.3-.6-.5-.9-.8-.2-.2-.4-.4-.6-.5-.3-.4-.7-.7-1-1.1-.2-.2-.3-.4-.5-.5,0,0,0,0,0,0,0,0,0,0,0,0,0-.1,0-.2,0-.3.2,0,.3,0,.5,0,.2,0,.4,0,.6,0,.4,0,.7-.1,1.1-.2.6-.2,1.2-.3,1.8-.6.7-.2,1.3-.5,1.9-.8,0,0,0,0,0,0Z"/>
  <path class="st0" d="M26,7.9c0,0,0-.1,0-.2,0-.9,0-1.9,0-2.8,0,0,0-.1,0-.2,0,0,.1,0,.2,0,1.8,0,3.6,0,5.4,0,.2,0,.1,0,.1-.1,0-.9,0-1.7,0-2.6,0,0,0-.1,0-.2,0,0,0,0,.1,0,.5,0,.9,0,1.4,0,.2,0,.4,0,.6,0,0,0,0,0,0,0,0,0,0,0,0,0,0,0,0,0,0,0,0,.9,0,1.8,0,2.7,0,0,0,0,0,.1,0,0,0,0,0,0-.6,0-1.2,0-1.8,0-.1,0-.1,0-.1.1,0,.5,0,1.1,0,1.6,0,0,0,0,0,.1,0,0,0,0,0,0-.3,0-.7,0-1,0-.1,0-.2,0-.4,0-.1,0-.3,0-.4,0-.1,0-.2,0-.4,0-.2,0-.3,0-.5,0-.2,0-.4,0-.5.1-.1,0-.2,0-.4,0-.4.1-.8.2-1.2.4-.4.1-.7.3-1.1.4,0,0,0,0,0,0Z"/>
  <path class="st0" d="M32,21.3s0,0-.1,0c-1.9,0-3.8,0-5.7,0,0,0,0,0,0,0,0,0,0,0,0,0,0,0,0,0,0,0,0-.5,0-.9,0-1.4,0-.2,0-.5,0-.7,0,0,0,0,0-.1,0,0,0,0,0,0,.6-.3,1.1-.5,1.7-.7.3,0,.6-.2.9-.2.1,0,.3,0,.4,0,.1,0,.3,0,.4,0,0,0,.2,0,.3,0,.2,0,.3,0,.5,0,.1,0,.2,0,.4,0,.2,0,.4,0,.6,0,.1,0,.2,0,.4,0,0,0,.2,0,.3,0,0,0,0,0,0,0,0,0,0,0,0,.1,0,1.1,0,2.2,0,3.3,0,0,0,.1,0,.2Z"/>
  <path class="st1" d="M20.1,4.7s0,0-.1,0c-1.9,0-3.7,0-5.6,0,0,0-.1,0-.2,0,0,0,0-.1,0-.2,0-.9,0-1.8,0-2.7,0,0,0,0,0,0,0,0,0,0,.1,0,1.9,0,3.7,0,5.6,0,0,0,0,0,.1,0,0,0,0,0,0,0,0,.9,0,1.8,0,2.7,0,0,0,.1,0,.2h0Z"/>
  <path class="st1" d="M31.7,1.8c0,0,0,.1,0,.2,0,.9,0,1.7,0,2.6,0,.2,0,.1-.1.1-1.8,0-3.6,0-5.4,0,0,0-.1,0-.2,0,0,0,0,0,0,0,0,0,0,0,0,0,0-.9,0-1.8,0-2.8,0,0,0,0,0,0,0,0,0,0,.1,0,1.9,0,3.7,0,5.6,0,0,0,0,0,0,0Z"/>
  <path class="st0" d="M26,4.6V1.9s0,0,0,0c0,0-.2,0-.3,0h-5.5s0,0-.1,0c0,0,0,0,0,0v2.7c0,0,0,.1,0,.2,0,0,0,0,0,0h1.2c1.5,0,3.1,0,4.6,0s0,0,0,0h0s0,0,0,0ZM22,3.2c0,0,.1,0,.1.1s0,.1-.1.1-.1,0-.1-.1,0-.1.1-.1ZM21.6,4.4c-.1,0-.2,0-.4,0-.1,0-.2,0-.3-.2,0,0,0,0,0,0,0,0,0,0,.1-.1,0,0,0,0,0,0,0,0,0,0,.1,0,0,0,.1,0,.2,0,0,0,0,0,0,0,0,0,0-.1,0-.1,0,0,0,0-.1,0,0,0-.1,0-.2,0,0,0,0,0-.1,0-.1-.1-.1-.3,0-.4,0,0,0,0,0,0,.1,0,.2,0,.4,0,0,0,0,0,0,0,0,0,0,0,0,.1,0,0,0,0,0,0,0,0,0,0,0,0,0,0,0-.1-.2-.1,0,0,0,0-.1,0,0,0,0,0,0,.1,0,0,0,0,0,0,0,0,0,0,.1,0,0,0,.1,0,.2,0,0,0,.1.1.1.2,0,.1,0,.2-.1.2ZM22.2,4.5h-.3s0,0,0,0c0,0,0,0,0-.1v-.6s0,0,0-.1c0,0,.1,0,.2,0,0,0,0,0,0,0,0,0,0,0,0,.1v.5c0,0,0,.1,0,.2,0,0,0,0,0,0ZM23.2,4.5h-.3q0-.1,0-.2v-.4c0,0,0-.1-.1-.1-.1,0-.2,0-.3,0,0,0,0,0,0,0,0,.2,0,.3,0,.5s0,0,0,.1c0,0,0,0,0,0h-.2q0,0,0,0s0,0,0,0v-.6s0,0,0-.1c0,0,0,0,0,0,0,0,0,0,0,0s0,0,0,0c0,0,0,0,0,0,.1,0,.2-.1.3,0,.2,0,.3.1.3.3v.4c0,0,0,.2,0,.2,0,0,0,0,0,0ZM23.5,4c0,.1.1.2.2.3,0,0,.2,0,.3,0,0,0,0,0,0,0,0,0,0,0,0,0,0,0,0,0,0,.1,0,0,0,0-.1.1-.1,0-.3,0-.4,0-.1,0-.2-.2-.2-.4,0,0,0,0,0,0,0-.2.2-.4.4-.4,0,0,.1,0,.2,0,0,0,.1,0,.2.1,0,0,0,0,0,.1,0,0,0,0,0,0,0,0,0,0,0,0,0-.1-.1-.1-.2-.1-.2,0-.3.2-.2.4ZM25,4h-.3c0,0-.2,0-.3,0,0,0,0,0,0,0,0,0,0,0,0,.1,0,0,0,.1.2.1,0,0,0,0,.1,0,0,0,.2,0,.2-.1,0,0,0,0,0,0,0,0,0,0,0,0,0,0,0,0,0,.1,0,0,0,0,0,0,0,0,0,0-.1,0-.1,0-.2,0-.3,0-.2,0-.3-.2-.3-.4,0,0,0-.1,0-.2,0-.2.3-.3.5-.3,0,0,0,0,.1,0,0,0,.1,0,.2.2,0,0,0,.2,0,.2s0,0,0,0Z"/>
  <path class="st1" d="M20.1,28.7c0,0,0-.1,0-.2,0-.4,0-.9,0-1.3,0-.1,0-.1.1-.1,1.2,0,2.5,0,3.7,0,.7,0,1.3,0,2,0,.1,0,.1,0,.1.1,0,.4,0,.8,0,1.2,0,0,0,0,0,.1-.2.1-.4.2-.6.4-.3.2-.6.3-.9.5-.3.2-.6.3-.9.4-.2,0-.3.2-.5.2,0,0,0,0-.2,0-.1,0-.2-.1-.4-.2-.6-.3-1.1-.6-1.7-.8-.2-.1-.5-.3-.7-.4,0,0,0,0,0,0Z"/>
  <path class="st1" d="M12,4.7s0,0,0,0c.7,0,1.3,0,2,0,.2,0,.1,0,.1.1,0,1.8,0,3.6,0,5.3,0,.1,0,.2,0,.3,0,0,0,0,0,0,0,0,0,0,0,0-.7,0-1.4,0-2.1,0,0-.7,0-1.5,0-2.2,0-1.2,0-2.3,0-3.5,0,0,0,0,0-.1Z"/>
  <path class="st1" d="M14.2,12.9s0,0,0-.1c0-.7,0-1.4,0-2.1,0-.2,0-.1.1-.1,1.8,0,3.6,0,5.4,0,0,0,.2,0,.3,0,0,0,0,0,0,0,0,.1,0,.2,0,.3,0,0,0,.1,0,.2-.3.2-.7.4-1,.5-.4.2-.8.4-1.2.5-.5.2-1.1.4-1.6.5-.4,0-.7.1-1.1.2-.2,0-.4,0-.6,0-.1,0-.2,0-.3,0Z"/>
  <path class="st1" d="M32,21.3c0,0,0-.1,0-.2,0-1.1,0-2.2,0-3.3,0,0,0,0,0-.1,0,0,0,0,0,0,0,0,.1,0,.2,0,.3,0,.6,0,.9,0,.3,0,.5,0,.8.1,0,0,0,0,0,0,0,0,0,0,0,0,0,0,0,0,0,0,0,0,0,0,0,0,0,0,0,0,0,0,0,.2,0,.5,0,.7,0,.2,0,.4-.1.6-.1.6-.3,1.2-.5,1.8,0,0,0,0,0,.1,0,0,0,0,0,0-.3,0-.7,0-1,0,0,0,0,0,0,0,0,0,0,0,0,0Z"/>
  <path class="st1" d="M26,19s0,0,0,.1c0,.2,0,.5,0,.7,0,.5,0,.9,0,1.4,0,0,0,0,0,0,0,0,0,0-.1,0-1.3,0-2.7,0-4,0-.2,0-.5,0-.7,0,0,0,0,0-.1,0,0,0,.2,0,.3-.1.5-.2,1.1-.5,1.6-.7.8-.3,1.5-.7,2.3-1.1.3-.1.5-.2.8-.4Z"/>
  <path class="st1" d="M11.3,11.3s0,0,0,.1v1.1q0,0,0,0s0,0,0,0h0c-.2,0-.4-.1-.6-.2-.3-.1-.6-.3-.9-.5-.1,0-.2-.2-.3-.3,0,0,0,0,0,0,0-.1,0-.2,0-.4,0-.3,0-.5,0-.8,0-.3.2-.5.4-.7.2-.1.3-.3.5-.4.3-.2.7-.3,1-.4,0,0,0,0,0,.1v.6s0,0,0,.1h0c-.3,0-.5.2-.7.4-.3.2-.4.5-.5.8,0,0,0,0,0,0,0,0,.2-.1.3-.2.1-.1.3-.2.5-.2.2,0,.3,0,.5-.1,0,0,0,0,0,0v.4s0,0,0,.1c0,0,0,0,0,0-.1,0-.2.1-.4.2-.2,0-.3.2-.4.3,0,0,0,0,0,.1h0c0,0,.1,0,.2,0,.2,0,.3,0,.5,0,0,0,.1,0,.2,0Z"/>
  <path class="st1" d="M31.9,6.6s0,0,0-.1c0-.5,0-1.1,0-1.6,0-.1,0-.1.1-.1.6,0,1.2,0,1.8,0,0,0,0,0,0,0,0,.8,0,1.5,0,2.3,0,0,0,0,0,0,0,0,0,0,0,0-.4-.1-.7-.2-1.1-.3-.3,0-.6,0-.8-.1,0,0,0,0,0,0Z"/>
  <path class="st1" d="M34.7,18.4s0,0,0,0c0,0,0,0,0,0,.3.1.5.3.7.4.2.1.3.2.5.4,0,0,.2.2.2.3,0,0,0,.2,0,.3,0,0,0,0,0,.1,0,.2,0,.5-.2.7-.1.3-.3.5-.5.7-.1,0-.2.2-.3.2-.3.2-.6.3-.9.4-.2,0-.4,0-.5,0,0,0,0,0,0,0,0,0,0,0,0,0,.1-.3.2-.5.4-.8,0,0,.1,0,.2,0,.3,0,.5-.2.8-.4.2-.2.4-.4.5-.7,0,0,0,0,0-.1,0,0,0,0,0,0-.1.1-.2.2-.4.2-.2,0-.3.1-.5.2-.1,0-.3,0-.4.1,0-.2,0-.3.1-.5,0,0,0,0,0,0,0,0,0,0,0,0,.1,0,.3-.1.4-.2.2-.1.3-.3.4-.4,0,0,0,0,0,0,0,0,0,0,0,0,0,0-.2,0-.2,0-.2,0-.3,0-.5,0,0-.3.1-.6.1-.9t0,0Z"/>
  <path class="st0" d="M32,21.3s0,0,0,0c.3,0,.7,0,1,0,0,0,0,0,0,0,0,0,0,0,0,.1-.2.5-.4,1-.7,1.4-.1.2-.2.4-.4.6,0,0,0,0,0,0,0,0,0,0,0,0,0-.7,0-1.3,0-2,0,0,0,0,0-.1Z"/>
  <path class="st0" d="M20.1,11.1c0,0,0-.1,0-.2,0-.1,0-.2,0-.3,0,0,.2,0,.3,0,.2,0,.4,0,.6,0,0,0,0,0,.1,0-.1,0-.3.2-.4.3-.1,0-.3.2-.4.2,0,0,0,0,0,0Z"/>
  <path class="st0" d="M14.2,23.4c0,.1,0,.2,0,.3,0,0,0,0,0,0,0,0,0,0,0,0,0-.1-.2-.2-.2-.3,0,0,0,0,0,0,0,0,.2,0,.3,0Z"/>
  <path class="st2" d="M37.1,14.6s0,0,0,.1c0,0,0,0,0-.1Z"/>
  <path class="st2" d="M37.1,16.7s0,0,0,0c0,0,0,0,0,0Z"/>
  <path class="st2" d="M34.7,18.4s0,0,0,0c0,0,0,0,0,0,0,0,0,0,0,0Z"/>
  <path class="st2" d="M33.9,18s0,0,0,0c0,0,0,0,0,0Z"/>
  <path class="st2" d="M33.9,17.9s0,0,0,0c0,0,0,0,0,0Z"/>
  <polygon class="st2" points="37 14.4 37 14.3 37 14.3 37 14.4"/>
  <polygon class="st2" points="8.1 10.7 8.1 10.7 8.1 10.7 8.1 10.7"/>
  <path class="st2" d="M33.9,17.9s0,0,0,0c0,0,0,0,0,0Z"/>
  <path class="st1" d="M36,17c0-.4,0-.8,0-1.3,0-.4,0-.8,0-1.2,0-.2,0-.4,0-.6,0-.4,0-.8,0-1.1,0-.3,0-.7,0-1,0-.2,0-.3,0-.5,0-.3,0-.6,0-.9,0-.3-.1-.6-.2-.9-.2-.4-.5-.8-.8-1.1-.3-.2-.6-.3-.9-.4-.4-.1-.8-.2-1.2-.2-.4,0-.8,0-1.2,0-.4,0-.7,0-1.1.2-.3,0-.6.1-.9.2-.7.2-1.5.4-2.2.7-.7.2-1.3.5-1.9.8-.5.2-1.1.5-1.6.8-.8.4-1.6.9-2.4,1.3-.7.4-1.3.7-2,1.1-.9.4-1.7.8-2.7,1-.4,0-.8.2-1.1.2-.2,0-.4,0-.5,0-.3,0-.6,0-.8,0-.2,0-.4,0-.6,0-.4,0-.8,0-1.3-.1s-.8-.1-1.2-.3c-.5-.1-1-.3-1.4-.6,0,0,0,0,0,0,0,0,0,0,0,0,0,0,0,0,0,0,0,.3,0,.5,0,.8,0,.3,0,.5,0,.8,0,0,0,.2,0,.3,0,.3,0,.6,0,.9,0,.3,0,.5,0,.8,0,.2,0,.4,0,.7,0,.2,0,.4,0,.6,0,.3,0,.7,0,1,0,.3,0,.6.1.9.2.6.5,1.1,1.1,1.4.3.2.7.3,1.1.4.2,0,.4,0,.6,0,.3,0,.6,0,.8,0,.4,0,.8,0,1.1,0,.3,0,.5,0,.8,0,.4,0,.7-.1,1.1-.2.4-.1.9-.2,1.3-.4.5-.2,1.1-.4,1.6-.6.8-.3,1.5-.7,2.3-1,.7-.3,1.3-.7,2-1,.6-.3,1.3-.6,1.9-.9.5-.2,1.1-.5,1.6-.6.4-.1.9-.3,1.3-.4.2,0,.4,0,.5,0,.2,0,.4,0,.6,0,.3,0,.6,0,.8,0,.3,0,.6,0,.9,0,.3,0,.5,0,.8,0,.3,0,.6,0,.9,0,.3,0,.6,0,.8.1.3,0,.6.1,1,.3.3.1.6.3.9.4,0,0,.2.1.2.2,0,0,0,0,0,0,0,0,0,0,0-.1,0,0,0-.2,0-.3ZM11.1,15.8c0,.3,0,.6,0,.8v.7s0,0,0,0c0,0,0,0,0-.1s0-.1,0-.2c0-.5,0-.9,0-1.4.1,0,.2,0,.2.2ZM11.9,18.1c-.1,0-.3,0-.4,0-.1,0-.2,0-.3,0,0,0,0,0,0,0h0c0,.3,0,.6,0,.9,0,.1,0,.2,0,.4,0,.2,0,.3,0,.5s0,.3.2.4c0,0,0,0,0,0h0s0,0,0,0c0,0,0,0,0,0-.2,0-.4,0-.5,0,0,0-.1,0-.1,0,0,0,0,0,0,0,0,0,0,0,.1,0,.1,0,.3,0,.4,0,0,0,0,0,0,0,0,0,0,0,0,0,0,0,0,0,0,0,0,0-.1-.2-.1-.3,0-.5,0-1,0-1.5s0-.2,0-.3,0,0,0,0c0,0,.2,0,.2,0,.2,0,.4,0,.5,0,0,0,0,0,0,0q0,0,0,0ZM15.9,16.3s0,0,0,0c.1,0,.3,0,.4,0,0,0,0,0,.1,0,0,0,0,0,0,0-.1,0-.3,0-.4,0,0,0,0,0,0,0,0,.3,0,.5,0,.8,0,.2,0,.4,0,.5,0,0,0,0,0,0-.1,0-.1,0-.1-.1s0-.2,0-.3c0-.3,0-.6,0-.9h0ZM13.6,18c0-.2,0-.4,0-.5,0-.2,0-.3,0-.5,0,0,0,0,0-.1,0,0,0,0,0,0,0,0,0,0,0,0,0,0,0,.2,0,.3,0,0,0,.1,0,.2,0,0,0,.1,0,.2,0,.1,0,.3,0,.4,0,.1,0,.2,0,.4,0,0,0,.1,0,.2,0,0,0,0-.1,0,0,0,0,0,0,0,0-.1,0-.3,0-.4ZM12.8,20.5h-.2c0,0-.1,0-.2,0,0,0-.1,0-.2,0,.1,0,.3,0,.4,0,0,0,0,0,0,0,0,0,0,0,0,0,0,0,0,0,0,0-.1-.1-.2-.3-.2-.5v-3.2c0-.2,0-.4,0-.6,0,0,0-.2,0-.2,0,0,0,0,0,0,0,0,.1.1.1.2,0,0,0,.1,0,.2,0,.5,0,.9,0,1.4,0,.8,0,1.6,0,2.3,0,.2,0,.4.2.5,0,0,0,0,0,0,0,0,0,0,0,0ZM14.4,19.2c-.1,0-.3,0-.4,0,0,0-.2,0-.3,0,0,0,0,0,0,0,0,0,0,.1,0,.2,0,.1,0,.3,0,.4,0,.2,0,.3,0,.5,0,0,0,.2,0,.2,0,0,0,0,0,0,0,0,0,0,0,0-.1,0-.3,0-.4,0,0,0-.1,0-.2-.1.1,0,.2,0,.3,0h0s0,0,0,0c0,0,0,0,0,0,0,0,0-.1,0-.2,0,0,0-.2,0-.2,0-.3,0-.5.1-.8,0,0,0,0,.1,0,.2,0,.5,0,.7,0,0,0,0,0,0,0,0,0,0,0,0,0ZM15.4,20.5c-.1,0-.3,0-.4,0,0,0-.1,0-.2,0,.2,0,.3,0,.5,0,0,0,0,0,0,0,0,0,0,0,0,0,0,0-.1-.1-.2-.2,0,0,0-.2,0-.2-.1-.5-.2-1-.3-1.4,0-.4-.2-.8-.3-1.2,0-.2,0-.3-.1-.5,0-.2-.1-.5-.1-.7,0,0,0,0,0-.1,0,0,0,0,0,0,0,0,.1.1.2.2,0,0,0,.1,0,.2,0,.1,0,.3,0,.4,0,0,0,.1,0,.2h0c0,.1,0,.2,0,.3h0s0,0,0,0c0,0,0,0,0,0,0,0,0,.1,0,.2h0c0,.1,0,.3,0,.4,0,.2,0,.4.1.5,0,.2,0,.4.1.5,0,.3.1.7.2,1,0,.2.1.3.2.4,0,0,0,0,0,0,0,0,0,0-.1,0ZM17.4,17.3c0,.1,0,.3,0,.4,0,0,0,.1,0,.2,0,.2-.2.3-.4.4-.1,0-.3.1-.4.1-.1,0-.2,0-.4,0,0,0,0,0,0,0,0,.3,0,.5,0,.8,0,.1,0,.3,0,.5s0,.2,0,.3c0,0,0,0,.1.1,0,0,0,0,0,0h0s0,0,0,0h0c-.2,0-.3,0-.5,0,0,0-.2,0-.2,0h.5c0-.1,0-.1,0-.2,0,0,0,0,0,0,0,0-.1-.1-.2-.2,0,0,0,0,0-.1,0,0,0-.1,0-.2,0-.4,0-.7,0-1.1,0-.1,0-.1,0-.1.2,0,.4,0,.6-.1.1,0,.2-.1.3-.2,0,0,.1-.1.1-.2,0-.2.1-.4.1-.6,0-.2,0-.4,0-.5,0-.3-.1-.7-.3-1,0,0,0,0,0,0,0,0,0,0,0,0h0c0,0,.1.1.2.2.1.2.2.4.2.7,0,.2,0,.5,0,.7ZM18.1,15.6s0,0,0,0c0,0,0,0,0,0,0,0,.2,0,.3,0,.1,0,.2,0,.3,0,0,0,0,0,0,0,0,0-.1,0-.2,0,0,0-.2,0-.3,0,0,0,0,0,0,0,0,.2,0,.5,0,.7,0,.2,0,.4,0,.6,0,0,0,0,0,0q-.1,0-.1,0c0-.2,0-.5,0-.7,0-.2,0-.4,0-.6h0ZM18.6,19.6c-.2,0-.4.1-.6.2,0,0-.2,0-.2,0,0,0,0,0,0,0,.2,0,.3-.1.5-.2,0,0,.1,0,.2,0,0,0,.1,0,.2,0,0,0,0,0,0,0ZM19.7,16.9c0,.1,0,.2-.1.3,0,.1-.2.3-.3.3s-.3.1-.4.2c-.1,0-.3,0-.4.1,0,0,0,0,0,0,0,.2,0,.4,0,.6,0,.2,0,.4,0,.6,0,0,0,.2,0,.3,0,0,0,.1,0,.2-.1,0-.2-.1-.2-.2,0-.1,0-.3,0-.4,0,0,0-.1,0-.2,0-.2,0-.5,0-.7h0c0-.1,0-.1,0-.2.2,0,.4-.1.6-.2,0,0,.2,0,.3-.1.1,0,.2-.2.3-.3,0-.2.1-.4.2-.6,0,0,0-.2,0-.3,0,0,0-.1,0-.2,0-.2,0-.4,0-.5,0-.2-.1-.3-.2-.5,0,0,0,0,0,0,0,0,0,0,0,0,0,0,0,0,0,0,0,0,0,0,.1.1,0,.1.2.3.2.5,0,0,0,0,0,0,0,0,0,.1,0,.2,0,.2,0,.5,0,.8,0,.1,0,.2,0,.3ZM20.1,14.3c0,0,.1,0,.2.2,0,0,0,.2.1.3.1.3.2.6.3.8,0,0,0,.1,0,.2,0,0,0,0,0,0-.2-.5-.4-.9-.5-1.4,0,0,0,0,0,0ZM21.9,13.8c-.1.4-.2.8-.4,1.3,0,0,0,0,0,.1,0,.2-.1.4-.2.7,0,.2-.1.4-.2.6,0,0,0,0,0,.1,0,.3,0,.7,0,1s0,.3,0,.5,0,.2.1.2c0,0,0,0,0,0,0,0,0,0,0,0-.2,0-.4.2-.5.2,0,0,0,0,0,0-.1,0-.1,0-.2,0,0,0,.2,0,.3-.1.1,0,.2,0,.3-.1,0,0,0,0,0,0,0,0,0,0,0,0,0,0-.1-.1-.1-.2,0,0,0-.2,0-.2v-1.2c0,0,0-.1,0-.2,0-.3.2-.7.3-1,0-.3.2-.6.3-1,0-.3.1-.5.2-.8h0c0,0,0,0,0,.1,0,0,0,0,0,0ZM22.9,17.5c-.1,0-.2.1-.4.2,0,0,0,0,0,0,0,0-.1,0-.2,0,0,0,0,0,.1,0,0,0,.2,0,.3-.1,0,0,0,0,0,0-.1,0-.1-.2-.1-.3,0-.1,0-.3,0-.5,0-.2,0-.4,0-.7,0-.2,0-.3,0-.5,0-.3,0-.5,0-.8,0-.1,0-.3,0-.4,0,0,0,0,0,0,0,0,0,.3.1.6,0,.2,0,.4,0,.6,0,.2,0,.5,0,.7,0,.2,0,.3,0,.5,0,.2,0,.4,0,.6,0,0,0,0,0,.1,0,0,0,.1.1.2,0,0,0,0,0,0,0,0,0,0,0,0ZM23.3,14.2c0-.2,0-.4-.1-.7,0-.2,0-.4-.1-.7.1,0,.1,0,.2.1,0,0,0,0,0,0,0,.2,0,.5.1.7,0,.3,0,.5.1.8,0,.1,0,.3,0,.4,0,.1,0,.3,0,.5,0,0,0,0,0,0,0,0,0,0,0,0,0-.2,0-.5-.1-.7,0-.2,0-.3,0-.5ZM24.3,14.5c0,.2,0,.4,0,.5,0,.2,0,.3,0,.5,0,.2,0,.5,0,.7,0,.2,0,.3,0,.5,0,0,0,0,0,0q0,0,0,.1c-.1,0-.2.1-.4.2,0,0,0,0,0,0,0,0,0,0,0,0,0,0,0,0,0-.1,0,0,0,0,0,0,0,0,.2,0,.2-.1,0,0,0,0,0-.1,0,0,0-.1,0-.2,0-.2,0-.4,0-.6,0-.3,0-.5,0-.8,0-.2,0-.5,0-.7,0-.1,0-.2,0-.3,0-.1,0-.3,0-.4,0,0,0-.2,0-.3,0,0,0,0,0,0,0,0,0,0,0,0,0,.2,0,.3,0,.5,0,0,0,.1,0,.2,0,.1,0,.2,0,.3ZM24.7,12.9c0-.2,0-.4,0-.6,0-.1,0-.2,0-.3.1,0,.1,0,.2.1,0,.1,0,.2,0,.4,0,.2,0,.5.1.7,0,.3,0,.5.1.8,0,.4.1.7.2,1.1,0,.2,0,.4,0,.7,0,0,0,.1,0,.2-.1,0-.1,0-.2-.1,0,0,0-.1,0-.2,0-.3,0-.7-.1-1,0-.2,0-.4,0-.6,0-.2,0-.5-.1-.7,0-.1,0-.3,0-.4ZM25.5,16.1c-.1,0-.3.2-.4.2,0,0,0,0,0,0-.1,0-.2,0-.3,0,0,0,.1,0,.2,0,.1,0,.3-.2.4-.2,0,0,.1,0,.2,0,0,0,0,0,0,0ZM25.7,12.9c0-.2,0-.4,0-.6,0-.2,0-.3.2-.4,0-.1.2-.2.4-.1,0,0,.1,0,.2,0-.2,0-.3,0-.4.2,0,.1-.1.2-.1.4,0,.2,0,.3,0,.5h0c0,.5,0,.8,0,1.2,0,.1,0,.3,0,.4,0,.1,0,.2,0,.3,0,0,0,0,0,0,0,0-.1,0-.2-.1,0,0,0-.2,0-.3,0-.4,0-.7,0-1.1,0-.1,0-.3,0-.5ZM27.5,14.5c0,.2,0,.4-.1.5,0,.2-.2.3-.3.5-.2.2-.4.3-.6.3-.2,0-.3,0-.5,0s0,0-.1,0c0,0,0,0,0,0,.2,0,.4,0,.6,0,.2,0,.4-.3.5-.5.1-.2.2-.5.2-.8,0-.3,0-.6,0-.8,0-.2,0-.4,0-.7,0-.2,0-.5,0-.7,0-.2,0-.5-.2-.7,0,0,0-.2-.2-.3,0,0,0,0,0,0,.1,0,.2.1.2.2,0,0,0,.2.1.3,0,.2.1.3.1.5,0,.2,0,.5,0,.7,0,.3,0,.5,0,.8,0,.3,0,.6,0,.9ZM28.2,12.1c0-.2,0-.4,0-.7,0-.1,0-.3.1-.4,0,0,0-.1.1-.2,0,0,.2-.1.3,0,0,0,.1,0,.2.1h0c-.1,0-.2,0-.3.1,0,0,0,.1-.1.2,0,0,0,.2,0,.3,0,.2,0,.4,0,.6,0,.3,0,.6,0,.8,0,.2,0,.4,0,.7,0,0,0,.1,0,.2,0,.1,0,.2.1.3,0,0,0,0,0,0-.1,0-.2-.1-.2-.2,0,0,0-.2,0-.3,0-.5,0-1,0-1.5ZM30,13.3c0,.1,0,.3,0,.4,0,.1,0,.3,0,.4,0,.2-.1.4-.3.5,0,.1-.2.2-.3.3-.2.1-.5.2-.7.2-.1,0-.2,0-.3,0,0,0,0,0,0,0,0,0,0,0,.1,0,.2,0,.4,0,.6-.1,0,0,.1,0,.2-.1.1,0,.2-.2.3-.3.1-.2.2-.4.2-.6,0-.2,0-.3,0-.5,0,0,0-.1,0-.2,0-.3,0-.5,0-.8,0-.1,0-.3,0-.4,0-.1,0-.3,0-.4,0-.3,0-.5,0-.8,0-.1,0-.2-.1-.3,0,0,0,0,0,0,0,0,0,0,0,0,.1.1.2.2.3.4,0,.1,0,.2,0,.3,0,.1,0,.3,0,.5,0,.2,0,.4,0,.5,0,.4,0,.8,0,1.2ZM31,14.5h-.4c0,0-.1,0-.2,0,.1,0,.3,0,.4,0h0s0,0,0,0c0,0,0,0,0,0,0,0,0,0,0,0-.1-.1-.2-.3-.2-.4,0-.4,0-.8,0-1.2,0-.5,0-.9,0-1.4,0,0,0,0,0-.1s0,0,0,0c0,0,0,0,0,0,0,.1,0,.2.1.4,0,0,0,.2,0,.2,0,.4,0,.8,0,1.2,0,.3,0,.7,0,1,0,0,0,.1,0,.2,0,.1,0,.2.2.3,0,0,0,0,0,0ZM31.9,12.9s0,0,0,0c-.1-.3-.2-.6-.3-1-.2-.5-.4-1.1-.5-1.6,0,0,0-.1,0-.2,0,0,0,0,0,0,.1,0,.2.2.2.3,0,0,0,.2,0,.3.2.5.3.9.5,1.4,0,.1,0,.3.1.4,0,0,0,.1,0,.2,0,.1,0,.2,0,.4ZM32.9,9.9s0,0,0,0c0,0,0,0,0,.1h0s0,0,0,0,0,0,0,0ZM32.6,14.5s0,0,0,0c0,0-.2,0-.3,0,0,0-.1,0-.2,0h.3s0,0,0,0v-4.3c0,0,0-.1,0-.2.1,0,.2,0,.2.2v4.4ZM33.3,10.3c0,.2-.2.3-.4.3,0,0,0,0,0,0s0,0,0,0c0,0,0,0,0,0,0,0,.2-.1.2-.2,0,0,0-.2,0-.3v-.4s0,0,0-.1c.2,0,.2,0,.2.1,0,.1,0,.3,0,.4,0,0,0,.2,0,.2ZM35.3,14.1c0,.1,0,.3,0,.4h0c0,0,0,.2-.2.3,0,0-.2.1-.3.1,0,0,0,0-.1,0-.2,0-.5,0-.7,0-.1,0-.2,0-.3,0,0,0-.1,0-.2-.1,0,0,.1,0,.2,0,.2,0,.3,0,.5,0,.1,0,.3,0,.4,0,0,0,0,0,0,0,.2,0,.3,0,.4-.2,0,0,.1-.2.1-.3,0-.1,0-.2,0-.3,0-.2,0-.5,0-.7,0-.2,0-.4-.2-.6-.1-.2-.3-.3-.4-.5-.2-.2-.3-.3-.5-.5,0,0,0,0,0,0,0,0-.1-.2-.1-.3s0-.2,0-.3c0,0,0,0,0,0,0,0,0-.2.2-.1,0,0,0,0,.1,0,.1,0,.2,0,.3.2,0,0,0,0,.1,0s0,0,0,0c0,0,0,0,0-.1,0-.1,0-.3,0-.4,0,0,0,0,0-.1h0c.2,0,.1,0,.1.2,0,.2,0,.3,0,.5,0,0,0,.1-.1,0,0,0,0,0-.1,0,0,0-.2-.1-.3-.1,0,0,0,0,0,0-.1,0-.2,0-.3.2,0,.1,0,.3,0,.4,0,0,0,0,0,0,0,0,0,0,0,0,.1.1.3.3.4.4.2.2.4.4.5.6,0,.1.2.3.2.5,0,0,0,0,0,0,0,.3,0,.6,0,.9Z"/>
  <path class="st1" d="M25.6,23.6c0-.1,0-.3,0-.4,0-.3-.4-.5-.7-.6-.3,0-.6,0-.9,0-.3,0-.6,0-.9,0h0s0,0,0,0h0v.6s0,0,0,0h.8c.2,0,.4,0,.6,0s.1,0,.2,0c0,0,0,0,0,0,0,0,0,0,0,.1,0,0,0,0,0,0h-.2c-.3,0-.6,0-.9,0,0,0-.2,0-.3,0,0,0-.2,0-.2.1-.1,0-.2.2-.2.4,0,.2,0,.5,0,.7.1.3.4.5.7.6.1,0,.3,0,.5,0,.5,0,.9,0,1.4,0h0s0,0,0,0v-1.4c0-.1,0-.3,0-.4ZM25.5,25.2s0,0,0,0c0,0,0,0,0,0h-1.4c-.1,0-.2,0-.3,0-.3,0-.5-.3-.5-.5,0-.2,0-.4,0-.6,0-.2.2-.3.4-.4.1,0,.2,0,.4,0,.3,0,.6,0,.9,0s.1,0,.1-.1c0,0,0-.1,0-.2,0,0,0,0,0,0,0,0,0-.1-.2-.2,0,0,0,0-.1,0,0,0-.1,0-.2,0h-1.1c0,0,0,0-.1,0,0,0,0,0,0,0v-.3s0,0,0,0h1.3c.2,0,.3,0,.5,0,.2,0,.4.2.4.4,0,0,0,.2,0,.3,0,.3,0,.5,0,.8v1Z"/>
  <path class="st1" d="M22.8,22.6s0,0,0,0c0,0,0,0,0,0h-.5c-.1,0-.3,0-.4,0-.1,0-.3,0-.4,0-.3,0-.6.3-.8.5-.1.2-.2.4-.2.6,0,.1,0,.3,0,.4,0,.2,0,.4.1.6,0,0,0,0,0,0,0,.2.2.4.4.5.1,0,.2.1.3.1.2,0,.4,0,.6,0,0,0,.2,0,.3,0,.2,0,.4,0,.6,0,0,0,0,0,0,0,0-.2,0-.3,0-.5,0-.1,0-.1-.1-.1h-.7c-.1,0-.2,0-.4,0-.1,0-.2,0-.2-.2,0,0,0-.1,0-.2,0-.1,0-.3,0-.4,0-.1,0-.3,0-.4,0-.1.1-.2.3-.2.2,0,.5,0,.7,0,.1,0,.2,0,.4,0,0,0,0,0,.1,0s0,0,0,0h0c0-.2,0-.4,0-.6,0,0,0,0,0,0ZM22.7,23.1s0,0,0,0c0,0,0,0,0,0h-.8c0,0-.1,0-.2,0-.2,0-.4.2-.4.4,0,.1,0,.3,0,.4s0,.3,0,.4c0,.1,0,.2.1.3,0,0,.2.2.3.2,0,0,.2,0,.3,0h.8s0,0,0,0c0,.1,0,.2,0,.3,0,0,0,0,0,0h-1c-.2,0-.3,0-.4,0-.2,0-.3-.2-.5-.3-.1-.2-.2-.4-.2-.6,0-.1,0-.3,0-.4,0-.3,0-.6.3-.8.2-.2.4-.3.7-.4.1,0,.2,0,.3,0,.3,0,.5,0,.8,0,0,0,0,0,0,0,0,0,0,0,0,0v.4Z"/>
  <path class="st0" d="M29.3,24.1c-.2,0-.5,0-.7,0,0,0,0,0,0,0,0,0,0,0,0,0,0,.2,0,.4.2.6,0,0,.2,0,.3.1,0,0,.1,0,.2,0,.2,0,.5,0,.7,0,.1,0,0,0,0,.1,0,0,0,.2,0,.3,0,0,0,0,0,0-.1,0-.2,0-.3,0-.2,0-.4,0-.7,0-.1,0-.3,0-.4,0-.2,0-.3-.1-.4-.3-.1-.1-.2-.3-.2-.5,0-.3,0-.6,0-.9,0-.3.3-.6.6-.8.2,0,.4-.1.6-.1.3,0,.6,0,.9,0,0,0,0,0,0,0,0,0,0,0,0,0,0,0,0,0,0,.1,0,0,0,.1,0,.2,0,0,0,0,0,0,0,0,0,0,0,0-.2,0-.4,0-.7,0,0,0-.2,0-.3,0-.2,0-.3.2-.4.3,0,0,0,.1,0,.2,0,0,0,0,0,0,0,0,0,0,.1,0,.4,0,.9,0,1.3,0,.1,0,.1,0,.1.1,0,0,0,.2,0,.3,0,0,0,0,0,0,0,0,0,0,0,0-.2,0-.4,0-.6,0Z"/>
  <path class="st0" d="M26.9,24.2c0,.3,0,.6,0,1,0,0,0,0,0,0,0,0,0,0,0,0,0,0,0,0,0,0-.1,0-.3,0-.4,0,0,0,0,0,0,0,0,0,0,0,0,0,0-.6,0-1.3,0-1.9,0-.2,0-.1-.1-.1,0,0-.2,0-.3,0,0,0,0,0,0,0,0-.1,0-.2,0-.3,0,0,0,0,0,0,0,0,.1,0,.2,0,0,0,.1,0,.2,0,0,0,0,0,0,0,0,0,0-.2,0-.2,0,0,0-.2,0-.3,0-.2.2-.3.3-.3,0,0,.1,0,.2,0,.2,0,.5,0,.7,0,0,0,0,0,0,0,0,0,0,0,0,.1,0,0,0,.1,0,.2,0,.1,0,.1,0,.1-.1,0-.3,0-.4,0,0,0,0,0-.1,0-.1,0-.2,0-.2.2,0,0,0,.1,0,.2,0,.1,0,.1.1.1.2,0,.4,0,.6,0,0,0,0,0,0,0,0,0,0,0,0,0,0,.1,0,.2,0,.4,0,0,0,0,0,0,0,0,0,0,0,0-.2,0-.4,0-.6,0,0,0,0,0,0,0,0,0,0,0,0,0,0,0,0,0,0,0,0,.3,0,.6,0,1h0Z"/>
  <path class="st2" d="M25,6.3s0,0,0,0c0,0,0,0,0,0,0,0,0,0,0,0Z"/>
  <path class="st1" d="M24.5,4c0,0,.2,0,.3,0h0s.3,0,.3,0c0,0,0,0,0,0,0,0,0-.2,0-.2,0,0,0-.1-.2-.2,0,0,0,0-.1,0-.2,0-.4,0-.5.3,0,0,0,.1,0,.2,0,.2.1.4.3.4.1,0,.2,0,.3,0,0,0,0,0,.1,0,0,0,0,0,0,0,0,0,0,0,0-.1,0,0,0,0,0,0,0,0,0,0,0,0,0,0-.1.1-.2.1s0,0-.1,0c0,0-.1,0-.2-.1,0,0,0,0,0-.1,0,0,0,0,0,0ZM24.4,3.8c0,0,.1-.1.2-.1,0,0,.1,0,.2.1,0,0,0,0,0,0,0,0,0,0,0,0h-.3s0,0,0,0Z"/>
  <path class="st1" d="M22.9,4.5q0-.1,0-.2c0-.1,0-.3,0-.4,0,0,0,0,0,0,0,0,0-.1-.1-.1-.1,0-.2,0-.3,0,0,0,0,0,0,0,0,.2,0,.3,0,.5,0,0,0,0,0,.1,0,0,0,0,0,0,0,0-.1,0-.2,0,0,0,0,0,0,0,0,0,0,0,0,0,0-.2,0-.4,0-.6,0,0,0,0,0-.1,0,0,0,0,0,0,0,0,0,0,0,0,0,0,0,0,0,0,0,0,0,0,0,0,.1,0,.2-.1.3-.1.2,0,.3.1.3.3,0,.1,0,.3,0,.4,0,0,0,.2,0,.2,0,0,0,0,0,0,0,0-.2,0-.3,0Z"/>
  <path class="st1" d="M21.2,4.2s0,0,0,0c0,0,0,0,.1,0,0,0,.1,0,.2,0,0,0,0,0,0,0,0,0,0-.1,0-.1,0,0,0,0-.1,0,0,0-.1,0-.2,0,0,0,0,0-.1,0-.1-.1-.1-.3,0-.4,0,0,0,0,0,0,.1,0,.2,0,.4,0,0,0,0,0,0,0,0,0,0,0,0,.1,0,0,0,0,0,0,0,0,0,0,0,0,0,0,0-.1-.2-.1,0,0,0,0-.1,0,0,0,0,0,0,.1,0,0,0,0,0,0,0,0,0,0,.1,0,0,0,.1,0,.2,0,0,0,.1.1.1.2,0,.1,0,.2-.1.2-.1,0-.2,0-.4,0-.1,0-.2,0-.3-.2,0,0,0,0,0,0,0,0,0,0,.1-.1Z"/>
  <path class="st1" d="M23.3,3.9c0-.2.2-.4.4-.4,0,0,.1,0,.2,0,0,0,.1,0,.2.1,0,0,0,0,0,.1,0,0,0,0,0,0,0,0,0,0,0,0,0-.1-.1-.1-.2-.1-.2,0-.3.2-.2.4,0,.1.1.2.2.3,0,0,.2,0,.3,0,0,0,0,0,0,0,0,0,0,0,0,0,0,0,0,0,0,.1,0,0,0,0-.1.1-.1,0-.3,0-.4,0-.1,0-.2-.2-.2-.4,0,0,0,0,0,0Z"/>
  <path class="st1" d="M21.9,3.5c0,0,.1,0,.2,0,0,0,0,0,0,0,0,0,0,0,0,.1,0,.2,0,.4,0,.5,0,0,0,.1,0,.2,0,0,0,0,0,0h-.3s0,0,0,0c0,0,0,0,0-.1,0-.2,0-.4,0-.6,0,0,0,0,0-.1Z"/>
  <path class="st1" d="M21.9,3.3c0,0,0-.1.1-.1,0,0,.1,0,.1.1,0,0,0,.1-.1.1,0,0-.1,0-.1-.1Z"/>
  <path class="st0" d="M23.5,14.9s0,0,0-.1c0-.3,0-.6.1-.9,0-.4,0-.8.1-1.2,0,0,0,0,0-.1,0-.1,0-.1-.1-.2,0,0,0,0,0,0,.1,0,.2-.1.4-.2.1,0,.2-.1.3-.2,0,0,0,0,0,0,0,0,.1,0,.1,0,0,0,0,0,0,0,0,.1,0,.2,0,.3,0,.2,0,.4,0,.6,0,.1,0,.3,0,.4,0,.2,0,.5.1.7,0,.2,0,.4,0,.6,0,.3,0,.7.1,1,0,0,0,.1,0,.2,0,0,0,.1.2.1,0,0,0,0,0,0-.1,0-.3.2-.4.2,0,0-.1,0-.2,0-.1,0-.2,0-.2-.2,0-.1,0-.2,0-.3,0-.4-.1-.9-.2-1.3,0,0,0-.1,0-.2,0,0,0,0,0,0,0,0,0-.1,0-.2,0-.2,0-.3,0-.5,0,0,0,0,0,0,0,0,0,0,0,0,0,0,0,.2,0,.3,0,.1,0,.3,0,.4,0,.1,0,.2,0,.3,0,.2,0,.5,0,.7,0,.3,0,.5,0,.8,0,.2,0,.4,0,.6,0,0,0,.1,0,.2,0,0,0,0,0,.1,0,0-.2,0-.2.1,0,0,0,0,0,0,0,0,0,0-.1,0,0,0,0,0,0,0,0,0,0,0,0,0-.1-.6-.3-1.2-.4-1.8,0,0,0-.2,0-.3,0,0,0,0,0,0,0-.3,0-.5-.1-.6,0,0,0,0,0,0,0,.1,0,.3,0,.4,0,.3,0,.5,0,.8,0,.2,0,.3,0,.5,0,.2,0,.4,0,.7,0,.2,0,.3,0,.5,0,.1,0,.2.1.3,0,0,0,0,0,0,0,0-.2,0-.3.1,0,0,0,0-.1,0-.1,0-.2,0-.2-.2,0-.2,0-.4,0-.6,0-.2,0-.3,0-.5,0-.4,0-.9,0-1.3,0-.4,0-.8,0-1.2,0-.1,0-.2,0-.4,0,0,0-.2,0-.2,0,0,0,0-.1,0,0,0,0,0,0,0,.2-.1.4-.2.6-.3,0,0,0,0,0,0,0,0,0,0,.1,0,0,0,0,0,0,0,0,.2,0,.4.1.7,0,.2,0,.4.1.7,0,.2,0,.3,0,.5,0,.2,0,.5.1.7,0,0,0,0,0,0,0,0,0,0,0,0,0-.2,0-.3,0-.5Z"/>
  <path class="st0" d="M30.4,14.5c-.2,0-.2-.1-.2-.3,0-.4,0-.9,0-1.3,0-.2,0-.3,0-.5,0-.3,0-.6,0-.9,0-.4,0-.8,0-1.1,0-.1,0-.2,0-.3,0,0,0,0,0-.1,0,0,0,0,0,0,0,0,0,0,0,0,.2,0,.3,0,.5,0,0,0,.2,0,.2,0,0,0,0,0,.1,0,0,0,0,0,0,0,0,0,0,.1,0,.2.2.5.4,1.1.5,1.6.1.3.2.7.3,1,0,0,0,0,0,0,0-.1,0-.2,0-.4,0,0,0,0,0-.1,0-.2,0-.3,0-.5,0-.3,0-.6,0-.9,0-.3,0-.6,0-.8,0-.2,0-.3-.2-.3,0,0,0,0,0,0,0,0,0,0,0,0,.1,0,.2,0,.4,0,.1,0,.2,0,.3.1,0,0,0,.1,0,.2,0,1.4,0,2.8,0,4.2,0,0,0,0,0,0,0,0,0,0,0,0,0,0,0,0,0,0,0,0-.2,0-.2,0,0,0-.1,0-.2-.1,0,0-.2-.2-.2-.3-.1-.4-.3-.8-.4-1.2-.1-.3-.2-.7-.4-1,0,0,0,0,0,0,0,0,0,0,0,0,0-.1,0-.2-.1-.4,0,0,0,0,0,0,0,0,0,0,0,0,0,0,0,0,0,.1,0,.5,0,.9,0,1.4,0,.4,0,.8,0,1.2,0,.2,0,.3.2.4,0,0,0,0,0,0,0,0,0,0,0,0,0,0,0,0,0,0,0,0,0,0,0,0-.1,0-.3,0-.4,0Z"/>
  <path class="st0" d="M29.9,12.3c0-.1,0-.3,0-.4,0-.1,0-.3,0-.4,0-.3,0-.5,0-.8,0-.1,0-.2-.1-.3,0,0,0,0,0,0,0,0,0,0,0,0,0,0-.2-.1-.3-.2,0,0-.2,0-.3,0-.1,0-.3,0-.4,0-.3,0-.5.3-.7.5,0,.2-.2.3-.2.5,0,.3,0,.6-.1.9,0,.4,0,.7,0,1.1,0,.3,0,.6,0,.9,0,.1,0,.3,0,.4,0,.2.2.3.3.4,0,0,0,0,.1,0,0,0,0,0,0,0,0,0,0,0,.1,0,.2,0,.4,0,.6-.1,0,0,.1,0,.2-.1.1,0,.2-.2.3-.3.1-.2.2-.4.2-.6,0-.2,0-.3,0-.5,0,0,0-.1,0-.2,0-.3,0-.5,0-.8ZM29.2,13.6c0,0,0,.2,0,.3,0,0,0,.2-.1.3-.1.1-.3.2-.4.1-.1,0-.2-.1-.2-.2,0,0,0-.2,0-.3,0-.5,0-1,0-1.5,0-.2,0-.4,0-.7,0-.1,0-.3.1-.4,0,0,0-.1.1-.2,0,0,.2-.1.3,0,0,0,.1,0,.2.1,0,0,0,.1.1.2,0,.2,0,.3,0,.5,0,.3,0,.6,0,1,0,.3,0,.6,0,1Z"/>
  <path class="st0" d="M12.1,20.4s0,0-.1,0c0,0-.2-.2-.2-.3,0,0,0-.1,0-.2,0-.5,0-1.1,0-1.6,0,0,0,0,0-.1,0,0,0,0,0,0,0,0,0,0,0,0-.2,0-.4,0-.5,0,0,0-.2,0-.2,0,0,0,0,0,0,0,0,0,0,.2,0,.3,0,.5,0,1,0,1.5,0,.1,0,.2.1.3,0,0,0,0,0,0,0,0,0,0,0,0,0,0,0,0,0,0-.1,0-.3,0-.4,0,0,0,0,0-.1,0,0,0,0,0,0,0,0,0,0,0,0,0-.1,0-.2-.1-.2-.3,0-.2,0-.4,0-.6,0-1.2,0-2.4,0-3.6,0,0,0,0,0,0,0-.1,0-.2-.1-.3,0,0,0,0,0,0,0,0,0,0,0,0,.2,0,.3,0,.5,0,0,0,.2,0,.2.1,0,.5,0,.9,0,1.4,0,0,0,.2,0,.2,0,0,0,0,0,.1,0,0,0,0,0,0,0,0,.2,0,.3,0,.2,0,.3,0,.5,0,0,0,0,0,0,0,0,0,0,0,0,0,0,0,0,0,0,0,0-.4,0-.9,0-1.3,0-.1,0-.2-.1-.3,0,0,0,0,0,0,0,0,0,0,0,0,.2,0,.3,0,.5,0,0,0,0,0,0,0,0,0,.1,0,.2.1,0,0,0,.2,0,.2,0,.2,0,.4,0,.6,0,1.1,0,2.1,0,3.2,0,.2,0,.3.2.5,0,0,0,0,0,0,0,0,0,0,0,0,0,0,0,0,0,0-.1,0-.3,0-.4,0Z"/>
  <path class="st0" d="M27.3,13.5c0-.2,0-.4,0-.7,0-.2,0-.5,0-.7,0-.2,0-.5-.2-.7,0,0,0-.2-.2-.3,0,0,0,0,0,0,0,0,0,0,0,0-.1,0-.3-.1-.4,0,0,0-.2,0-.2,0-.1,0-.3.1-.4.2-.3.2-.4.4-.5.7,0,.1,0,.3,0,.5,0,.2,0,.4,0,.5,0,.3,0,.7,0,1,0,.3,0,.7.1,1,0,.1,0,.2,0,.3,0,.2.2.3.4.4,0,0,0,0,0,0,0,0,0,0,0,0,0,0,0,0,0,0,.2,0,.4,0,.6,0,.2,0,.4-.3.5-.5.1-.2.2-.5.2-.8,0-.3,0-.6,0-.8ZM26.7,14.6c0,0,0,.1,0,.2,0,.1-.2.2-.3.2,0,0-.1,0-.2,0,0,0,0,0,0,0,0,0,0,0,0,0,0,0,0,0,0,0,0,0,0,0,0,0,0,0,0,0,0,0,0,0,0-.2,0-.3,0-.4,0-.7,0-1.1,0-.1,0-.3,0-.5,0-.2,0-.4,0-.6,0-.2,0-.3.2-.4,0-.1.2-.2.4-.1,0,0,.1,0,.2,0,0,0,0,0,0,.2,0,0,0,.2,0,.2,0,.4,0,.8.1,1.2,0,.2,0,.3,0,.5s0,.4,0,.6Z"/>
  <path class="st0" d="M19.6,16.1c0-.2,0-.4,0-.5,0-.2-.1-.3-.2-.5,0,0,0,0,0,0,0,0,0,0,0,0,0,0,0,0,0,0,0,0,0,0,0,0,0,0-.2,0-.3,0s-.3,0-.4,0c-.4.1-.7.2-1.1.3,0,0,0,0,0,0,0,0,0,0,0,0,.1,0,.2.2.2.3,0,.2,0,.3,0,.5,0,.3,0,.7,0,1,0,.1,0,.2,0,.3,0,.3,0,.6,0,1,0,.3,0,.7,0,1,0,0,0,.2,0,.3,0,.2,0,.2.2.2.2,0,.3-.1.5-.2,0,0,.1,0,.2,0,0,0,0,0,0,0-.1,0-.2-.1-.2-.2,0-.1,0-.3,0-.4,0,0,0-.1,0-.2,0-.2,0-.5,0-.7h0c0-.1,0-.1,0-.2.2,0,.4-.1.6-.2,0,0,.2,0,.3-.1.1,0,.2-.2.3-.3,0-.2.1-.4.2-.6,0,0,0-.2,0-.3,0,0,0-.1,0-.2ZM18.9,16.4c0,.3-.3.6-.7.7,0,0,0,0,0,0q-.1,0-.1,0c0-.2,0-.5,0-.7,0-.2,0-.4,0-.6h0c0-.1,0-.1,0-.1,0,0,0,0,0,0,0,0,.2,0,.3,0,.1,0,.2,0,.3,0,0,0,0,0,0,0,0,0,0,0,0,.1,0,.2.1.5,0,.7Z"/>
  <path class="st0" d="M15.3,20.4c0,0-.1-.1-.2-.2,0,0,0-.2,0-.2-.1-.5-.2-1-.3-1.4,0-.4-.2-.8-.3-1.2,0-.2,0-.3-.1-.5,0-.2-.1-.5-.1-.7,0,0,0,0,0-.1,0,0,0,0,0,0,0,0,0,0-.1,0,0,0-.1,0-.2,0,0,0-.2,0-.3,0,0,0-.2,0-.2,0,0,0,0,0,0,0,0,0,0,0,0,0,.1,0,.1.2.1.3,0,0,0,0,0,0,0,.4-.1.8-.2,1.2,0,.3-.1.6-.1,1,0,.5-.1.9-.2,1.4,0,.2,0,.3,0,.5,0,0,0,.1,0,.2,0,.1,0,.1.2.1.1,0,.2,0,.3,0h0s0,0,0,0c0,0,0,0,0,0,0,0,0-.1,0-.2,0,0,0-.2,0-.2,0-.3,0-.5.1-.8,0,0,0,0,.1,0,.2,0,.5,0,.7,0,0,0,0,0,0,0,0,0,0,0,0,0,0,0,0,0,0,.1,0,.3.1.6.2.8,0,.2,0,.2.2.3.2,0,.3,0,.5,0,0,0,0,0,0,0,0,0,0,0,0,0ZM14.1,18.5c-.1,0-.3,0-.4,0,0,0,0,0-.1,0,0,0,0,0,0,0,0-.1,0-.3,0-.4,0-.2,0-.4,0-.5,0-.2,0-.3,0-.5,0,0,0,0,0-.1,0,0,0,0,0,0,0,0,0,0,0,0,0,0,0,.2,0,.3,0,0,0,.1,0,.2,0,0,0,0,0,0,0,0,0,.2,0,.3,0,.2.1.5.2.7,0,0,0,0,0,0,0,0,0,0,0,0Z"/>
  <path class="st0" d="M33.4,14.6c0,0-.1,0-.2-.1,0,0,0-.1-.1-.2,0-.2,0-.5,0-.7,0,0,0,0,0,0,0,0,0,0,0,0,0,0,0,0,0,.1,0,0,0,0,0,0,0,0,0,.1.2.2,0,0,0,0,0,0,0,0,0,0,0,0,.2.1.4.2.6.2,0,0,.1,0,.2,0,.1,0,.2,0,.2-.2,0-.1,0-.2,0-.3,0-.1,0-.2,0-.3,0-.2,0-.3-.2-.4,0,0,0,0-.1,0-.2-.1-.4-.3-.6-.5-.2-.2-.3-.5-.3-.8,0-.3,0-.5,0-.8,0-.1,0-.3.1-.4,0-.1.2-.3.4-.3.1,0,.2,0,.3,0,.2,0,.4.1.6.2,0,0,.1,0,.2,0,0,0,0,0,0,0,0,0,0,0,0,.1,0,.1,0,.3,0,.4,0,0,0,0,0,.1,0,0,0,0,0,0,0,0-.1,0-.2,0-.1,0-.2-.1-.3-.2,0,0,0,0-.1,0-.1,0-.2,0-.2.1,0,0,0,0,0,0,0,0,0,.2,0,.3,0,.1,0,.2.1.3,0,0,0,0,0,0,.2.2.3.3.5.5.2.2.3.3.4.5.1.2.2.4.2.6,0,.2,0,.5,0,.7,0,.1,0,.2,0,.3,0,.1,0,.2-.1.3,0,.1-.2.2-.4.2,0,0,0,0,0,0-.1,0-.3,0-.4,0-.2,0-.3,0-.5,0,0,0-.1,0-.2,0,0,0,0,0,0,0,0,0,0,0,0,0,0,0,0,0,0,0,0,0,0,0,0,0Z"/>
  <path class="st0" d="M17,15.8s0,0,0,0c0,0,0,0,0,0,0,0,0,0,0,0,0,0-.2-.1-.3-.1,0,0-.2,0-.3,0-.2,0-.4,0-.6,0,0,0-.2,0-.3,0h-.1s0,0,0,0c0,0,0,0,0,0,0,0,0,0,0,0,0,0,.1.2.1.3,0,.3,0,.5,0,.8,0,.2,0,.4,0,.6,0,.4,0,.7,0,1.1,0,.5,0,1,0,1.5,0,0,0,.1,0,.2,0,.1,0,.2.2.2h.5c0-.1,0-.1,0-.2,0,0,0,0,0,0,0,0-.1-.1-.2-.2,0,0,0,0,0-.1,0,0,0-.1,0-.2,0-.4,0-.7,0-1.1,0-.1,0-.1,0-.1.2,0,.4,0,.6-.1.1,0,.2-.1.3-.2,0,0,.1-.1.1-.2,0-.2.1-.4.1-.6,0-.2,0-.4,0-.5,0-.3-.1-.7-.3-1ZM16.6,17.4c0,.1,0,.2-.2.2,0,0-.2.1-.3.1,0,0,0,0,0,0,0,0,0,0,0,0-.1,0-.1,0-.1-.1s0-.2,0-.3c0-.3,0-.6,0-.9h0c0-.1,0-.1,0-.1.1,0,.3,0,.4,0,0,0,0,0,.1,0,0,0,0,0,0,0,0,0,0,0,0,.1,0,0,0,.2,0,.3,0,.2,0,.4,0,.6Z"/>
  <path class="st0" d="M20.5,18.5c-.1,0-.2,0-.2-.1,0,0,0,0,0-.1,0-.5,0-1,0-1.5,0,0,0-.1,0-.2-.3-.6-.5-1.1-.7-1.7,0,0,0,0,0-.1,0,0,0-.1-.1-.2,0,0,0,0,0,0,0,0,0,0,0,0,0,0,0,0,0,0,.1,0,.2,0,.4-.1,0,0,0,0,0,0,.2,0,.2,0,.4,0,0,0,0,0,0,0,.2.5.4.9.5,1.4,0,0,0,0,0,0,0,0,0-.1,0-.2,0,0,0,0,0,0,0-.3.2-.7.2-1,0-.1,0-.3,0-.4,0,0,0,0,0,0,0,0,0-.2,0-.2,0,0,0,0,0,0,0,0,0,0,0,0,.2,0,.4-.1.5-.2,0,0,0,0,.1,0,0,0,.1,0,.1.1,0,.3-.1.5-.2.8,0,.3-.2.6-.3,1,0,.3-.2.7-.3,1,0,0,0,.1,0,.2,0,.4,0,.8,0,1.2,0,0,0,.2,0,.2,0,0,0,.2.1.2,0,0,0,0,0,0,0,0,0,0,0,0-.1,0-.2,0-.3.1,0,0-.2,0-.3.1Z"/>
  <path class="st0" d="M32.9,9.9s0,0,0,0c0,0,0,0,0,0,0-.1,0-.2,0-.4,0,0,0,0,0,0,.1,0,.2,0,.3,0,0,0,0,0,0,0,0,0,0,0,0,0,0,0,0,0,0,.1,0,.1,0,.3,0,.4,0,0,0,.2,0,.3,0,.1-.1.2-.2.2,0,0,0,0,0,0,0,0,0,0,0,0,0,0,0,0,0,0,0,0,0,0,0,0,0-.1,0,0,0-.1.1,0,.2-.1.2-.3,0,0,0,0,0-.1,0,0,0,0,0,0Z"/>
  <path class="st3" d="M33.5,13.8c0,0-.2,0-.2-.2,0,0,0,0,0-.1,0,0,0,0,0,0,0,0,0,0,0,0,0,.1,0,.2.2.3Z"/>
  <polygon class="st2" points="14.7 17.3 14.7 17.2 14.7 17.2 14.7 17.2 14.7 17.3"/>
  <path class="st3" d="M25.8,15.6s0,0,0,0c0,0,0,0,0,0Z"/>
  <path class="st3" d="M16.9,15.8s0,0,0,0c0,0,0,0,0,0,0,0,0,0,0,0,0,0,0,0,0,0Z"/>
  <path class="st2" d="M33.3,13.5s0,0,0,0c0,0,0,0,0,0,0,0,0,0,0,0Z"/>
  <polygon class="st2" points="16.3 20.3 16.3 20.3 16.4 20.3 16.4 20.3 16.3 20.3"/>
  <polygon class="st2" points="14.6 16.9 14.6 16.9 14.6 16.9 14.6 16.9"/>
  <polygon class="st2" points="14.7 17.6 14.7 17.6 14.7 17.5 14.7 17.5 14.7 17.6"/>
  <polygon class="st2" points="27.5 14.5 27.5 14.5 27.5 14.5 27.5 14.5"/>
  <path class="st2" d="M14.8,17.9s0,0,0,0c0,0,0,0,0,0Z"/>
  <path class="st2" d="M19.6,15.6s0,0,0,0,0,0,0,0Z"/>
  <path class="st3" d="M33.5,13.8s0,0,0,0c0,0,0,0,0,0Z"/>
  <path class="st2" d="M14.9,18.5s0,0,0,0c0,0,0,0,0,0Z"/>
  <polygon class="st2" points="18.4 19 18.4 19 18.4 19 18.4 19"/>
  <polygon class="st2" points="17 15.7 17 15.7 17 15.7 17 15.7 17 15.7"/>
  <path class="st2" d="M23.2,13s0,0,0,0c0,0,0,0,0,0Z"/>
  <polygon class="st2" points="19.7 15.8 19.7 15.8 19.7 15.8 19.7 15.8"/>
  <polygon class="st2" points="24.8 12.5 24.8 12.5 24.8 12.5 24.8 12.5"/>
  <path class="st2" d="M34.1,11.6s0,0,0,0c0,0,0,0,0,0Z"/>
  <path class="st2" d="M34.1,11.5s0,0,0,0,0,0,0,0Z"/>
  <polygon class="st2" points="23.5 14.5 23.5 14.5 23.5 14.5 23.5 14.5"/>
  <path class="st2" d="M16.3,20.3s0,0,0,0c0,0,0,0,0,0Z"/>
  <path class="st2" d="M14.4,16.3s0,0,0,0c0,0,0,0,0,0Z"/>
  <polygon class="st2" points="35.1 10.6 35.1 10.6 35.1 10.6 35.1 10.6"/>
  <path class="st2" d="M20.4,14.7s0,0,0,0c0,0,0,0,0,0Z"/>
  <path class="st3" d="M33.4,14.6s0,0,0,0c0,0,0,0,0,0Z"/>
  <path class="st2" d="M14.5,16.7s0,0,0,0c0,0,0,0,0,0Z"/>
  <path class="st2" d="M35.2,14.5s0,0,0,0c0,0,0,0,0,0Z"/>
  <path class="st2" d="M19.6,15.5s0,0,0,0c0,0,0,0,0,0Z"/>
  <path class="st3" d="M19.2,14.9s0,0,0,0c0,0,0,0,0,0Z"/>
  <path class="st3" d="M33.4,14.6s0,0,0,0c0,0,0,0,0,0Z"/>
  <path class="st2" d="M14.7,17.3s0,0,0,0c0,0,0,0,0,0Z"/>
  <path class="st2" d="M27.3,15s0,0,0,0c0,0,0,0,0,0Z"/>
  <polygon class="st2" points="21.5 15.2 21.5 15.2 21.5 15.2 21.5 15.2"/>
  <polygon class="st2" points="13.6 19.9 13.6 19.9 13.6 19.9 13.6 19.9"/>
  <path class="st0" d="M25.5,23.4c0,0,0-.2,0-.3,0-.2-.2-.3-.4-.4-.2,0-.3,0-.5,0h-1.3s0,0,0,0v.3s0,0,0,0c0,0,0,0,.1,0h1.1c0,0,.1,0,.2,0,0,0,.1,0,.1,0,0,0,.1,0,.2.2,0,0,0,0,0,0,0,0,0,.1,0,.2,0,.1,0,.1-.1.1-.3,0-.6,0-.9,0-.1,0-.2,0-.4,0-.2,0-.3.2-.4.4,0,.2-.1.4,0,.6,0,.3.2.5.5.5.1,0,.2,0,.3,0h1.4s0,0,0,0c0,0,0,0,0,0v-1c0-.3,0-.5,0-.8ZM25,24.8s0,0,0,0,0,0,0,0h-.9c0,0-.2,0-.2,0-.1,0-.2-.1-.2-.2,0,0,0-.2,0-.3,0-.1,0-.2.2-.2,0,0,.1,0,.2,0h.9s0,0,0,0c0,0,0,0,0,0v.6Z"/>
  <path class="st0" d="M22.1,25.3c-.1,0-.3,0-.4,0-.2,0-.3,0-.4,0-.2,0-.3-.2-.5-.3-.1-.2-.2-.4-.2-.6,0-.1,0-.3,0-.4,0-.3,0-.6.3-.8.2-.2.4-.3.7-.4.1,0,.2,0,.3,0,.3,0,.5,0,.8,0,0,0,0,0,0,0,0,0,0,0,0,0,0,0,0,.1,0,.2,0,0,0,.1,0,.2,0,0,0,0,0,0,0,0,0,0,0,0-.3,0-.5,0-.8,0,0,0-.1,0-.2,0-.2,0-.4.2-.4.4,0,.1,0,.3,0,.4,0,.1,0,.3,0,.4,0,.1,0,.2.1.3,0,.1.2.2.3.2,0,0,.2,0,.3,0,.2,0,.5,0,.7,0,0,0,0,0,0,0,0,0,0,0,0,0,0,.1,0,.2,0,.3,0,0,0,0,0,0,0,0-.2,0-.2,0-.1,0-.2,0-.3,0Z"/>
  <path class="st1" d="M23.8,5.9c0,0,0,.1,0,.2,0,0,0,0,0,0,0,0-.2,0-.2,0,0,0,0-.2,0-.2,0-.1,0-.2,0-.3,0,0,0-.1,0-.2,0,0,.1,0,.2,0,0,0,0,0,0,0,0,0,0,0,0,.1,0,.1,0,.3,0,.4Z"/>
  <path class="st1" d="M22.5,5.9c0,0,0,.1,0,.2,0,0,0,0,0,0,0,0-.2,0-.2,0,0,0,0,0,0,0,0-.2,0-.4,0-.6,0,0,0,0,0,0,0,0,.1-.1.2,0,0,0,0,0,0,.1,0,.1,0,.2,0,.3,0,0,0,0,0,.1,0,0,0,0,0,0Z"/>
  <path class="st1" d="M25.1,5.9c0,0,0,.1,0,.2,0,0,0,0,0,0,0,0-.2,0-.2,0,0,0,0,0,0-.1,0-.2,0-.3,0-.5,0,0,0,0,0-.1,0-.1.1-.1.2,0,0,0,0,.1,0,.2,0,.1,0,.3,0,.4Z"/>
  <path class="st0" d="M24.9,3.8s0,0,0,0c-.1,0-.2,0-.3,0,0,0,0,0,0,0,0,0,.1-.1.2-.1,0,0,.1,0,.2.1,0,0,0,0,0,0Z"/>
  <path class="st3" d="M26.1,14.9s0,0,0,0c0,0,0,0,0,0Z"/>
  <path class="st1" d="M25,24.1s0,0,0,0h-.9c0,0-.1,0-.2,0-.1,0-.2.1-.2.2,0,0,0,.2,0,.3,0,.1,0,.2.2.2,0,0,.1,0,.2,0h.9s0,0,0,0,0,0,0,0v-.6s0,0,0,0ZM24.8,24.7s0,0,0,0c0,0-.1,0-.2,0h-.2c-.1,0-.2,0-.4,0,0,0-.1,0-.2,0,0,0,0,0,0,0,0,0,0-.1,0-.2,0,0,0-.1.1-.1,0,0,.1,0,.2,0h.7s0,0,0,0v.4Z"/>
  <path class="st2" d="M13.8,17.9s0,0,0,0,0,0,0,0Z"/>
  <path class="st2" d="M13.9,17.5s0,0,0,0,0,0,0,0Z"/>
  <path class="st0" d="M24.4,24.7c-.1,0-.2,0-.4,0,0,0-.1,0-.2,0,0,0,0,0,0,0,0,0,0-.1,0-.2,0,0,0-.1.1-.1,0,0,.1,0,.2,0,.2,0,.4,0,.6,0,0,0,0,0,0,0,0,0,0,0,0,0,0,.1,0,.3,0,.4,0,0,0,0,0,0,0,0-.1,0-.2,0,0,0-.2,0-.2,0h0Z"/>
  <g>
    <path class="st0" d="M21.4,6.9c0,0-.1,0-.1,0,0,0,0,0,0,0,0,0,0,0,0-.2v-1.4h0l-.6.3h0c0,0,.1,0,.2,0s0,0,0,0c0,0,0,0,0,0,0,0,0,0,0,.1v.9c0,.1,0,.2,0,.2,0,0,0,0,0,0,0,0,0,0-.2,0h0s.9,0,.9,0h0s0,0,0,0Z"/>
    <path class="st0" d="M22.8,5.5c0-.1-.1-.2-.2-.2,0,0-.2,0-.3,0s-.2,0-.3,0c0,0-.2.1-.2.2,0,0,0,.2,0,.3s0,.3.1.4c0,0,.2.1.3.1s0,0,.1,0c0,0,0,0,.1,0,0,.1,0,.2-.1.3,0,0-.1.2-.2.2,0,0-.2.1-.4.1h0c.2,0,.4,0,.6-.1.2-.1.3-.2.4-.4s.1-.3.1-.5,0-.3,0-.4ZM22.5,6.2s0,0,0,0h0s0,0,0,0h0s0,0,0,0c0,0,0,0,0,0,0,0,0,0,0,0,0,0,0,0,0,0,0,0,0,0,0-.2,0,0,0,0,0-.1,0,0,0,0,0-.1s0,0,0,0c0,0,0,0,0,0,0,0,0,0,0,0,0,0,0,0,0,0,0,0,0,0,0,0s0,0,0,0c0,0,0,0,0,.2,0,.1,0,.3,0,.4s0,.2,0,.3Z"/>
    <path class="st0" d="M24.1,5.5c0-.1-.1-.2-.2-.2,0,0-.2,0-.3,0s-.2,0-.3,0c0,0-.2.1-.2.2,0,0,0,.2,0,.3s0,.3.1.4c0,0,.2.1.3.1s0,0,.1,0c0,0,0,0,.1,0,0,.1,0,.2-.1.3,0,0-.1.2-.2.2,0,0-.2.1-.4.1h0c.2,0,.4,0,.6-.1.2-.1.3-.2.4-.4,0-.2.1-.3.1-.5s0-.3,0-.4ZM23.8,6.2s0,0,0,0c0,0,0,0,0,0h0c0,0,0,0-.1,0,0,0,0,0,0,0,0,0,0,0,0-.1,0,0,0,0,0-.1h0c0,0,0-.2,0-.2s0,0,0-.1c0,0,0,0,0,0,0,0,0,0,0,0,0,0,0,0,0,0s0,0,0,0c0,0,0,0,0,.2,0,.1,0,.3,0,.4s0,.2,0,.3Z"/>
    <path class="st0" d="M25.4,5.5c0-.1-.1-.2-.2-.2,0,0-.2,0-.3,0s-.2,0-.3,0c0,0-.2.1-.2.2,0,0,0,.2,0,.3s0,.3.1.4c0,0,.2.1.3.1s0,0,.1,0c0,0,0,0,.1,0,0,.1,0,.2-.1.3,0,0-.1.2-.2.2,0,0-.2.1-.4.1h0c.2,0,.4,0,.6-.1.2-.1.3-.2.4-.4,0-.2.1-.3.1-.5s0-.3,0-.4ZM25.1,6.1s0,0,0,0c0,0,0,0,0,0,0,0,0,0,0,0h0s0,0,0,0h0s0,0,0,0c0,0,0,0,0,0,0,0,0,0,0,0,0,0,0,0,0,0,0,0,0,0,0,0,0,0,0-.2,0-.3s0,0,0-.1c0,0,0,0,0,0,0,0,0,0,0,0,0,0,0,0,0,0,0,0,0,0,0,0s0,0,0,0c0,0,0,0,0,.2,0,.1,0,.3,0,.4s0,.1,0,.2Z"/>
  </g>
</svg>