<?xml version="1.0" encoding="UTF-8"?>
<svg id="Layer_1" xmlns="http://www.w3.org/2000/svg" version="1.1" viewBox="0 0 194 32">
  <!-- Generator: Adobe Illustrator 30.1.0, SVG Export Plug-In . SVG Version: 2.1.1 Build 136)  -->
  <defs>
    <style>
      .st0 {
        fill: #83889e;
      }
    </style>
  </defs>
  <path class="st0" d="M84.2,30.3c-.4,0-.8-.7-1.1-.9-.5-.4-.9-.9-1.3-1.3l-3.1-3.4-1.5-1.6-1.9-2.1-2-2.2-3.1-3.4c-.5-.6-.9-1.1-1.5-1.7s-.5,0-.5.2v15c0,.4-.6,1.2-1,1.2-1.3,0-2.4,0-3.7,0s-1.1-.7-1.1-1.2V2.7c0-.8,1.5-1.1,2.1-.8s0,0,0,0c.6.5,1.1.9,1.6,1.5l1.5,1.8c.8.9,1.7,1.6,2.4,2.5s.8.9,1.2,1.4l4.4,4.6,4,4.2c.2.2.5,0,.5-.2V3.2c0-.3.5-.9.7-.9h4.1c.4,0,.8.3.8.8v26.1c0,.3,0,.5,0,.8s-.1.2-.2.2c-.5,0-.9.1-1.4.2Z"/>
  <path class="st0" d="M97.4,30c0,0-.1,0-.2,0h-3.6c-.2,0-.7-.4-.9-.6s-.1-.1-.1-.2V3.3c0-.4.3-1,.7-1h4.2c.3,0,.8.6.8.9v25.8c0,0,0,.1,0,.2-.2.3-.5.6-.8.8Z"/>
  <g>
    <path class="st0" d="M122.9,19c1.1.5,3.8.4,4.6-2.1s-.5-2.9-1.4-3.1c-2.1-.5-2,1.2-3.1,0s-1.7-1.3-1.6-2.3,1.7-1.4,2-1.4c1.4-.3,2.9-.3,4.3,0s1.4.8,1.9,1.2c.9.7,1.4,1.6,1.8,2.6.7,1.6.7,3.2,0,4.8s-1.1,2.4-2.4,3.2c-2.5,1.5-1.3.6-3.7,1.6s-.2.1-.2.3c-.1,2-1.4,3.5-2.9,4.7s-1.9,1.2-3,1.5-1.2.2-1.8.4c-1.3.3-2.5.3-3.8,0s-1.3-.2-2-.5c-2.3-.9-4.1-2.7-5.1-5s-.4-1.4-.5-2.1-.2-1.8,0-2.8.2-1.1.3-1.5c.6-1.7,1.8-3,3.2-4.2s.1-.4,0-.5h0c0,0-.1,0-.1-.1-.5-.9-1.2-1.8-1.4-2.8-.8-3.8,1.1-7.4,4.6-8.7s1.1-.2,1.6-.3c.9-.3,1.7-.2,2.6,0s2.1.4,3.1.9,2.2,1.3,2.3,2.1-1.4,1.9-2.2,2.3-.2,0-.3,0c-1.7-1.4-4.2-2.2-6.3-1.1s-1.4,1-1.7,1.7-.4,1.9,0,2.8,1.3,1.8,2.4,2.1c1.7.5,4.4-.2,4.4.8v2.5c0,.1-.1.3-.3.3-2.8.4-5.9.6-7.2,3.4s-.7,3.3.4,4.6,1.4,1.6,2.6,1.9,2.6.3,3.9,0,1.9-.8,2.6-1.8.8-1.2.2-1.5c-.9-.5-2-.9-2.9-.4-.3.1-.7.5-1,.7s-.8-.2-1-.2l-1.4-.5c-.3,0-.7-.3-.8-.6s0-.2,0-.3c1.1-2.7,4.1-4.1,6.8-3.1s.8.2,1.1.4l1.9.9Z"/>
    <g>
      <path class="st0" d="M190.9,16c0,7.9-6.4,14.3-14.3,14.3s-14.3-6.4-14.3-14.3,6.4-14.3,14.3-14.3,14.3,6.4,14.3,14.3ZM185.1,16c0-4.7-3.8-8.6-8.6-8.6s-8.6,3.8-8.6,8.6,3.8,8.6,8.6,8.6,8.6-3.8,8.6-8.6Z"/>
      <path class="st0" d="M157.8,22.1c0,0,.2,0,.2.1.8,1.1,3.6,2.8,2.7,4s-3.5,2.8-5.1,3.3-1.2.4-1.8.5c-2,.3-4.1.3-6.2,0s-2.4-.8-2.9-1c-1-.5-3.3-1.9-4-2.9s0,0,0,0c-1.6-1.2-3.3-4.5-3.7-6.3-1-3.8-.5-6.4,1-9.8s1.7-2.8,2.5-3.7l1.2-1.1c.3-.3.8-.7,1.2-.9l1.2-.8c.9-.6,3-1.3,4-1.4,1.8-.3,3.7-.3,5.6,0s1.3.3,1.8.4c1.6.4,3,1.3,4.3,2.3s1.1.9,1.1,1.5-.3.7-.5.9l-1.7,1.8c-.3.3-.7.9-1.2.9s-.8-.5-1.1-.7c-1.3-1-2.8-1.4-4.4-1.8s-1.5,0-2.3,0c-2.2.4-4,1.5-5.4,3.4s-2.1,4.8-1.5,6.8l.4,1.5c.2.7.5,1.5,1,2l.6.7c1.5,1.7,2.4,2.1,4.7,2.6s1.8.4,2.7,0,0,0,.1,0c1.1,0,2-.4,2.9-.9,1.7-.8,1.4-1.4,2.5-1.3Z"/>
    </g>
  </g>
  <g>
    <path class="st0" d="M58.1,16.1c0,7.9-6.4,14.3-14.3,14.3s-14.3-6.4-14.3-14.3S35.9,1.8,43.8,1.8s14.3,6.4,14.3,14.3ZM52.3,16.1c0-4.7-3.8-8.5-8.5-8.5s-8.5,3.8-8.5,8.5,3.8,8.5,8.5,8.5,8.5-3.8,8.5-8.5Z"/>
    <path class="st0" d="M20.4,24.1c1.6-.4,2.1-1.1,3.4-1.9s.2,0,.3,0c.9.4,3.4,2.9,3.5,3.5s-2,2-2.6,2.5-.6.5-1,.6l-1.7.7c-2.3.9-5.8.7-8.2.4s0,0,0,0c-2.4-.7-4.6-1.8-6.4-3.6l-1.4-1.4c-.5-.6-.9-1.4-1.4-2.1-.7-1.1-1.2-2.8-1.4-4.1s-.3-3.5,0-5.2.9-3.2,1.4-4l.7-1.1C8.4,3.5,14.4,1,20.1,2s3.2.8,4.6,1.7l1.4,1c.3.2,1.2,1.1,1.3,1.2.4.6-1.7,2.5-2.3,3s0,0,0,0c-.3.5-.8,1.1-1.5.8s-.7-.7-1.1-.9c-3.3-2.1-6.9-2.2-10.1.1s-1.4,1.4-2,2.3-.7,1.4-1,2.7c-.5,2-.2,3.5.4,5.5s.4.8.6,1.1c1.2,2,3,3.3,5.3,3.8s2.1.3,3.1,0l1.5-.4Z"/>
  </g>
</svg>