<?xml version="1.0" encoding="UTF-8"?>
<svg id="logo-hyatt" xmlns="http://www.w3.org/2000/svg" viewBox="0 0 132 32">
<g clip-path="url(#clip0_19650_3961)">
                <rect width="132" height="32" fill="white" />
                <mask id="mask0_19650_3961" style="mask-type:luminance" maskUnits="userSpaceOnUse" x="-39" y="-82" width="200" height="196">
                    <path d="M-38.9844 113.988H160.477V-81.5393H-38.9844V113.988Z" fill="white" />
                </mask>
                <g mask="url(#mask0_19650_3961)">
                    <path d="M67.9961 18.0293L62.9881 5.43186L58.0091 17.9456C59.3045 17.9049 60.615 17.8812 61.9544 17.8812C64.0219 17.8812 66.0337 17.9317 67.9961 18.0293ZM109.559 30.8016C98.8269 26.1326 86.7573 22.6748 72.5752 21.5075L76.8936 32H73.551L69.2883 21.2811C66.9066 21.1492 64.4637 21.0751 61.9597 21.0751C60.1839 21.0751 58.4402 21.1116 56.7244 21.1813L52.4209 32H49.0762L53.4547 21.3551C38.4114 22.3422 25.5998 25.9083 14.3462 30.7984V30.1375C21.8572 25.9437 29.2844 22.8132 37.3026 20.7683V14.328L28.2721 0.459179H31.6276L38.7932 11.9827L45.962 0.459179H49.3132L40.2849 14.328L40.2827 20.0624C44.8714 19.0657 49.6682 18.4069 54.7973 18.0947L62.2396 0H63.7313L71.2326 18.2385C76.2674 18.6408 80.9869 19.3822 85.5112 20.4668V2.87203H78.1333V0.459179H95.9412V2.87203H88.5664V21.2597C95.8414 23.2927 102.667 26.2495 109.559 30.144V30.8016ZM121.491 0.459179H103.685V2.87203H111.062V24.6188H114.115V2.87203H121.491V0.459179ZM19.2727 24.6188L16.2197 24.622V12.7004H3.05305V24.6188H0V0.459179H3.05305V10.2897H16.2197V0.459179H19.2727V24.6188Z" fill="#83889E" />
                    <path d="M129.545 2.34048C129.399 2.25465 129.163 2.21281 128.84 2.21281H128.342V3.42191H128.869C129.118 3.42191 129.301 3.39509 129.426 3.34681C129.652 3.25133 129.77 3.07967 129.77 2.82648C129.77 2.58509 129.693 2.42416 129.545 2.34048ZM128.917 1.818C129.325 1.818 129.628 1.85769 129.822 1.93494C130.164 2.0787 130.335 2.36194 130.335 2.7782C130.335 3.07324 130.227 3.29317 130.013 3.43479C129.897 3.50882 129.74 3.55924 129.531 3.5925C129.796 3.63327 129.983 3.74162 130.105 3.91757C130.221 4.09352 130.282 4.26625 130.282 4.43469V4.67608C130.282 4.7544 130.285 4.83701 130.291 4.92176C130.296 5.00974 130.304 5.0666 130.32 5.09771L130.34 5.13848H129.796C129.793 5.12668 129.79 5.11702 129.787 5.10629C129.783 5.09449 129.783 5.07947 129.78 5.0666L129.766 4.95931V4.69539C129.766 4.31346 129.658 4.06026 129.452 3.93688C129.325 3.86715 129.113 3.8296 128.801 3.8296H128.342V5.13848H127.754V1.818H128.917ZM127.139 1.64634C126.632 2.15595 126.381 2.77177 126.381 3.49058C126.381 4.21475 126.631 4.83272 127.135 5.34339C127.64 5.85622 128.252 6.10941 128.974 6.10941C129.694 6.10941 130.308 5.85622 130.816 5.34339C131.319 4.83272 131.572 4.21475 131.572 3.49058C131.572 2.77177 131.319 2.15595 130.816 1.64634C130.304 1.13888 129.691 0.883543 128.974 0.883543C128.256 0.883543 127.647 1.13888 127.139 1.64634ZM131.112 5.63092C130.524 6.22635 129.812 6.52246 128.974 6.52246C128.136 6.52246 127.424 6.22635 126.834 5.63092C126.251 5.03763 125.959 4.32526 125.959 3.48736C125.959 2.6559 126.254 1.94352 126.845 1.35345C127.433 0.764457 128.143 0.469421 128.974 0.469421C129.812 0.469421 130.524 0.764457 131.112 1.35345C131.705 1.93816 132 2.65268 132 3.48736C132 4.32204 131.705 5.03656 131.112 5.63092Z" fill="#83889E" />
                </g>
            </g>
            <defs>
                <clipPath id="clip0_19650_3961">
                    <rect width="132" height="32" fill="white" />
                </clipPath>
            </defs>
</svg>
