<?xml version="1.0" encoding="UTF-8"?>
<svg id="logo-hilton" xmlns="http://www.w3.org/2000/svg" viewBox="0 0 86 32">
<g clip-path="url(#clip0_19650_3972)">
                <path d="M0 16V32H43H86V16V0H43H0V16ZM84.5629 16V30.5592L43.0227 30.5441L1.47493 30.5213L1.45224 15.9773L1.43712 1.44076H43H84.5629V16Z" fill="#83889E" />
                <path d="M7.41248 7.76491V8.17439L7.73772 8.22747C7.91168 8.25022 8.16885 8.29572 8.305 8.31847L8.54704 8.35638L8.53191 15.9924L8.50922 23.6208L7.96463 23.6815L7.41248 23.7497V24.1971V24.6445H10.2867H13.1609V24.1971V23.7497L12.6163 23.6815L12.0642 23.6208L12.0415 20.1478L12.0264 16.6824H15.8083H19.5901V20.1251C19.5901 22.999 19.575 23.5753 19.4842 23.6057C19.4237 23.6284 19.1363 23.6739 18.8413 23.7042L18.3043 23.7573V24.1971V24.6445H21.2542H24.204V24.1971V23.7497L23.6973 23.6967C23.425 23.6663 23.1527 23.6284 23.0922 23.6057C23.009 23.5753 22.9938 22.2104 22.9938 15.9621V8.35638L23.2964 8.31088C23.4628 8.28813 23.7351 8.24264 23.9015 8.21989L24.204 8.17439V7.76491V7.35543H21.2542H18.3043V7.76491V8.17439L18.6674 8.21989C18.864 8.25022 19.1514 8.28813 19.3103 8.31088L19.5901 8.35638V11.6095V14.8625H15.8083H12.0264V11.6095V8.35638L12.3516 8.3033C13.2441 8.16681 13.1609 8.21989 13.1609 7.76491V7.35543H10.2867H7.41248V7.76491Z" fill="#83889E" />
                <path d="M28.6591 7.56758C27.0859 8.38654 27.7137 10.7676 29.4987 10.7676C30.0357 10.7676 30.4517 10.5704 30.7997 10.1685C31.367 9.50123 31.367 8.62161 30.7921 7.95431C30.2627 7.32492 29.4079 7.17327 28.6591 7.56758Z" fill="#83889E" />
                <path d="M34.5664 7.727V8.09856L35.0807 8.15922L35.5875 8.22747L35.6102 15.9772L35.6253 23.7194L35.4211 23.7649C35.3001 23.7877 35.0656 23.8256 34.8916 23.8483L34.5664 23.9014V24.273V24.6445H37.2515H39.9367V24.273V23.9014L39.619 23.8483C39.4375 23.8256 39.203 23.7877 39.0895 23.7649L38.8778 23.7194V15.5374V7.35543H36.7221H34.5664V7.727Z" fill="#83889E" />
                <path d="M44.9515 9.28186L43.4161 9.74442V11.0487V12.3605H42.2437H41.0713V12.9293V13.498H42.1983H43.3329L43.3555 18.1008C43.3858 23.2269 43.3858 23.1738 43.9077 23.9018C44.7019 24.9937 47.0769 25.1074 49.9058 24.1823L50.3747 24.0231V23.606V23.189L50.1478 23.242C50.0192 23.2724 49.4822 23.2951 48.9527 23.2951C47.5761 23.3027 47.1374 23.1359 46.8046 22.461L46.6307 22.1046L46.608 17.7975L46.5853 13.498H48.03H49.4671V12.9293V12.3605H48.03H46.5928V10.5785C46.5928 9.60034 46.5701 8.79655 46.5399 8.80413C46.5021 8.81171 45.7911 9.02404 44.9515 9.28186Z" fill="#83889E" />
                <path d="M56.5769 12.0263C55.4423 12.1779 54.0279 12.7466 53.2337 13.376C52.3034 14.1192 51.5546 15.3021 51.2066 16.5684C50.9722 17.4177 50.9116 19.3059 51.0856 20.3144C51.3352 21.7248 51.7437 22.5969 52.5681 23.431C53.5514 24.4244 54.9053 24.9097 56.9551 24.9931C59.1183 25.0917 60.8883 24.5154 62.1741 23.3021C63.3919 22.1571 63.9591 20.8301 64.0423 18.9571C64.0953 17.7666 63.9818 16.8642 63.6566 15.9087C63.3238 14.9154 63.0061 14.4073 62.2875 13.6869C61.7959 13.1865 61.5463 13.012 60.9639 12.7163C59.973 12.231 59.2091 12.0566 57.9006 12.0187C57.3182 12.0035 56.7206 12.0111 56.5769 12.0263ZM57.9384 12.9666C58.8233 13.1334 59.4284 13.6414 59.8671 14.5969C60.3437 15.6282 60.5101 16.6291 60.5101 18.5324C60.5101 22.3315 59.5873 24.0452 57.5224 24.0528C56.7736 24.0604 56.229 23.8481 55.7676 23.3628C54.807 22.377 54.338 20.0869 54.5347 17.4026C54.7313 14.7106 55.5407 13.2547 56.9778 12.9666C57.424 12.8831 57.4921 12.8831 57.9384 12.9666Z" fill="#83889E" />
                <path d="M73.4593 12.1403C72.5138 12.2616 71.349 12.7848 70.3582 13.5355C70.0556 13.763 69.7682 13.9526 69.7304 13.9526C69.6926 13.9526 69.6623 13.5962 69.6623 13.1564V12.3602H67.5066H65.351V12.7697V13.1791L65.714 13.2246C65.9107 13.255 66.1603 13.2929 66.2813 13.3156L66.4855 13.3611V18.5403V23.7194L66.0544 23.7649C65.351 23.8483 65.351 23.8483 65.351 24.273V24.6445H68.0739H70.7969V24.2654C70.7969 24.0531 70.7742 23.8862 70.7439 23.8787C70.7061 23.8711 70.4641 23.8332 70.1918 23.7801L69.7001 23.6967V19.2986V14.9005L70.0783 14.6502C70.2901 14.5137 70.7288 14.2938 71.0616 14.1649C71.5835 13.9526 71.7575 13.9223 72.3474 13.9147C73.0962 13.9147 73.4442 14.0436 73.8375 14.4606C74.435 15.09 74.5182 15.7952 74.488 20.2464L74.4653 23.6967L73.9736 23.7801C73.7013 23.8332 73.4593 23.8711 73.4291 23.8787C73.3912 23.8862 73.3685 24.0531 73.3685 24.2654V24.6445H76.0915H78.8145V24.273C78.8145 23.8483 78.8145 23.8483 78.1186 23.7725L77.6875 23.7194L77.6648 19.3061C77.6421 14.9384 77.6345 14.8929 77.4605 14.3697C77.2261 13.6493 76.9991 13.2777 76.5453 12.8682C76.0991 12.4663 75.5318 12.2313 74.7754 12.1327C74.1703 12.0493 74.1174 12.0493 73.4593 12.1403Z" fill="#83889E" />
                <path d="M26.7758 12.7317V13.1033L27.1388 13.1488C27.3355 13.1791 27.5851 13.217 27.7061 13.2398L27.9103 13.2853L27.8952 18.4872L27.8725 23.6967L27.3809 23.7801C27.1086 23.8332 26.8665 23.8711 26.8363 23.8787C26.7984 23.8862 26.7758 24.0531 26.7758 24.2654V24.6445H29.5063H32.2292L32.2065 24.2957C32.1763 23.8787 32.1233 23.8332 31.5258 23.7725L31.0871 23.727V18.0398V12.3602H28.9314H26.7758V12.7317Z" fill="#83889E" />
            </g>
            <defs>
                <clipPath id="clip0_19650_3972">
                    <rect width="86" height="32" fill="white" />
                </clipPath>
            </defs>
</svg>
