<?xml version="1.0" encoding="UTF-8"?>
<svg id="Layer_1" xmlns="http://www.w3.org/2000/svg" version="1.1" viewBox="0 0 130 32">
  <!-- Generator: Adobe Illustrator 30.1.0, SVG Export Plug-In . SVG Version: 2.1.1 Build 136)  -->
  <defs>
    <style>
      .st0 {
        fill: #83889e;
        fill-rule: evenodd;
      }
    </style>
  </defs>
  <path class="st0" d="M2.2,2.5h26.8v26.8H2.2V2.5ZM20.4,11.1h7.6V3.5h-7.6v7.6ZM20.4,19.7h7.6v-7.6h-7.6v7.6ZM20.4,28.3h7.6v-7.6h-7.6v7.6ZM10.8,20.7H3.2v7.6h7.6v-7.6ZM10.8,12.1H3.2v7.6h7.6v-7.6ZM10.8,3.5H3.2v7.6h7.6V3.5ZM11.8,11.1h7.6V3.5h-7.6v7.6ZM11.8,19.7h7.6v-7.6h-7.6v7.6ZM11.8,28.3h7.6v-7.6h-7.6v7.6ZM86.4,6.7V2.4h1.1v9.6h-1.1v-4.3h-5.2v4.3h-1.1V2.4h1.1v4.2h5.2ZM108.9,2.4h1.1v6c0,2.5-1.4,3.7-3.6,3.7s-3.6-1.2-3.6-3.7V2.4h1.1v6c0,1.7.8,2.6,2.5,2.6s2.5-.9,2.5-2.6V2.4ZM116.4,6.7c1.4.3,2.9.7,2.9,2.6s-1.5,2.8-3.2,2.8-3.6-1.1-3.6-3.1,0-.4,0-.6h1.2c0,.2,0,.4,0,.5,0,1.3,1.2,2,2.5,2s2-.6,2-1.6-1.1-1.5-2.3-1.8c-1.3-.3-2.9-.7-2.9-2.7s1.2-2.7,2.9-2.7,2.5.7,2.9,1.7l-1,.6c-.4-.7-1.2-1.1-2-1.1s-1.7.6-1.7,1.5,1.1,1.5,2.3,1.8M127.8,3.5h-4.9v3.2h4.2v1.1h-4.2v3.2h4.9v1.1h-6V2.5h6v1.1ZM45.1,12.4c-2.8,0-5.1-2.3-5.1-5.1s2.3-5.1,5.1-5.1,5.1,2.3,5.1,5.1-2.3,5.1-5.1,5.1M48.9,7.4c0-2.1-1.7-3.9-3.9-3.9s-3.9,1.7-3.9,3.9,1.7,3.9,3.9,3.9,3.9-1.7,3.9-3.9M38.1,9.4c0,1.9-1.5,2.8-3.2,2.8s-3.6-1.1-3.6-3.1,0-.4,0-.6h1.2c0,.2,0,.4,0,.5,0,1.3,1.2,2,2.5,2s2-.5,2-1.6-1.1-1.5-2.3-1.8c-1.4-.3-2.9-.7-2.9-2.7s1.2-2.8,2.9-2.8,2.5.7,3,1.7l-1,.6c-.4-.7-1.2-1.1-2-1.1s-1.7.6-1.7,1.5,1.1,1.5,2.3,1.8c1.4.3,2.9.7,2.9,2.6M95.1,12.4c-2.8,0-5.1-2.3-5.1-5.1s2.3-5.1,5.1-5.1,5.1,2.3,5.1,5.1-2.3,5.1-5.1,5.1M98.9,7.4c0-2.1-1.7-3.9-3.9-3.9s-3.9,1.7-3.9,3.9,1.7,3.9,3.9,3.9,3.9-1.7,3.9-3.9M58.9,6.7V2.4h1.1v9.6h-1.1v-4.3h-5.2v4.3h-1.1V2.4h1.1v4.2h5.2ZM67.5,12.4c-2.8,0-5.1-2.3-5.1-5.1s2.3-5.1,5.1-5.1,5.1,2.3,5.1,5.1-2.3,5.1-5.1,5.1M71.4,7.4c0-2.1-1.7-3.9-3.9-3.9s-3.9,1.7-3.9,3.9,1.7,3.9,3.9,3.9,3.9-1.7,3.9-3.9M62.6,29.7c-2.8,0-5.1-2.3-5.1-5.1s2.3-5.1,5.1-5.1,5.1,2.3,5.1,5.1-2.3,5.1-5.1,5.1M66.5,24.6c0-2.1-1.7-3.9-3.9-3.9s-3.9,1.7-3.9,3.9,1.7,3.9,3.9,3.9,3.9-1.7,3.9-3.9M96.6,29.3c-.3,0-.6-.3-.6-.6s.3-.6.6-.6.6.3.6.6-.3.6-.6.6M54,22.5c-.7-1-1.9-1.7-3.2-1.7-2.1,0-3.9,1.7-3.9,3.9s1.7,3.9,3.9,3.9,2.9-1,3.5-2.3l1.1.4c-.8,1.8-2.6,3.1-4.7,3.1s-5.1-2.3-5.1-5.1,2.3-5.1,5.1-5.1,3.4.9,4.3,2.4l-1.1.5ZM90.7,23.1c-1.5,0-2.7,1.2-2.7,2.7s1.2,2.7,2.7,2.7,2.1-.7,2.5-1.6l.8.3c-.5,1.3-1.8,2.2-3.3,2.2s-3.6-1.6-3.6-3.6,1.6-3.6,3.6-3.6,2.4.7,3,1.7l-.8.4c-.5-.7-1.3-1.2-2.3-1.2M75.1,29.3v-9.6h1.1v9.6h-1.1ZM84.9,29.3h-1v-4.6c0-.8-.6-1.4-1.6-1.4s-2,.8-2,1.9v4.1h-1.1v-6.9h1.1v.8c.4-.7,1.1-.9,2.1-.9,1.6,0,2.5,1,2.5,2.4v4.6ZM31.4,26.9c0-1.5.9-2.2,2-2.7-.5-.6-1-1.3-1-2.2,0-1.4,1.2-2.4,2.7-2.4s2.8,1.1,2.8,2.6h-1.2c0-.9-.7-1.5-1.6-1.5s-1.5.6-1.5,1.4.4,1.3,1,1.9l3.1,2.8c.4-.6.8-1.3,1.1-2h1.1c-.3,1.1-.8,2-1.4,2.7l2,1.8h-1.7l-1.1-1c-.9.9-2.1,1.4-3.2,1.4-1.8,0-3.1-1.1-3.1-2.7M37,27.5l-2.8-2.6c-1,.4-1.6.9-1.6,1.9s.9,1.7,2.1,1.7,1.6-.4,2.3-1"/>
</svg>