<?xml version="1.0" encoding="UTF-8"?>
<svg id="logo-westin" xmlns="http://www.w3.org/2000/svg" viewBox="0 0 101 32">
<g clip-path="url(#clip0_19650_4062)">
                <path d="M30.9148 0H25.1938C25.8082 0.308113 26.1779 1.04584 26.1779 1.84607C26.1779 2.5838 25.9627 3.59928 25.5314 4.73713L22.6708 12.643L17.5338 0H12.9202C14.2116 0.984225 14.8269 2.98392 13.8731 5.19886L10.4901 13.0128L5.38348 0H0C0.861807 0.58498 1.50751 1.93807 2.27645 3.81453L7.53668 17.0113C8.244 18.7958 9.0442 19.7184 10.7357 20.5186L16.2112 8.18278L19.9639 17.0113C20.7328 18.7654 21.5018 19.7184 23.1942 20.5186L30.9148 0Z" fill="#83889E" />
                <path d="M43.113 16.7044C41.7904 17.6886 40.4061 18.1191 38.4681 18.1191C37.4223 18.1191 36.4997 18.0271 35.8228 17.8726V12.8282H37.2375C38.9602 12.8282 39.5443 12.9515 40.006 13.474V10.5213H35.8228V6.36826C35.8228 6.36826 36.4685 6.27539 37.7912 6.27539C39.3299 6.27539 40.4061 6.52189 41.0214 7.19887V4.15332H30.993C31.7932 4.58381 31.9165 5.22954 31.9165 7.90622V16.4891C31.9165 19.1649 31.7932 19.8115 30.993 20.242H41.9752L43.113 16.7044Z" fill="#83889E" />
                <path d="M56.0957 15.2581C56.0957 10.3361 48.6206 10.6746 48.6206 7.65945C48.6206 6.76723 49.4208 5.99825 50.805 5.99825C52.2813 5.99825 53.5424 6.52161 54.9266 7.84432V4.33704C53.512 3.96817 52.3733 3.75293 50.9586 3.75293C47.8829 3.75293 44.7446 5.599 44.7446 8.64455C44.7446 14.181 52.2197 13.3817 52.2197 16.488C52.2197 17.5954 51.2355 18.3957 49.5431 18.3957C47.6364 18.3957 45.7904 17.6267 43.8837 15.9655L44.8982 19.8104C46.437 20.3641 47.7284 20.641 49.1439 20.641C53.0815 20.641 56.0957 18.4877 56.0957 15.2581Z" fill="#83889E" />
                <path d="M70.3811 4.15332H57.2466L56.3544 7.19886C57.3385 6.52188 58.2307 6.27539 59.8606 6.27539H61.4297V16.4891C61.4297 19.1649 61.3065 19.8115 60.4759 20.242H66.2283C65.429 19.8115 65.3057 19.1649 65.3057 16.4891V6.27539H66.69C68.1359 6.27539 69.1201 6.49064 69.6121 7.19886L70.3811 4.15332Z" fill="#83889E" />
                <path d="M77.921 20.242C77.1208 19.8115 76.9985 19.1658 76.9985 16.4891V7.90622C76.9985 5.23041 77.1208 4.58381 77.921 4.15332H72.1687C72.9689 4.58381 73.0913 5.23041 73.0913 7.90622V16.4891C73.0913 19.1658 72.9689 19.8115 72.1687 20.242H77.921Z" fill="#83889E" />
                <path d="M97.0207 4.15332H91.7614C92.8072 4.70706 92.9295 5.87615 92.9295 7.6606V14.1813L86.193 6.18339C85.5161 5.35279 85.0552 4.7383 84.6239 4.15332H79.9799C80.9328 4.70706 81.3945 5.7529 81.3945 7.9366V16.7347C81.3945 18.5192 81.2713 19.6883 80.2255 20.242H85.4857C84.4399 19.6883 84.3167 18.5192 84.3167 16.7347V10.0908L91.2684 18.3343C92.2526 19.5034 93.5145 19.9955 95.8517 20.3653V7.6606C95.8517 5.87615 96.0053 4.70706 97.0207 4.15332Z" fill="#83889E" />
                <path d="M8.82394 29.3611V30.7784C8.82394 31.1308 8.87863 31.7028 8.47937 31.8512V31.8746H9.97475V31.8512C9.57553 31.7028 9.62239 31.1308 9.62239 30.7784V27.8188C9.62239 27.4664 9.57553 26.8945 9.97475 26.7461V26.7227H8.47937V26.7461C8.8786 26.8945 8.82394 27.4664 8.82394 27.8266V28.7978H5.99724V27.8266C5.99724 27.4664 5.95037 26.8945 6.34179 26.7461V26.7227H4.85425V26.7461C5.25347 26.8945 5.19879 27.4664 5.19879 27.8188V30.7784C5.19879 31.1308 5.24566 31.7028 4.85425 31.8512V31.8746H6.34179V31.8512C5.95037 31.7028 5.99724 31.1308 5.99724 30.7784V29.3611H8.82394Z" fill="#83889E" />
                <path d="M15.043 27.1539C16.2806 27.1539 17.0088 28.2579 17.0088 29.401C17.0088 30.5675 16.2485 31.4371 15.0586 31.4371C13.8297 31.4371 13.0538 30.3097 13.0538 29.2135C13.0538 28.0305 13.8297 27.1539 15.043 27.1539ZM15.0977 26.5898C13.4539 26.5507 12.1616 27.7962 12.1616 29.2829C12.1616 30.8886 13.4695 32.0004 15.0196 32.0004C16.5774 32.0004 17.9009 30.8417 17.9009 29.2447C17.9009 27.8352 16.7423 26.582 15.0977 26.5898Z" fill="#83889E" />
                <path d="M21.7565 27.2858H22.4612C22.7199 27.2858 23.0323 27.3249 23.1347 27.5991H23.1581L23.4089 26.667H23.3856C23.2831 26.7148 23.1582 26.7225 23.0245 26.7225H20.1041H19.9088C19.8064 26.7069 19.7049 26.7069 19.6111 26.667H19.5877L19.3135 27.5991H19.3369C19.5799 27.3717 19.9322 27.2858 20.269 27.2858H20.9581V30.7783C20.9581 31.1307 21.0049 31.7027 20.6135 31.8511V31.8745H22.1636V31.8511C21.7487 31.6081 21.7565 31.3034 21.7565 30.8565V27.2858Z" fill="#83889E" />
                <path d="M26.6533 29.3612H27.233C27.4752 29.3612 27.8041 29.3534 27.9299 29.5808H27.9533V28.751H27.9299C27.8353 28.7979 27.7103 28.7979 27.5854 28.7979H26.6533V27.3406C26.9041 27.2938 27.1783 27.2859 27.4517 27.2859C27.8119 27.2859 28.133 27.3181 28.376 27.5993H28.3994V26.6836H28.376C28.2745 26.7382 28.1408 26.7226 28.008 26.7226H25.5024V26.746C25.9017 26.8944 25.8548 27.4664 25.8548 27.8266V30.7784C25.8548 31.1308 25.9017 31.7105 25.5024 31.8511V31.8745H28.7674L29.1198 30.8487H29.0964C28.705 31.1932 28.1643 31.3581 27.6479 31.3113L26.6533 31.2175L26.6533 29.3612Z" fill="#83889E" />
                <path d="M32.3871 31.241V27.8266C32.3871 27.4742 32.3325 26.8953 32.7317 26.7461V26.7227H31.2363V26.7461C31.6356 26.8953 31.5887 27.4664 31.5887 27.8266V30.7793C31.5887 31.1308 31.6356 31.7106 31.2363 31.8521V31.8755H34.4544L34.8615 30.8339H34.8381C34.4466 31.1629 33.9841 31.3425 33.4521 31.3113L32.3871 31.241Z" fill="#83889E" />
                <path d="M39.9766 26.7695C39.6008 26.6523 39.2016 26.5977 38.8102 26.5977C37.8547 26.5977 36.8444 26.9726 36.8444 27.9594C36.8444 29.6198 39.5384 29.4002 39.5384 30.6222C39.5384 31.1699 38.8649 31.4363 38.4188 31.4363C37.8078 31.4363 37.1656 31.1855 36.7039 30.7863L36.9304 31.7653C37.3773 31.9293 37.8547 31.9996 38.332 31.9996C39.554 31.9996 40.4305 31.2176 40.4305 30.3792C40.4305 28.9306 37.7375 28.9463 37.7375 27.8735C37.7375 27.3328 38.3007 27.1609 38.7477 27.1609C39.186 27.1609 39.6711 27.3406 39.9766 27.6539V26.7695Z" fill="#83889E" />
                <path d="M48.7993 30.7861C48.5251 31.1463 48.1258 31.4596 47.6485 31.4596C47.0453 31.4596 46.5524 31.076 46.5524 30.4337C46.5524 29.9477 46.8735 29.5493 47.2571 29.2751L48.7993 30.7861ZM47.3899 28.3742C47.179 28.1867 46.8422 27.8734 46.8422 27.56C46.8422 27.2623 47.0766 27.1139 47.3586 27.1139C47.6485 27.1139 47.8984 27.2936 47.8984 27.5913C47.8984 27.9124 47.6407 28.1945 47.3899 28.3742ZM51.6338 31.8745V31.8511C50.1541 31.1698 49.0033 29.9564 47.8368 28.8368C48.1961 28.5157 48.5173 28.1945 48.5173 27.6772C48.5173 27.0272 48.0165 26.5967 47.3899 26.5967C46.7789 26.5967 46.1688 27.0359 46.1688 27.6851C46.1688 28.1234 46.5055 28.4922 46.7945 28.7891C46.2234 29.2438 45.714 29.7056 45.714 30.4806C45.714 31.4518 46.5992 31.9761 47.4836 31.9761C48.2361 31.9761 48.7134 31.7027 49.1126 31.0595C49.3556 31.2948 49.7627 31.6003 50.0447 31.7495C50.2556 31.8589 50.5064 31.8745 50.7807 31.8745L51.6338 31.8745Z" fill="#83889E" />
                <path d="M56.1266 26.7227V26.7461C56.5258 26.8954 56.4711 27.4665 56.4711 27.8267V30.7785C56.4711 31.1309 56.5258 31.7106 56.1266 31.8521V31.8755H57.6219V31.8521C57.2227 31.7106 57.2696 31.1395 57.2696 30.7785V27.2712C57.4501 27.2391 57.622 27.2157 57.8025 27.2078C58.3267 27.1844 58.8127 27.5133 58.8127 28.0775C58.8127 28.8135 58.0845 29.1034 57.4579 29.1971L58.1783 30.3011L59.1329 31.4832C59.3681 31.7731 59.6267 31.8755 60.0416 31.8755H60.7619C60.3158 31.5934 59.822 31.1864 59.494 30.7785L58.3657 29.3611C59.008 29.2127 59.6111 28.672 59.6111 27.9829C59.6111 27.2712 59.0392 26.7227 57.9908 26.7227H56.1266Z" fill="#83889E" />
                <path d="M63.8167 29.3612H64.3964C64.6386 29.3612 64.9675 29.3534 65.0934 29.5808H65.1168V28.751H65.0934C64.9988 28.7979 64.8738 28.7979 64.7488 28.7979H63.8167V27.3406C64.0667 27.2938 64.3418 27.2859 64.6152 27.2859C64.9753 27.2859 65.2965 27.3181 65.5395 27.5993H65.5629V26.6836H65.5395C65.4379 26.7382 65.3043 26.7226 65.1715 26.7226H62.6659V26.746C63.0651 26.8944 63.0183 27.4664 63.0183 27.8266V30.7784C63.0183 31.1308 63.0651 31.7105 62.6659 31.8511V31.8745H65.9309L66.2832 30.8487H66.2598C65.8684 31.1932 65.3277 31.3581 64.8113 31.3113L63.8167 31.2175L63.8167 29.3612Z" fill="#83889E" />
                <path d="M71.5721 26.7695C71.1963 26.6523 70.7971 26.5977 70.4057 26.5977C69.4501 26.5977 68.4399 26.9726 68.4399 27.9594C68.4399 29.6198 71.1338 29.4002 71.1338 30.6222C71.1338 31.1699 70.4603 31.4363 70.0134 31.4363C69.4033 31.4363 68.761 31.1855 68.2993 30.7863L68.5258 31.7653C68.9728 31.9293 69.4501 31.9996 69.9275 31.9996C71.1494 31.9996 72.026 31.2176 72.026 30.3792C72.026 28.9306 69.333 28.9463 69.333 27.8735C69.333 27.3328 69.8962 27.1609 70.3423 27.1609C70.7814 27.1609 71.2666 27.3406 71.5721 27.6539V26.7695Z" fill="#83889E" />
                <path d="M77.0084 27.1539C78.246 27.1539 78.9741 28.2579 78.9741 29.401C78.9741 30.5675 78.2138 31.4371 77.024 31.4371C75.7942 31.4371 75.0192 30.3097 75.0192 29.2135C75.0192 28.0305 75.7942 27.1539 77.0084 27.1539ZM77.063 26.5898C75.4184 26.5507 74.127 27.7962 74.127 29.2829C74.127 30.8886 75.4348 32.0004 76.9849 32.0004C78.5427 32.0004 79.8663 30.8417 79.8663 29.2447C79.8663 27.8352 78.7076 26.582 77.063 26.5898Z" fill="#83889E" />
                <path d="M82.0314 26.7227V26.7461C82.4306 26.8954 82.3759 27.4665 82.3759 27.8267V30.7785C82.3759 31.1309 82.4306 31.7106 82.0314 31.8521V31.8755H83.5267V31.8521C83.1275 31.7106 83.1744 31.1395 83.1744 30.7785V27.2712C83.3549 27.2391 83.5267 27.2157 83.7073 27.2078C84.2315 27.1844 84.7175 27.5133 84.7175 28.0775C84.7175 28.8135 83.9893 29.1034 83.3627 29.1971L84.0831 30.3011L85.0377 31.4832C85.2729 31.7731 85.5316 31.8755 85.9464 31.8755H86.6667C86.2207 31.5934 85.7277 31.1864 85.3988 30.7785L84.2714 29.3611C84.9127 29.2127 85.5159 28.672 85.5159 27.9829C85.5159 27.2712 84.9449 26.7227 83.8956 26.7227H82.0314Z" fill="#83889E" />
                <path d="M90.1738 27.2858H90.8785C91.1371 27.2858 91.4504 27.3249 91.552 27.5991H91.5754L91.8262 26.667H91.8028C91.7004 26.7148 91.5754 26.7225 91.4426 26.7225H88.5222H88.326C88.2245 26.7069 88.123 26.7069 88.0284 26.667H88.005L87.7307 27.5991H87.755C87.9972 27.3717 88.3495 27.2858 88.6863 27.2858H89.3753V30.7783C89.3753 31.1307 89.4222 31.7027 89.0308 31.8511V31.8745H90.5817V31.8511C90.166 31.6081 90.1738 31.3034 90.1738 30.8565L90.1738 27.2858Z" fill="#83889E" />
                <path d="M96.6265 26.7695C96.2507 26.6523 95.8515 26.5977 95.4601 26.5977C94.5046 26.5977 93.4944 26.9726 93.4944 27.9594C93.4944 29.6198 96.1874 29.4002 96.1874 30.6222C96.1874 31.1699 95.5148 31.4363 95.0687 31.4363C94.4577 31.4363 93.8155 31.1855 93.3538 30.7863L93.5803 31.7653C94.0272 31.9293 94.5046 31.9996 94.9819 31.9996C96.2039 31.9996 97.0804 31.2176 97.0804 30.3792C97.0804 28.9306 94.3874 28.9463 94.3874 27.8735C94.3874 27.3328 94.9507 27.1609 95.3976 27.1609C95.835 27.1609 96.321 27.3406 96.6265 27.6539V26.7695Z" fill="#83889E" />
                <path d="M98.9162 6.21091V5.60163H99.3223C99.5298 5.60163 99.7511 5.64676 99.7511 5.89065C99.7511 6.19269 99.5254 6.21091 99.2729 6.21091H98.9162ZM98.9162 6.46348H99.259L99.778 7.31578H100.111L99.5523 6.44959C99.8414 6.41397 100.063 6.26039 100.063 5.90888C100.063 5.52092 99.8318 5.34907 99.3675 5.34907H98.6185V7.31578H98.9162V6.46348ZM99.2772 8.03789C100.207 8.03789 101 7.31578 101 6.32808C101 5.34906 100.207 4.62695 99.2772 4.62695C98.339 4.62695 97.5449 5.34906 97.5449 6.32808C97.5449 7.31578 98.339 8.03789 99.2772 8.03789ZM97.8877 6.32808C97.8877 5.52091 98.497 4.91163 99.2772 4.91163C100.049 4.91163 100.657 5.52091 100.657 6.32808C100.657 7.14914 100.049 7.75408 99.2772 7.75408C98.497 7.75408 97.8877 7.14914 97.8877 6.32808Z" fill="#83889E" />
            </g>
            <defs>
                <clipPath id="clip0_19650_4062">
                    <rect width="101" height="32" fill="white" />
                </clipPath>
            </defs>
</svg>
