<?xml version="1.0" encoding="UTF-8"?>
<svg id="Layer_1" xmlns="http://www.w3.org/2000/svg" version="1.1" viewBox="0 0 112 32">
  <!-- Generator: Adobe Illustrator 30.1.0, SVG Export Plug-In . SVG Version: 2.1.1 Build 136)  -->
  <defs>
    <style>
      .st0 {
        fill: #83889e;
      }
    </style>
  </defs>
  <g>
    <path class="st0" d="M66,6.6l3.2-3.6c.2-.3.6-.3.9-.1s.2.7,0,1l-3,3.5-1.8,2c-1.8,2.1-3.5,4.2-5.2,6.4l-2.5,3.3-1,1.4-1.4,1.9-1.1,1.6c-.6.9-1.2,1.9-1.5,2.9.2.3.3.7.1.9s-.5.3-.8.2c-2.2-1,4-8.5,4.7-9.8-2,1.5-6.5,5.4-8.8,4.4-.8-.3-1.2-1-1-1.9-1.6.8-6,2.5-7.3,1.1s-.3-1.7.2-2.3.7-1,1.1-1.6c-2.5.2-6.7,2.1-8.6,3.5s-1,1.5-1.7,1,.6-1.3.4-1.6c-2.3,1.1-6.4,2.8-8.7,1.9s-1.4-1.5-1.1-2.6l-3.1,1.3c-1.9.8-6.1,2-7.8.2s-.6-1-.8-1.7c-2,1.4-3.5,3.1-4.9,5s-.5.3-.8.2-.3-.6-.2-.8l1.2-1.8c4.1-6.4,8.9-12.3,14.2-17.9l2.4-2.5c.2-.2.6-.3.9,0s.2.6,0,.8l-2.1,2.2-.7.8-1.7,1.8c-3.2,3.4-6.1,7.1-8.9,11.1,1.9-1,3.5-1.9,5.4-2.5.8-.2,2.6-.7,3.2-.2s.3.6.2.8c-1,2-4.4,2.9-6.6,3.1.8,3.4,7.6,0,9.4-.8s1.4-.6,1.9-1c1.2-1.1,2.3-2.1,4-2.4s1.5-.1,2,.4.1,1.2-.3,1.6c-1.4,1.1-3.4,2.2-5.2,1.9-.4.4-.6,1.3-.2,1.8,1.2,1.5,6.6-.8,7.9-1.6l3.1-1.7c.5-.3.8-.7,1.2-1.1s.6-.2.8,0c.7.6-.6,1.3-.5,1.7,1.2-.5,6.8-2.7,7.4-1.3s0,.8-.2,1.1-2,2.3-1.7,2.6.4.2.5.2c3.2-.2,6-1.8,8.7-3.5s4.7-1.6,6.7-.8l2.9-2.7c.6-.6,1.2-1.2,1.8-1.8l1.4-1.5,3.6-4.3ZM26.9,17c-1.4,0-2.6.8-3.4,1.7.4.4,3.4-1.3,3.4-1.7ZM15.7,17.5c0,0,.1-.3,0-.3h-.2c-1.2.4-2.5.9-3.6,1.7,1.4,0,2.7-.7,3.8-1.4ZM49.2,21.6c1.7-.5,3.1-1.4,4.4-2.5l1.6-1.2c-2.1-1-7.1,1.2-7.2,3.2s.7.6,1.2.5Z"/>
    <path class="st0" d="M89.6,21c-.5,3,11.6-.5,13-1l2.5-.8c.8-.3,1.6-.5,2.4-.9s.7,0,.8.2c.2.4,0,.7-.4.9-4.9,2-11.2,3.7-16.6,3.9s-1.6-.3-2.1-.6-.8-1.3-.8-2.1c-2.1.7-4.5,2.1-6.6,1.2s-.8-.7-.9-1,0-1,0-1.6l-1,.5-4.2,2.1c-.2,0-.6,0-.7,0-.6-.5.7-2.7.9-3.4-2.4.8-5.4,3.3-7.4,4.3s-.5-.1-.6-.2c-.4-.6.5-1.1.6-1.9-1.9.9-3.5,1.7-5.5,2.1s-1.2.1-1.8.1c-.9,0-1.8-.8-1.6-1.7s1-2,1.8-2.7,1.8-1.6,2.8-2.4.6-.1.8,0,.3.6,0,.8c-1,.8-4.4,3.5-4.3,4.7,1.3,1,5.4-1,6.8-1.7l2.6-1.4.9-1.4c.2-.3.5-.3.8-.2s.3.5.1.8l-1.6,2.5c.8-.3,1.4-.8,2.1-1.2s4.3-2.6,4.9-2.1.2.6.2.8l-1.1,2.6,5.4-2.8c.1,0,.5,0,.6,0s.3.4.2.5l-.6,1.8c-.1.3-.1.7,0,.9.7.9,2.8,0,3.8-.3s2-.8,3.1-1.3.7-.8,1-1.1c1.3-1.1,3.1-2.3,4.8-1.9s.8.4.8.7c.3,1.4-3,2.8-4.1,3.1s-1.1,0-1.6,0c-.2.4-.3.8-.4,1.1ZM94.3,17.1c-.8-.5-3.2,1.1-3.3,1.7,1.4-.2,2.4-.9,3.3-1.7Z"/>
    <path class="st0" d="M68.9,13.2c-.5.5-2,1.9-2.3.9s0-.6.3-.8l1.2-.9c.1-.1.5,0,.6,0s.3.6.2.8Z"/>
  </g>
  <g>
    <path class="st0" d="M57.9,27.3h.5v2.5h-.5v-2.5Z"/>
    <path class="st0" d="M62.8,28.1c0,0,0-.1,0-.2,0,0,0,0-.2-.1,0,0-.2,0-.3,0-.1,0-.2,0-.4,0s-.2,0-.2,0c0,0-.1,0-.2,0,0,0-.1,0-.1,0,0,0,0,0,0,.1s0,0,0,0c0,0,0,0,0,0,0,0,0,0,.2,0,0,0,.2,0,.3,0h.6c.1.1.3.1.4.2.1,0,.2,0,.3.1,0,0,.1.1.2.2,0,0,0,.2,0,.3,0,.1,0,.3,0,.4,0,.1-.2.2-.3.2-.1,0-.2.1-.4.1-.1,0-.3,0-.5,0-.3,0-.5,0-.7,0-.2,0-.3-.1-.4-.2s-.2-.2-.2-.2c0,0,0-.1,0-.2h.5c0-.1,0,0,0,0,0,0,0,0,.2.1,0,0,.2,0,.3.1s.2,0,.4,0,.2,0,.3,0c0,0,.2,0,.2,0,0,0,.1,0,.2-.1,0,0,0,0,0-.1,0-.2-.2-.3-.5-.3h-.6c-.3-.1-.5-.2-.7-.3s-.2-.3-.2-.5,0-.2,0-.3.1-.2.2-.2.2,0,.2-.1c0,0,.2,0,.3,0,0,0,.2,0,.2,0,0,0,.1,0,.2,0,.3,0,.5,0,.6,0,.2,0,.3.1.4.2,0,0,.2.1.2.2,0,0,0,.1,0,.2h-.5Z"/>
    <path class="st0" d="M66.5,27.7h-1.1v-.4h2.7v.4h-1.1v2.1h-.5v-2.1Z"/>
    <path class="st0" d="M70.9,27.3h.6l1.2,2.5h-.5l-.3-.6h-1.4l-.3.6h-.5l1.2-2.5ZM71.6,28.8l-.5-1.1-.5,1.1h1Z"/>
    <path class="st0" d="M74.8,27.3h.5l1.7,1.8v-1.8h.5v2.5h-.4l-1.7-1.8v1.8h-.5v-2.5Z"/>
    <path class="st0" d="M79.9,27.3h1.5c.1,0,.3,0,.4,0s.2,0,.3.1c0,0,.2.1.2.2,0,0,0,.2,0,.3s0,.1,0,.2c0,0,0,.1,0,.1s0,0,0,.1c0,0,0,0-.1,0,0,0,0,0,.1,0,0,0,0,0,.1.1,0,0,0,.1,0,.2s0,.1,0,.2c0,.2,0,.4-.3.5-.2.1-.4.2-.7.2h-1.6v-2.5ZM81.5,28.3c.2,0,.3,0,.3,0,0,0,.1-.1.1-.2s0-.2-.1-.2c0,0-.2,0-.3,0h-1v.6h1ZM81.5,29.4c0,0,.1,0,.2,0,0,0,.1,0,.2,0,0,0,0,0,.1-.1,0,0,0-.1,0-.2,0-.1,0-.2-.1-.3,0,0-.2,0-.4,0h-1.1v.7h1.1Z"/>
    <path class="st0" d="M87.5,28.7c0,.2,0,.4,0,.5,0,.1-.1.3-.3.3-.1,0-.3.2-.4.2-.2,0-.3,0-.5,0s-.4,0-.5,0c-.2,0-.3-.1-.4-.2-.1,0-.2-.2-.3-.3s0-.3,0-.5v-1.4h.5v1.4c0,.1,0,.2,0,.3,0,0,0,.2.1.2,0,0,.1.1.3.2.1,0,.2,0,.4,0s.3,0,.4,0c.1,0,.2,0,.3-.2,0,0,.1-.1.1-.2s0-.2,0-.3v-1.4h.5v1.4Z"/>
    <path class="st0" d="M90,27.3h.5v2h1.8v.4h-2.3v-2.5Z"/>
  </g>
</svg>