<?xml version="1.0" encoding="UTF-8"?>
<svg id="Layer_1" xmlns="http://www.w3.org/2000/svg" version="1.1" viewBox="0 0 125.7 32">
  <!-- Generator: Adobe Illustrator 30.1.0, SVG Export Plug-In . SVG Version: 2.1.1 Build 136)  -->
  <defs>
    <style>
      .st0 {
        fill: #83889e;
      }
    </style>
  </defs>
  <g>
    <path class="st0" d="M2.7,19V3.1h2.6s0,7.9,0,7.9l2.8-3.3c2.2-2.6,5-4.6,8.4-4.5v3.1c-3.1-.4-6.4-.2-8.3,2.4l8.7,10.3h-3.5s-6.9-8.2-6.9-8.2l-1.2,1.4v6.7s-2.6,0-2.6,0Z"/>
    <path class="st0" d="M29.6,2.5c0,0,.4.1.6.1,4.1.4,7.1,3.8,7.2,7.9s-2.5,7.9-6.9,8.9h-2.5c-4.2-.8-7-4.1-7-8.5s3.3-8,7.8-8.5h.9ZM32.7,16.9c2.7-3.2,2.6-8.9-.2-11.9s-2.7-1.9-4.3-1.5c-4.4,1.1-6.1,8.1-3.1,12.7s2.2,2.3,3.8,2.5,2.9-.6,3.9-1.8Z"/>
    <path class="st0" d="M123.1,16.1v2.9c-4.1-.3-7.6-2.6-9.3-6.6v6.5s-2.3,0-2.3,0V3.1s6.3,0,6.3,0c1.5,0,2.8.6,3.7,1.6,1.3,1.7,1.4,4.1,0,5.8s-2.3,1.6-3.7,1.6h-3.2c1.5,3.4,5.5,3.8,8.5,3.9ZM120,7.5c0-1.9-1.3-3.4-3.2-3.5s-2,0-3,0v7.5c1.1,0,2.2,0,3.3,0,1.9-.2,3-2,2.9-3.9Z"/>
    <path class="st0" d="M84.4,19.4h-2.7s-.2-.2-.3-.2c-3.1-.4-4.5-3.2-4.5-6.1V3.1s2.6,0,2.6,0v9.7c0,1,.2,2,.5,2.9.6,1.7,2.1,2.5,3.9,2.4,3.3-.1,4.5-2.6,4.5-5.6V3.1s1.2,0,1.2,0v10.2c0,1.3-.5,2.5-1.1,3.6s-2.4,2.1-4,2.5Z"/>
    <path class="st0" d="M54,9.7v9.2c-.3,0-.7,0-1.1,0l-10-13.1v13.1c-.3,0-.6,0-1,0V3.1s2.1,0,2.1,0l8.9,11.6V3.2c.2-.2.6-.2,1,0v6.6Z"/>
    <path class="st0" d="M102.6,13.5h-5.8s-1.9,5.4-1.9,5.4c-.4,0-.8,0-1.1,0l5.6-15.8h2.4s5.7,15.8,5.7,15.8h-2.8s-2-5.4-2-5.4ZM102.1,12.2l-2.5-6.8-2.5,6.9h5Z"/>
    <path class="st0" d="M66.7,18.9h-2.6s0-15,0-15h-5.5s0-.9,0-.9h13.6c0,.3,0,.7,0,.9h-5.4s0,15,0,15Z"/>
  </g>
  <g>
    <path class="st0" d="M48.5,29.3c.3,0,.5,0,.6-.2,0-.1.1-.3.1-.7v-3.8c0-.3,0-.5-.1-.6,0,0-.3-.2-.6-.2v-.2h2.3c.7,0,1.3.1,1.7.4.4.3.6.7.6,1.1s-.2,1-.7,1.3-1,.4-1.7.4-.2,0-.4,0c-.1,0-.3,0-.3,0v1.6c0,.3,0,.5.2.6.1,0,.3.1.7.2v.2h-2.5v-.2ZM51.5,24.1c-.3-.1-.6-.2-1-.2s-.3,0-.3,0c0,0,0,.1,0,.2v2.3c.2,0,.3,0,.3,0,0,0,0,0,.1,0,.4,0,.7,0,1-.2.4-.2.6-.6.6-1.2s-.2-.9-.7-1.1Z"/>
    <path class="st0" d="M55.5,29.3c.3,0,.5,0,.6-.2,0,0,.1-.3.1-.6v-3.9c0-.3,0-.5-.1-.6,0,0-.3-.2-.6-.2v-.2h4.7v1.3s-.2,0-.2,0c0-.4-.2-.6-.3-.8-.1-.1-.5-.2-1-.2h-1.2c-.1,0-.2,0-.2,0,0,0,0,.1,0,.2v2h1.4c.4,0,.6,0,.7-.2.1-.1.2-.3.3-.7h.2v2h-.2c0-.3-.2-.6-.3-.7-.1-.1-.3-.2-.7-.2h-1.4v2.2c0,.2,0,.3.2.3.1,0,.4,0,1,0s1,0,1.3-.2c.3-.1.5-.4.8-1h.2l-.4,1.5h-4.8v-.2Z"/>
    <path class="st0" d="M63.1,29.3c.3,0,.6,0,.6-.2,0-.1.1-.3.1-.7v-3.8c0-.3,0-.5-.1-.6,0,0-.3-.2-.6-.2v-.2h2.5c.5,0,.9,0,1.3.2.6.2,1,.7,1,1.4s-.1.8-.4,1-.7.4-1.2.5l1.8,2.2c.1.1.2.2.3.3.1,0,.3.1.4.1v.2h-1.4l-2.2-2.7h-.4v1.8c0,.3,0,.5.1.6,0,0,.3.1.7.2v.2h-2.5v-.2ZM66.1,26.3c.5-.2.7-.6.7-1.1s-.2-.9-.6-1c-.2-.1-.5-.2-.9-.2s-.4,0-.5,0c0,0,0,.1,0,.3v2.2c.6,0,1.1,0,1.4-.2Z"/>
    <path class="st0" d="M71.1,29.5v-.2c.2,0,.4-.1.5-.3s.3-.5.6-1.2l1.8-4.3h.2l2.2,5c.1.3.3.5.4.6,0,0,.2.1.4.2v.2h-2.3v-.2c.3,0,.4,0,.5,0,0,0,.1-.1.1-.2s0-.1,0-.2c0-.1,0-.2-.1-.3l-.4-.9h-2.3c-.2.6-.4.9-.4,1.1,0,.1,0,.2,0,.3,0,.1,0,.3.2.3,0,0,.2,0,.4,0v.2h-1.8ZM74.9,27.2l-1-2.4-1,2.4h2Z"/>
  </g>
</svg>