<?xml version="1.0" encoding="UTF-8"?>
<svg id="Layer_1" xmlns="http://www.w3.org/2000/svg" version="1.1" viewBox="0 0 64 32">
  <!-- Generator: Adobe Illustrator 30.1.0, SVG Export Plug-In . SVG Version: 2.1.1 Build 136)  -->
  <defs>
    <style>
      .st0 {
        fill: #83889e;
      }
    </style>
  </defs>
  <g>
    <path class="st0" d="M1.6,24.6v-1.6c.5-3.2,2.7-5.8,6.1-6.3s4.9.2,6.7,2.1l-2,2.2c-.8-.7-1.5-1.2-2.5-1.4-2-.5-3.9.4-4.7,2.2s-.6,2.8,0,4.1,2.7,2.6,4.5,2.2c1-.2,1.8-.8,2.6-1.5l2,2c-1.2,1.4-2.9,2.3-4.7,2.5-4.3.4-7.5-2.2-8.1-6.3Z"/>
    <polygon class="st0" points="27.2 30.7 24.2 30.7 24.2 25.1 18.6 25.1 18.6 30.7 15.5 30.7 15.5 16.8 18.6 16.8 18.6 22.3 24.2 22.3 24.2 16.8 27.2 16.8 27.2 30.7"/>
    <polygon class="st0" points="38.6 25.1 32 25.1 32 27.9 39.6 28 39.6 30.7 29 30.7 29 16.8 39.5 16.8 39.5 19.5 32 19.6 32 22.3 38.6 22.3 38.6 25.1"/>
    <path class="st0" d="M61.2,29.5c-1.1,1.1-3,1.5-4.5,1.4s-3.8-.9-5.4-2.2l1.8-2.2c.9.7,1.8,1.3,2.8,1.5,1,.3,3.2.3,3.3-1.1s-.3-1-.8-1.2c-2.5-1.2-6.5-.9-6.6-4.7s.7-3.2,2.3-3.9,1.9-.6,2.9-.5c1.8,0,3.4.6,4.8,1.8l-1.6,2.3c-.8-.5-1.6-.9-2.4-1.2-1-.3-2.9-.3-3,1s3,1.5,5.3,2.7,1.3.8,1.6,1.5c.8,1.6.5,3.6-.7,4.8Z"/>
    <polygon class="st0" points="50.5 22.5 50.5 25.3 43.9 25.3 43.9 30.7 40.8 30.7 40.8 16.8 51.4 16.8 51.4 19.6 43.9 19.6 43.9 22.5 50.5 22.5"/>
  </g>
  <g>
    <path class="st0" d="M11.8,7.9c1.7.7,2.5,1.5,2.5,3.4s-.7,2.7-2.1,3.3c-.9.4-1.9.6-2.9.6H2.5s0-13.9,0-13.9h6.6c.9,0,1.8.2,2.6.6,1.2.6,1.9,1.7,1.9,3.1s-.6,2.3-1.8,3ZM10.1,6.4c.6-.5.6-1.4,0-1.9s-.8-.5-1.3-.5h-3.3s0,2.9,0,2.9h3.1c.5,0,1-.2,1.4-.5ZM10.9,12c.5-.6.5-1.5,0-2-.4-.3-.9-.4-1.4-.5h-3.9s0,3,0,3h3.9c.5,0,1-.2,1.5-.5Z"/>
    <path class="st0" d="M30.2,11.8v-2s-3.1,0-3.1,0v-2.6s6,0,6,0v6c-2.2,1.9-5.2,2.6-8,1.9-3-.7-4.9-3.2-5.2-6.2s2.3-7.3,6.2-7.8,4.8.2,6.5,1.9l-1.9,2.3c-1.2-1.1-2.8-1.7-4.4-1.3-2.6.5-3.9,3.7-2.8,6.3s4.4,3,6.6,1.6Z"/>
    <rect class="st0" x="15.5" y="1.3" width="3.1" height="13.9"/>
  </g>
</svg>